<svg width="14" height="14" viewBox="0 0 14 14" fill="none" xmlns="http://www.w3.org/2000/svg">
<path d="M10.0643 6.8006C10.0643 6.88433 10.0485 6.96744 10.0175 7.04474C9.98644 7.12189 9.94127 7.1922 9.88367 7.25079L4.39734 12.826C4.28768 12.9375 4.14043 13.0008 3.98621 13.0008C3.83211 13.0007 3.68563 12.9374 3.57605 12.826L3.5741 12.825L3.56824 12.8182C3.51506 12.7638 3.47295 12.6991 3.44421 12.6277C3.41522 12.5557 3.40033 12.4782 3.40027 12.4002C3.40027 12.322 3.41516 12.2439 3.44421 12.1717C3.47327 12.0996 3.51619 12.034 3.57019 11.9793L8.66785 6.8006L3.57019 1.62189C3.51618 1.56716 3.47327 1.50162 3.44421 1.4295C3.41522 1.35747 3.40033 1.27998 3.40027 1.20197C3.40027 1.12378 3.41516 1.04563 3.44421 0.973449C3.47295 0.902121 3.51506 0.837382 3.56824 0.78302L3.5741 0.776184L3.57605 0.775207C3.68562 0.663819 3.83212 0.600487 3.98621 0.600403C4.14044 0.600403 4.28768 0.663706 4.39734 0.775207L9.88367 6.3504C9.94127 6.409 9.98644 6.47931 10.0175 6.55646C10.0485 6.63376 10.0643 6.71687 10.0643 6.8006Z" fill="#8C8C8C" stroke="#8C8C8C" stroke-width="0.2"/>
</svg>
