<svg width="20" height="20" viewBox="0 0 20 20" fill="none" xmlns="http://www.w3.org/2000/svg">
<path d="M12.857 10.7143C16.4075 10.7143 19.2856 9.4351 19.2856 7.85714C19.2856 6.27919 16.4075 5 12.857 5C9.30664 5 6.42847 6.27919 6.42847 7.85714C6.42847 9.4351 9.30664 10.7143 12.857 10.7143Z" stroke="#404040" stroke-width="1.6" stroke-linecap="round" stroke-linejoin="round"/>
<path d="M6.42847 7.85718V16.4286C6.42847 18 9.28561 19.2857 12.857 19.2857C16.4285 19.2857 19.2856 18 19.2856 16.4286V7.85718" stroke="#404040" stroke-width="1.6" stroke-linecap="round" stroke-linejoin="round"/>
<path d="M19.2856 12.1429C19.2856 13.7143 16.4285 15 12.857 15C9.28561 15 6.42847 13.7143 6.42847 12.1429" stroke="#404040" stroke-width="1.6" stroke-linecap="round" stroke-linejoin="round"/>
<path d="M12.7142 2.15541C11.0449 1.12523 9.10185 0.626998 7.1428 0.726832C3.58566 0.726832 0.714233 2.01255 0.714233 3.58398C0.714233 4.42684 1.5428 5.18398 2.85709 5.72684" stroke="#404040" stroke-width="1.6" stroke-linecap="round" stroke-linejoin="round"/>
<path d="M2.85709 14.2983C1.5428 13.7554 0.714233 12.9983 0.714233 12.1554V3.58398" stroke="#404040" stroke-width="1.6" stroke-linecap="round" stroke-linejoin="round"/>
<path d="M2.85709 10.0125C1.5428 9.46969 0.714233 8.71255 0.714233 7.86969" stroke="#404040" stroke-width="1.6" stroke-linecap="round" stroke-linejoin="round"/>
</svg>
