<svg width="233" height="198" viewBox="0 0 233 198" fill="none" xmlns="http://www.w3.org/2000/svg">
<path d="M116.365 195.451L154.5 190.451L116.635 185.451L78.5 190.451L116.365 195.451Z" fill="#FFA000" stroke="#FFA000" stroke-width="5" stroke-linejoin="round"/>
<path d="M116.365 59.4507L154.5 54.4507L116.635 49.4507L78.5 54.4507L116.365 59.4507Z" fill="#FFA000" stroke="#FFA000" stroke-width="5" stroke-linejoin="round"/>
<path d="M192.365 127.451L230.5 122.451L192.635 117.451L154.5 122.451L192.365 127.451Z" fill="#FFA000" stroke="#FFA000" stroke-width="5" stroke-linejoin="round"/>
<path d="M40.3647 127.451L78.5 122.451L40.6353 117.451L2.5 122.451L40.3647 127.451Z" fill="#FFA000" stroke="#FFA000" stroke-width="5" stroke-linejoin="round"/>
<path d="M154.5 143.58L116.5 138.5V185.77L154.5 190.451V143.58Z" stroke="#FFA000" stroke-width="5" stroke-linecap="round" stroke-linejoin="round"/>
<path d="M154.5 7.57972L116.5 2.50002V49.7702L154.5 54.4507V7.57972Z" stroke="#FFA000" stroke-width="5" stroke-linecap="round" stroke-linejoin="round"/>
<path d="M230.5 75.5797L192.5 70.5V117.77L230.5 122.451V75.5797Z" stroke="#FFA000" stroke-width="5" stroke-linecap="round" stroke-linejoin="round"/>
<path d="M78.4999 75.5797L40.5 70.5V117.77L78.4999 122.451V75.5797Z" stroke="#FFA000" stroke-width="5" stroke-linecap="round" stroke-linejoin="round"/>
<path d="M78.4999 143.5L116.5 138.5V185.451L78.4999 190.451V143.5Z" stroke="#FFA000" stroke-width="5" stroke-linecap="round" stroke-linejoin="round"/>
<path d="M78.4999 7.50002L116.5 2.50002V49.4507L78.4999 54.4507V7.50002Z" stroke="#FFA000" stroke-width="5" stroke-linecap="round" stroke-linejoin="round"/>
<path d="M154.5 75.5L192.5 70.5V117.451L154.5 122.451V75.5Z" stroke="#FFA000" stroke-width="5" stroke-linecap="round" stroke-linejoin="round"/>
<path d="M2.49989 75.5L40.5 70.5V117.451L2.49989 122.451V75.5Z" stroke="#FFA000" stroke-width="5" stroke-linecap="round" stroke-linejoin="round"/>
</svg>
