<svg width="233" height="209" viewBox="0 0 233 209" fill="none" xmlns="http://www.w3.org/2000/svg">
<path d="M116.365 2.5L154.5 12.5L116.635 22.5L78.5 12.5L116.365 2.5Z" fill="#FFA000" stroke="#FFA000" stroke-width="5" stroke-linejoin="round"/>
<path d="M116.365 138.5L154.5 148.5L116.635 158.5L78.5 148.5L116.365 138.5Z" fill="#FFA000" stroke="#FFA000" stroke-width="5" stroke-linejoin="round"/>
<path d="M192.365 70.5L230.5 80.5L192.635 90.5L154.5 80.5L192.365 70.5Z" fill="#FFA000" stroke="#FFA000" stroke-width="5" stroke-linejoin="round"/>
<path d="M40.3647 70.5L78.5 80.5L40.6353 90.5L2.5 80.5L40.3647 70.5Z" fill="#FFA000" stroke="#FFA000" stroke-width="5" stroke-linejoin="round"/>
<path d="M154.5 59.371L116.5 69.7702V22.5L154.5 12.5V59.371Z" stroke="#FFA000" stroke-width="5" stroke-linecap="round" stroke-linejoin="round"/>
<path d="M154.5 195.371L116.5 205.77V158.5L154.5 148.5V195.371Z" stroke="#FFA000" stroke-width="5" stroke-linecap="round" stroke-linejoin="round"/>
<path d="M230.5 127.371L192.5 137.77V90.5L230.5 80.5V127.371Z" stroke="#FFA000" stroke-width="5" stroke-linecap="round" stroke-linejoin="round"/>
<path d="M78.4999 127.371L40.5 137.77V90.5L78.4999 80.5V127.371Z" stroke="#FFA000" stroke-width="5" stroke-linecap="round" stroke-linejoin="round"/>
<path d="M78.4999 59.4507L116.5 69.7702V22.8196L78.4999 12.5V59.4507Z" stroke="#FFA000" stroke-width="5" stroke-linecap="round" stroke-linejoin="round"/>
<path d="M78.4999 195.451L116.5 205.77V158.82L78.4999 148.5V195.451Z" stroke="#FFA000" stroke-width="5" stroke-linecap="round" stroke-linejoin="round"/>
<path d="M154.5 127.451L192.5 137.77V90.8196L154.5 80.5V127.451Z" stroke="#FFA000" stroke-width="5" stroke-linecap="round" stroke-linejoin="round"/>
<path d="M2.49993 127.451L40.5 137.77V90.8196L2.49993 80.5V127.451Z" stroke="#FFA000" stroke-width="5" stroke-linecap="round" stroke-linejoin="round"/>
</svg>
