<svg width="233" height="198" viewBox="0 0 233 198" fill="none" xmlns="http://www.w3.org/2000/svg">
<path d="M116.365 2.5L154.5 7.5L116.635 12.5L78.5 7.5L116.365 2.5Z" fill="#FFA000" stroke="#FFA000" stroke-width="5" stroke-linejoin="round"/>
<path d="M116.365 138.5L154.5 143.5L116.635 148.5L78.5 143.5L116.365 138.5Z" fill="#FFA000" stroke="#FFA000" stroke-width="5" stroke-linejoin="round"/>
<path d="M192.365 70.5L230.5 75.5L192.635 80.5L154.5 75.5L192.365 70.5Z" fill="#FFA000" stroke="#FFA000" stroke-width="5" stroke-linejoin="round"/>
<path d="M40.3647 70.5L78.5 75.5L40.6353 80.5L2.5 75.5L40.3647 70.5Z" fill="#FFA000" stroke="#FFA000" stroke-width="5" stroke-linejoin="round"/>
<path d="M154.5 54.371L116.5 59.4507V12.1804L154.5 7.5V54.371Z" stroke="#FFA000" stroke-width="5" stroke-linecap="round" stroke-linejoin="round"/>
<path d="M154.5 190.371L116.5 195.451V148.18L154.5 143.5V190.371Z" stroke="#FFA000" stroke-width="5" stroke-linecap="round" stroke-linejoin="round"/>
<path d="M230.5 122.371L192.5 127.451V80.1804L230.5 75.5V122.371Z" stroke="#FFA000" stroke-width="5" stroke-linecap="round" stroke-linejoin="round"/>
<path d="M78.4999 122.371L40.5 127.451V80.1804L78.4999 75.5V122.371Z" stroke="#FFA000" stroke-width="5" stroke-linecap="round" stroke-linejoin="round"/>
<path d="M78.4999 54.4507L116.5 59.4507V12.5L78.4999 7.5V54.4507Z" stroke="#FFA000" stroke-width="5" stroke-linecap="round" stroke-linejoin="round"/>
<path d="M78.4999 190.451L116.5 195.451V148.5L78.4999 143.5V190.451Z" stroke="#FFA000" stroke-width="5" stroke-linecap="round" stroke-linejoin="round"/>
<path d="M154.5 122.451L192.5 127.451V80.5L154.5 75.5V122.451Z" stroke="#FFA000" stroke-width="5" stroke-linecap="round" stroke-linejoin="round"/>
<path d="M2.49989 122.451L40.5 127.451V80.5L2.49989 75.5V122.451Z" stroke="#FFA000" stroke-width="5" stroke-linecap="round" stroke-linejoin="round"/>
</svg>
