<svg width="233" height="217" viewBox="0 0 233 217" fill="none" xmlns="http://www.w3.org/2000/svg">
<path d="M116.365 2.5L154.5 17.5L116.635 32.5L78.5 17.5L116.365 2.5Z" fill="#FFA000" stroke="#FFA000" stroke-width="5" stroke-linejoin="round"/>
<path d="M116.365 137.5L154.5 152.5L116.635 167.5L78.5 152.5L116.365 137.5Z" fill="#FFA000" stroke="#FFA000" stroke-width="5" stroke-linejoin="round"/>
<path d="M192.365 70.5L230.5 85.5L192.635 100.5L154.5 85.5L192.365 70.5Z" fill="#FFA000" stroke="#FFA000" stroke-width="5" stroke-linejoin="round"/>
<path d="M40.3647 70.5L78.5 85.5L40.6353 100.5L2.5 85.5L40.3647 70.5Z" fill="#FFA000" stroke="#FFA000" stroke-width="5" stroke-linejoin="round"/>
<path d="M154.5 64.371L116.5 79.2702V32L154.5 17.5V64.371Z" stroke="#FFA000" stroke-width="5" stroke-linecap="round" stroke-linejoin="round"/>
<path d="M154.5 199.371L116.5 214.27V167L154.5 152.5V199.371Z" stroke="#FFA000" stroke-width="5" stroke-linecap="round" stroke-linejoin="round"/>
<path d="M230.5 132.371L192.5 147.27V100L230.5 85.5V132.371Z" stroke="#FFA000" stroke-width="5" stroke-linecap="round" stroke-linejoin="round"/>
<path d="M78.4998 132.371L40.5 147.27V100L78.4998 85.5V132.371Z" stroke="#FFA000" stroke-width="5" stroke-linecap="round" stroke-linejoin="round"/>
<path d="M78.4998 64.4507L116.5 79.2702V32.3196L78.4998 17.5V64.4507Z" stroke="#FFA000" stroke-width="5" stroke-linecap="round" stroke-linejoin="round"/>
<path d="M78.4998 199.451L116.5 214.27V167.32L78.4998 152.5V199.451Z" stroke="#FFA000" stroke-width="5" stroke-linecap="round" stroke-linejoin="round"/>
<path d="M154.5 132.451L192.5 147.27V100.32L154.5 85.5V132.451Z" stroke="#FFA000" stroke-width="5" stroke-linecap="round" stroke-linejoin="round"/>
<path d="M2.49977 132.451L40.5 147.27V100.32L2.49977 85.5V132.451Z" stroke="#FFA000" stroke-width="5" stroke-linecap="round" stroke-linejoin="round"/>
</svg>
