<svg width="233" height="217" viewBox="0 0 233 217" fill="none" xmlns="http://www.w3.org/2000/svg">
<path d="M116.365 214.27L154.5 199.27L116.635 184.27L78.5 199.27L116.365 214.27Z" fill="#FFA000" stroke="#FFA000" stroke-width="5" stroke-linejoin="round"/>
<path d="M116.365 79.27L154.5 64.27L116.635 49.27L78.5 64.27L116.365 79.27Z" fill="#FFA000" stroke="#FFA000" stroke-width="5" stroke-linejoin="round"/>
<path d="M192.365 146.27L230.5 131.27L192.635 116.27L154.5 131.27L192.365 146.27Z" fill="#FFA000" stroke="#FFA000" stroke-width="5" stroke-linejoin="round"/>
<path d="M40.3647 146.27L78.5 131.27L40.6353 116.27L2.5 131.27L40.3647 146.27Z" fill="#FFA000" stroke="#FFA000" stroke-width="5" stroke-linejoin="round"/>
<path d="M154.5 152.399L116.5 137.5V184.77L154.5 199.27V152.399Z" stroke="#FFA000" stroke-width="5" stroke-linecap="round" stroke-linejoin="round"/>
<path d="M154.5 17.3991L116.5 2.4998V49.77L154.5 64.27V17.3991Z" stroke="#FFA000" stroke-width="5" stroke-linecap="round" stroke-linejoin="round"/>
<path d="M230.5 84.3991L192.5 69.4998V116.77L230.5 131.27V84.3991Z" stroke="#FFA000" stroke-width="5" stroke-linecap="round" stroke-linejoin="round"/>
<path d="M78.4998 84.3991L40.5 69.4998V116.77L78.4998 131.27V84.3991Z" stroke="#FFA000" stroke-width="5" stroke-linecap="round" stroke-linejoin="round"/>
<path d="M78.4998 152.319L116.5 137.5V184.45L78.4998 199.27V152.319Z" stroke="#FFA000" stroke-width="5" stroke-linecap="round" stroke-linejoin="round"/>
<path d="M78.4998 17.3194L116.5 2.4998V49.4505L78.4998 64.27V17.3194Z" stroke="#FFA000" stroke-width="5" stroke-linecap="round" stroke-linejoin="round"/>
<path d="M154.5 84.3194L192.5 69.4998V116.45L154.5 131.27V84.3194Z" stroke="#FFA000" stroke-width="5" stroke-linecap="round" stroke-linejoin="round"/>
<path d="M2.49977 84.3194L40.5 69.4998V116.45L2.49977 131.27V84.3194Z" stroke="#FFA000" stroke-width="5" stroke-linecap="round" stroke-linejoin="round"/>
</svg>
