<svg width="233" height="209" viewBox="0 0 233 209" fill="none" xmlns="http://www.w3.org/2000/svg">
<path d="M116.365 205.77L154.5 195.77L116.635 185.77L78.5 195.77L116.365 205.77Z" fill="#FFA000" stroke="#FFA000" stroke-width="5" stroke-linejoin="round"/>
<path d="M116.365 69.77L154.5 59.77L116.635 49.77L78.5 59.77L116.365 69.77Z" fill="#FFA000" stroke="#FFA000" stroke-width="5" stroke-linejoin="round"/>
<path d="M192.365 137.77L230.5 127.77L192.635 117.77L154.5 127.77L192.365 137.77Z" fill="#FFA000" stroke="#FFA000" stroke-width="5" stroke-linejoin="round"/>
<path d="M40.3647 137.77L78.5 127.77L40.6353 117.77L2.5 127.77L40.3647 137.77Z" fill="#FFA000" stroke="#FFA000" stroke-width="5" stroke-linejoin="round"/>
<path d="M154.5 148.899L116.5 138.5V185.77L154.5 195.77V148.899Z" stroke="#FFA000" stroke-width="5" stroke-linecap="round" stroke-linejoin="round"/>
<path d="M154.5 12.8991L116.5 2.4998V49.77L154.5 59.77V12.8991Z" stroke="#FFA000" stroke-width="5" stroke-linecap="round" stroke-linejoin="round"/>
<path d="M230.5 80.8991L192.5 70.4998V117.77L230.5 127.77V80.8991Z" stroke="#FFA000" stroke-width="5" stroke-linecap="round" stroke-linejoin="round"/>
<path d="M78.4999 80.8991L40.5 70.4998V117.77L78.4999 127.77V80.8991Z" stroke="#FFA000" stroke-width="5" stroke-linecap="round" stroke-linejoin="round"/>
<path d="M78.4999 148.819L116.5 138.5V185.45L78.4999 195.77V148.819Z" stroke="#FFA000" stroke-width="5" stroke-linecap="round" stroke-linejoin="round"/>
<path d="M78.4999 12.8194L116.5 2.4998V49.4505L78.4999 59.77V12.8194Z" stroke="#FFA000" stroke-width="5" stroke-linecap="round" stroke-linejoin="round"/>
<path d="M154.5 80.8194L192.5 70.4998V117.45L154.5 127.77V80.8194Z" stroke="#FFA000" stroke-width="5" stroke-linecap="round" stroke-linejoin="round"/>
<path d="M2.49993 80.8194L40.5 70.4998V117.45L2.49993 127.77V80.8194Z" stroke="#FFA000" stroke-width="5" stroke-linecap="round" stroke-linejoin="round"/>
</svg>
