<svg width="233" height="232" viewBox="0 0 233 232" fill="none" xmlns="http://www.w3.org/2000/svg">
<path d="M116.635 229.5L78.5 207.5L116.365 185.5L154.5 207.5L116.635 229.5Z" fill="#FFA000" stroke="#FFA000" stroke-width="5" stroke-linejoin="round"/>
<path d="M78.5 160.629L116.5 138.5V185.77L78.5 207.5V160.629Z" stroke="#FFA000" stroke-width="5" stroke-linecap="round" stroke-linejoin="round"/>
<path d="M154.5 160.549L116.5 138.5V185.451L154.5 207.5V160.549Z" stroke="#FFA000" stroke-width="5" stroke-linecap="round" stroke-linejoin="round"/>
<path d="M116.635 93.5L78.5 71.5L116.365 49.5L154.5 71.5L116.635 93.5Z" fill="#FFA000" stroke="#FFA000" stroke-width="5" stroke-linejoin="round"/>
<path d="M78.5 24.5493L116.5 2.5V49.4507L78.5 71.5V24.5493Z" stroke="#FFA000" stroke-width="5" stroke-linecap="round" stroke-linejoin="round"/>
<path d="M154.5 24.5493L116.5 2.5V49.4507L154.5 71.5V24.5493Z" stroke="#FFA000" stroke-width="5" stroke-linecap="round" stroke-linejoin="round"/>
<path d="M40.6353 161.5L2.5 139.5L40.3647 117.5L78.5 139.5L40.6353 161.5Z" fill="#FFA000" stroke="#FFA000" stroke-width="5" stroke-linejoin="round"/>
<path d="M2.5 92.5493L40.5 70.5V117.451L2.5 139.5V92.5493Z" stroke="#FFA000" stroke-width="5" stroke-linecap="round" stroke-linejoin="round"/>
<path d="M78.5 92.5493L40.5 70.5V117.451L78.5 139.5V92.5493Z" stroke="#FFA000" stroke-width="5" stroke-linecap="round" stroke-linejoin="round"/>
<path d="M192.635 161.5L154.5 139.5L192.365 117.5L230.5 139.5L192.635 161.5Z" fill="#FFA000" stroke="#FFA000" stroke-width="5" stroke-linejoin="round"/>
<path d="M154.5 92.5493L192.5 70.5V117.451L154.5 139.5V92.5493Z" stroke="#FFA000" stroke-width="5" stroke-linecap="round" stroke-linejoin="round"/>
<path d="M230.5 92.5493L192.5 70.5V117.451L230.5 139.5V92.5493Z" stroke="#FFA000" stroke-width="5" stroke-linecap="round" stroke-linejoin="round"/>
</svg>
