<svg width="233" height="232" viewBox="0 0 233 232" fill="none" xmlns="http://www.w3.org/2000/svg">
<path d="M116.365 2.5L154.5 24.5L116.635 46.5L78.5 24.5L116.365 2.5Z" fill="#FFA000" stroke="#FFA000" stroke-width="5" stroke-linejoin="round"/>
<path d="M154.5 71.371L116.5 93.5V46.2298L154.5 24.5V71.371Z" stroke="#FFA000" stroke-width="5" stroke-linecap="round" stroke-linejoin="round"/>
<path d="M78.5 71.4507L116.5 93.5V46.5493L78.5 24.5V71.4507Z" stroke="#FFA000" stroke-width="5" stroke-linecap="round" stroke-linejoin="round"/>
<path d="M116.365 138.5L154.5 160.5L116.635 182.5L78.5 160.5L116.365 138.5Z" fill="#FFA000" stroke="#FFA000" stroke-width="5" stroke-linejoin="round"/>
<path d="M154.5 207.451L116.5 229.5V182.549L154.5 160.5V207.451Z" stroke="#FFA000" stroke-width="5" stroke-linecap="round" stroke-linejoin="round"/>
<path d="M78.5 207.451L116.5 229.5V182.549L78.5 160.5V207.451Z" stroke="#FFA000" stroke-width="5" stroke-linecap="round" stroke-linejoin="round"/>
<path d="M192.365 70.5L230.5 92.5L192.635 114.5L154.5 92.5L192.365 70.5Z" fill="#FFA000" stroke="#FFA000" stroke-width="5" stroke-linejoin="round"/>
<path d="M230.5 139.451L192.5 161.5V114.549L230.5 92.5V139.451Z" stroke="#FFA000" stroke-width="5" stroke-linecap="round" stroke-linejoin="round"/>
<path d="M154.5 139.451L192.5 161.5V114.549L154.5 92.5V139.451Z" stroke="#FFA000" stroke-width="5" stroke-linecap="round" stroke-linejoin="round"/>
<path d="M40.3647 70.5L78.5 92.5L40.6353 114.5L2.5 92.5L40.3647 70.5Z" fill="#FFA000" stroke="#FFA000" stroke-width="5" stroke-linejoin="round"/>
<path d="M78.5 139.451L40.5 161.5V114.549L78.5 92.5V139.451Z" stroke="#FFA000" stroke-width="5" stroke-linecap="round" stroke-linejoin="round"/>
<path d="M2.5 139.451L40.5 161.5V114.549L2.5 92.5V139.451Z" stroke="#FFA000" stroke-width="5" stroke-linecap="round" stroke-linejoin="round"/>
<path d="M79.9155 140.749L88.0842 146.251" stroke="#FFA000" stroke-width="5" stroke-linecap="round" stroke-linejoin="round"/>
<path d="M137.5 61.5L147.5 67.5" stroke="#FFA000" stroke-width="5" stroke-linecap="round" stroke-linejoin="round"/>
<path d="M77.1294 71.6777L67.4999 77.222" stroke="#FFA000" stroke-width="5" stroke-linecap="round" stroke-linejoin="round"/>
<path d="M173.256 128.645L162.841 134.641" stroke="#FFA000" stroke-width="5" stroke-linecap="round" stroke-linejoin="round"/>
</svg>
