<svg width="20" height="20" viewBox="0 0 20 20" fill="none" xmlns="http://www.w3.org/2000/svg">
<g clip-path="url(#clip0_2002_6662)">
<path d="M14.0562 7.69336V12.2617L14.5103 12.3037C14.7264 12.3237 14.9427 12.2679 15.1226 12.1465C15.289 12.034 15.412 11.8701 15.479 11.6816L15.481 11.6826L16.9175 8.16309C16.9988 7.98097 17.0922 7.88123 17.2065 7.81738C17.3318 7.74748 17.532 7.69336 17.8677 7.69336H18.0864V7.69531H18.0581C17.8418 7.69533 17.6161 7.72923 17.4126 7.85059C17.2026 7.97583 17.0752 8.15848 16.9907 8.34082L16.9858 8.35156L16.9819 8.3623L15.563 11.8389C15.4745 12.0379 15.3871 12.133 15.2905 12.1904C15.1851 12.2531 15.0068 12.3076 14.6714 12.3076H13.8823V7.69336H14.0562Z" fill="#D71920" stroke="#D71920"/>
<path d="M5.09947 10.0011C5.52407 9.82378 5.8765 9.42571 5.8765 8.76758C5.8765 7.7878 5.03578 7.19336 4.02204 7.19336H0.888461C0.873822 7.19336 0.859781 7.19918 0.84943 7.20953C0.839078 7.21988 0.833262 7.23392 0.833262 7.24856V8.13916C0.833121 8.1465 0.834444 8.15379 0.837155 8.16061C0.839866 8.16743 0.84391 8.17365 0.84905 8.17888C0.854189 8.18412 0.860322 8.18828 0.86709 8.19112C0.873857 8.19396 0.881122 8.19543 0.888461 8.19542H3.80549C4.27574 8.19542 4.59419 8.48309 4.59419 8.83233C4.59419 9.18157 4.27574 9.47454 3.80549 9.47454H2.07204V8.81535C2.07219 8.80792 2.07083 8.80054 2.06806 8.79365C2.06528 8.78676 2.06114 8.78049 2.05589 8.77524C2.05063 8.76999 2.04437 8.76585 2.03748 8.76307C2.03059 8.7603 2.02321 8.75894 2.01578 8.75909H0.888461C0.881122 8.75908 0.873857 8.76055 0.86709 8.76339C0.860322 8.76623 0.854189 8.77039 0.84905 8.77563C0.84391 8.78087 0.839866 8.78708 0.837155 8.7939C0.834444 8.80072 0.833121 8.80801 0.833262 8.81535V12.7504C0.833262 12.765 0.839078 12.779 0.84943 12.7894C0.859781 12.7997 0.873822 12.8056 0.888461 12.8056H3.97745C5.13238 12.8056 5.95929 12.2674 5.95929 11.1687C5.96165 10.9072 5.87911 10.6521 5.72407 10.4415C5.56903 10.231 5.34985 10.0764 5.09947 10.0011ZM3.866 11.83H2.07204V10.5138H3.866C4.34792 10.5138 4.67487 10.8089 4.67487 11.1719C4.67487 11.5349 4.34792 11.83 3.866 11.83Z" fill="#D71920"/>
<path d="M19.156 12.7432L17.3376 10.4184C17.3369 10.4171 17.3358 10.416 17.3345 10.4152C17.3332 10.4145 17.3317 10.4141 17.3302 10.4141C17.3287 10.4141 17.3272 10.4145 17.3259 10.4152C17.3246 10.416 17.3235 10.4171 17.3228 10.4184L16.8334 11.6158C16.8315 11.6192 16.8306 11.6231 16.8306 11.627C16.8306 11.6309 16.8315 11.6347 16.8334 11.6381L17.6285 12.6996C17.6515 12.7344 17.6832 12.7625 17.7204 12.7811C17.7577 12.7997 17.7992 12.8082 17.8408 12.8058H19.121C19.1287 12.807 19.1366 12.8058 19.1436 12.8024C19.1507 12.799 19.1565 12.7935 19.1603 12.7867C19.1642 12.7799 19.1658 12.772 19.165 12.7642C19.1642 12.7565 19.1611 12.7491 19.156 12.7432V12.7432Z" fill="#D71920"/>
<path d="M7.94956 8.76172H6.88805C6.87313 8.76172 6.85882 8.76765 6.84826 8.7782C6.83771 8.78875 6.83179 8.80306 6.83179 8.81798V12.753C6.83179 12.7603 6.83325 12.7676 6.83609 12.7744C6.83893 12.7811 6.84309 12.7873 6.84833 12.7924C6.85357 12.7975 6.85978 12.8016 6.8666 12.8043C6.87342 12.807 6.88071 12.8083 6.88805 12.8082H7.94956C7.9643 12.8082 7.97845 12.8024 7.98897 12.7921C7.99949 12.7818 8.00554 12.7677 8.00582 12.753V8.81586C8.00527 8.80131 7.9991 8.78754 7.98861 8.77744C7.97811 8.76734 7.96412 8.76171 7.94956 8.76172V8.76172Z" fill="#D71920"/>
<path d="M12.3178 7.19337H11.2563C11.2491 7.19337 11.2419 7.1948 11.2352 7.19757C11.2285 7.20035 11.2224 7.20441 11.2173 7.20954C11.2122 7.21466 11.2081 7.22075 11.2053 7.22745C11.2025 7.23414 11.2011 7.24132 11.2011 7.24857V11.8056C11.0999 11.815 10.9986 11.789 10.9144 11.7321C10.8303 11.6752 10.7684 11.5909 10.7394 11.4935L9.29465 7.95978C9.06324 7.43858 8.65774 7.19337 7.88921 7.19337H6.88927C6.88193 7.19323 6.87464 7.19455 6.86782 7.19726C6.861 7.19997 6.85479 7.20402 6.84955 7.20916C6.84431 7.2143 6.84015 7.22043 6.83731 7.2272C6.83447 7.23396 6.83301 7.24123 6.83301 7.24857V8.13918C6.83301 8.1541 6.83893 8.16841 6.84949 8.17896C6.86004 8.18951 6.87435 8.19544 6.88927 8.19544H7.69708C8.03251 8.19544 8.19599 8.30159 8.31063 8.55104L9.73517 12.0413C9.96765 12.5625 10.3179 12.8077 11.0854 12.8077H12.2743C12.3003 12.8077 12.3253 12.7974 12.3437 12.7792C12.3622 12.7609 12.3727 12.736 12.373 12.71V7.24857C12.373 7.23393 12.3672 7.21989 12.3569 7.20954C12.3465 7.19919 12.3325 7.19337 12.3178 7.19337V7.19337Z" fill="#D71920"/>
</g>
<defs>
<clipPath id="clip0_2002_6662">
<rect width="18.3333" height="5.61432" fill="white" transform="translate(0.833252 7.19336)"/>
</clipPath>
</defs>
</svg>
