<svg width="20" height="20" viewBox="0 0 20 20" fill="none" xmlns="http://www.w3.org/2000/svg">
<path d="M9.3277 18.3187C8.58713 18.7956 7.70566 19.0046 6.82981 18.911C5.95398 18.8174 5.13654 18.427 4.51341 17.8044L3.97055 17.2616C3.72977 17.0182 3.59473 16.6896 3.59473 16.3473C3.59473 16.0049 3.72977 15.6764 3.97055 15.433L6.25627 13.1616C6.49723 12.9217 6.8234 12.787 7.16341 12.787C7.50343 12.787 7.8296 12.9217 8.07055 13.1616C8.31394 13.4023 8.64248 13.5374 8.98484 13.5374C9.3272 13.5374 9.65574 13.4023 9.89913 13.1616L13.542 9.51869C13.7828 9.27532 13.9178 8.94678 13.9178 8.60441C13.9178 8.26205 13.7828 7.93351 13.542 7.69012C13.3021 7.44918 13.1674 7.12301 13.1674 6.78298C13.1674 6.44297 13.3021 6.11679 13.542 5.87584L15.7421 3.59012C15.9853 3.34935 16.3139 3.21429 16.6563 3.21429C16.9986 3.21429 17.3272 3.34935 17.5706 3.59012L18.1135 4.13298C18.7471 4.74732 19.1509 5.56041 19.2576 6.43657C19.3642 7.31271 19.1671 8.19891 18.6992 8.94727C16.2081 12.6455 13.026 15.8277 9.3277 18.3187Z" stroke="#404040" stroke-width="1.6" stroke-linecap="round" stroke-linejoin="round"/>
<path d="M5.71423 0.714294H0.714233V5.71429" stroke="#404040" stroke-width="1.6" stroke-linecap="round" stroke-linejoin="round"/>
<path d="M0.714233 0.714294L7.85705 7.85711" stroke="#404040" stroke-width="1.6" stroke-linecap="round" stroke-linejoin="round"/>
</svg>
