<svg width="40" height="40" viewBox="0 0 40 40" fill="none" xmlns="http://www.w3.org/2000/svg">
<path d="M38.5713 14.2857C38.5713 13.528 38.2702 12.8012 37.7345 12.2654C37.1988 11.7296 36.4719 11.4286 35.7142 11.4286H29.9999L25.7142 5.71429H14.2856L9.9999 11.4286H4.28561C3.52784 11.4286 2.80112 11.7296 2.2653 12.2654C1.72949 12.8012 1.42847 13.528 1.42847 14.2857V31.4286C1.42847 32.1863 1.72949 32.9131 2.2653 33.4489C2.80112 33.9846 3.52784 34.2857 4.28561 34.2857H35.7142C36.4719 34.2857 37.1988 33.9846 37.7345 33.4489C38.2702 32.9131 38.5713 32.1863 38.5713 31.4286V14.2857Z" stroke="#FFA000" stroke-width="2.4" stroke-linecap="round" stroke-linejoin="round"/>
<path d="M19.9999 27.8571C23.5503 27.8571 26.4284 24.979 26.4284 21.4286C26.4284 17.8782 23.5503 15 19.9999 15C16.4495 15 13.5713 17.8782 13.5713 21.4286C13.5713 24.979 16.4495 27.8571 19.9999 27.8571Z" stroke="#FFA000" stroke-width="2.4" stroke-linecap="round" stroke-linejoin="round"/>
</svg>
