<svg width="20" height="18" viewBox="0 0 20 18" fill="none" xmlns="http://www.w3.org/2000/svg">
<g filter="url(#filter0_d_2001_3365)">
<path d="M18.0599 0.799988H1.93995C1.263 0.799988 0.714233 1.34876 0.714233 2.0257V13.1C0.714233 13.7769 1.263 14.3257 1.93995 14.3257H18.0599C18.7369 14.3257 19.2857 13.7769 19.2857 13.1V2.0257C19.2857 1.34876 18.7369 0.799988 18.0599 0.799988Z" stroke="#404040" stroke-width="1.6" stroke-linecap="round" stroke-linejoin="round"/>
<path d="M13.3705 5.96198H16.2088" stroke="#404040" stroke-width="1.6" stroke-linecap="round" stroke-linejoin="round"/>
<path d="M13.3705 8.77502H16.2088" stroke="#404040" stroke-width="1.6" stroke-linecap="round" stroke-linejoin="round"/>
<path d="M5.01025 6.43098C5.01025 7.72553 6.0597 8.77498 7.35425 8.77498C7.68152 8.77498 7.99313 8.7079 8.27607 8.58676C9.11234 8.22869 9.69824 7.39826 9.69824 6.43098C9.69824 5.13642 8.64881 4.08698 7.35425 4.08698C6.0597 4.08698 5.01025 5.13642 5.01025 6.43098Z" stroke="#404040" stroke-width="1.6" stroke-linecap="round" stroke-linejoin="round"/>
<path d="M3.79114 11.0961C4.16359 10.3877 4.68707 9.80219 5.31122 9.39592C5.93538 8.98963 6.63924 8.77625 7.35512 8.77625C8.07102 8.77625 8.77488 8.98963 9.39904 9.39592C10.0232 9.80219 10.5467 10.3877 10.9191 11.0961" stroke="#404040" stroke-width="1.6" stroke-linecap="round" stroke-linejoin="round"/>
</g>
<defs>
<filter id="filter0_d_2001_3365" x="-4.08582" y="0" width="28.1715" height="23.1257" filterUnits="userSpaceOnUse" color-interpolation-filters="sRGB">
<feFlood flood-opacity="0" result="BackgroundImageFix"/>
<feColorMatrix in="SourceAlpha" type="matrix" values="0 0 0 0 0 0 0 0 0 0 0 0 0 0 0 0 0 0 127 0" result="hardAlpha"/>
<feOffset dy="4"/>
<feGaussianBlur stdDeviation="2"/>
<feComposite in2="hardAlpha" operator="out"/>
<feColorMatrix type="matrix" values="0 0 0 0 0 0 0 0 0 0 0 0 0 0 0 0 0 0 0.25 0"/>
<feBlend mode="normal" in2="BackgroundImageFix" result="effect1_dropShadow_2001_3365"/>
<feBlend mode="normal" in="SourceGraphic" in2="effect1_dropShadow_2001_3365" result="shape"/>
</filter>
</defs>
</svg>
