<svg width="20" height="20" viewBox="0 0 20 20" fill="none" xmlns="http://www.w3.org/2000/svg">
<path d="M13.2144 7.14282C14.8246 7.14282 16.3689 7.7825 17.5075 8.92111C18.6461 10.0597 19.2858 11.604 19.2858 13.2143C19.2896 14.4094 18.9364 15.5784 18.2715 16.5714L19.2858 19.2857L15.8715 18.6714C15.0504 19.0718 14.1495 19.2818 13.236 19.2857C12.3224 19.2895 11.4198 19.0871 10.5953 18.6937C9.77087 18.3003 9.04583 17.7257 8.47423 17.0131C7.90263 16.3005 7.4992 15.4681 7.29403 14.5778C7.08886 13.6877 7.0872 12.7626 7.28921 11.8717C7.49123 10.9808 7.89168 10.1469 8.46074 9.43225C9.0298 8.7176 9.7528 8.14058 10.5759 7.74418C11.3989 7.34778 12.3008 7.14222 13.2144 7.14282Z" stroke="white" stroke-width="1.6" stroke-linecap="round" stroke-linejoin="round"/>
<path d="M14.0858 3.58567C13.1238 2.36148 11.804 1.46774 10.3101 1.02887C8.81627 0.590005 7.22276 0.62786 5.75144 1.13716C4.28013 1.64647 3.00424 2.60187 2.1014 3.87035C1.19857 5.13882 0.713729 6.65727 0.714389 8.21424C0.709962 9.69424 1.14772 11.1418 1.97153 12.3714L0.714389 15.7142L3.74296 15.1713" stroke="white" stroke-width="1.6" stroke-linecap="round" stroke-linejoin="round"/>
</svg>
