<svg width="20" height="20" viewBox="0 0 20 20" fill="none" xmlns="http://www.w3.org/2000/svg">
<g clip-path="url(#clip0_2002_3468)">
<path d="M4.66577 8.85449C5.08648 8.84844 5.50296 8.93963 5.88257 9.12109C6.15244 9.25014 6.39815 9.42309 6.61108 9.63086L6.37573 9.91699C6.19761 9.77768 6.00458 9.65752 5.79858 9.56152C5.43243 9.39091 5.03534 9.29684 4.63159 9.28418L4.62378 9.2832H4.61597C3.00829 9.2832 1.84253 10.5104 1.84253 12.1348C1.84259 13.7584 3.00763 14.9883 4.61597 14.9883H4.63159C5.03537 14.9756 5.43241 14.8806 5.79858 14.71C6.00439 14.614 6.19678 14.4936 6.37476 14.3545L6.61206 14.6416C6.39869 14.8493 6.1528 15.0224 5.88257 15.1514C5.50289 15.3325 5.08641 15.423 4.66577 15.417H4.65601L4.64722 15.418C3.79124 15.4377 2.95963 15.1337 2.31714 14.5684C1.68666 13.9158 1.33374 13.0437 1.33374 12.1357C1.33378 11.2275 1.68629 10.3548 2.31714 9.70215C2.91999 9.17343 3.68848 8.87454 4.48706 8.85449H4.66577Z" fill="#004785" stroke="#004785"/>
<path d="M9.62445 8.46484H8.12744V15.7716H9.62445V8.46484Z" fill="#004785"/>
<path d="M15.4868 14.1796C15.1592 14.4014 14.7768 14.5284 14.3816 14.5464C13.8968 14.5464 13.6808 14.2952 13.6808 13.7225V9.84686H15.2055V8.47042H13.6808V6.19727L12.2114 6.98095V8.47042H10.9556V9.84686H12.2114V13.9712C12.2114 15.0939 12.8771 15.86 13.8717 15.8801C14.3381 15.9044 14.801 15.788 15.2004 15.546H15.2155L15.5872 14.1319L15.4868 14.1796Z" fill="#004785"/>
<path d="M18.2221 8.46484H16.7251V15.7716H18.2221V8.46484Z" fill="#004785"/>
<path d="M19.1039 7.18206C18.4339 6.22699 17.5436 5.44734 16.5086 4.90909C15.4735 4.37085 14.324 4.08984 13.1573 4.08984C11.9906 4.08984 10.8411 4.37085 9.80604 4.90909C8.77096 5.44734 7.88074 6.22699 7.21071 7.18206L7.14038 7.28001H8.86094L8.88103 7.25993C9.4299 6.67624 10.0925 6.21108 10.8279 5.89313C11.5633 5.57518 12.3561 5.41115 13.1573 5.41115C13.9585 5.41115 14.7513 5.57518 15.4867 5.89313C16.2221 6.21108 16.8847 6.67624 17.4336 7.25993L17.4537 7.28001H19.1742L19.1039 7.18206Z" fill="#ED1C2E"/>
</g>
<defs>
<clipPath id="clip0_2002_3468">
<rect width="18.3333" height="11.8203" fill="white" transform="translate(0.833252 4.08984)"/>
</clipPath>
</defs>
</svg>
