<svg width="20" height="20" viewBox="0 0 20 20" fill="none" xmlns="http://www.w3.org/2000/svg">
<g clip-path="url(#clip0_2002_5521)">
<path d="M6.81982 12.6182C7.71646 13.3494 8.83949 13.752 10.0005 13.752C11.1613 13.7518 12.2837 13.3493 13.1802 12.6182H13.4731C12.4777 13.3998 11.2653 13.8619 9.99561 13.9365H9.98389C8.71383 13.8636 7.50093 13.4013 6.50635 12.6182H6.81982ZM4.91748 13.5342H4.91846L4.91943 13.5352L4.91553 13.5332H4.9165L4.91748 13.5342ZM8.32568 3.68457L8.32471 3.68555H8.32275C8.32166 3.68585 8.32031 3.68611 8.31885 3.68652C8.31571 3.68741 8.31189 3.68903 8.30713 3.69043C8.29725 3.69333 8.28348 3.69698 8.26709 3.70215C8.23423 3.71251 8.18852 3.72764 8.13232 3.74805C8.02007 3.78882 7.86409 3.85158 7.68115 3.94043C7.31651 4.11758 6.83541 4.40391 6.37354 4.8418C5.43121 5.7353 4.61039 7.22304 4.93701 9.55371L5.03857 10.2783L5.67725 9.9209L8.70264 8.22363L8.9585 8.08008V3.51172L8.32568 3.68457ZM8.59131 4.64844L8.59033 4.64941L8.58936 4.64844H8.59131ZM7.72314 15.5576L7.28564 15.502C5.1932 15.2384 3.89103 14.2496 3.10791 13.335C2.71418 12.8751 2.45037 12.4317 2.28564 12.1055C2.20341 11.9426 2.14555 11.8094 2.10986 11.7197C2.09223 11.6754 2.08036 11.6416 2.07275 11.6201C2.06895 11.6094 2.06637 11.6009 2.06494 11.5967L2.06396 11.5947C2.06057 11.5806 2.05591 11.5668 2.05225 11.5527C2.07179 11.5815 2.09218 11.6098 2.10889 11.6406C2.54403 12.6995 3.12326 13.3943 3.60889 13.8291C3.8541 14.0486 4.0736 14.2015 4.23682 14.3008C4.31846 14.3504 4.38644 14.387 4.43604 14.4121C4.46076 14.4246 4.48124 14.4343 4.49658 14.4414C4.50419 14.4449 4.51099 14.4479 4.51611 14.4502C4.51853 14.4513 4.52112 14.4523 4.52295 14.4531L4.5249 14.4541H4.52588L4.52686 14.4551L5.07764 13.6436C3.19939 11.7361 2.84272 9.70592 2.9458 8.14844C2.99772 7.36416 3.16758 6.69739 3.32373 6.22754C3.40163 5.99316 3.47517 5.80883 3.52881 5.68555C3.55561 5.62395 3.57797 5.57762 3.59229 5.54785C3.59939 5.53307 3.6047 5.52202 3.60791 5.51562C3.60934 5.51279 3.6103 5.51082 3.61084 5.50977L3.60986 5.50879C3.66423 5.4113 3.70786 5.31545 3.74561 5.22266C3.74278 5.2552 3.74266 5.28664 3.73779 5.31543C3.72948 5.36452 3.71947 5.40396 3.7124 5.42871C3.71 5.4371 3.708 5.44368 3.70654 5.44824C2.99708 7.03952 2.85406 8.82651 3.30225 10.5107L3.46729 11.1299L4.02783 10.8193L4.59521 10.5039L4.93213 10.3174L4.8374 9.94434L4.83545 9.9375C4.83375 9.9303 4.83122 9.91789 4.82764 9.90137C4.82047 9.86831 4.81011 9.81704 4.79834 9.75C4.77479 9.61577 4.74576 9.41838 4.72705 9.1748C4.68949 8.68562 4.69273 8.01997 4.85303 7.30566C5.16764 5.90372 6.09003 4.27305 8.63818 3.40918L8.97705 3.29395V2.44141H9.14307V8.21094L4.03076 11.124L3.62256 11.3574L3.82959 11.7793C3.9311 11.9859 4.04372 12.1875 4.16553 12.3828L4.42041 12.792L4.83838 12.5518L9.99561 9.58691L15.1333 12.5508L15.5483 12.79L15.8052 12.3867C15.9274 12.1947 16.038 11.9865 16.1401 11.7861L16.3569 11.3604L15.9419 11.124L10.8306 8.21094V2.45703H10.9956V3.30957L11.3345 3.4248C13.8826 4.28868 14.805 5.91935 15.1196 7.32129C15.2799 8.03563 15.2832 8.70124 15.2456 9.19043C15.2269 9.43398 15.1988 9.6314 15.1753 9.76562C15.1635 9.83261 15.1532 9.88393 15.146 9.91699C15.1424 9.93351 15.1389 9.94592 15.1372 9.95312C15.1364 9.95646 15.1365 9.95884 15.1362 9.95996L15.0522 10.2891V9.50391C15.3691 7.20077 14.5518 5.73004 13.6118 4.8457C13.1483 4.40965 12.6653 4.12496 12.2993 3.94922C12.1159 3.86114 11.9598 3.79915 11.8472 3.75879C11.7908 3.73859 11.7444 3.72313 11.7114 3.71289C11.6953 3.70788 11.6822 3.70401 11.6724 3.70117C11.6674 3.69974 11.6629 3.69914 11.6597 3.69824C11.6581 3.6978 11.6569 3.6966 11.6558 3.69629H11.6528L11.0229 3.52637V8.09277L11.2798 8.23535L14.3091 9.92188L15.0415 10.3291V10.332L15.3765 10.5195L15.9399 10.834L16.5005 11.1475L16.6665 10.5264C17.1171 8.84216 16.9739 7.05479 16.2622 5.46387C16.2608 5.45972 16.2579 5.45142 16.2544 5.43945C16.2471 5.41478 16.2367 5.37597 16.228 5.32715C16.2226 5.29637 16.2204 5.26249 16.2173 5.22754C16.2557 5.32351 16.3016 5.4224 16.3579 5.52344V5.52539L16.3589 5.52637C16.3612 5.53055 16.3634 5.53487 16.3657 5.53906C16.3688 5.54526 16.3727 5.55352 16.3774 5.56348C16.3918 5.59327 16.4132 5.63966 16.4399 5.70117C16.4937 5.82467 16.5679 6.00938 16.646 6.24414C16.8025 6.71465 16.9718 7.38222 17.0239 8.16699C17.1275 9.72538 16.7716 11.7548 14.8921 13.6582L15.4409 14.4707L15.2476 14.0098L15.4419 14.4707V14.4697H15.4429L15.4458 14.4688C15.4477 14.4679 15.4501 14.4669 15.4526 14.4658C15.4578 14.4635 15.4645 14.4606 15.4722 14.457C15.4876 14.4499 15.5079 14.4402 15.5327 14.4277C15.5824 14.4027 15.6501 14.366 15.7319 14.3164C15.8955 14.2172 16.1162 14.0653 16.3618 13.8457C16.8483 13.4107 17.4274 12.7144 17.8608 11.6543C17.8816 11.6165 17.9053 11.5807 17.9302 11.5459C17.9259 11.5622 17.9205 11.5783 17.9165 11.5947L17.9155 11.5977C17.9141 11.602 17.9114 11.6096 17.9077 11.6201C17.9002 11.6415 17.8882 11.6753 17.8706 11.7197C17.835 11.8093 17.7779 11.9426 17.6958 12.1055C17.5313 12.4316 17.2674 12.8749 16.8735 13.335C16.0906 14.2493 14.7882 15.2382 12.6919 15.502L12.2544 15.5576V17.5332H11.0552V15.4805C12.5812 15.2711 13.9922 14.5363 15.0376 13.3916L15.4556 12.9346L14.9214 12.6221L14.3696 12.2998L14.0552 12.1162L14.0376 12.1309L13.2788 11.6865L10.2642 9.91895L10.0122 9.77148L9.76025 9.91895L6.72314 11.6855L5.94775 12.1357L5.92627 12.1162L5.61084 12.2998L5.05908 12.6221L4.52588 12.9346L4.94287 13.3916C5.98821 14.5363 7.39925 15.2711 8.92529 15.4805V17.5332H7.72314V15.5576Z" fill="#0056A7" stroke="#0056A7"/>
</g>
<defs>
<clipPath id="clip0_2002_5521">
<rect width="18.3333" height="16.1155" fill="white" transform="translate(0.833252 1.94141)"/>
</clipPath>
</defs>
</svg>
