<svg width="20" height="20" viewBox="0 0 20 20" fill="none" xmlns="http://www.w3.org/2000/svg">
<g clip-path="url(#clip0_2001_3328)">
<path d="M11.4285 0.714294H2.1428C1.35383 0.714294 0.714233 1.35389 0.714233 2.14287V17.8572C0.714233 18.6462 1.35383 19.2857 2.1428 19.2857H14.9999C15.7889 19.2857 16.4285 18.6462 16.4285 17.8572V11.4286" stroke="#404040" stroke-width="1.6" stroke-linecap="round" stroke-linejoin="round"/>
<path d="M0.714233 15H16.4285" stroke="#404040" stroke-width="1.6" stroke-linecap="round" stroke-linejoin="round"/>
<path d="M5 4.28571H7.85714" stroke="#404040" stroke-width="1.6" stroke-linecap="round" stroke-linejoin="round"/>
<path d="M5 7.85718H6.42857" stroke="#404040" stroke-width="1.6" stroke-linecap="round" stroke-linejoin="round"/>
<path d="M12.8487 10.7226L8.56299 11.494L9.27727 7.15115L15.3201 1.13686C15.4529 1.00297 15.6109 0.896689 15.7851 0.824162C15.9591 0.751634 16.1458 0.714294 16.3344 0.714294C16.5231 0.714294 16.7098 0.751634 16.8838 0.824162C17.0579 0.896689 17.2159 1.00297 17.3486 1.13686L18.8629 2.65115C18.9969 2.78395 19.1032 2.94195 19.1756 3.11604C19.2482 3.29012 19.2855 3.47685 19.2855 3.66544C19.2855 3.85402 19.2482 4.04075 19.1756 4.21482C19.1032 4.38891 18.9969 4.54692 18.8629 4.67972L12.8487 10.7226Z" stroke="#404040" stroke-width="1.6" stroke-linecap="round" stroke-linejoin="round"/>
</g>
<defs>
<clipPath id="clip0_2001_3328">
<rect width="20" height="20" fill="white"/>
</clipPath>
</defs>
</svg>
