<svg width="220" height="245" viewBox="0 0 220 245" fill="none" xmlns="http://www.w3.org/2000/svg">
<rect y="45.4147" width="138.696" height="199.585" rx="10" fill="#FFA000"/>
<rect x="34.6719" y="135.049" width="9.56522" height="95.6097" rx="4.78261" fill="#FFEBA4"/>
<rect x="50.2188" y="135.049" width="9.56522" height="95.6097" rx="4.78261" fill="#FFEBA4"/>
<rect x="26.3047" y="64.5366" width="86.0869" height="60.9512" rx="5" fill="#FFF2CA"/>
<path d="M64.5625 45.4147H138.693V176.878H74.5625C69.0397 176.878 64.5625 172.401 64.5625 166.878V45.4147Z" fill="#CE973A" style="mix-blend-mode:multiply"/>
<rect x="81.3047" width="138.696" height="199.585" rx="10" fill="#FFF2CA"/>
<path d="M81.3047 64.5366H220V189.585C220 195.108 215.523 199.585 210 199.585H91.3047C85.7818 199.585 81.3047 195.108 81.3047 189.585V64.5366Z" fill="#003725" style="mix-blend-mode:overlay"/>
<path fill-rule="evenodd" clip-rule="evenodd" d="M120.716 18.2362V24.18L126.769 28.0166V35.7069L132 38.9909V46.3643L124.821 50.5583L121.231 47.7503V45.4545L124.821 48.3496L130.111 45.2592V40.0149L125.681 37.3175L120.695 40.2678V42.3595L118.784 41.1983V39.1395L124.858 35.565V29.0638L119.305 25.5657L116.163 27.5986L120.716 30.6019V37.0192L115.886 39.9643L120.615 42.9225V49.399L114.308 53.0543L108 49.399V42.9225L114.103 38.7712L118.83 35.9019V31.6391L114.375 28.701L109.92 31.6391V35.9086L113.846 38.0783L112.018 39.3446L108.035 37.0125V30.6019L114.26 26.4962L118.83 23.5362V19.2733L114.375 16.3352L109.92 19.2733V23.5432L113.692 26.0663L112 27.3143L109.385 25.5983L103.379 29.0638V35.565L109.84 39.1395V40.8863L108 42.0475V40.2678L102.424 37.2206V37.2538L97.8894 40.0149V45.2592L103.179 48.3496L107.385 45.4545V47.7503L103.179 50.5583L96 46.3643V38.9909L101.538 35.5138V28.0166L108.035 24.1943V18.2362L114.375 14.0543L120.716 18.2362ZM109.876 43.9692V48.2713L114.307 50.8392L118.739 48.2713V43.9692L114.394 41.0621L114.377 41.0499L114.307 41.0039L109.876 43.9692Z" fill="#FFA000"/>
<path d="M107.385 21.4235V23.7272L103.333 21.0411L97.9297 24.6218V29.8786L100.923 31.7186V34.0223L96 30.9992V23.5941L103.332 18.7343L107.385 21.4235Z" fill="#FFA000"/>
<path d="M132 23.5941V30.9992L127.385 34.0223V31.7186L130.123 29.8786V24.6218L124.865 21.0411L121.231 23.7272V21.4235L124.866 18.7343L132 23.5941Z" fill="#FFA000"/>
</svg>
