<svg width="20" height="20" viewBox="0 0 20 20" fill="none" xmlns="http://www.w3.org/2000/svg">
<g clip-path="url(#clip0_48_4051)">
<path d="M15.5734 18.9288L7.57139 11.4337C7.43339 11.3188 7.25949 11.2559 7.0799 11.2559C6.90032 11.2559 6.7264 11.3188 6.58842 11.4337L0.736694 15.6421" stroke="#404040" stroke-width="1.6" stroke-linecap="round" stroke-linejoin="round"/>
<path d="M14.0848 11.2564C12.9013 11.2564 11.9419 10.297 11.9419 9.11356C11.9419 7.93009 12.9013 6.9707 14.0848 6.9707C15.2682 6.9707 16.2276 7.93009 16.2276 9.11356C16.2276 10.297 15.2682 11.2564 14.0848 11.2564Z" stroke="#404040" stroke-width="1.6" stroke-linecap="round" stroke-linejoin="round"/>
<path d="M0.714233 17.5005V2.50047C0.714233 2.12158 0.864743 1.75822 1.13265 1.49031C1.40056 1.22241 1.76392 1.0719 2.1428 1.0719H7.41423C7.74056 1.06239 8.06032 1.16494 8.32025 1.36249C8.58016 1.56002 8.76459 1.84064 8.84281 2.15761L9.28566 3.92904H17.8571C18.2359 3.92904 18.5994 4.07955 18.8672 4.34745C19.1351 4.61537 19.2857 4.97872 19.2857 5.35761V17.5005C19.2857 17.8794 19.1351 18.2428 18.8672 18.5106C18.5994 18.7785 18.2359 18.9291 17.8571 18.9291H2.1428C1.76392 18.9291 1.40056 18.7785 1.13265 18.5106C0.864743 18.2428 0.714233 17.8794 0.714233 17.5005Z" stroke="#404040" stroke-width="1.6" stroke-linecap="round" stroke-linejoin="round"/>
</g>
<defs>
<clipPath id="clip0_48_4051">
<rect width="20" height="20" fill="white"/>
</clipPath>
</defs>
</svg>
