<svg width="22" height="18" viewBox="0 0 22 18" fill="none" xmlns="http://www.w3.org/2000/svg">
<circle cx="10.6826" cy="9" r="9" fill="#F3D09F"/>
<ellipse cx="7.98301" cy="10.8" rx="0.9" ry="0.9" fill="#404040"/>
<ellipse cx="13.3824" cy="10.8" rx="0.9" ry="0.9" fill="#404040"/>
<path d="M7.53223 13.5C7.75723 14.1495 8.74723 15.4485 10.9072 15.4485C13.0672 15.4485 13.9072 14.1495 14.0572 13.5" stroke="#404040" stroke-width="0.5625" stroke-linecap="round"/>
<path d="M6.63281 12.6C6.25781 13.05 5.73281 13.95 5.50781 14.85" stroke="#404040" stroke-width="0.5625" stroke-linecap="round" stroke-linejoin="round"/>
<path d="M14.7324 12.6C15.1074 13.05 15.6324 13.95 15.8574 14.85" stroke="#404040" stroke-width="0.5625" stroke-linecap="round" stroke-linejoin="round"/>
<path d="M1.0077 11.7C-0.342369 13.275 0.332556 15.491 1.85845 15.75C4.96406 16.2772 4.78348 9.22499 4.55848 7.42499C5.00848 7.34999 6.58343 6.25499 7.48343 5.17499C8.83348 6.29999 12.8835 7.19999 16.2584 5.84999C14.9085 13.5 24.8085 13.815 20.3085 6.97499" stroke="#404040" stroke-width="0.5625" stroke-linecap="round" stroke-linejoin="round"/>
</svg>
