<svg width="20" height="20" viewBox="0 0 20 20" fill="none" xmlns="http://www.w3.org/2000/svg">
<g clip-path="url(#clip0_2002_3032)">
<mask id="path-1-inside-1_2002_3032" fill="white">
<path d="M19.0601 7.49733C19.2331 6.97517 19.1916 6.40572 18.9449 5.9141C18.6982 5.42249 18.2664 5.04893 17.7444 4.87552L6.87984 1.2282C6.62124 1.14043 6.34775 1.10507 6.07533 1.12418C5.80292 1.14328 5.53703 1.21647 5.29321 1.33946"/>
</mask>
<path d="M19.0601 7.49733C19.2331 6.97517 19.1916 6.40572 18.9449 5.9141C18.6982 5.42249 18.2664 5.04893 17.7444 4.87552L6.87984 1.2282C6.62124 1.14043 6.34775 1.10507 6.07533 1.12418C5.80292 1.14328 5.53703 1.21647 5.29321 1.33946" fill="white"/>
<path d="M17.7444 4.87552L17.4261 5.82353L17.4291 5.82453L17.7444 4.87552ZM6.87984 1.2282L6.55846 2.17516L6.56159 2.1762L6.87984 1.2282ZM19.0601 7.49733L20.0094 7.81173C20.2657 7.03795 20.2043 6.19409 19.8387 5.46557L18.9449 5.9141L18.0512 6.36264C18.179 6.61735 18.2005 6.9124 18.1109 7.18293L19.0601 7.49733ZM18.9449 5.9141L19.8387 5.46557C19.4731 4.73706 18.8332 4.18349 18.0597 3.92651L17.7444 4.87552L17.4291 5.82453C17.6996 5.91437 17.9233 6.10792 18.0512 6.36264L18.9449 5.9141ZM17.7444 4.87552L18.0627 3.92751L7.1981 0.280193L6.87984 1.2282L6.56159 2.1762L17.4262 5.82353L17.7444 4.87552ZM6.87984 1.2282L7.20122 0.281248C6.81683 0.150792 6.41031 0.0982325 6.00538 0.126626L6.07533 1.12418L6.14529 2.12173C6.2852 2.11192 6.42566 2.13008 6.55847 2.17515L6.87984 1.2282ZM6.07533 1.12418L6.00538 0.126626C5.60045 0.155021 5.20524 0.26381 4.84283 0.446629L5.29321 1.33946L5.7436 2.2323C5.86883 2.16912 6.00538 2.13154 6.14529 2.12173L6.07533 1.12418Z" fill="white" mask="url(#path-1-inside-1_2002_3032)"/>
<path d="M5.29322 1.33789C4.80123 1.5841 4.42715 2.0156 4.2532 2.53754L0.939659 12.4975C0.768058 13.0197 0.810124 13.5886 1.05666 14.0799C1.3032 14.5711 1.73418 14.9448 2.2554 15.1193L13.1248 18.7666C13.3836 18.8533 13.6569 18.8882 13.9292 18.8691C14.2015 18.85 14.4673 18.7774 14.7114 18.6554C14.9551 18.5343 15.1721 18.3658 15.3499 18.1598C15.5276 17.9539 15.6625 17.7145 15.7466 17.4557L19.065 7.49576" fill="white"/>
<path d="M10.6094 10.9071C10.0113 11.5774 9.26395 12.0977 8.42777 12.426L7.94405 12.6147V7.99992L8.42777 8.18857C9.26504 8.51519 10.0139 9.0338 10.6142 9.70265C10.9941 9.0811 11.2337 8.38409 11.3161 7.66032C11.3986 6.93655 11.322 6.20351 11.0916 5.51244C10.8613 4.82138 10.4827 4.18897 9.98251 3.65943C9.48228 3.12989 8.87243 2.716 8.19558 2.44671L6.60895 1.90494C6.44094 1.8498 6.2637 1.82834 6.08738 1.84178C5.91107 1.85523 5.73913 1.90332 5.58142 1.9833C5.42371 2.06328 5.28333 2.17358 5.1683 2.30788C5.05327 2.44218 4.96585 2.59785 4.91106 2.76597L1.58785 12.7356C1.47934 13.0788 1.51038 13.451 1.67425 13.7715C1.83812 14.092 2.12163 14.335 2.46339 14.448L10.0047 16.9634C10.7569 16.1603 11.2229 15.1314 11.3305 14.0363C11.4381 12.9412 11.1812 11.8413 10.5997 10.9071H10.6094ZM6.24616 7.7242V12.9001H5.49637V7.73871L6.24616 7.7242Z" fill="#2293C8"/>
<path d="M10.1742 10.3031C9.74943 9.807 9.23391 9.39655 8.65527 9.09375V11.5124C9.23637 11.2071 9.75231 10.7914 10.1742 10.2886" fill="#E43D30"/>
<path d="M17.5074 5.53683L10.5852 3.22461C11.4547 4.17544 11.976 5.39309 12.0639 6.67855C12.1517 7.96401 11.801 9.24126 11.0689 10.3016C11.7802 11.3302 12.1334 12.5643 12.074 13.8135C12.0145 15.0627 11.5458 16.2576 10.74 17.2141L13.3425 18.0799C13.5104 18.1357 13.6878 18.1577 13.8643 18.1446C14.0409 18.1314 14.213 18.0834 14.3709 18.0034C14.5288 17.9233 14.6692 17.8128 14.7841 17.6781C14.899 17.5435 14.9861 17.3874 15.0403 17.2189L18.3781 7.25407C18.4881 6.91151 18.4584 6.53934 18.2953 6.21861C18.1322 5.89789 17.849 5.65458 17.5074 5.54168V5.53683ZM15.674 12.8895H14.7356L12.8007 10.3016L14.7356 7.71846H15.7031L13.7681 10.3112L15.674 12.8895Z" fill="#215C9C"/>
</g>
<defs>
<clipPath id="clip0_2002_3032">
<rect width="18.3333" height="17.7577" fill="white" transform="translate(0.833252 1.12109)"/>
</clipPath>
</defs>
</svg>
