<svg width="231" height="231" viewBox="0 0 231 231" fill="none" xmlns="http://www.w3.org/2000/svg">
<path d="M213 12H0V225H213V12Z" fill="white"/>
<path fill-rule="evenodd" clip-rule="evenodd" d="M144.951 181.514C112.656 190.775 23.9325 166.921 24 112.273C24.1688 76.9928 56.0572 68.1582 88.9407 86.2515C98.6172 90.1102 106.257 88.9143 114.551 85.08C122.846 81.246 133.514 64.129 153.619 60.6074C214.124 50.0106 265.894 146.831 144.951 181.514Z" fill="#F4A81C"/>
<path fill-rule="evenodd" clip-rule="evenodd" d="M204.895 79.3922C204.193 79.372 204.122 79.2965 204.117 78.4913C204.101 78.4201 204.079 78.3584 204.059 78.3022C204.031 78.2232 204.007 78.1557 204.011 78.0898C204.037 77.6354 203.698 77.6374 203.46 77.7294C203.316 77.785 203.197 78.0852 203.19 78.2798C203.184 78.4371 203.218 78.5953 203.252 78.754C203.281 78.8915 203.311 79.0298 203.315 79.1678C203.318 79.2772 203.173 79.4459 203.058 79.4899C202.941 79.5348 202.8 79.5223 202.662 79.5101C202.627 79.5069 202.592 79.5038 202.559 79.5018C202.248 79.4825 201.888 79.5078 201.905 79.8724C201.912 80.0218 202.344 80.2822 202.567 80.2663C203.215 80.22 203.587 80.4103 203.748 81.0743C203.779 81.2018 203.941 81.2976 204.104 81.3933C204.178 81.437 204.252 81.481 204.314 81.5279C204.341 81.462 204.378 81.393 204.415 81.324C204.497 81.1734 204.579 81.0226 204.546 80.9028C204.391 80.3271 204.645 80.1985 205.141 80.165C205.271 80.1562 205.396 80.0752 205.521 79.994C205.577 79.9571 205.634 79.9201 205.692 79.8903C205.647 79.846 205.603 79.8006 205.559 79.7549L205.558 79.7546L205.557 79.7534C205.447 79.6396 205.337 79.5254 205.212 79.4311C205.156 79.3885 205.062 79.3902 204.973 79.3919C204.947 79.3925 204.92 79.393 204.895 79.3922ZM61.5734 79.3743C61.5712 79.3595 61.5681 79.3397 61.5485 79.3067C60.9467 79.0491 60.6962 79.1755 60.6823 79.731C60.6743 80.0533 60.5618 80.2039 60.2378 80.3124C60.0117 80.3882 59.7019 80.6634 59.699 80.8534C59.6945 81.1607 60.0322 81.2342 60.3332 81.1902C60.7178 81.134 60.7981 81.3325 60.7978 81.6747C60.7973 82.0331 60.8137 82.4083 60.9237 82.7428C60.96 82.8524 61.1068 82.926 61.2537 82.9993C61.3204 83.0325 61.3869 83.0657 61.4431 83.1024C61.4678 83.0555 61.4942 83.0092 61.5206 82.9629C61.5828 82.8544 61.6447 82.7462 61.6817 82.6301C61.7078 82.548 61.7012 82.4554 61.6947 82.3628C61.6919 82.3214 61.689 82.2802 61.689 82.2399C61.689 81.199 61.6913 81.1981 62.5958 80.8795L62.6166 80.8721C62.7239 80.8343 62.8165 80.7543 62.9088 80.6742C62.9517 80.6372 62.9943 80.6003 63.0386 80.5674C62.992 80.5271 62.9474 80.4813 62.9029 80.4356C62.804 80.3342 62.7052 80.2328 62.5856 80.1905C62.2593 80.0749 61.6873 79.6688 61.5774 79.3908C61.5754 79.3859 61.5746 79.3805 61.5734 79.3743ZM186.413 99.6599C186.701 99.6599 186.826 100.656 186.879 101.086V101.086C186.889 101.162 186.896 101.22 186.902 101.252C186.917 101.339 187.192 101.342 187.467 101.345C187.741 101.349 188.016 101.352 188.033 101.439C188.05 101.523 187.777 101.67 187.519 101.809C187.302 101.925 187.096 102.036 187.086 102.098C187.077 102.149 187.069 102.221 187.061 102.306L187.061 102.306C187.023 102.688 186.96 103.32 186.615 103.32C186.556 103.32 186.492 103.161 186.41 102.957C186.265 102.597 186.064 102.098 185.739 102.098C185.645 102.098 184.255 102.048 184.235 101.936C184.216 101.825 185.537 101.408 185.739 101.349C185.917 101.297 186.032 100.812 186.136 100.376C186.226 100 186.307 99.6599 186.413 99.6599ZM45.7325 104.519C45.7967 104.812 45.8626 105.113 46.3939 105.033C46.5064 104.888 46.6126 104.743 46.6098 104.599C46.6072 104.455 46.58 104.309 46.5527 104.164C46.4854 103.805 46.4181 103.446 46.7237 103.108C46.7455 103.085 46.6742 102.941 46.616 102.885C46.2539 102.533 46.1335 102.117 46.1415 101.613C46.1434 101.481 45.8205 101.299 45.6169 101.234C45.549 101.213 45.3281 101.469 45.2843 101.628C45.2275 101.833 45.2102 102.1 45.2963 102.284C45.4593 102.633 45.2582 102.692 45.0552 102.753C45.0253 102.761 44.9952 102.77 44.9666 102.78C44.8987 102.803 44.8248 102.814 44.7516 102.824C44.6471 102.84 44.544 102.855 44.4602 102.905C44.26 103.025 43.922 103.286 43.951 103.352C44.0626 103.607 44.2744 103.762 44.6334 103.613C44.8691 103.515 45.1969 103.526 45.4405 103.611C45.4976 103.631 45.5133 103.741 45.5309 103.866C45.547 103.979 45.5647 104.105 45.6175 104.183C45.6785 104.274 45.7052 104.396 45.7325 104.519Z" fill="#00160A"/>
<path d="M148.793 101.693H135.73" stroke="black" stroke-width="0.75" stroke-miterlimit="10"/>
<path d="M140.956 130.431L129.2 114.756" stroke="black" stroke-width="0.75" stroke-miterlimit="10"/>
<path d="M113.524 88.6307L105.687 70.3428" stroke="black" stroke-width="0.75" stroke-miterlimit="10"/>
<path d="M110.911 113.45L92.6235 135.656" stroke="black" stroke-width="0.75" stroke-miterlimit="10"/>
<path d="M105.687 99.0805L90.0112 95.1616" stroke="black" stroke-width="0.75" stroke-miterlimit="10"/>
<path d="M142.262 74.2617L129.043 90.4596" stroke="black" stroke-width="0.75" stroke-miterlimit="10"/>
<path d="M135.051 102.007V102.32C135.058 104.294 134.675 106.25 133.925 108.075C133.174 109.901 132.071 111.56 130.678 112.958C129.284 114.356 127.629 115.465 125.806 116.222C123.983 116.979 122.029 117.369 120.055 117.369C116.086 117.314 112.295 115.71 109.493 112.898C106.691 110.086 105.1 106.29 105.059 102.32C105.041 101.157 105.181 99.9968 105.477 98.8717C106.015 96.5543 107.096 94.398 108.631 92.5809C110.167 90.7638 112.112 89.3381 114.308 88.4215C116.137 87.6897 118.085 87.3001 120.055 87.272C123.976 87.311 127.728 88.868 130.524 91.6156C133.321 94.3633 134.943 98.0879 135.051 102.007Z" fill="white" stroke="black" stroke-width="0.75" stroke-miterlimit="10"/>
<path d="M120.056 111.464C125.106 111.464 129.199 107.37 129.199 102.32C129.199 97.2702 125.106 93.1763 120.056 93.1763C115.006 93.1763 110.912 97.2702 110.912 102.32C110.912 107.37 115.006 111.464 120.056 111.464Z" fill="#4755D3"/>
<path d="M144.875 75.5679C147.76 75.5679 150.1 73.2285 150.1 70.3428C150.1 67.457 147.76 65.1177 144.875 65.1177C141.989 65.1177 139.649 67.457 139.649 70.3428C139.649 73.2285 141.989 75.5679 144.875 75.5679Z" fill="#7976CA"/>
<path d="M84.7861 99.0811C87.6719 99.0811 90.0113 96.7417 90.0113 93.856C90.0113 90.9702 87.6719 88.6309 84.7861 88.6309C81.9004 88.6309 79.561 90.9702 79.561 93.856C79.561 96.7417 81.9004 99.0811 84.7861 99.0811Z" fill="#5778ED"/>
<path d="M144.875 143.494C149.203 143.494 152.712 139.985 152.712 135.657C152.712 131.328 149.203 127.819 144.875 127.819C140.546 127.819 137.037 131.328 137.037 135.657C137.037 139.985 140.546 143.494 144.875 143.494Z" fill="#605CEA"/>
<path d="M86.0923 153.944C91.8638 153.944 96.5425 149.266 96.5425 143.494C96.5425 137.723 91.8638 133.044 86.0923 133.044C80.3208 133.044 75.6421 137.723 75.6421 143.494C75.6421 149.266 80.3208 153.944 86.0923 153.944Z" fill="white" stroke="black" stroke-width="0.75" stroke-miterlimit="10"/>
<path d="M156.631 109.531C160.96 109.531 164.469 106.022 164.469 101.693C164.469 97.3645 160.96 93.8555 156.631 93.8555C152.302 93.8555 148.793 97.3645 148.793 101.693C148.793 106.022 152.302 109.531 156.631 109.531Z" fill="white" stroke="black" stroke-width="0.75" stroke-miterlimit="10"/>
<path d="M101.768 70.3428C106.096 70.3428 109.606 66.8338 109.606 62.5051C109.606 58.1765 106.096 54.6675 101.768 54.6675C97.4392 54.6675 93.9302 58.1765 93.9302 62.5051C93.9302 66.8338 97.4392 70.3428 101.768 70.3428Z" stroke="black" stroke-width="0.75" stroke-miterlimit="10"/>
<path fill-rule="evenodd" clip-rule="evenodd" d="M148.737 56.6782C148.737 56.6782 148.831 52.7888 149.651 52.0834C150.105 51.6934 150.186 53.8323 151.816 54.2744C152.937 54.5786 154.224 53.9456 155.447 54.2421C155.972 54.3693 157.219 55.3633 156.917 55.6462C156.597 55.9466 156.095 55.1787 154.202 55.4087C153.458 55.499 152.258 56.5655 151.179 56.6322C149.657 56.7268 148.737 56.6782 148.737 56.6782Z" fill="#FFB61D"/>
<path d="M119.705 107.101C122.251 107.101 124.316 104.83 124.316 102.029C124.316 99.2286 122.251 96.958 119.705 96.958C117.159 96.958 115.095 99.2286 115.095 102.029C115.095 104.83 117.159 107.101 119.705 107.101Z" stroke="white" stroke-width="0.5" stroke-linecap="round" stroke-linejoin="round"/>
<path d="M119.705 108.945C123.27 108.945 126.16 106.055 126.16 102.491C126.16 98.9259 123.27 96.0361 119.705 96.0361C116.14 96.0361 113.25 98.9259 113.25 102.491C113.25 106.055 116.14 108.945 119.705 108.945Z" stroke="#F0F0F0" stroke-width="0.75" stroke-linecap="round" stroke-linejoin="round"/>
<path d="M119.786 103.406H118.416C118.34 103.418 118.261 103.414 118.187 103.395C118.113 103.375 118.047 103.342 117.993 103.296C117.939 103.25 117.899 103.194 117.878 103.133C117.857 103.072 117.855 103.008 117.872 102.946V100.182C117.859 100.122 117.864 100.059 117.886 100C117.909 99.9411 117.949 99.8874 118.002 99.8437C118.056 99.8 118.121 99.7675 118.193 99.749C118.265 99.7304 118.342 99.7264 118.416 99.7373H119.879C120.06 99.7204 120.243 99.7204 120.423 99.7373C120.576 99.7523 120.724 99.7942 120.855 99.8601C120.969 99.9044 121.067 99.9734 121.136 100.06C121.22 100.135 121.284 100.224 121.324 100.321C121.344 100.422 121.344 100.526 121.324 100.628C121.326 100.801 121.261 100.971 121.141 101.114C121.02 101.257 120.848 101.366 120.649 101.426C120.902 101.465 121.131 101.576 121.295 101.738C121.459 101.901 121.549 102.105 121.549 102.316C121.55 102.518 121.478 102.716 121.343 102.884C121.22 103.041 121.044 103.163 120.836 103.238C120.686 103.29 120.529 103.326 120.367 103.345L119.786 103.406ZM118.773 100.336V101.288H119.692C119.865 101.316 120.044 101.316 120.217 101.288C120.325 101.226 120.399 101.132 120.423 101.027C120.454 100.952 120.454 100.871 120.423 100.797C120.436 100.722 120.419 100.646 120.376 100.58C120.332 100.513 120.263 100.46 120.18 100.428C119.946 100.358 119.697 100.327 119.448 100.336H118.773ZM119.729 101.871H118.773V102.946H119.692C120.311 102.946 120.611 102.777 120.611 102.409C120.619 102.332 120.602 102.255 120.563 102.185C120.523 102.115 120.463 102.054 120.386 102.009C120.191 101.871 119.949 101.785 119.692 101.764L119.729 101.871Z" fill="white"/>
</svg>
