<svg width="28" height="28" viewBox="0 0 28 28" fill="none" xmlns="http://www.w3.org/2000/svg">
<path d="M25.1553 22.3433C25.0525 22.0558 24.9539 21.7382 24.8553 21.3863C25.8196 19.6593 26.1896 17.6626 25.9083 15.7042C25.6269 13.7458 24.7098 11.9346 23.2985 10.55C21.8872 9.16534 20.0601 8.28431 18.0991 8.04281C16.1382 7.80132 14.1524 8.21278 12.4481 9.21371C10.7439 10.2146 9.41588 11.7494 8.66909 13.5812C7.92229 15.413 7.79819 17.44 8.31594 19.3494C8.83368 21.2588 9.9645 22.9445 11.5339 24.1465C13.1033 25.3484 15.024 25.9997 16.9997 25.9999C18.9823 26.0073 20.9104 25.3501 22.4768 24.133C23.4133 24.0908 24.3517 24.1368 25.2796 24.2703C25.3568 24.2801 25.4351 24.2687 25.5063 24.2375C25.5776 24.2063 25.639 24.1564 25.6843 24.0931C25.7295 24.0298 25.7568 23.9554 25.7633 23.8778C25.7697 23.8002 25.7551 23.7223 25.721 23.6523C25.5047 23.2286 25.3157 22.7913 25.1553 22.3433ZM11.2313 13.1245H16.9998C17.1123 13.1262 17.2196 13.1722 17.2985 13.2525C17.3775 13.3328 17.4217 13.441 17.4217 13.5537C17.4217 13.6664 17.3775 13.7745 17.2985 13.8548C17.2196 13.9351 17.1122 13.9811 16.9997 13.9828H11.2312C11.119 13.9807 11.0121 13.9346 10.9334 13.8543C10.8548 13.774 10.8107 13.6661 10.8107 13.5537C10.8107 13.4412 10.8548 13.3333 10.9334 13.253C11.0121 13.1728 11.119 13.1266 11.2313 13.1245ZM11.2313 15.412H20.4283C20.5408 15.4137 20.6482 15.4596 20.7272 15.5399C20.8062 15.6202 20.8505 15.7285 20.8505 15.8412C20.8505 15.9539 20.8062 16.0621 20.7272 16.1424C20.6482 16.2228 20.5408 16.2687 20.4282 16.2704H11.2312C11.1189 16.2684 11.0119 16.2223 10.9331 16.142C10.8544 16.0617 10.8103 15.9537 10.8103 15.8412C10.8103 15.7287 10.8544 15.6206 10.9331 15.5404C11.0119 15.4601 11.1189 15.414 11.2313 15.412ZM22.7682 20.8498H11.2313C11.119 20.8476 11.0121 20.8015 10.9335 20.7212C10.8548 20.641 10.8108 20.533 10.8108 20.4206C10.8108 20.3081 10.8548 20.2002 10.9335 20.1199C11.0121 20.0397 11.119 19.9935 11.2313 19.9914H22.7683C22.8806 19.9935 22.9876 20.0396 23.0662 20.1199C23.1449 20.2001 23.189 20.3081 23.189 20.4206C23.189 20.5331 23.1449 20.6411 23.0662 20.7213C22.9875 20.8016 22.8805 20.8477 22.7682 20.8498ZM22.7682 18.5622H11.2313C11.119 18.5602 11.012 18.514 10.9333 18.4338C10.8546 18.3535 10.8105 18.2455 10.8106 18.133C10.8106 18.0206 10.8546 17.9126 10.9333 17.8323C11.012 17.7521 11.119 17.7059 11.2313 17.7039H22.7683C22.8806 17.7059 22.9875 17.7521 23.0662 17.8323C23.1449 17.9126 23.189 18.0206 23.189 18.1331C23.189 18.2455 23.1449 18.3535 23.0662 18.4338C22.9875 18.514 22.8805 18.5602 22.7682 18.5622ZM7.14277 16.9871C7.14234 17.7444 7.23007 18.4991 7.40419 19.236C6.73384 18.9443 6.10194 18.571 5.52279 18.1245C4.58629 18.0786 3.64755 18.1246 2.71999 18.2618C2.64285 18.2715 2.56451 18.2602 2.49327 18.229C2.42203 18.1978 2.36054 18.1479 2.31531 18.0846C2.27007 18.0212 2.24277 17.9468 2.23631 17.8692C2.22984 17.7916 2.24444 17.7137 2.27857 17.6438C2.64963 16.9227 2.93995 16.1627 3.14424 15.3777C2.39287 14.0337 1.99887 12.519 2 10.9787C2.14018 1.21317 15.267 -1.47457 19.2455 7.37777C13.1842 5.8733 7.06233 10.7273 7.14277 16.9871Z" fill="#0065A5"/>
</svg>
