<svg width="29" height="29" viewBox="0 0 29 29" fill="none" xmlns="http://www.w3.org/2000/svg">
<g clip-path="url(#clip0_1327_4468)">
<path d="M29 14.4998C29 15.7183 28.2349 16.7317 27.495 17.7115C27.0513 18.2998 26.6315 18.8557 26.3947 19.4266C26.1433 20.0328 26.0339 20.7793 25.9288 21.5012C25.7542 22.696 25.574 23.9322 24.7526 24.7532C23.9319 25.5739 22.6961 25.7542 21.5012 25.9288C20.7794 26.0345 20.0329 26.1432 19.4267 26.3946C18.8552 26.6314 18.2999 27.0509 17.7116 27.4953C16.7318 28.2349 15.7185 29 14.5003 29C13.2822 29 12.2685 28.2349 11.2887 27.4953C10.7004 27.0509 10.1445 26.6314 9.57365 26.3946C8.96737 26.1432 8.22095 26.0341 7.49907 25.9288C6.30361 25.7542 5.06806 25.5739 4.24705 24.7532C3.42604 23.9325 3.24581 22.6963 3.07147 21.5012C2.96613 20.7793 2.85705 20.0328 2.60566 19.4266C2.36886 18.8557 1.94935 18.2998 1.50497 17.7115C0.765382 16.7317 0 15.7183 0 14.4998C0 13.2814 0.765382 12.268 1.50497 11.2882C1.94935 10.6999 2.36886 10.144 2.60566 9.57313C2.85705 8.96685 2.96613 8.22041 3.07147 7.49853C3.24581 6.30367 3.42635 5.06749 4.24705 4.24647C5.06774 3.42546 6.30361 3.24553 7.49907 3.07088C8.22095 2.96554 8.96737 2.85646 9.57365 2.60506C10.1445 2.36827 10.7004 1.94875 11.2887 1.50437C12.2685 0.76508 13.2812 0 14.5003 0C15.7194 0 16.7321 0.76508 17.7116 1.50468C18.2999 1.94906 18.8555 2.36858 19.4267 2.60537C20.0329 2.85677 20.7794 2.96585 21.5012 3.0712C22.6961 3.24584 23.9319 3.42608 24.7526 4.24678C25.574 5.06749 25.7539 6.30367 25.9288 7.49884C26.0339 8.22072 26.1433 8.96716 26.3947 9.57344C26.6315 10.1443 27.051 10.7002 27.495 11.2885C28.2349 12.2683 29 13.2817 29 14.5002V14.4998Z" fill="white"/>
<path d="M21.7103 12.3226L13.6075 20.4255C13.2706 20.7624 12.7246 20.7624 12.3878 20.4255L7.28987 15.3276C6.95302 14.9907 6.95302 14.4447 7.28987 14.1079L8.53102 12.8667C8.86787 12.5299 9.41386 12.5299 9.75072 12.8667L12.9978 16.1138L19.2498 9.86202C19.5866 9.52516 20.1326 9.52516 20.4695 9.86202L21.7106 11.1032C22.0475 11.44 22.0475 11.986 21.7106 12.3229L21.7103 12.3226Z" fill="#F4A81C"/>
</g>
<defs>
<clipPath id="clip0_1327_4468">
<rect width="29" height="29" fill="white"/>
</clipPath>
</defs>
</svg>
