<svg width="284" height="284" viewBox="0 0 284 284" fill="none" xmlns="http://www.w3.org/2000/svg">
<g clip-path="url(#clip0_443_2334)">
<path d="M284 0H0V284H284V0Z" fill="white"/>
<path fill-rule="evenodd" clip-rule="evenodd" d="M56.8291 138.038C56.8291 138.038 48.4117 130.847 60.2208 106.02C72.0299 81.1931 95.9457 86.6346 111.232 76.8691C133.82 62.4404 124.562 51.1486 152.726 49.3287C188.186 47.037 190.195 84.0702 207.936 84.0702C209.103 84.0702 236.73 72.9696 240.774 103.358C242.81 118.663 207.936 142.001 207.936 142.001C207.936 142.001 193.422 155.157 192.625 161.653C189.282 188.898 196.253 220.104 118.133 234.469C108.03 236.327 91.2537 229.607 81.9979 217.192C74.7472 207.466 45.6603 214.367 42.9453 182.392C41.5768 166.275 56.8291 138.038 56.8291 138.038Z" fill="#F4A81C"/>
<path d="M108.937 116.437C109.201 116.282 109.541 116.369 109.696 116.633L110.323 117.691C112.813 121.868 113.809 123.224 114.867 123.837C115.737 124.341 116.636 124.185 118.283 123.219L118.503 123.088C119.539 122.442 124.277 119.187 126.109 118.018C126.367 117.854 126.709 117.929 126.874 118.187C127.038 118.445 126.963 118.788 126.705 118.952L126.423 119.134C124.381 120.457 119.795 123.607 118.983 124.092C116.99 125.284 115.697 125.552 114.402 124.847L114.312 124.796C112.92 123.99 111.838 122.443 108.742 117.196C108.586 116.932 108.674 116.593 108.937 116.437Z" fill="white"/>
<path d="M117.907 122.839C118.211 122.798 118.489 123.011 118.53 123.314C118.718 124.723 119.17 126.136 119.888 127.554C120.026 127.827 119.916 128.16 119.643 128.299C119.37 128.437 119.037 128.327 118.899 128.054C118.127 126.528 117.637 124.997 117.432 123.461C117.391 123.158 117.604 122.879 117.907 122.839Z" fill="white"/>
<path fill-rule="evenodd" clip-rule="evenodd" d="M182.433 156.668C182.344 156.894 182.148 157.207 181.921 157.503L182.117 157.706L182.344 157.948L182.395 157.997C182.417 158.017 182.434 158.028 182.446 158.032C182.52 158.042 182.571 158.11 182.561 158.184C182.551 158.256 182.483 158.309 182.41 158.298C182.343 158.296 182.102 158.202 181.813 157.968C181.761 157.926 181.709 157.877 181.656 157.823C181.49 158.009 181.322 158.168 181.177 158.267C180.964 158.414 180.779 158.426 180.691 158.366C180.604 158.308 180.521 158.113 180.662 157.719C180.684 157.647 180.76 157.61 180.831 157.632C180.901 157.655 180.94 157.73 180.918 157.801C180.896 157.874 180.893 157.941 180.893 157.994L180.975 157.939C181.004 157.918 181.033 157.894 181.061 157.867C181.16 157.77 181.27 157.651 181.381 157.523C181.205 157.319 181.026 157.079 180.881 156.802C180.81 156.667 180.754 156.524 180.7 156.373C180.664 156.289 180.702 156.19 180.786 156.153C180.87 156.116 180.969 156.154 181.006 156.238C181.168 156.577 181.374 156.868 181.577 157.117L181.645 157.199C181.831 156.956 181.99 156.711 182.062 156.524C182.102 156.422 182.218 156.371 182.32 156.41C182.423 156.451 182.474 156.566 182.433 156.668Z" fill="white"/>
<path fill-rule="evenodd" clip-rule="evenodd" d="M100.02 86.7936L99.682 86.7327C97.797 86.382 96.3512 85.9519 93.6513 85.0154C93.3416 84.9083 93.1776 84.5701 93.2848 84.2604C93.3923 83.951 93.7305 83.787 94.0398 83.8942L94.7127 84.1259C97.0816 84.934 98.4108 85.3047 100.226 85.6247C106.333 86.7016 110.906 83.5663 111.281 77.586C111.301 77.2588 111.583 77.01 111.91 77.0305C112.237 77.0509 112.486 77.3326 112.465 77.6598C112.044 84.3857 106.791 87.9876 100.02 86.7936Z" fill="#00160A"/>
<path fill-rule="evenodd" clip-rule="evenodd" d="M115.281 93.1979L115.622 93.9552L116.399 94.1783C116.441 94.1904 116.465 94.2343 116.453 94.276C116.449 94.2892 116.443 94.301 116.433 94.3104L115.843 94.8981L115.876 95.7437C115.878 95.7872 115.844 95.824 115.8 95.8258C115.785 95.8262 115.77 95.8228 115.758 95.8152L115.09 95.4347C115.068 95.4229 115.043 95.4211 115.021 95.4301L114.307 95.7138C114.266 95.73 114.22 95.7103 114.204 95.6695C114.198 95.6558 114.197 95.6407 114.199 95.6263L114.35 94.7936L113.847 94.1294C113.821 94.0946 113.828 94.045 113.862 94.0188C113.873 94.0105 113.886 94.0052 113.899 94.0033L114.7 93.8909L115.142 93.1884C115.166 93.1513 115.215 93.1403 115.251 93.1634C115.265 93.1718 115.275 93.1839 115.281 93.1979Z" fill="#00160A"/>
<path d="M193.343 74.1655C193.649 74.1436 193.914 74.3734 193.935 74.6786C193.957 74.9838 193.727 75.2485 193.422 75.2705C191.236 75.4265 189.52 76.2732 188.758 78.3683C188.711 78.4944 188.674 78.6164 188.643 78.7319L188.622 78.8114L188.656 78.7417C189.616 76.7813 191.467 75.4193 193.613 75.0736L193.754 75.0524C194.057 75.0099 194.337 75.2212 194.379 75.5242C194.421 75.8271 194.21 76.1073 193.907 76.1494C191.913 76.4277 190.208 77.7526 189.464 79.6528L189.416 79.7804C189.063 80.7517 188.214 81.2174 187.668 80.3863C187.335 79.8792 187.357 78.9787 187.717 77.9897C188.63 75.4802 190.726 74.3522 193.343 74.1655Z" fill="white"/>
<path d="M190.82 70.0386C191.125 70.0166 191.39 70.2464 191.412 70.5517C191.434 70.8569 191.204 71.1215 190.899 71.1435C187.422 71.3915 184.374 73.6495 183.161 76.9822C182.801 77.9701 182.734 78.8145 182.863 79.2424L182.879 79.2901L182.903 79.2549C182.965 79.161 183.035 79.0262 183.103 78.8517L183.132 78.7744C184.413 75.2539 187.52 72.7888 191.163 72.2803C191.467 72.2379 191.747 72.4492 191.789 72.7521C191.831 73.055 191.62 73.3349 191.317 73.3773C188.129 73.8222 185.405 75.9495 184.232 78.9974L184.173 79.1531C183.698 80.4587 182.67 81.0225 182.014 80.0229C181.563 79.3379 181.595 78.0451 182.12 76.6031C183.484 72.8562 186.911 70.3173 190.82 70.0386Z" fill="white"/>
<path d="M187.42 64.5375C187.725 64.516 187.99 64.7454 188.012 65.0506C188.034 65.3558 187.804 65.6209 187.499 65.6425C182.54 65.9962 178.192 69.2167 176.462 73.9701C175.873 75.5878 175.824 76.9589 176.146 77.5288L176.175 77.5773C176.222 77.6496 176.207 77.6515 176.219 77.6417L176.226 77.6368C176.389 77.5474 176.604 77.2429 176.801 76.7374L176.84 76.6337C178.606 71.7788 182.891 68.3787 187.916 67.6774C188.219 67.635 188.499 67.8463 188.541 68.1493C188.584 68.4522 188.372 68.732 188.069 68.7744C183.506 69.4114 179.608 72.4657 177.945 76.8393L177.881 77.0127C177.266 78.7016 176.033 79.3782 175.249 78.1854C174.665 77.296 174.707 75.5522 175.421 73.5915C177.302 68.4234 182.029 64.9223 187.42 64.5375Z" fill="white"/>
<path d="M181.351 59.367C181.651 59.3079 181.942 59.5037 182.001 59.8039C182.06 60.1042 181.864 60.395 181.564 60.4541C177.075 61.333 173.465 64.7618 172.418 69.2971C172.063 70.8322 172.17 72.0803 172.518 72.5563L172.564 72.6161L172.568 72.6245L172.574 72.6192C172.699 72.5071 172.844 72.22 172.957 71.7747L172.981 71.677C174.058 67.0126 177.614 63.402 182.156 62.1895C182.452 62.1104 182.756 62.2861 182.834 62.5818C182.913 62.8772 182.737 63.1809 182.442 63.2597C178.35 64.3521 175.135 67.5742 174.103 71.7494L174.06 71.9262C173.68 73.5715 172.59 74.3565 171.707 73.3151C171.06 72.5536 170.902 70.9375 171.338 69.048C172.485 64.0833 176.437 60.3292 181.351 59.367Z" fill="white"/>
<path d="M119.954 127.675L120.273 127.559C123.295 126.475 125.845 125.996 126.492 126.655C127.06 127.233 127.567 128.28 128.046 129.815C128.138 130.107 127.975 130.417 127.683 130.509C127.391 130.6 127.08 130.437 126.989 130.145C126.574 128.818 126.151 127.924 125.751 127.483L125.734 127.465L125.719 127.466C125.644 127.45 125.53 127.443 125.385 127.446C125.066 127.452 124.63 127.508 124.109 127.611C123.037 127.823 121.682 128.218 120.337 128.715C118.087 129.544 116.213 130.52 115.178 131.4C114.798 131.724 114.104 130.823 114.772 130.307C115.973 129.379 117.795 128.471 119.954 127.675Z" fill="white"/>
<path d="M118.433 117.212C118.433 119.06 120.386 121.06 120.802 121.174C121.097 121.255 116.014 124.567 116.014 124.567C114.177 124.808 113.099 123.256 113.099 120.943C113.099 120.637 118.433 116.906 118.433 117.212Z" fill="white"/>
<path fill-rule="evenodd" clip-rule="evenodd" d="M112.439 118.183C113.082 118.058 113.519 117.522 113.415 116.986C113.311 116.449 112.705 116.116 112.061 116.241C111.418 116.366 110.981 116.902 111.085 117.439C111.189 117.975 111.795 118.308 112.439 118.183Z" fill="#0CE39D"/>
<path d="M178 56.2944C178.302 56.2421 178.588 56.4439 178.641 56.745C178.694 57.0464 178.492 57.3334 178.19 57.3857C176.757 57.6356 175.312 58.5031 173.822 59.883C171.887 61.6748 170.608 64.1506 169.904 67.4518C169.336 70.1112 169.86 73.4347 171.344 76.3561C173.032 79.6797 176.019 80.5014 179.502 81.1376C183.077 81.7904 184.065 81.3871 187.444 80.186L187.755 80.0731C188.216 79.8982 190.375 79.0537 190.894 78.8966C191.986 78.5664 192.731 78.5941 193.271 79.1696C193.481 79.3927 193.47 79.7433 193.247 79.9527C193.037 80.1489 192.716 80.1515 192.505 79.9671L192.464 79.9277C192.304 79.7581 191.975 79.7384 191.312 79.9285L191.215 79.9569C190.715 80.108 188.375 81.0266 188.071 81.1376C184.422 82.4693 183.185 82.9362 179.303 82.227C175.456 81.5245 172.193 80.4726 170.356 76.8579C168.76 73.7161 168.198 70.1354 168.82 67.2204C169.573 63.6973 170.965 61.0179 173.069 59.07C174.716 57.5455 176.356 56.581 178 56.2944Z" fill="white"/>
<path d="M204.056 100.366C200.898 100.205 198.412 102.643 198.386 105.917C198.364 108.675 199.918 110.946 202.052 111.386C202.915 111.564 204.572 111.35 205.801 110.661C207.667 109.66 209.093 107.603 209.273 105.849C209.566 102.993 207.254 100.53 204.056 100.366Z" fill="white"/>
<path d="M146.84 99.7897C147.849 101.827 149.415 106.531 148.738 106.509C146.856 106.446 144.339 103.554 142.578 99.6443L142.439 99.33C140.901 95.78 139.981 93.5496 141.05 93.1225C142.156 92.6806 144.759 95.5853 146.84 99.7897Z" fill="white"/>
<path fill-rule="evenodd" clip-rule="evenodd" d="M141.05 93.0784C142.156 92.6365 144.797 95.4083 146.879 99.6127C147.887 101.65 148.571 103.604 148.75 105.005C148.75 105.005 145.344 97.828 143.266 95.1993C142.468 94.1898 141.05 93.0784 141.05 93.0784Z" fill="#E7EAEE"/>
<path d="M140.47 111.153C140.551 110.858 140.855 110.684 141.15 110.766C141.445 110.847 141.619 111.151 141.538 111.446C141.433 111.826 139.966 112.821 136.765 114.794L134.745 116.031C130.756 118.459 128.094 120.013 127.761 120.013C125.559 120.013 123.574 117.935 122.125 114.657C120.86 111.795 120.204 108.387 120.5 106.155C120.593 105.458 122.915 103.654 126.499 101.237L127.013 100.893C130.185 98.7799 132.895 97.213 133.876 97.015C134.176 96.9544 134.468 97.1487 134.529 97.4486C134.567 97.636 125.825 105.005 124.97 109.896C124.392 113.208 126.578 118.852 127.663 118.903L127.761 118.905C127.673 118.905 127.701 118.884 127.712 118.879L127.812 118.827C127.885 118.789 127.972 118.741 128.073 118.686L128.534 118.429C128.71 118.329 128.907 118.216 129.122 118.092L129.672 117.773C130.721 117.16 132.03 116.38 133.366 115.572L134.636 114.799C136.181 113.855 137.577 112.985 138.625 112.31L139.166 111.958C139.501 111.739 139.783 111.549 140.01 111.391L140.091 111.334C140.216 111.246 140.32 111.17 140.401 111.109C140.401 111.109 140.492 111.072 140.47 111.153Z" fill="white"/>
<path fill-rule="evenodd" clip-rule="evenodd" d="M141.568 100.099C140.23 97.1268 139.639 94.4034 140.087 92.7543C139.277 93.0118 138.264 93.4742 137.259 94.0509C135.923 94.8169 134.864 95.6738 134.839 95.8598C134.58 97.8035 135.572 101.585 137.218 104.956C138.98 108.563 141.076 110.879 142.698 110.879C142.853 110.879 143.298 110.787 143.743 110.632C144.377 110.41 144.971 110.087 145.457 109.665C145.699 109.455 145.949 109.218 146.211 108.953L146.526 108.627C146.712 108.43 146.904 108.219 147.203 107.884L147.62 107.418L147.637 107.399C145.551 106.636 143.368 103.948 141.735 100.462L141.568 100.099ZM133.741 95.7136C133.913 94.4171 138.768 91.6142 140.983 91.4328C141.076 91.3748 141.175 91.3245 141.281 91.2821C143.2 90.5157 146.123 93.7998 148.468 98.4207L148.629 98.7414C149.688 100.879 150.41 102.942 150.607 104.485C150.842 106.329 150.308 107.551 148.908 107.614C148.87 107.759 148.775 107.881 148.65 107.954L148.628 107.965L148.574 108.02C148.519 108.076 148.454 108.146 148.354 108.257L147.666 109.025C147.416 109.301 147.239 109.487 146.999 109.73C146.719 110.014 146.449 110.271 146.184 110.501C145.111 111.433 143.526 111.986 142.698 111.986C142.259 111.986 141.815 111.885 141.369 111.69C140.894 112.185 139.431 113.15 136.766 114.793L134.745 116.03C130.756 118.458 128.095 120.012 127.762 120.012C127.008 120.012 126.279 119.768 125.588 119.316C125.582 119.32 125.576 119.325 125.569 119.329L125.287 119.511C124.306 120.147 122.736 121.205 121.281 122.186L121.281 122.187L121.19 122.248C121.378 123.593 121.807 124.941 122.477 126.295C124.856 125.559 126.74 125.311 127.284 125.864C127.852 126.442 128.358 127.488 128.838 129.023C128.929 129.315 128.766 129.626 128.474 129.717C128.182 129.808 127.872 129.646 127.781 129.354C127.366 128.026 126.942 127.133 126.542 126.691L126.525 126.674L126.511 126.675C126.435 126.659 126.321 126.651 126.177 126.654C125.857 126.66 125.421 126.717 124.9 126.82C123.828 127.032 122.474 127.427 121.128 127.923C118.053 129.058 115.679 130.464 115.191 131.529C115.048 131.841 115.067 132.297 115.237 132.996L115.269 133.122C115.295 133.221 115.322 133.319 115.357 133.443L115.556 134.151C115.565 134.182 115.573 134.213 115.583 134.253C115.66 134.549 115.483 134.852 115.187 134.929C114.89 135.006 114.588 134.828 114.511 134.531L114.413 134.173L114.249 133.595C114.23 133.527 114.213 133.464 114.197 133.4C113.937 132.399 113.896 131.698 114.184 131.068C114.673 130 116.203 128.894 118.333 127.887L117.87 126.691L117.755 126.388C117.58 125.916 117.376 125.276 117.251 124.809C115.586 125.706 114.427 125.856 113.266 125.224L113.176 125.173C112.946 125.04 112.725 124.887 112.502 124.7L106.01 128.643C106.07 128.773 106.131 128.904 106.193 129.036C106.484 129.661 105.971 130.103 105.183 130.447L105.098 130.484C104.42 130.764 103.809 130.828 103.446 130.429C101.936 128.772 100.338 124.809 101.197 123.902C101.363 123.728 101.798 123.469 102.623 123.037L102.688 123.003C102.705 122.991 102.723 122.98 102.741 122.97L108.809 119.682C108.823 119.675 108.837 119.668 108.851 119.662C108.477 119.042 108.066 118.352 107.612 117.582C107.542 117.471 107.517 117.34 107.534 117.215C107.545 117.135 107.574 117.057 107.62 116.987C107.645 116.949 107.675 116.914 107.71 116.882C108.957 115.699 110.657 114.465 112.79 113.137L113.048 112.977C113.971 112.408 115.843 111.34 117.433 110.433C118.666 109.73 119.731 109.123 120.051 108.92L120.128 108.868C120.244 108.784 120.382 108.751 120.515 108.765C120.409 107.804 120.4 106.911 120.501 106.154C120.594 105.457 122.915 103.653 126.5 101.236L127.013 100.892C130.018 98.8902 132.61 97.3782 133.708 97.0567C133.678 96.5607 133.688 96.1089 133.741 95.7136ZM133.829 98.1799C132.753 98.5729 130.059 100.172 127.119 102.154L126.648 102.474C125.325 103.377 124.103 104.257 123.18 104.974L122.923 105.175C122.512 105.502 122.178 105.783 121.937 106.009C121.815 106.122 121.72 106.219 121.652 106.296L121.605 106.351C121.595 106.362 121.592 106.358 121.596 106.323L121.599 106.3C121.598 106.309 121.597 106.316 121.596 106.323L121.581 106.442C121.049 111.116 124.429 118.75 127.664 118.902L127.74 118.904C127.746 118.904 127.754 118.904 127.762 118.904L127.74 118.904C127.679 118.9 127.703 118.883 127.712 118.878L127.812 118.826C127.886 118.788 127.973 118.741 128.074 118.685L128.535 118.428C128.711 118.328 128.908 118.215 129.122 118.091L129.672 117.772C130.721 117.159 132.031 116.379 133.366 115.571L134.637 114.798C136.181 113.855 137.577 112.985 138.626 112.309L139.166 111.958C139.501 111.738 139.784 111.548 140.01 111.391L140.092 111.333C140.212 111.249 140.312 111.176 140.391 111.115C138.965 110.068 137.56 108.135 136.313 105.625L136.223 105.443C135.021 102.982 134.152 100.318 133.829 98.1799ZM120.667 109.839C120.268 110.09 119.089 110.763 117.777 111.512C116.223 112.4 114.482 113.394 113.629 113.92C111.616 115.16 109.993 116.311 108.788 117.394L109.187 118.068C110.934 120.998 111.945 122.541 112.759 123.412C112.489 122.771 112.348 121.957 112.348 120.937C112.348 120.89 112.354 120.844 112.365 120.801C112.312 120.588 112.387 120.355 112.574 120.218L112.952 119.937C113.178 119.767 113.55 119.482 113.974 119.158L113.974 119.158C114.9 118.45 116.071 117.556 116.488 117.257C117.802 116.316 118.77 115.788 119.651 115.605C120.072 115.517 120.4 115.766 120.494 116.152L120.51 116.222C120.532 116.337 120.536 116.45 120.536 116.697L120.535 116.775C120.531 117.696 120.622 118.228 121.012 118.843C121.28 119.263 121.672 119.647 122.219 119.99C122.276 120.026 122.324 120.071 122.363 120.122C123.246 119.529 124.072 118.978 124.682 118.583C123.721 117.653 122.856 116.307 122.126 114.656C121.447 113.119 120.943 111.424 120.667 109.839ZM149.508 104.626C149.329 103.224 148.645 101.27 147.636 99.2329C145.555 95.029 142.798 91.869 141.692 92.3109C140.623 92.738 140.902 95.7791 142.439 99.3291L142.578 99.6434C144.339 103.554 146.856 106.445 148.738 106.508C149.415 106.531 149.68 105.977 149.508 104.626ZM109.424 120.598C110.385 122.152 111.087 123.178 111.698 123.892L105.544 127.63C104.914 126.248 104.35 124.961 103.803 123.655L109.337 120.656C109.368 120.64 109.397 120.62 109.424 120.598ZM121.414 126.644C120.817 125.409 120.405 124.17 120.178 122.93C119.383 123.465 118.691 123.928 118.246 124.217C118.322 124.599 118.606 125.506 118.849 126.151L119.304 127.321L119.347 127.435C119.794 127.247 120.261 127.063 120.745 126.884L121.065 126.768C121.182 126.726 121.299 126.684 121.414 126.644ZM121.395 120.773C120.828 120.38 120.392 119.933 120.077 119.437C119.567 118.634 119.433 117.949 119.428 116.913L119.427 116.82L119.349 116.849C118.787 117.067 118.117 117.462 117.275 118.056L117.133 118.157C116.732 118.445 115.592 119.316 114.671 120.019L114.671 120.02C114.159 120.411 113.716 120.75 113.506 120.907L113.456 120.943C113.458 122.786 113.917 123.632 114.773 124.042L114.841 124.073C115.045 124.164 115.191 124.209 115.606 124.323C115.614 124.325 115.623 124.328 115.631 124.33C116.062 124.185 116.557 123.943 117.147 123.597L117.367 123.465C117.855 123.161 119.164 122.278 120.603 121.307C120.864 121.131 121.129 120.952 121.395 120.773ZM102.824 124.184L102.909 124.387C103.497 125.782 104.108 127.163 104.802 128.669L105.072 129.254C104.983 129.313 104.867 129.376 104.739 129.432C104.555 129.512 104.369 129.569 104.229 129.588L104.184 129.592L104.117 129.511C103.593 128.865 102.984 127.769 102.544 126.678C102.31 126.097 102.143 125.564 102.068 125.155C102.037 124.988 102.023 124.848 102.024 124.742L102.028 124.672C102.029 124.655 102.029 124.646 102.025 124.644L102.041 124.634C102.135 124.569 102.374 124.429 102.73 124.236L102.824 124.184ZM110.464 122.964C110.25 122.746 109.899 122.742 109.681 122.957C109.297 123.334 108.759 123.685 107.818 124.206L106.862 124.737C106.609 124.881 106.402 125.005 106.214 125.127C106.058 125.229 105.918 125.327 105.792 125.424C105.55 125.611 105.506 125.959 105.693 126.201C105.88 126.443 106.227 126.487 106.469 126.3C106.569 126.223 106.685 126.143 106.817 126.057C106.94 125.977 107.074 125.895 107.23 125.804L107.535 125.629L108.507 125.091C109.44 124.567 110.003 124.192 110.457 123.747C110.675 123.533 110.678 123.183 110.464 122.964Z" fill="#00160A"/>
<path d="M98.0742 179.212C100.844 194.654 111.225 206.263 124.472 209C126.903 209.503 131.114 209.569 135.474 209.005C141.092 208.278 146.559 206.61 151.367 203.907C164.575 196.808 174.597 182.32 175.896 169.638C177.037 158.498 172.781 148.206 165.077 140.864C165.077 140.864 140.874 152.752 128.993 159.509C118.655 165.388 98.0742 179.212 98.0742 179.212Z" fill="white"/>
<path d="M154.439 133.161C149.475 130.712 143.255 128.777 137.156 128.465C114.787 127.321 97.1944 145.191 97.0107 168.24C97.0107 168.24 121.977 152.338 134.947 144.665C141.4 140.848 154.439 133.161 154.439 133.161Z" fill="white"/>
<path fill-rule="evenodd" clip-rule="evenodd" d="M200.449 121.415C200.374 125.265 196.299 131.675 189.748 138.928C185.003 144.182 179.482 149.261 174.852 152.683L174.564 152.894L174.755 153.745C175.881 158.679 177.351 164.042 176.796 169.452C175.448 182.58 165.179 197.392 151.608 204.669C146.659 207.446 141.033 209.158 135.263 209.904L134.712 209.971C130.41 210.478 126.292 210.394 123.776 209.876C114.009 207.862 105.74 201.034 100.741 191.153C100.724 191.12 100.711 191.086 100.701 191.051C100.043 191.427 99.1575 191.846 98.7531 191.984L97.6451 192.358C85.705 196.374 73.8675 199.734 69.0319 197.637C67.1908 196.839 66.5615 195.303 67.3317 193.241C68.0796 191.236 70.1543 188.653 73.6346 185.439L73.8258 185.263C77.124 182.239 84.4482 176.715 95.7983 168.689L95.801 168.542C96.355 144.761 114.827 126.632 138.046 128.112C145.148 128.564 150.804 131.088 153.629 132.638L154.871 131.971C166.523 125.741 175.872 121.362 183.004 118.741C194.735 114.43 200.536 116.445 200.449 121.415ZM183.387 121.295C170.27 126.115 149.54 136.956 120.677 154.394L119.8 154.925C97.3259 168.53 82.4439 178.865 74.5744 186.079L74.1867 186.437L73.819 186.782C67.9118 192.363 66.8648 195.49 69.4727 196.621C73.9368 198.557 85.9246 195.293 97.6648 191.442L98.7531 191.083C99.8001 190.737 100.495 190.537 100.924 190.445C100.943 190.432 100.963 190.42 100.985 190.409C101.132 190.335 101.296 190.332 101.438 190.388C101.469 190.394 101.489 190.403 101.5 190.417C101.595 190.468 101.676 190.549 101.729 190.653C106.582 200.246 114.579 206.091 124 208.033C126.445 208.537 130.57 208.611 134.863 208.08L135.121 208.048C140.759 207.32 146.25 206.405 151.076 203.698C164.337 196.587 174.384 182.095 175.694 169.339C176.253 163.887 175.539 158.536 173.64 153.555C173.484 153.664 173.328 153.772 173.174 153.877C172.882 154.076 172.991 153.754 173.5 152.911C173.527 152.801 173.588 152.701 173.675 152.626L173.832 152.378C173.887 152.291 173.945 152.201 174.005 152.107L174.662 151.554C180.849 146.32 185.604 141.865 188.926 138.186L189.306 137.763C195.453 130.884 199.274 124.807 199.337 121.394C199.406 117.65 194.466 117.223 183.387 121.295ZM127.769 191.341C129.255 195.883 127.007 198.804 123.049 198.956C119.392 199.095 116.062 196.791 116.232 193.516C116.379 190.687 118.317 187.661 120.702 186.55C123.587 185.207 126.295 186.837 127.769 191.341ZM121.286 187.805C119.378 188.694 117.736 191.258 117.615 193.588C117.495 195.909 120.06 197.684 122.996 197.572C126.066 197.455 127.642 195.407 126.453 191.771C125.214 187.987 123.331 186.853 121.286 187.805ZM157.984 182.086C159.88 185.669 159.384 189.189 156.468 190.766L156.386 190.809L156.344 190.852C152.434 194.723 147.549 195.193 144.364 192.387L144.255 192.289C140.586 188.927 141.46 183.153 147.299 178.626C151.056 175.713 155.645 177.667 157.984 182.086ZM148.026 179.564C142.725 183.674 141.98 188.595 145.056 191.413C147.263 193.435 150.523 193.546 153.568 191.585L153.628 191.545L153.605 191.54C153.395 191.485 153.225 191.315 153.177 191.093L153.168 191.036C153.129 190.711 153.362 190.416 153.687 190.378C154.432 190.289 155.078 190.11 155.626 189.852L155.701 189.816L155.791 189.722C156.149 189.346 156.497 188.937 156.836 188.494L156.948 188.345C157.075 188.175 157.275 188.093 157.472 188.109L157.487 188.11L157.495 188.095C158.206 186.69 158.038 184.786 156.997 182.76L156.935 182.641C154.901 178.798 151.1 177.18 148.026 179.564ZM183.321 136.973C183.016 138.057 182.088 139.544 180.665 141.305C178.184 144.375 174.458 147.948 171.2 150.392L171.923 149.597C171.916 149.59 171.91 149.582 171.905 149.572L171.655 149.114C170.025 146.139 168.209 143.204 165.275 140.812C157.678 143.944 148.968 148.225 141.032 152.702L138.431 154.172C119.276 165.023 109.198 171.519 98.4214 179.505C98.8284 181.337 99.3408 183.124 99.9546 184.856C100.051 185.128 98.7924 186.145 98.5618 186.02C96.4121 187.46 93.0458 188.506 91.129 188.561C89.261 188.614 88.1818 187.858 88.7381 186.35C89.2031 185.089 90.9548 183.29 94.1076 180.879L94.4669 180.606L95.1936 180.06C107.059 171.177 118.806 163.968 140.488 151.737L141.395 151.228C156.266 142.927 173.487 135.449 181.375 134.759C182.996 134.617 183.732 135.514 183.321 136.973ZM96.9786 180.58L94.4927 182.456C92.2748 184.137 90.6757 185.381 89.8124 186.179L89.7488 186.238C88.6945 187.226 89.8877 187.488 91.0976 187.454C92.9303 187.402 95.7374 186.012 98.1135 184.747C97.6746 183.387 97.2956 181.996 96.9786 180.58ZM135.865 174.566C136.162 174.641 136.341 174.942 136.266 175.239C136.19 175.535 135.889 175.714 135.593 175.639C134.103 175.261 133.223 175.406 132.938 175.807C132.749 176.073 132.854 176.527 133.208 176.817C133.484 177.043 133.853 177.151 134.106 177.096C134.327 177.048 134.45 176.878 134.45 176.453C134.45 176.147 134.698 175.899 135.004 175.899C135.31 175.899 135.558 176.147 135.558 176.453C135.558 177.378 135.095 178.015 134.342 178.178C133.736 178.31 133.031 178.103 132.506 177.674C131.732 177.041 131.479 175.947 132.035 175.165C132.645 174.308 133.982 174.087 135.865 174.566ZM111.535 172.532C112.39 172.788 112.757 173.444 112.873 174.428L112.885 174.535L112.899 174.697C112.901 174.724 112.903 174.751 112.905 174.781L112.934 175.343L112.942 175.469C112.947 175.526 112.952 175.571 112.958 175.611L112.972 175.696L112.981 175.733L112.997 175.747C113.168 175.914 113.213 176.177 113.103 176.393L113.074 176.443C112.908 176.7 112.566 176.774 112.309 176.608C111.955 176.38 111.875 176.145 111.832 175.471L111.797 174.812C111.792 174.752 111.788 174.701 111.782 174.642C111.719 173.997 111.562 173.697 111.217 173.593C110.25 173.304 109.695 173.599 109.519 174.246C109.362 174.822 109.589 175.428 109.986 175.596L110.086 175.633C110.346 175.744 110.483 176.036 110.396 176.311C110.303 176.602 109.991 176.763 109.7 176.67C108.645 176.334 108.144 175.081 108.45 173.955C108.792 172.699 109.979 172.066 111.535 172.532ZM151.495 164.051C153.029 166.207 152.744 168.951 150.283 170.192C150.01 170.33 149.677 170.221 149.539 169.947C149.401 169.674 149.511 169.341 149.784 169.204C151.566 168.305 151.769 166.347 150.593 164.693C149.45 163.086 147.859 162.909 146.765 164.646C145.606 166.487 145.69 167.567 146.525 168.054C147.187 168.44 148.254 168.359 148.547 168.043L148.576 168.009C148.753 167.759 149.099 167.701 149.348 167.878C149.597 168.056 149.656 168.402 149.478 168.651C148.862 169.516 147.105 169.675 145.967 169.011C144.509 168.161 144.37 166.371 145.828 164.055C147.389 161.576 149.936 161.859 151.495 164.051ZM128.531 160.875C128.82 160.875 129.056 161.095 129.083 161.376L129.085 161.429C129.085 161.527 129.176 161.635 129.501 161.874L129.809 162.095C130.144 162.339 130.305 162.491 130.458 162.732C130.808 163.284 131.006 163.847 131.006 164.507C131.006 166.2 128.463 168.503 125.687 169.527C122.359 170.755 119.633 169.845 118.891 166.43C118.826 166.131 119.016 165.836 119.315 165.771C119.614 165.706 119.909 165.896 119.974 166.195C120.55 168.845 122.537 169.509 125.303 168.488C127.692 167.606 129.898 165.609 129.898 164.507C129.898 164.081 129.768 163.713 129.522 163.324L129.489 163.278C129.432 163.206 129.344 163.129 129.185 163.011L128.82 162.748C128.213 162.301 127.978 161.998 127.978 161.429C127.978 161.123 128.225 160.875 128.531 160.875ZM131.131 130.176L130.782 130.215C111.881 132.488 97.703 147.605 96.9298 167.89L98.9575 166.464C104.778 162.378 111.535 157.711 119.226 152.462L120.725 151.556C125.2 148.857 129.478 146.316 133.562 143.933C133.488 143.802 133.467 143.642 133.518 143.488C133.803 142.616 134.067 142.03 134.551 141.444C136.064 139.608 138.137 138.711 139.606 139.864C139.751 139.977 139.824 140.148 139.818 140.319L141.122 139.575C145.231 137.236 149.12 135.075 152.789 133.091L151.356 132.683C149.23 132.085 146.586 131.375 143.952 130.829C143.976 132.582 142.664 133.981 140.484 134.944C138.631 135.763 136.217 136.203 134.5 136.1C131.288 135.909 129.48 133.092 131.131 130.176ZM164.286 154.229C165.641 157.932 164.523 161.3 161.138 161.278C156.316 161.246 151.608 157.036 152.369 153.264C152.709 151.582 153.974 150.093 156.173 149.35C159.686 148.164 162.906 150.46 164.286 154.229ZM156.528 150.4C154.71 151.014 153.718 152.181 153.455 153.483C152.851 156.477 156.95 160.143 161.146 160.17C163.549 160.186 164.375 157.697 163.245 154.61C162.05 151.344 159.377 149.438 156.528 150.4ZM115.8 137.288L115.84 137.345L116.106 137.769C116.237 137.984 116.354 138.195 116.465 138.423C117.692 140.931 117.66 144.219 115.584 148.783C114.644 150.85 112.248 153.629 110.155 155.287C107.484 157.405 105.49 157.886 103.109 157.624L102.402 157.541L102.316 157.533C102.269 157.53 102.239 157.53 102.206 157.531L102.157 157.533C102.121 157.534 102.108 157.532 102.105 157.528V157.524L102.088 157.553C101.927 157.783 101.615 157.859 101.364 157.719C101.097 157.571 101.001 157.234 101.15 156.966C101.348 156.608 101.681 156.446 102.105 156.426C102.217 156.421 102.336 156.425 102.477 156.437L102.642 156.452L103.099 156.508C105.268 156.771 106.993 156.381 109.467 154.419C111.433 152.862 113.717 150.213 114.576 148.324C116.519 144.053 116.547 141.111 115.47 138.91C115.398 138.763 115.324 138.624 115.242 138.484L115.127 138.29L114.894 137.923C114.732 137.663 114.81 137.322 115.069 137.159C115.312 137.007 115.628 137.066 115.8 137.288ZM181.471 135.862C177.93 136.172 172.38 137.921 165.981 140.523L166.168 140.688C167.949 142.286 171.542 146.075 172.667 148.777L173.787 147.535C176.551 144.46 178.556 142.152 179.803 140.609L180.055 140.292C181.247 138.78 182.017 137.516 182.255 136.673L182.288 136.545C182.436 135.937 182.265 135.792 181.471 135.862ZM128.437 137.661C129.815 138.328 130.375 139.811 129.468 141.157C129.297 141.41 128.952 141.477 128.699 141.306C128.445 141.135 128.378 140.791 128.549 140.537C129.048 139.798 128.767 139.051 127.954 138.659C127.099 138.245 126.162 138.483 125.679 139.386C125.233 140.217 125.202 141.343 125.558 142.081C125.871 142.728 126.325 142.853 127.019 142.33C127.263 142.146 127.61 142.195 127.794 142.44C127.978 142.684 127.929 143.031 127.685 143.215C126.421 144.167 125.17 143.825 124.56 142.562C124.05 141.503 124.09 140.004 124.702 138.862C125.482 137.406 127.073 137.002 128.437 137.661ZM135.405 142.148C135.147 142.462 134.963 142.792 134.792 143.216C136.219 142.387 137.622 141.577 139.001 140.786L138.961 140.763L138.922 140.735C138.076 140.071 136.586 140.716 135.405 142.148ZM133.043 130.006L132.559 130.04L132.526 130.081C130.612 132.501 131.349 134.465 133.964 134.744C135.842 134.944 140.827 133.551 141.412 133.062C141.982 132.585 142.702 131.49 142.813 130.603C141.121 130.285 139.466 130.051 137.989 129.975C136.481 129.898 134.993 129.9 133.53 129.978L133.043 130.006Z" fill="#00160A"/>
<path d="M183.05 121.432C194.781 117.121 194.512 118.4 183.432 122.471C170.315 127.292 120.802 157.494 120.802 157.494C98.3275 171.099 96.6462 168.999 118.43 155.76L119.773 154.946C120.026 154.793 144.827 139.14 162.549 130.765C164.543 129.823 181.715 121.922 183.05 121.432Z" fill="white"/>
<path fill-rule="evenodd" clip-rule="evenodd" d="M203.306 99.9716C199.671 99.7856 196.833 102.61 196.804 106.306C196.779 109.403 198.556 112.032 201.101 112.557C201.772 112.695 203.706 112.695 205.384 111.754L205.523 111.677C207.638 110.48 209.077 108.201 209.27 106.326C209.611 103.002 206.94 100.157 203.306 99.9716ZM197.595 106.313C197.595 106.289 197.596 106.265 197.596 106.241C197.619 106.234 197.641 106.224 197.663 106.213C200.513 104.678 202.272 103.508 202.974 102.663C203.438 102.105 203.664 101.476 203.646 100.793C204.125 100.846 204.581 100.95 205.009 101.101C205.006 101.121 205.005 101.142 205.006 101.164C205.04 102.147 204.778 102.934 204.221 103.546C203.58 104.249 202.804 104.919 201.921 105.55C200.978 106.226 199.965 106.822 198.952 107.332C198.715 107.451 198.491 107.56 198.28 107.658L197.974 107.796C197.93 107.816 197.889 107.833 197.852 107.85L197.761 107.888C197.649 107.389 197.591 106.861 197.595 106.313ZM197.983 108.653C198.234 109.348 198.597 109.963 199.046 110.465L199.282 110.329C203.002 108.176 205.31 106.484 206.184 105.291C207.068 104.085 207.382 103.158 207.185 102.528C207.18 102.514 207.176 102.499 207.174 102.484C206.784 102.075 206.321 101.724 205.799 101.446C205.776 102.492 205.446 103.375 204.806 104.079C204.125 104.827 203.307 105.532 202.382 106.194C201.402 106.895 200.355 107.511 199.308 108.039C199.003 108.193 198.715 108.33 198.45 108.45L198.142 108.587L197.983 108.653ZM200.945 111.702C200.478 111.563 200.043 111.333 199.651 111.03C203.479 108.816 205.862 107.071 206.822 105.759C207.418 104.945 207.8 104.213 207.955 103.559C208.147 103.919 208.293 104.303 208.386 104.703C208.366 104.744 208.353 104.789 208.348 104.837C208.251 105.762 207.775 106.68 206.903 107.594C206.067 108.471 204.261 109.737 201.502 111.374L200.945 111.702ZM202.283 111.83C203.132 111.777 204.171 111.527 205.01 111.057C206.571 110.219 207.824 108.643 208.298 107.124C208.069 107.467 207.795 107.805 207.476 108.14C206.617 109.041 204.89 110.266 202.283 111.83ZM197.825 105.224L197.685 105.3C198.134 102.686 200.223 100.81 202.853 100.755C202.881 101.269 202.721 101.73 202.366 102.157C201.792 102.847 200.27 103.88 197.825 105.224Z" fill="#00160A"/>
<path fill-rule="evenodd" clip-rule="evenodd" d="M231.867 92.3907C231.941 92.399 231.992 92.466 231.984 92.5391C231.983 92.647 231.914 92.7057 231.82 92.7436C231.736 92.7773 231.602 92.7644 231.524 92.775C230.667 92.8409 229.993 92.2108 229.697 91.3982C229.412 90.6174 229.488 89.6839 230.005 89.1084C230.064 89.0406 230.167 89.0338 230.235 89.0932C230.303 89.1527 230.689 89.2561 230.629 89.3238C230.203 89.821 229.915 90.1228 230.317 91.3031C230.719 92.4834 231.812 92.3842 231.867 92.3907Z" fill="#E7EAEE"/>
<path fill-rule="evenodd" clip-rule="evenodd" d="M95.4506 100.842C95.2253 100.687 94.9174 100.744 94.7629 100.97C94.6085 101.195 94.6656 101.503 94.8906 101.657C95.1382 101.827 95.3567 101.984 95.5494 102.129C95.3419 102.295 95.1344 102.484 94.9186 102.7L94.4812 103.144C94.2889 103.338 94.2904 103.651 94.4843 103.843C94.6781 104.036 94.9913 104.034 95.1836 103.84L95.7085 103.31C95.9221 103.102 96.122 102.928 96.3234 102.783C96.7706 103.227 96.9066 103.552 96.9142 103.875V103.958L96.9164 104.008C96.9418 104.258 97.1523 104.452 97.4087 104.452C97.6817 104.452 97.9032 104.231 97.9032 103.958L97.9028 103.861C97.8938 103.357 97.7162 102.878 97.2375 102.33C97.5537 102.236 97.9097 102.183 98.3417 102.161C98.6144 102.146 98.8242 101.914 98.8098 101.641C98.7958 101.368 98.5629 101.159 98.2902 101.173C97.5401 101.212 96.9573 101.337 96.4382 101.575C96.2212 101.397 95.9754 101.212 95.6983 101.015L95.4506 100.842Z" fill="#00160A"/>
<path fill-rule="evenodd" clip-rule="evenodd" d="M169.551 209.204L169.894 209.206C171.811 209.223 173.309 209.396 176.131 209.849C176.455 209.901 176.675 210.206 176.623 210.529C176.571 210.853 176.267 211.073 175.943 211.021L175.018 210.876C172.683 210.517 171.338 210.391 169.551 210.391C163.349 210.391 159.39 214.273 160.06 220.227C160.097 220.553 159.862 220.847 159.536 220.883C159.211 220.92 158.917 220.686 158.88 220.36C158.127 213.663 162.675 209.204 169.551 209.204ZM174.354 211.6L174.296 211.549C174.24 211.501 174.154 211.508 174.107 211.564C174.058 211.62 174.066 211.705 174.121 211.753L174.181 211.804C174.237 211.852 174.321 211.845 174.37 211.789C174.417 211.733 174.412 211.648 174.354 211.6ZM163.6 212.841C163.387 212.67 163.076 212.704 162.905 212.917C162.214 213.776 161.71 214.614 161.396 215.432C161.091 216.227 160.987 217.563 161.066 219.474L161.085 219.877C161.1 220.15 161.332 220.36 161.605 220.345C161.878 220.331 162.087 220.098 162.073 219.825C161.968 217.829 162.057 216.47 162.32 215.786C162.595 215.071 163.046 214.32 163.676 213.536C163.847 213.324 163.813 213.012 163.6 212.841ZM168.997 211.205C169.24 211.079 169.538 211.174 169.664 211.417C169.789 211.659 169.695 211.958 169.452 212.083C168.448 212.604 167.68 213.476 167.146 214.719C166.572 216.054 166.103 217.245 165.738 218.292C165.647 218.55 165.365 218.686 165.107 218.596C164.85 218.506 164.714 218.224 164.804 217.966C165.177 216.896 165.655 215.683 166.237 214.329C166.859 212.883 167.78 211.835 168.997 211.205ZM171.872 211.179C171.692 210.974 171.38 210.953 171.174 211.133C170.349 211.856 169.715 212.514 169.271 213.11C168.83 213.703 168.314 214.588 167.717 215.774C167.594 216.017 167.692 216.315 167.936 216.438C168.18 216.561 168.477 216.463 168.6 216.219C169.174 215.08 169.664 214.239 170.064 213.701C170.461 213.167 171.049 212.558 171.826 211.877C172.032 211.697 172.052 211.384 171.872 211.179ZM170.066 216.764C169.861 216.944 169.549 216.923 169.369 216.718C169.189 216.512 169.21 216.2 169.415 216.02C170.192 215.339 170.779 214.73 171.177 214.196C171.577 213.658 172.067 212.817 172.641 211.678C172.764 211.434 173.061 211.336 173.305 211.459C173.549 211.582 173.647 211.879 173.524 212.123C172.927 213.308 172.411 214.194 171.97 214.786C171.526 215.383 170.892 216.041 170.066 216.764ZM166.323 211.608C166.098 211.453 165.79 211.509 165.635 211.734C164.529 213.335 163.823 214.532 163.511 215.344C163.197 216.16 162.981 217.259 162.855 218.648C162.831 218.92 163.032 219.161 163.303 219.185C163.575 219.21 163.816 219.009 163.84 218.737C163.959 217.431 164.158 216.417 164.434 215.699C164.691 215.03 165.29 213.998 166.226 212.62L166.448 212.296C166.604 212.071 166.547 211.764 166.323 211.608Z" fill="#00160A"/>
<path fill-rule="evenodd" clip-rule="evenodd" d="M156.935 208.692L157.275 209.449L158.052 209.672C158.094 209.685 158.119 209.728 158.107 209.77C158.103 209.783 158.096 209.795 158.086 209.805L157.496 210.392L157.529 211.238C157.531 211.281 157.497 211.318 157.453 211.32C157.439 211.32 157.424 211.317 157.411 211.309L156.743 210.929C156.722 210.917 156.697 210.915 156.674 210.924L155.96 211.208C155.919 211.224 155.873 211.205 155.857 211.164C155.852 211.15 155.85 211.135 155.853 211.12L156.003 210.288L155.501 209.624C155.474 209.589 155.481 209.539 155.516 209.513C155.526 209.505 155.539 209.499 155.552 209.497L156.353 209.385L156.796 208.683C156.819 208.645 156.868 208.634 156.905 208.658C156.918 208.666 156.928 208.678 156.935 208.692Z" fill="#00160A"/>
<path fill-rule="evenodd" clip-rule="evenodd" d="M184.453 102.671C184.634 102.832 184.862 103.123 185.062 103.438L185.321 103.323L185.626 103.192C185.687 103.164 185.726 103.142 185.739 103.125C185.774 103.059 185.855 103.034 185.921 103.069C185.985 103.104 186.012 103.185 185.976 103.25C185.952 103.312 185.781 103.507 185.463 103.698C185.405 103.732 185.341 103.765 185.273 103.796C185.39 104.015 185.482 104.228 185.526 104.398C185.591 104.648 185.539 104.826 185.453 104.889C185.368 104.951 185.157 104.962 184.834 104.695C184.775 104.65 184.766 104.565 184.811 104.506C184.856 104.448 184.94 104.437 184.999 104.482C185.06 104.528 185.122 104.553 185.172 104.572L185.148 104.476C185.138 104.441 185.127 104.406 185.11 104.37C185.052 104.244 184.979 104.1 184.896 103.952C184.644 104.047 184.358 104.133 184.048 104.175C183.897 104.195 183.743 104.199 183.583 104.198C183.491 104.204 183.412 104.134 183.406 104.042C183.4 103.95 183.469 103.871 183.561 103.865C183.934 103.829 184.278 103.734 184.583 103.629L184.682 103.593C184.518 103.336 184.341 103.102 184.19 102.97C184.108 102.897 184.1 102.772 184.172 102.689C184.245 102.606 184.371 102.598 184.453 102.671Z" fill="#00160A"/>
<path fill-rule="evenodd" clip-rule="evenodd" d="M75.5644 169.621C75.0475 169.654 74.2269 169.786 73.5567 170.052C72.983 170.28 72.983 176.471 74.9437 176.965C76.8931 177.615 79.025 176.754 78.7702 173.441C78.7656 173.372 78.7096 173.183 78.6452 172.967C78.5513 172.651 78.4396 172.275 78.446 172.128C78.4725 171.608 78.3358 171.17 77.975 170.894C77.5864 170.07 76.8246 169.539 75.5644 169.621ZM75.2838 175.458C74.3242 174.74 74.3579 171.394 75.453 171.171C76.1346 171.695 76.7568 172.451 76.9666 173.909C76.7318 174.711 76.2361 175.176 75.8026 175.582C75.7564 175.625 75.7105 175.668 75.6659 175.711C75.5424 175.64 75.4148 175.554 75.2838 175.458Z" fill="white"/>
<path fill-rule="evenodd" clip-rule="evenodd" d="M74.1185 173.506C74.0314 172.986 74.0909 172.403 74.3525 171.781C74.4711 171.499 74.7831 171.27 75.1735 171.116C75.6298 170.935 76.1883 170.846 76.5401 170.823C77.3978 170.768 77.9162 171.127 78.1805 171.684C78.4259 171.87 78.5186 172.167 78.5005 172.519C78.4929 172.686 78.7133 173.291 78.7208 173.406C78.8931 175.647 77.4421 176.23 76.1156 175.791C75.6116 176.047 75.1258 176.089 74.76 175.817C74.4317 175.574 74.1799 175.062 74.1219 174.159C74.1068 173.926 74.1057 173.709 74.1185 173.506ZM76.4712 172.031C75.7101 172.18 75.6783 174.377 76.3428 174.846C76.4337 174.909 76.5219 174.965 76.6079 175.011C76.929 174.721 77.1687 174.487 77.3046 174.008C77.4406 173.529 76.9434 172.373 76.4712 172.031Z" fill="#0CE39D"/>
<path fill-rule="evenodd" clip-rule="evenodd" d="M126.057 228.38C125.832 228.225 125.524 228.282 125.369 228.508C125.215 228.733 125.272 229.041 125.497 229.195C125.744 229.365 125.963 229.522 126.156 229.668C125.948 229.833 125.74 230.022 125.525 230.238L125.088 230.682C124.895 230.876 124.897 231.189 125.091 231.381C125.285 231.574 125.598 231.572 125.79 231.378L126.315 230.848C126.528 230.64 126.728 230.466 126.93 230.322C127.377 230.765 127.513 231.09 127.52 231.413V231.496L127.523 231.547C127.548 231.796 127.759 231.99 128.015 231.99C128.288 231.99 128.509 231.769 128.509 231.496V231.399C128.5 230.895 128.322 230.416 127.844 229.868C128.16 229.774 128.516 229.721 128.948 229.699C129.221 229.684 129.431 229.452 129.416 229.179C129.402 228.906 129.169 228.697 128.897 228.711C128.147 228.75 127.564 228.875 127.044 229.113C126.828 228.935 126.582 228.749 126.304 228.552L126.057 228.38Z" fill="#00160A"/>
<path fill-rule="evenodd" clip-rule="evenodd" d="M126.057 228.38C125.832 228.225 125.524 228.282 125.369 228.508C125.215 228.733 125.272 229.041 125.497 229.195C125.744 229.365 125.963 229.522 126.156 229.668C125.948 229.833 125.74 230.022 125.525 230.238L125.088 230.682C124.895 230.876 124.897 231.189 125.091 231.381C125.285 231.574 125.598 231.572 125.79 231.378L126.315 230.848C126.528 230.64 126.728 230.466 126.93 230.322C127.377 230.765 127.513 231.09 127.52 231.413V231.496L127.523 231.547C127.548 231.796 127.759 231.99 128.015 231.99C128.288 231.99 128.509 231.769 128.509 231.496V231.399C128.5 230.895 128.322 230.416 127.844 229.868C128.16 229.774 128.516 229.721 128.948 229.699C129.221 229.684 129.431 229.452 129.416 229.179C129.402 228.906 129.169 228.697 128.897 228.711C128.147 228.75 127.564 228.875 127.044 229.113C126.828 228.935 126.582 228.749 126.304 228.552L126.057 228.38Z" fill="#00160A"/>
<path fill-rule="evenodd" clip-rule="evenodd" d="M142.958 214.832L143.299 215.589L144.076 215.812C144.118 215.824 144.142 215.868 144.13 215.91C144.126 215.923 144.119 215.935 144.11 215.944L143.52 216.532L143.553 217.377C143.554 217.421 143.52 217.458 143.477 217.459C143.462 217.46 143.447 217.457 143.434 217.449L142.766 217.068C142.745 217.057 142.72 217.055 142.698 217.064L141.983 217.348C141.943 217.364 141.897 217.344 141.88 217.303C141.875 217.29 141.873 217.274 141.876 217.26L142.026 216.427L141.524 215.763C141.497 215.728 141.504 215.679 141.539 215.652C141.55 215.644 141.563 215.639 141.576 215.637L142.376 215.525L142.819 214.822C142.842 214.785 142.891 214.774 142.928 214.797C142.941 214.806 142.952 214.818 142.958 214.832Z" fill="#00160A"/>
<path fill-rule="evenodd" clip-rule="evenodd" d="M100.086 209.628L100.665 210.222L101.471 210.166C101.515 210.163 101.553 210.196 101.556 210.24C101.557 210.253 101.554 210.267 101.548 210.279L101.195 211.033L101.515 211.816C101.532 211.857 101.512 211.903 101.472 211.919C101.458 211.925 101.443 211.927 101.428 211.924L100.671 211.795C100.647 211.791 100.623 211.798 100.605 211.814L100.03 212.325C99.9974 212.354 99.9475 212.351 99.9183 212.319C99.9088 212.308 99.902 212.294 99.8998 212.279L99.7562 211.446L99.0568 210.993C99.0201 210.97 99.0095 210.921 99.033 210.884C99.0406 210.873 99.0504 210.864 99.0625 210.857L99.7759 210.478L99.952 209.666C99.9611 209.623 100.003 209.596 100.046 209.605C100.061 209.609 100.075 209.616 100.086 209.628Z" fill="#00160A"/>
<path fill-rule="evenodd" clip-rule="evenodd" d="M91.04 155.397L91.3808 156.155L92.1578 156.378C92.1999 156.39 92.2241 156.433 92.212 156.475C92.2082 156.488 92.2014 156.5 92.1919 156.51L91.6016 157.097L91.6345 157.943C91.6364 157.987 91.6023 158.023 91.5588 158.025C91.544 158.026 91.5293 158.022 91.5164 158.015L90.8484 157.634C90.8272 157.622 90.8022 157.62 90.7799 157.63L90.0653 157.913C90.0244 157.929 89.9786 157.909 89.9623 157.869C89.957 157.855 89.9555 157.84 89.9582 157.826L90.1085 156.993L89.606 156.329C89.5795 156.294 89.5863 156.244 89.6212 156.218C89.6321 156.21 89.6446 156.205 89.6579 156.203L90.4584 156.09L90.9011 155.387C90.9245 155.351 90.9734 155.339 91.0101 155.363C91.0234 155.371 91.034 155.383 91.04 155.397Z" fill="#00160A"/>
<path fill-rule="evenodd" clip-rule="evenodd" d="M90.9617 156.152L91.1067 156.473L91.4365 156.568C91.4543 156.573 91.4646 156.592 91.4596 156.61C91.4581 156.615 91.4551 156.62 91.4509 156.624L91.2002 156.874L91.2143 157.233C91.215 157.251 91.2006 157.267 91.1821 157.268C91.1756 157.268 91.1696 157.267 91.1643 157.264L90.8803 157.102C90.8716 157.097 90.8606 157.096 90.8511 157.1L90.5478 157.22C90.5304 157.227 90.5107 157.219 90.5039 157.201C90.5016 157.196 90.5012 157.189 90.5024 157.183L90.566 156.829L90.3524 156.547C90.3414 156.533 90.3441 156.512 90.3592 156.5C90.3638 156.497 90.3691 156.494 90.3748 156.494L90.7148 156.446L90.9026 156.148C90.9125 156.132 90.9333 156.127 90.9492 156.137C90.9545 156.14 90.959 156.146 90.9617 156.152Z" fill="#E7EAEE"/>
<path fill-rule="evenodd" clip-rule="evenodd" d="M50.5293 188.623L50.8701 189.38L51.6471 189.603C51.6891 189.615 51.7134 189.659 51.7012 189.701C51.6975 189.714 51.6906 189.726 51.6812 189.735L51.0908 190.323L51.1238 191.168C51.1257 191.212 51.0916 191.249 51.0481 191.251C51.0333 191.251 51.0185 191.248 51.0056 191.24L50.3377 190.859C50.3165 190.848 50.2915 190.846 50.2691 190.855L49.5546 191.139C49.5137 191.155 49.4679 191.135 49.4516 191.094C49.4463 191.081 49.4448 191.065 49.4474 191.051L49.5978 190.218L49.0953 189.554C49.0688 189.519 49.0756 189.47 49.1104 189.444C49.121 189.435 49.1339 189.43 49.1471 189.428L49.9476 189.316L50.3903 188.613C50.4138 188.576 50.4626 188.565 50.4994 188.588C50.5126 188.597 50.5232 188.609 50.5293 188.623Z" fill="#00160A"/>
<path fill-rule="evenodd" clip-rule="evenodd" d="M84.7691 120.623L85.0168 120.796C85.2943 120.993 86.3315 121.97 86.5485 122.147C87.0669 121.909 87.65 121.784 88.4001 121.745C88.6728 121.731 88.9053 121.941 88.9197 122.213C88.9337 122.486 88.7243 122.719 88.4516 122.733C88.0192 122.756 87.6629 122.808 87.3467 122.903C87.8257 123.45 88.0037 123.929 88.0128 124.433V124.53C88.0128 124.803 87.7916 125.025 87.5182 125.025C87.2623 125.025 87.0517 124.83 87.0263 124.581L87.0237 124.53V124.447C87.0165 124.124 86.8802 123.799 86.4333 123.356C86.2319 123.5 86.0316 123.674 85.818 123.882L85.2936 124.413C85.1012 124.607 84.788 124.608 84.5942 124.416C84.4003 124.223 84.3988 123.91 84.5911 123.716L85.0285 123.272C85.244 123.057 85.4515 122.867 85.6594 122.702C85.2943 121.869 83.927 120.976 84.0815 120.751C84.2359 120.526 84.5438 120.468 84.7691 120.623Z" fill="#00160A"/>
<path fill-rule="evenodd" clip-rule="evenodd" d="M180.183 177.656L180.857 178.141L181.641 177.946C181.684 177.935 181.727 177.961 181.737 178.003C181.74 178.016 181.74 178.03 181.737 178.043L181.52 178.847L181.971 179.563C181.994 179.6 181.983 179.649 181.946 179.672C181.934 179.68 181.919 179.684 181.904 179.684L181.135 179.689C181.111 179.689 181.089 179.7 181.074 179.719L180.597 180.322C180.57 180.356 180.52 180.362 180.486 180.335C180.474 180.326 180.465 180.314 180.461 180.3L180.174 179.503L179.407 179.18C179.367 179.163 179.348 179.116 179.365 179.076C179.37 179.063 179.378 179.053 179.389 179.044L180.026 178.546L180.058 177.717C180.06 177.673 180.097 177.639 180.14 177.641C180.156 177.641 180.171 177.647 180.183 177.656Z" fill="#00160A"/>
<path fill-rule="evenodd" clip-rule="evenodd" d="M187.923 146.661L188.127 147.466L188.853 147.821C188.893 147.84 188.909 147.887 188.89 147.926C188.884 147.939 188.875 147.949 188.864 147.957L188.18 148.433L188.066 149.271C188.06 149.315 188.021 149.345 187.977 149.339C187.963 149.337 187.949 149.331 187.937 149.321L187.345 148.831C187.327 148.816 187.302 148.809 187.279 148.814L186.526 148.97C186.483 148.978 186.441 148.951 186.433 148.908C186.429 148.894 186.431 148.879 186.436 148.865L186.728 148.071L186.348 147.33C186.329 147.291 186.344 147.243 186.383 147.223C186.395 147.217 186.408 147.214 186.422 147.215L187.23 147.243L187.788 146.628C187.817 146.595 187.867 146.593 187.899 146.622C187.911 146.633 187.919 146.646 187.923 146.661Z" fill="#00160A"/>
<path fill-rule="evenodd" clip-rule="evenodd" d="M170.298 114.265L170.502 115.07L171.228 115.424C171.268 115.443 171.284 115.491 171.264 115.53C171.259 115.542 171.25 115.553 171.239 115.56L170.556 116.036L170.441 116.875C170.435 116.918 170.395 116.949 170.352 116.943C170.338 116.941 170.324 116.935 170.312 116.925L169.72 116.434C169.702 116.419 169.677 116.413 169.654 116.418L168.901 116.573C168.858 116.582 168.816 116.554 168.807 116.512C168.804 116.497 168.805 116.482 168.81 116.468L169.103 115.674L168.724 114.933C168.704 114.894 168.719 114.847 168.758 114.827C168.77 114.821 168.783 114.818 168.797 114.818L169.604 114.846L170.163 114.231C170.192 114.199 170.242 114.196 170.274 114.226C170.286 114.236 170.294 114.25 170.298 114.265Z" fill="#00160A"/>
<path fill-rule="evenodd" clip-rule="evenodd" d="M222.367 122.153L222.667 122.126C223.007 122.098 223.315 122.083 223.595 122.079C223.839 121.564 224.206 121.093 224.755 120.581C224.955 120.395 225.268 120.406 225.454 120.605C225.64 120.805 225.629 121.118 225.429 121.304C225.113 121.599 224.874 121.869 224.692 122.145C225.411 122.256 225.855 122.509 226.186 122.889L226.248 122.963C226.424 123.172 226.397 123.484 226.188 123.66C225.991 123.824 225.705 123.811 225.525 123.636L225.491 123.599L225.437 123.535C225.224 123.293 224.911 123.131 224.284 123.079C224.222 123.319 224.181 123.581 224.151 123.877L224.09 124.621C224.067 124.893 223.828 125.096 223.556 125.073C223.284 125.051 223.082 124.812 223.104 124.539L223.154 123.918C223.18 123.614 223.218 123.336 223.27 123.075C223.029 123.088 222.761 123.108 222.462 123.137C222.19 123.163 221.948 122.964 221.922 122.693C221.896 122.421 222.095 122.179 222.367 122.153Z" fill="#00160A"/>
<path fill-rule="evenodd" clip-rule="evenodd" d="M182.433 156.29C182.344 156.516 182.148 156.829 181.921 157.125L182.117 157.329L182.344 157.57L182.395 157.619C182.417 157.639 182.434 157.65 182.446 157.654C182.52 157.664 182.571 157.732 182.561 157.806C182.551 157.878 182.483 157.931 182.41 157.92C182.343 157.918 182.102 157.824 181.813 157.59C181.761 157.548 181.709 157.499 181.656 157.445C181.49 157.631 181.322 157.79 181.177 157.889C180.964 158.036 180.779 158.048 180.691 157.988C180.604 157.93 180.521 157.735 180.662 157.341C180.684 157.269 180.76 157.232 180.831 157.254C180.901 157.277 180.94 157.352 180.918 157.423C180.896 157.496 180.893 157.563 180.893 157.616L180.975 157.561C181.004 157.54 181.033 157.516 181.061 157.489C181.16 157.392 181.27 157.273 181.381 157.145C181.205 156.941 181.026 156.701 180.881 156.424C180.81 156.289 180.754 156.146 180.7 155.995C180.664 155.911 180.702 155.812 180.786 155.775C180.87 155.738 180.969 155.776 181.006 155.86C181.168 156.199 181.374 156.49 181.577 156.739L181.645 156.821C181.831 156.578 181.99 156.333 182.062 156.146C182.102 156.044 182.218 155.993 182.32 156.032C182.423 156.073 182.474 156.188 182.433 156.29Z" fill="#E7EAEE"/>
<path fill-rule="evenodd" clip-rule="evenodd" d="M177.604 55.5035C177.906 55.4508 178.193 55.6527 178.245 55.9541C178.298 56.2551 178.096 56.5421 177.794 56.5948C176.361 56.8443 174.636 57.7009 173.146 59.0811C171.211 60.8726 169.783 63.4017 169.079 66.7029C168.511 69.3623 169.033 72.8642 170.517 75.7856C172.205 79.1092 174.919 81.369 178.402 82.0052C181.977 82.6584 185.002 82.2529 188.38 81.0517L188.691 80.9389C188.79 80.9014 188.966 80.8332 189.187 80.748H189.188C190.001 80.4341 191.423 79.8858 191.831 79.7624C192.923 79.4318 193.668 79.4594 194.208 80.0354C194.418 80.2584 194.407 80.6087 194.184 80.8181C193.974 81.0146 193.653 81.0169 193.441 80.8325L193.4 80.7935C193.241 80.6235 192.912 80.6038 192.249 80.7939L192.151 80.8226C191.792 80.9313 190.475 81.4391 189.654 81.7557H189.654C189.336 81.8784 189.093 81.9723 189.008 82.0029C185.359 83.3351 182.085 83.8039 178.203 83.095C174.356 82.3922 171.365 79.9021 169.529 76.2873C167.933 73.1455 167.373 69.3865 167.995 66.4715C168.748 62.9484 170.29 60.216 172.394 58.2681C174.04 56.7436 175.96 55.7897 177.604 55.5035ZM181.351 58.1791C181.65 58.1204 181.942 58.3158 182 58.6161C182.059 58.9164 181.864 59.2076 181.563 59.2663C177.074 60.1455 173.464 63.574 172.417 68.1093C172.063 69.6444 172.17 70.8925 172.518 71.3685L172.564 71.4283L172.567 71.4366L172.574 71.4317C172.698 71.3192 172.844 71.0322 172.957 70.5869L172.981 70.4892C174.057 65.8248 177.613 62.2142 182.156 61.0017C182.451 60.9229 182.755 61.0983 182.834 61.394C182.913 61.6894 182.737 61.9931 182.441 62.0718C178.349 63.1643 175.134 66.3863 174.102 70.5615L174.06 70.7384C173.68 72.3837 172.59 73.169 171.706 72.1277C171.06 71.3658 170.902 69.7497 171.338 67.8601C172.484 62.8954 176.436 59.1413 181.351 58.1791ZM188.012 64.2586C187.99 63.9534 187.725 63.7236 187.42 63.7455C182.029 64.1299 177.301 67.6314 175.421 72.7991C174.707 74.7602 174.664 76.5039 175.249 77.393C176.033 78.5862 177.266 77.9095 177.88 76.2203L177.945 76.0469C179.608 71.6737 183.506 68.619 188.069 67.982C188.372 67.94 188.583 67.6602 188.541 67.3569C188.499 67.0539 188.219 66.8426 187.916 66.885C182.891 67.5863 178.606 70.9864 176.839 75.8417L176.8 75.9454C176.604 76.4505 176.389 76.7554 176.226 76.8447L176.218 76.8497C176.217 76.8504 176.216 76.8512 176.215 76.8519C176.214 76.8531 176.213 76.8538 176.213 76.8538C176.212 76.8538 176.212 76.8519 176.21 76.8485C176.206 76.8402 176.199 76.8216 176.175 76.7849L176.145 76.7368C175.824 76.1669 175.873 74.7958 176.462 73.1781C178.192 68.4243 182.54 65.2041 187.499 64.8505C187.804 64.8285 188.034 64.5634 188.012 64.2586ZM190.424 69.6429C190.729 69.6209 190.994 69.8508 191.016 70.156C191.038 70.4612 190.808 70.7259 190.503 70.7478C187.026 70.9959 183.978 73.2538 182.764 76.5865C182.405 77.5744 182.338 78.4192 182.467 78.8468L182.482 78.8945L182.507 78.8592C182.569 78.7653 182.638 78.6305 182.707 78.456L182.736 78.3787C184.018 74.8583 187.124 72.3931 190.768 71.8846C191.071 71.8422 191.35 72.0535 191.393 72.3564C191.435 72.6593 191.224 72.9392 190.921 72.9816C187.733 73.4265 185.009 75.5539 183.835 78.6018L183.777 78.7574C183.302 80.063 182.274 80.6269 181.618 79.6272C181.167 78.9422 181.199 77.6494 181.724 76.2074C183.088 72.4605 186.516 69.9216 190.424 69.6429ZM193.343 74.1055C193.321 73.8003 193.057 73.5708 192.751 73.5924C190.134 73.7791 187.838 75.4793 186.925 77.9891C186.564 78.9781 186.542 79.8786 186.876 80.3857C187.422 81.2168 188.27 80.7511 188.624 79.7798L188.672 79.6522C189.416 77.752 191.121 76.4271 193.115 76.1488C193.418 76.1063 193.629 75.8265 193.587 75.5236C193.545 75.2206 193.265 75.0093 192.962 75.0518L192.822 75.0726C190.675 75.4183 188.824 76.7807 187.864 78.7411L187.83 78.8108L187.851 78.7313C187.882 78.6158 187.92 78.4938 187.965 78.3677C188.728 76.2726 190.645 74.8533 192.83 74.6973C193.135 74.6757 193.365 74.4107 193.343 74.1055Z" fill="#00160A"/>
<path fill-rule="evenodd" clip-rule="evenodd" d="M190.425 69.6431C190.73 69.6211 190.995 69.8509 191.017 70.1561C191.038 70.4614 190.809 70.726 190.504 70.748C187.027 70.996 183.978 73.254 182.765 76.5867C182.406 77.5746 182.339 78.4194 182.468 78.8469L182.483 78.8946L182.508 78.8594C182.57 78.7655 182.639 78.6307 182.708 78.4561L182.737 78.3789C184.018 74.8584 187.124 72.3933 190.768 71.8848C191.071 71.8423 191.351 72.0536 191.393 72.3566C191.435 72.6595 191.224 72.9393 190.921 72.9818C187.734 73.4267 185.01 75.554 183.836 78.6019L183.778 78.7576C183.302 80.0632 182.275 80.627 181.618 79.6274C181.168 78.9424 181.199 77.6496 181.724 76.2076C183.088 72.4607 186.516 69.9218 190.425 69.6431Z" fill="#00160A"/>
<path d="M155.93 141.756C167.541 136.325 177.25 133.456 183.294 132.929C185.145 132.767 185.985 133.788 185.516 135.448C185.168 136.68 184.108 138.372 182.483 140.375C179.651 143.866 175.917 146.854 172.198 149.633C178.147 144.142 179.665 141.845 181.5 139.583L181.788 139.223C183.149 137.503 184.028 136.066 184.299 135.107L184.337 134.961C184.506 134.269 184.31 134.105 183.405 134.184C177.497 134.699 167.825 137.574 156.256 142.998C144.668 148.43 144.337 147.178 155.93 141.756Z" fill="white"/>
<path d="M102.824 124.185L102.909 124.387C103.497 125.781 104.108 127.163 104.802 128.669L105.072 129.254C104.983 129.313 104.867 129.376 104.739 129.432C104.555 129.512 104.369 129.568 104.229 129.587L104.184 129.592L104.117 129.511C103.593 128.866 102.984 127.769 102.544 126.678C102.31 126.097 102.143 125.564 102.068 125.155C102.037 124.988 102.023 124.848 102.024 124.742L102.028 124.672C102.029 124.655 102.029 124.646 102.025 124.645L102.041 124.634C102.135 124.569 102.374 124.429 102.73 124.236L102.824 124.185Z" fill="white"/>
<path fill-rule="evenodd" clip-rule="evenodd" d="M117.502 119.133C117.866 118.688 118.337 118.754 118.934 119.116L119.088 119.213L119.517 119.497C119.637 119.574 119.688 119.601 119.759 119.629C119.921 119.693 120 119.877 119.935 120.039C119.871 120.202 119.687 120.281 119.524 120.217L119.467 120.193C119.357 120.146 119.274 120.097 119.052 119.949L118.744 119.744C118.693 119.711 118.649 119.683 118.606 119.657C118.249 119.441 118.087 119.418 117.992 119.533C117.933 119.605 117.948 119.76 118.066 120.077L118.195 120.41C118.451 121.091 118.453 121.396 117.995 121.656C117.602 121.88 117.4 121.775 116.835 121.221L116.698 121.085C116.335 120.724 116.146 120.598 116.023 120.624C115.983 120.632 115.936 120.661 115.878 120.723C115.81 120.795 115.79 121.027 115.832 121.437L115.896 121.973C115.97 122.627 115.94 122.797 115.67 122.978C115.298 123.227 114.803 122.945 113.884 122.121C113.754 122.004 113.743 121.804 113.86 121.674C113.977 121.544 114.177 121.533 114.307 121.65C114.7 122.002 114.996 122.232 115.203 122.35L115.249 122.375L115.288 122.394L115.289 122.355L115.287 122.26C115.283 122.182 115.273 122.088 115.254 121.929L115.213 121.6C115.136 120.933 115.16 120.562 115.416 120.29C115.558 120.139 115.717 120.042 115.892 120.005C116.299 119.919 116.588 120.092 117.068 120.561L117.31 120.799C117.571 121.05 117.668 121.114 117.683 121.106C117.742 121.072 117.733 120.967 117.573 120.556L117.502 120.377C117.279 119.802 117.236 119.458 117.502 119.133Z" fill="#00160A"/>
<path fill-rule="evenodd" clip-rule="evenodd" d="M152.055 67.617L151.754 67.6439C151.482 67.67 151.283 67.9119 151.31 68.1838C151.326 68.3482 151.42 68.4856 151.552 68.5633L151.5 68.6004C151.277 68.7579 151.224 69.0665 151.382 69.2895C151.539 69.5126 151.848 69.5656 152.071 69.4081L152.579 69.0479C152.565 69.1646 152.552 69.2846 152.541 69.4092L152.491 70.0306C152.469 70.3029 152.671 70.5418 152.943 70.5641C153.215 70.5869 153.454 70.3846 153.477 70.1124L153.538 69.3687C153.554 69.2096 153.574 69.0604 153.598 68.9192C153.771 69.2486 153.806 69.5027 153.769 69.7424L153.755 69.8242L153.749 69.8746C153.73 70.1245 153.904 70.3525 154.156 70.3971C154.425 70.4445 154.681 70.265 154.729 69.9961L154.746 69.9003C154.798 69.5663 154.774 69.2305 154.639 68.8575C154.71 68.9082 154.771 68.965 154.825 69.0267L154.878 69.09L154.913 69.1271C155.092 69.302 155.379 69.3157 155.575 69.1509C155.784 68.9756 155.811 68.6636 155.636 68.4542L155.573 68.38C155.551 68.3542 155.528 68.3296 155.505 68.305C155.763 68.3202 155.992 68.132 156.024 67.8718C156.057 67.6007 155.865 67.3538 155.593 67.3205C155.127 67.2633 154.72 67.2504 154.345 67.2841C154.479 67.1258 154.635 66.9649 154.816 66.7956C155.016 66.6093 155.027 66.2966 154.841 66.0966C154.655 65.8971 154.342 65.8861 154.142 66.072C153.807 66.3844 153.54 66.6817 153.328 66.9827C153.245 66.8956 153.159 66.8062 153.069 66.7146L152.855 66.5014C152.66 66.3102 152.346 66.3128 152.155 66.5079C151.964 66.7029 151.967 67.016 152.162 67.2073C152.297 67.3402 152.422 67.4659 152.537 67.5848C152.384 67.5927 152.223 67.6033 152.055 67.617Z" fill="#00160A"/>
<path fill-rule="evenodd" clip-rule="evenodd" d="M132.996 71.0434C132.878 70.9214 132.685 70.9248 132.567 71.0509C132.449 71.1767 132.449 71.3774 132.567 71.4993C132.68 71.6144 132.781 71.7216 132.87 71.8212C132.68 71.9018 132.489 72.0063 132.285 72.1351L131.975 72.3339C131.839 72.4206 131.809 72.5944 131.909 72.7216C132.008 72.8489 132.199 72.8818 132.335 72.7951L132.707 72.5577C132.901 72.4388 133.076 72.349 133.252 72.2858C133.519 72.6572 133.575 72.8958 133.541 73.1166L133.532 73.1692L133.528 73.2014C133.516 73.3616 133.621 73.507 133.776 73.5342C133.94 73.5634 134.099 73.4471 134.129 73.2745L134.14 73.2127C134.191 72.8924 134.137 72.5694 133.907 72.1707C134.063 72.1684 134.232 72.1797 134.425 72.2044C134.593 72.2259 134.743 72.1195 134.761 71.9669C134.779 71.8147 134.658 71.6735 134.49 71.6519C134.122 71.6049 133.814 71.5996 133.532 71.6379C133.416 71.4951 133.281 71.3429 133.126 71.1786L132.996 71.0434Z" fill="#E7EAEE"/>
<path fill-rule="evenodd" clip-rule="evenodd" d="M69.2667 153.488L69.6075 154.245L70.3845 154.468C70.4265 154.48 70.4507 154.524 70.4386 154.566C70.4348 154.579 70.428 154.591 70.4186 154.6L69.8282 155.188L69.8612 156.033C69.8631 156.077 69.829 156.114 69.7854 156.116C69.7707 156.116 69.7559 156.113 69.743 156.105L69.0747 155.725C69.0538 155.713 69.0289 155.711 69.0065 155.72L68.292 156.004C68.2511 156.02 68.2053 156 68.189 155.96C68.1837 155.946 68.1822 155.931 68.1848 155.916L68.3351 155.084L67.8323 154.419C67.8061 154.385 67.813 154.335 67.8478 154.309C67.8584 154.301 67.8713 154.295 67.8845 154.293L68.6846 154.181L69.1277 153.478C69.1508 153.441 69.2 153.43 69.2367 153.453C69.25 153.462 69.2602 153.474 69.2667 153.488Z" fill="#00160A"/>
<path fill-rule="evenodd" clip-rule="evenodd" d="M73.8106 111.456L74.1514 112.213L74.9284 112.436C74.9705 112.448 74.9947 112.492 74.9826 112.534C74.9788 112.547 74.972 112.559 74.9625 112.568L74.3722 113.156L74.4051 114.001C74.407 114.045 74.3729 114.082 74.3294 114.083C74.3146 114.084 74.2998 114.081 74.287 114.073L73.6186 113.693C73.5978 113.681 73.5728 113.679 73.5505 113.688L72.8359 113.972C72.795 113.988 72.7492 113.968 72.7329 113.927C72.7276 113.914 72.7261 113.899 72.7288 113.884L72.8791 113.051L72.3762 112.387C72.3501 112.352 72.3569 112.303 72.3917 112.276C72.4023 112.268 72.4152 112.263 72.4285 112.261L73.2286 112.149L73.6716 111.446C73.6947 111.409 73.744 111.398 73.7807 111.421C73.7939 111.43 73.8042 111.442 73.8106 111.456Z" fill="#00160A"/>
<path d="M84.1037 178.374C84.3578 178.19 84.713 178.246 84.897 178.5C85.0815 178.754 77.0458 185.299 73.9282 188.299L73.5662 188.65C71.7853 190.392 70.4729 191.901 69.7326 193.093C68.9487 194.357 68.8984 195.043 69.4047 195.324C71.3252 196.388 74.0869 196.907 78.0417 196.252L78.448 196.182C79.9535 195.919 91.278 193.449 91.0988 193.515L91.0292 193.536C90.6721 193.63 86.0611 195.225 84.4695 195.63L84.2772 195.678C81.8442 196.291 79.9399 196.71 78.2272 196.994C74.0422 197.687 71.0518 197.536 68.8537 196.318C67.5855 195.615 67.6866 194.236 68.7674 192.495C69.6175 191.124 71.1128 189.431 73.1406 187.48C76.2998 184.44 80.7431 180.815 84.1037 178.374Z" fill="white"/>
<path fill-rule="evenodd" clip-rule="evenodd" d="M143.271 99.6388C143.41 99.5464 143.596 99.5858 143.687 99.7267L145.737 102.904C145.828 103.045 145.789 103.234 145.651 103.326C145.512 103.418 145.326 103.379 145.235 103.238L143.185 100.061C143.094 99.9198 143.133 99.7309 143.271 99.6388Z" fill="#00160A"/>
<path fill-rule="evenodd" clip-rule="evenodd" d="M143.372 97.2913C143.53 97.1978 143.74 97.2447 143.84 97.3962L145.251 99.5334C145.351 99.6852 145.304 99.8836 145.145 99.9772C144.986 100.071 144.777 100.024 144.676 99.8723L143.265 97.7351C143.165 97.5836 143.213 97.3848 143.372 97.2913Z" fill="#00160A"/>
</g>
<defs>
<clipPath id="clip0_443_2334">
<rect width="284" height="284" fill="white"/>
</clipPath>
</defs>
</svg>
