<svg width="25" height="24" viewBox="0 0 25 24" fill="none" xmlns="http://www.w3.org/2000/svg">
<path d="M22.875 13V9C22.875 4 20.875 2 15.875 2H9.875C4.875 2 2.875 4 2.875 9V15C2.875 20 4.875 22 9.875 22H13.875" stroke="#005EA2" stroke-width="1.2" stroke-linecap="round" stroke-linejoin="round"/>
<path d="M8.20499 14.49L10.585 11.4C10.925 10.96 11.555 10.88 11.995 11.22L13.825 12.66C14.265 13 14.895 12.92 15.235 12.49L17.545 9.51001" stroke="#005EA2" stroke-width="1.2" stroke-linecap="round" stroke-linejoin="round"/>
<path d="M20.355 15.8199L20.635 16.3899C20.775 16.6699 21.125 16.9299 21.435 16.9899L21.815 17.0499C22.955 17.2399 23.225 18.0799 22.405 18.9099L22.055 19.2599C21.825 19.4999 21.695 19.9599 21.765 20.2799L21.815 20.4899C22.125 21.8699 21.395 22.3999 20.195 21.6799L19.935 21.5299C19.625 21.3499 19.125 21.3499 18.815 21.5299L18.555 21.6799C17.345 22.4099 16.615 21.8699 16.935 20.4899L16.985 20.2799C17.055 19.9599 16.925 19.4999 16.695 19.2599L16.345 18.9099C15.525 18.0799 15.795 17.2399 16.935 17.0499L17.315 16.9899C17.615 16.9399 17.975 16.6699 18.115 16.3899L18.395 15.8199C18.935 14.7299 19.815 14.7299 20.355 15.8199Z" stroke="#005EA2" stroke-width="1.2" stroke-linecap="round" stroke-linejoin="round"/>
</svg>
