<svg width="25" height="24" viewBox="0 0 25 24" fill="none" xmlns="http://www.w3.org/2000/svg">
<path d="M21.485 8.37009L14.555 2.83009C13.485 1.97009 11.755 1.97009 10.695 2.82009L3.76499 8.37009C2.98499 8.99009 2.48499 10.3001 2.65499 11.2801L3.98499 19.2401C4.22499 20.6601 5.58499 21.8101 7.02499 21.8101H18.225C19.655 21.8101 21.025 20.6501 21.265 19.2401L22.595 11.2801C22.755 10.3001 22.255 8.99009 21.485 8.37009ZM12.625 15.5001C11.245 15.5001 10.125 14.3801 10.125 13.0001C10.125 11.6201 11.245 10.5001 12.625 10.5001C14.005 10.5001 15.125 11.6201 15.125 13.0001C15.125 14.3801 14.005 15.5001 12.625 15.5001Z" fill="#005EA2"/>
</svg>
