<svg width="160" height="160" viewBox="0 0 160 160" fill="none" xmlns="http://www.w3.org/2000/svg">
<path fill-rule="evenodd" clip-rule="evenodd" d="M142.222 0C152 0 160 8 160 17.7778V142.222C160 152 152 160 142.222 160H17.7778C8 160 0 152 0 142.222V17.7778C0 8 8 0 17.7778 0H142.222ZM71.1111 120.089L48.8889 93.3333L17.7778 133.333H142.222L102.222 80L71.1111 120.089ZM48.8889 66.6667C58.7073 66.6667 66.6667 58.7073 66.6667 48.8889C66.6667 39.0705 58.7073 31.1111 48.8889 31.1111C39.0705 31.1111 31.1111 39.0705 31.1111 48.8889C31.1111 58.7073 39.0705 66.6667 48.8889 66.6667Z" fill="#D9D9D9"/>
</svg>
