<svg width="230" height="73" viewBox="0 0 230 73" fill="none" xmlns="http://www.w3.org/2000/svg">
<path d="M70.8203 31.875C70.5391 30.0156 69.7344 28.5469 68.4062 27.4688C67.0781 26.3906 65.4141 25.8438 63.4141 25.8281C61.6484 25.8438 60.1016 26.2891 58.7734 27.1641C57.4609 28.0391 56.4453 29.3203 55.7266 31.0078C55.0078 32.6797 54.6484 34.6875 54.6484 37.0312C54.6484 39.4219 55.0078 41.4531 55.7266 43.125C56.4609 44.7969 57.4766 46.0625 58.7734 46.9219C60.0859 47.7812 61.6172 48.2188 63.3672 48.2344C65.3203 48.2188 66.9688 47.7031 68.3125 46.6875C69.6562 45.6562 70.4922 44.2344 70.8203 42.4219L77.9453 42.4688C77.6797 44.6094 76.9219 46.5938 75.6719 48.4219C74.4219 50.25 72.7344 51.7188 70.6094 52.8281C68.4844 53.9219 66.0391 54.4688 63.2734 54.4688C60.2266 54.4688 57.5078 53.7812 55.1172 52.4062C52.7422 51.0156 50.875 49.0078 49.5156 46.3828C48.1562 43.7422 47.4766 40.625 47.4766 37.0312C47.4766 33.4219 48.1562 30.3047 49.5156 27.6797C50.8906 25.0547 52.7734 23.0547 55.1641 21.6797C57.5547 20.2891 60.2578 19.5938 63.2734 19.5938C65.8828 19.5938 68.2422 20.0781 70.3516 21.0469C72.4609 22.0156 74.1719 23.4219 75.4844 25.2656C76.8125 27.1094 77.6328 29.3125 77.9453 31.875H70.8203ZM82.8672 20.0625H89.8984V34.125H104.617V20.0625H111.695V54H104.617V39.9375H89.8984V54H82.8672V20.0625ZM148.492 37.0312C148.492 40.6406 147.805 43.7578 146.43 46.3828C145.055 49.0078 143.164 51.0156 140.758 52.4062C138.367 53.7812 135.664 54.4688 132.648 54.4688C129.617 54.4688 126.898 53.7812 124.492 52.4062C122.086 51.0156 120.195 49.0078 118.82 46.3828C117.445 43.7422 116.758 40.625 116.758 37.0312C116.758 33.4219 117.445 30.3047 118.82 27.6797C120.195 25.0547 122.086 23.0547 124.492 21.6797C126.898 20.2891 129.617 19.5938 132.648 19.5938C135.664 19.5938 138.367 20.2891 140.758 21.6797C143.164 23.0547 145.055 25.0547 146.43 27.6797C147.805 30.3047 148.492 33.4219 148.492 37.0312ZM123.93 37.0312C123.93 39.4062 124.281 41.4375 124.984 43.125C125.703 44.7969 126.719 46.0625 128.031 46.9219C129.344 47.7812 130.883 48.2188 132.648 48.2344C134.398 48.2188 135.922 47.7812 137.219 46.9219C138.531 46.0469 139.539 44.7734 140.242 43.1016C140.961 41.4297 141.32 39.4062 141.32 37.0312C141.32 34.6562 140.961 32.6328 140.242 30.9609C139.539 29.2734 138.531 28 137.219 27.1406C135.922 26.2812 134.398 25.8438 132.648 25.8281C130.883 25.8438 129.344 26.2812 128.031 27.1406C126.719 28 125.703 29.2734 124.984 30.9609C124.281 32.6328 123.93 34.6562 123.93 37.0312ZM181.867 54H175.773L160.867 32.4375H160.586V54H153.555V20.0625H159.742L174.555 41.625H174.883V20.0625H181.867V54Z" fill="#1363FF"/>
<path d="M75 33C76.1724 33 77 37.2432 77 38.6131C77 39.983 76.1724 41 75 41C73.8276 41 73 39.983 73 38.6131C73 37.2432 73.8276 33 75 33Z" fill="#2FEDAF"/>
</svg>
