<svg width="20" height="21" viewBox="0 0 20 21" fill="none" xmlns="http://www.w3.org/2000/svg">
<path fill-rule="evenodd" clip-rule="evenodd" d="M14.6023 6.96347V8.24125C16.0376 8.68926 17.0834 9.98858 17.0834 11.5405V15.6545C17.0834 17.5758 15.4906 19.1335 13.5269 19.1335H6.47408C4.50955 19.1335 2.91675 17.5758 2.91675 15.6545V11.5405C2.91675 9.98858 3.96337 8.68926 5.39782 8.24125V6.96347C5.40629 4.47912 7.46397 2.4668 9.98738 2.4668C12.5447 2.4668 14.6023 4.47912 14.6023 6.96347ZM10.0043 3.916C11.7233 3.916 13.1205 5.28239 13.1205 6.96347V8.06155H6.87969V6.94691C6.88816 5.27411 8.28535 3.916 10.0043 3.916ZM10.741 14.5126C10.741 14.9184 10.4108 15.2413 9.99585 15.2413C9.58939 15.2413 9.25915 14.9184 9.25915 14.5126V12.6742C9.25915 12.2767 9.58939 11.9537 9.99585 11.9537C10.4108 11.9537 10.741 12.2767 10.741 12.6742V14.5126Z" fill="#005EA2"/>
</svg>
