<svg width="20" height="24" viewBox="0 0 20 24" fill="none" xmlns="http://www.w3.org/2000/svg">
<path fill-rule="evenodd" clip-rule="evenodd" d="M10.2038 15.7535H9.79581C6.99186 15.7535 4.71909 13.5081 4.71909 10.7403V5.34649C4.71909 2.5776 6.99186 0.333252 9.79581 0.333252H10.2038C13.0077 0.333252 15.2816 2.5776 15.2816 5.34649V10.7403C15.2816 13.5081 13.0077 15.7535 10.2038 15.7535ZM17.6562 10.5799C17.6562 9.96276 18.1626 9.46389 18.7864 9.46389C19.4103 9.46389 19.9166 9.96276 19.9166 10.5799C19.9166 15.601 16.0672 19.7471 11.1307 20.304V22.5505C11.1307 23.1666 10.6243 23.6666 10.0005 23.6666C9.3755 23.6666 8.87031 23.1666 8.87031 22.5505V20.304C3.93261 19.7471 0.083252 15.601 0.083252 10.5799C0.083252 9.96276 0.589568 9.46389 1.21342 9.46389C1.83727 9.46389 2.34359 9.96276 2.34359 10.5799C2.34359 14.7483 5.77817 18.14 10.0005 18.14C14.2217 18.14 17.6562 14.7483 17.6562 10.5799Z" fill="white"/>
</svg>
