<svg width="20" height="21" viewBox="0 0 20 21" fill="none" xmlns="http://www.w3.org/2000/svg">
<path fill-rule="evenodd" clip-rule="evenodd" d="M14.1162 3.30005C15.2337 3.30005 16.3087 3.74172 17.0995 4.53422C17.8912 5.32505 18.3337 6.39172 18.3337 7.50838V14.0917C18.3337 16.4167 16.442 18.3 14.1162 18.3H5.88366C3.55783 18.3 1.66699 16.4167 1.66699 14.0917V7.50838C1.66699 5.18338 3.54949 3.30005 5.88366 3.30005H14.1162ZM15.442 8.75005L15.5087 8.68338C15.7078 8.44172 15.7078 8.09172 15.4995 7.85005C15.3837 7.72588 15.2245 7.65005 15.0587 7.63338C14.8837 7.62422 14.717 7.68338 14.5912 7.80005L10.8337 10.8C10.3503 11.2009 9.65783 11.2009 9.16699 10.8L5.41699 7.80005C5.15783 7.60838 4.79949 7.63338 4.58366 7.85838C4.35866 8.08338 4.33366 8.44172 4.52449 8.69172L4.63366 8.80005L8.42533 11.7584C8.89199 12.125 9.45783 12.325 10.0503 12.325C10.6412 12.325 11.217 12.125 11.6828 11.7584L15.442 8.75005Z" fill="#212121"/>
</svg>
