<svg width="95" height="94" viewBox="0 0 95 94" fill="none" xmlns="http://www.w3.org/2000/svg">
<path d="M55.4565 51.6606L68.4003 59.0631" stroke="#4F58AA" stroke-width="1.5" stroke-miterlimit="10"/>
<path d="M68.4003 35.1714L55.4565 42.5739" stroke="#4F58AA" stroke-width="1.5" stroke-miterlimit="10"/>
<path d="M47.5 27.6904V37.9913" stroke="#4F58AA" stroke-width="1.5" stroke-miterlimit="10"/>
<path d="M47.5 56.2432V65.9565" stroke="#4F58AA" stroke-width="1.5" stroke-miterlimit="10"/>
<path d="M68.4395 35.1714V28.6697L55.4958 21.2672V23.4997L47.5 28.043L39.5041 23.4997V21.228L26.5604 28.6305V35.1714L20.8208 38.4614V55.8514L26.5604 59.1022V65.5647L39.5041 72.9672V70.4997L47.5 65.9564L55.4958 70.4997V72.8889L68.4395 65.5255V59.1022L74.0604 55.8905V38.383L68.4395 35.1714Z" stroke="#4F58AA" stroke-width="1.5" stroke-miterlimit="10"/>
<path d="M39.5043 51.6606L26.6001 59.0631" stroke="#4F58AA" stroke-width="1.5" stroke-miterlimit="10"/>
<path d="M25.8481 34.7407L39.5044 42.5349" stroke="#4F58AA" stroke-width="1.5" stroke-miterlimit="10"/>
<path d="M55.4961 70.4999L47.5002 65.9565L39.5044 70.4999V79.6649L47.5002 84.2082L55.4961 79.6649V70.4999Z" fill="white" stroke="#DF7700" stroke-width="1.5" stroke-miterlimit="10"/>
<path d="M55.4961 70.5L47.5002 75.0825L39.5044 70.5" stroke="#DF7700" stroke-width="1.5" stroke-miterlimit="10"/>
<path d="M47.5 84.2084V75.0825" stroke="#DF7700" stroke-width="1.5" stroke-miterlimit="10"/>
<path d="M26.5605 26.0458L18.6042 21.5024L10.6084 26.0458V35.1716L18.6042 39.7541L26.5605 35.1716V26.0458Z" fill="white" stroke="#DF7700" stroke-width="1.5" stroke-miterlimit="10"/>
<path d="M26.5605 26.0459L18.6042 30.6284L10.6084 26.0459" stroke="#DF7700" stroke-width="1.5" stroke-miterlimit="10"/>
<path d="M18.604 39.7538V30.6279" stroke="#DF7700" stroke-width="1.5" stroke-miterlimit="10"/>
<path d="M68.4395 26.0458L76.3957 21.5024L84.3915 26.0458V35.1716L76.3957 39.7541L68.4395 35.1716V26.0458Z" fill="white" stroke="#DF7700" stroke-width="1.5" stroke-miterlimit="10"/>
<path d="M68.4395 26.0459L76.3957 30.6284L84.3915 26.0459" stroke="#DF7700" stroke-width="1.5" stroke-miterlimit="10"/>
<path d="M76.396 39.7538V30.6279" stroke="#DF7700" stroke-width="1.5" stroke-miterlimit="10"/>
<path d="M26.5605 59.1024L18.6042 54.5591L10.6084 59.1024V68.2283L18.6042 72.8108L26.5605 68.2283V59.1024Z" fill="white" stroke="#DF7700" stroke-width="1.5" stroke-miterlimit="10"/>
<path d="M26.5605 59.1025L18.6042 63.685L10.6084 59.1025" stroke="#DF7700" stroke-width="1.5" stroke-miterlimit="10"/>
<path d="M18.604 72.8109V63.6851" stroke="#DF7700" stroke-width="1.5" stroke-miterlimit="10"/>
<path d="M68.4395 59.1024L76.3957 54.5591L84.3915 59.1024V68.2283L76.3957 72.8108L68.4395 68.2283V59.1024Z" fill="white" stroke="#DF7700" stroke-width="1.5" stroke-miterlimit="10"/>
<path d="M68.4395 59.1025L76.3957 63.685L84.3915 59.1025" stroke="#DF7700" stroke-width="1.5" stroke-miterlimit="10"/>
<path d="M76.396 72.8109V63.6851" stroke="#DF7700" stroke-width="1.5" stroke-miterlimit="10"/>
<path d="M55.4961 14.374L47.5002 9.7915L39.5044 14.374V23.4998L47.5002 28.0432L55.4961 23.4998V14.374Z" fill="white" stroke="#DF7700" stroke-width="1.5" stroke-miterlimit="10"/>
<path d="M55.4961 14.374L47.5002 18.9174L39.5044 14.374" stroke="#DF7700" stroke-width="1.5" stroke-miterlimit="10"/>
<path d="M47.5 28.0433V18.9175" stroke="#DF7700" stroke-width="1.5" stroke-miterlimit="10"/>
<path d="M55.4961 42.5742L47.5002 37.9917L39.5044 42.5742V51.7L47.5002 56.2434L55.4961 51.7V42.5742Z" fill="white" stroke="#DF7700" stroke-width="1.5" stroke-miterlimit="10"/>
<path d="M55.4961 42.5742L47.5002 47.1175L39.5044 42.5742" stroke="#DF7700" stroke-width="1.5" stroke-miterlimit="10"/>
<path d="M47.5 56.243V47.1172" stroke="#DF7700" stroke-width="1.5" stroke-miterlimit="10"/>
</svg>
