<svg width="179" height="195" viewBox="0 0 179 195" fill="none" xmlns="http://www.w3.org/2000/svg">
<path fill-rule="evenodd" clip-rule="evenodd" d="M48.6532 192.566C69.8824 185.309 90.6325 170.639 127.117 176.529C163.601 182.418 188.8 134.401 175.313 110.845C169.323 103.237 165.07 93.2103 175.313 77.1715C184.888 46.9229 166.47 27.9312 149.487 18.988C132.505 10.0445 91.1396 -8.53545 56.4806 4.48737C21.8215 17.5104 7.76464 37.9668 5.4657 52.1654C3.16641 66.3641 12.3524 67.7522 13.9959 90.2106C15.6394 112.669 -6.9943 149.688 2.20919 170.056C11.4127 190.425 27.4236 199.823 48.6532 192.566Z" fill="#F4A81C"/>
<path d="M102.232 105.285L123.76 117.648" stroke="#4F58AA" stroke-width="1.5" stroke-miterlimit="10"/>
<path d="M123.76 77.7442L102.232 90.108" stroke="#4F58AA" stroke-width="1.5" stroke-miterlimit="10"/>
<path d="M89 65.2496V82.4542" stroke="#4F58AA" stroke-width="1.5" stroke-miterlimit="10"/>
<path d="M89 112.938V129.162" stroke="#4F58AA" stroke-width="1.5" stroke-miterlimit="10"/>
<path d="M123.826 77.7442V66.885L102.298 54.5213V58.25L89 65.8384L75.7016 58.25V54.4559L54.1741 66.8196V77.7442L44.6283 83.2392V112.284L54.1741 117.714V128.508L75.7016 140.871V136.75L89 129.162L102.298 136.75V140.74L123.826 128.442V117.714L133.174 112.35V83.1084L123.826 77.7442Z" stroke="#4F58AA" stroke-width="1.5" stroke-miterlimit="10"/>
<path d="M75.7017 105.285L54.24 117.648" stroke="#4F58AA" stroke-width="1.5" stroke-miterlimit="10"/>
<path d="M52.9891 77.0246L75.7016 90.0425" stroke="#4F58AA" stroke-width="1.5" stroke-miterlimit="10"/>
<path d="M102.298 136.75L89 129.162L75.7017 136.75V152.058L89 159.646L102.298 152.058V136.75Z" fill="white" stroke="#DF7700" stroke-width="1.5" stroke-miterlimit="10"/>
<path d="M102.298 136.75L89 144.404L75.7017 136.75" stroke="#DF7700" stroke-width="1.5" stroke-miterlimit="10"/>
<path d="M89 159.646V144.404" stroke="#DF7700" stroke-width="1.5" stroke-miterlimit="10"/>
<path d="M54.1741 62.5021L40.9416 54.9138L27.6433 62.5021V77.7442L40.9416 85.3979L54.1741 77.7442V62.5021Z" fill="white" stroke="#DF7700" stroke-width="1.5" stroke-miterlimit="10"/>
<path d="M54.1741 62.5021L40.9416 70.1558L27.6433 62.5021" stroke="#DF7700" stroke-width="1.5" stroke-miterlimit="10"/>
<path d="M40.9417 85.398V70.1559" stroke="#DF7700" stroke-width="1.5" stroke-miterlimit="10"/>
<path d="M123.826 62.5021L137.058 54.9138L150.357 62.5021V77.7442L137.058 85.3979L123.826 77.7442V62.5021Z" fill="white" stroke="#DF7700" stroke-width="1.5" stroke-miterlimit="10"/>
<path d="M123.826 62.5021L137.058 70.1558L150.357 62.5021" stroke="#DF7700" stroke-width="1.5" stroke-miterlimit="10"/>
<path d="M137.058 85.398V70.1559" stroke="#DF7700" stroke-width="1.5" stroke-miterlimit="10"/>
<path d="M54.1741 117.714L40.9416 110.125L27.6433 117.714V132.956L40.9416 140.61L54.1741 132.956V117.714Z" fill="white" stroke="#DF7700" stroke-width="1.5" stroke-miterlimit="10"/>
<path d="M54.1741 117.714L40.9416 125.367L27.6433 117.714" stroke="#DF7700" stroke-width="1.5" stroke-miterlimit="10"/>
<path d="M40.9417 140.61V125.367" stroke="#DF7700" stroke-width="1.5" stroke-miterlimit="10"/>
<path d="M123.826 117.714L137.058 110.125L150.357 117.714V132.956L137.058 140.61L123.826 132.956V117.714Z" fill="white" stroke="#DF7700" stroke-width="1.5" stroke-miterlimit="10"/>
<path d="M123.826 117.714L137.058 125.367L150.357 117.714" stroke="#DF7700" stroke-width="1.5" stroke-miterlimit="10"/>
<path d="M137.058 140.61V125.367" stroke="#DF7700" stroke-width="1.5" stroke-miterlimit="10"/>
<path d="M102.298 43.0079L89 35.3542L75.7017 43.0079V58.25L89 65.8384L102.298 58.25V43.0079Z" fill="white" stroke="#DF7700" stroke-width="1.5" stroke-miterlimit="10"/>
<path d="M102.298 43.0079L89 50.5963L75.7017 43.0079" stroke="#DF7700" stroke-width="1.5" stroke-miterlimit="10"/>
<path d="M89 65.8383V50.5963" stroke="#DF7700" stroke-width="1.5" stroke-miterlimit="10"/>
<path d="M102.298 90.1079L89 82.4542L75.7017 90.1079V105.35L89 112.938L102.298 105.35V90.1079Z" fill="white" stroke="#DF7700" stroke-width="1.5" stroke-miterlimit="10"/>
<path d="M102.298 90.1079L89 97.6962L75.7017 90.1079" stroke="#DF7700" stroke-width="1.5" stroke-miterlimit="10"/>
<path d="M89 112.938V97.6963" stroke="#DF7700" stroke-width="1.5" stroke-miterlimit="10"/>
</svg>
