<svg width="175" height="175" viewBox="0 0 175 175" fill="none" xmlns="http://www.w3.org/2000/svg">
<path d="M175 0H0V175H175V0Z" fill="white"/>
<path fill-rule="evenodd" clip-rule="evenodd" d="M148.812 131.387C175.61 107.477 141.011 93.8339 147.388 73.6281C153.764 53.4224 169.904 23.0354 109.683 28.389C49.4616 33.7426 -0.53462 94.5658 20.9345 123.192C42.4037 151.817 122.014 155.298 148.812 131.387Z" fill="#F4A81C"/>
<path fill-rule="evenodd" clip-rule="evenodd" d="M99.0966 82.3687C100.836 83.2134 102.576 84.0583 104.316 84.9029C107.056 86.2336 109.844 87.5965 112.054 89.6893C114.263 91.7821 115.844 94.7589 115.513 97.7785C115.123 101.328 112.308 104.063 109.665 106.473C106.219 109.616 102.774 112.759 99.3278 115.902C97.8179 117.279 96.1643 119.241 96.9774 121.112C99.0896 125.974 101.003 131.503 99.0821 136.443C98.5398 137.838 97.4173 139.277 95.9179 139.209C94.8021 139.158 93.9173 138.284 93.1995 137.431C90.347 134.041 88.2302 130.04 87.036 125.779C85.5068 120.324 85.6934 113.93 89.4151 109.649C92.307 106.321 97.2901 104.084 97.5979 99.6932C91.9638 94.926 83.8135 93.3015 76.7724 95.5422C69.7313 97.7829 64.035 103.814 62.2171 110.952C61.227 114.84 63.4432 118.842 66.169 121.792C68.8951 124.744 72.239 127.19 74.3364 130.613C78.5546 137.498 76.7131 146.314 74.7394 154.136C74.0543 156.851 69.921 157.304 67.8635 155.398C65.8057 153.493 65.4515 150.38 65.6695 147.589C65.8876 144.798 66.5414 141.978 65.9931 139.233C64.5775 132.147 56.2538 128.913 52.1749 122.94C49.0837 118.414 48.6578 112.492 49.8023 107.137C50.9471 101.782 53.5065 96.8487 56.0389 91.9897C51.3265 84.8017 49.3483 75.8795 50.5826 67.3824C51.2054 63.0949 45.5417 59.796 46.1315 55.5041C46.6022 52.0785 50.6356 50.5318 54.0448 49.8873C60.5338 48.6607 67.1693 48.2073 73.7654 48.5398C75.2403 48.614 75.8892 46.4792 75.1507 45.2052C74.412 43.931 72.9698 43.2751 71.7753 42.4099C69.369 40.6669 67.857 37.9189 67.0233 35.0734C65.9534 31.4218 65.9513 27.2754 67.9384 24.027C68.4349 23.2153 69.2887 22.0121 70.5877 23.178C70.9776 21.1429 75.1153 19.1869 77.7608 20.2794C79.3463 20.9342 81.0359 19.5913 82.0436 18.2069C83.0512 16.8223 84.026 15.1505 85.7004 14.7749C88.6988 14.1022 90.6191 18.1 90.2738 21.1429C89.9284 24.1859 88.5854 27.4005 89.9039 30.1667C90.4054 31.2183 91.2738 32.129 91.4402 33.2814C91.5846 34.2813 91.3259 33.8914 90.7628 36.1932C90.2 38.4948 88.8439 39.2342 88.2848 40.5075C87.4243 42.4675 87.5536 44.1891 85.7555 45.9239C85.4529 46.2158 86.0691 46.8848 85.8514 47.3804C90.2798 47.4436 93.644 51.1233 97.0717 53.9179C101.334 57.3934 106.549 59.8247 112.036 60.2963C117.524 60.7679 123.266 59.1637 127.363 55.4959C128.967 54.0602 132.793 55.936 133.072 53.8057C133.126 53.2538 132.979 53.0161 132.455 52.8803C132.183 52.81 131.541 52.9561 131.342 52.7006C130.758 51.9518 134.16 50.6608 134.017 51.6891C133.98 51.9525 133.825 52.1471 133.845 52.3177C133.902 52.8138 134.185 52.9669 134.622 53.0543C135.544 53.1117 136.865 52.4817 137.417 51.6891C137.786 51.1583 137.642 51.0173 137.352 50.994C136.879 50.9555 136.015 51.2311 136.369 50.6284C136.804 49.8873 137.925 49.1845 138.991 49.8297C139.221 49.969 139.14 50.2394 139.022 50.5049C138.805 50.9924 138.464 51.4635 139.688 51.0803C141.58 50.4884 141.688 50.5992 142.177 50.7439C142.665 50.8885 143.383 51.7474 143.842 52.5499C144.787 54.2007 145.757 55.9323 145.845 57.8309C145.934 59.7295 144.835 61.8291 142.965 62.2087C142.949 62.7612 143.22 63.2818 143.631 63.6479C144.079 64.0469 145.232 63.8038 145.038 64.1603C144.409 65.3186 142.877 65.6156 141.672 65.2103C141.34 65.099 142.104 64.529 142.177 64.1339C142.292 63.5014 142.161 62.8203 141.774 62.3035C140.683 62.7634 139.592 63.2232 138.502 63.6834C138.819 64.0866 138.674 64.5654 138.991 64.9686C139.29 65.3494 140.057 65.253 140.185 65.7934C140.325 66.3812 139.193 66.6278 138.607 66.6826C137.966 66.7428 136.968 66.8086 136.669 66.3812C136.33 65.8951 137.394 65.7395 137.443 65.2311C137.496 64.676 137.293 64.0828 136.804 63.8143C135.867 63.2998 134.523 64.2471 134.698 65.2985C135.138 67.9476 134.037 70.7958 131.926 72.4654C129.816 74.1348 126.782 74.5579 124.292 73.5298C122.041 72.6002 119.548 73.796 117.219 74.5086C111.939 76.1247 105.913 75.0941 101.476 71.816C101.22 75.4805 100.516 79.4497 98.1649 82.1517C98.5461 82.3687 98.3501 82.3687 99.0966 82.3687Z" fill="white"/>
<path d="M75.609 42.696C76.3178 42.696 76.8924 42.1234 76.8924 41.4169C76.8924 40.7105 76.3178 40.1378 75.609 40.1378C74.9003 40.1378 74.3257 40.7105 74.3257 41.4169C74.3257 42.1234 74.9003 42.696 75.609 42.696Z" fill="#39E8AF"/>
<path d="M84.8165 40.1333C85.5253 40.1333 86.0999 39.5587 86.0999 38.85C86.0999 38.1412 85.5253 37.5667 84.8165 37.5667C84.1078 37.5667 83.5332 38.1412 83.5332 38.85C83.5332 39.5587 84.1078 40.1333 84.8165 40.1333Z" fill="#39E8AF"/>
<path fill-rule="evenodd" clip-rule="evenodd" d="M92.3114 96.0136C91.7337 95.7546 91.155 95.4953 90.5729 95.2429C86.3108 93.3939 81.1987 92.0642 77.1774 94.3875C76.5633 90.4784 80.7694 87.4929 84.6399 86.6086C85.7016 86.3659 86.7968 86.194 87.8923 86.022C90.791 85.5668 93.6904 85.1113 95.9659 83.3492C99.3443 80.7328 100.245 76.0692 100.542 71.816C104.98 75.0941 111.005 76.1247 116.285 74.5086C116.689 74.3854 117.097 74.2476 117.507 74.1087C119.47 73.4458 121.497 72.761 123.359 73.5298C125.848 74.5579 128.882 74.1348 130.993 72.4654C133.103 70.7958 134.205 67.9476 133.764 65.2985C133.589 64.2471 134.933 63.2998 135.87 63.8143C136.359 64.0828 136.563 64.676 136.509 65.2311C136.487 65.4586 136.262 65.6156 136.05 65.7631C135.789 65.9451 135.548 66.1126 135.735 66.3812C136.034 66.8086 137.032 66.7428 137.674 66.6826C138.259 66.6278 139.392 66.3812 139.252 65.7934C139.178 65.4838 138.895 65.3832 138.61 65.2822C138.398 65.2068 138.185 65.1312 138.057 64.9686C137.899 64.767 137.856 64.5465 137.813 64.326C137.77 64.1055 137.726 63.885 137.568 63.6834L140.84 62.3035C141.227 62.8203 141.359 63.5014 141.243 64.1339C141.212 64.3038 141.053 64.5061 140.908 64.6902C140.716 64.9345 140.549 65.1468 140.738 65.2103C141.944 65.6156 143.476 65.3186 144.105 64.1603C144.203 63.979 143.953 63.9529 143.625 63.9184C143.308 63.885 142.918 63.8439 142.698 63.6479C142.286 63.2818 142.015 62.7612 142.032 62.2087C143.901 61.8291 145 59.7295 144.912 57.8309C144.823 55.9323 143.854 54.2007 142.909 52.5499C142.449 51.7474 141.732 50.8885 141.243 50.7439C141.213 50.735 141.184 50.7261 141.156 50.7175C140.734 50.5882 140.528 50.5252 138.754 51.0803C137.656 51.4243 137.818 51.0799 138.02 50.6533C138.043 50.6046 138.066 50.5549 138.088 50.5049C138.206 50.2394 138.287 49.969 138.057 49.8297C136.991 49.1845 135.87 49.8873 135.435 50.6284C135.176 51.071 135.572 51.04 135.989 51.0075C136.14 50.9956 136.293 50.9837 136.419 50.994C136.708 51.0173 136.852 51.1583 136.483 51.6891C135.932 52.4817 134.611 53.1117 133.689 53.0543C133.251 52.9669 132.968 52.8138 132.911 52.3177C132.9 52.2269 132.939 52.1294 132.984 52.0186C133.022 51.9208 133.066 51.8125 133.083 51.6891C133.227 50.6608 129.824 51.9518 130.408 52.7006C130.538 52.8672 130.856 52.8632 131.137 52.8595C131.287 52.8576 131.427 52.856 131.521 52.8803C132.046 53.0161 132.193 53.2536 132.139 53.8057C131.986 54.9688 130.776 54.9376 129.448 54.9033C128.344 54.8748 127.158 54.8442 126.43 55.4959C122.333 59.1637 116.59 60.7679 111.103 60.2963C105.615 59.8247 100.401 57.3934 96.1381 53.9179C95.5496 53.4382 94.9632 52.9323 94.3729 52.4234C91.5242 49.9666 88.5863 47.4329 84.9178 47.3804C85.0256 47.1352 84.9292 46.8475 84.8408 46.5842C84.7507 46.3152 84.6691 46.0714 84.8219 45.9239C85.769 45.0102 86.2527 43.2305 86.6717 41.6891C87.0481 40.3038 87.3725 39.1113 87.9334 38.9132C89.056 38.5167 89.3852 37.5269 89.7651 36.3855C89.7863 36.3218 89.8078 36.2576 89.8292 36.1932C89.959 35.8068 90.0744 35.4946 90.1729 35.2288C90.4744 34.4157 90.6153 34.0349 90.5066 33.2814C90.3981 32.5301 89.9911 31.8814 89.5819 31.2295C89.3637 30.8814 89.1449 30.5325 88.9703 30.1667C88.0111 28.1542 88.4605 25.9046 88.9096 23.6562C89.0779 22.814 89.2459 21.9721 89.3401 21.1429C89.6855 18.1 87.7651 14.1022 84.7668 14.7749C83.3057 15.1027 82.3775 16.4173 81.495 17.6669C81.3662 17.8493 81.2383 18.0304 81.11 18.2069C80.1022 19.5913 78.4127 20.9342 76.8272 20.2794C74.1817 19.1869 70.044 21.1429 69.6541 23.178C68.3551 22.0121 67.5013 23.2153 67.0048 24.027C65.0177 27.2754 65.0198 31.4218 66.0897 35.0734C66.9234 37.9189 68.4354 40.6669 70.8417 42.4099C71.1476 42.6316 71.4699 42.8395 71.7923 43.0474C72.7287 43.6517 73.6676 44.2574 74.2171 45.2052C74.9556 46.4792 74.3067 48.614 72.8318 48.5398C66.2357 48.2073 59.6002 48.6607 53.1112 49.8873C49.702 50.5318 45.6685 52.0785 45.1979 55.5041C44.9037 57.6454 46.166 59.5396 47.4276 61.4326C48.6946 63.3338 49.961 65.2341 49.649 67.3824C48.4147 75.8795 50.3929 84.8017 55.1053 91.9897C52.5729 96.8487 50.0135 101.782 48.8687 107.137C47.7242 112.492 48.1501 118.414 51.2413 122.94C52.8522 125.299 55.1253 127.231 57.3733 129.141C60.8175 132.068 64.2029 134.945 65.0595 139.233C65.462 141.248 65.2168 143.304 64.9715 145.359C64.8826 146.103 64.794 146.847 64.7359 147.589C64.5179 150.38 64.8721 153.493 66.9299 155.398C68.1047 156.486 69.9562 156.806 71.4563 156.374C71.4435 156.603 71.4302 156.817 71.4176 157.018C71.3494 158.112 71.3047 158.83 71.4972 159.681C71.5473 159.903 71.629 160.155 71.842 160.236C72.2662 160.397 72.5493 159.749 72.5206 159.31C72.4118 157.645 72.2037 156.706 72.0035 156.175C72.8764 155.787 73.561 155.106 73.8058 154.136C75.7795 146.314 77.621 137.498 73.4028 130.613C72.0093 128.339 70.0657 126.496 68.1185 124.649C67.1348 123.717 66.1503 122.783 65.2354 121.792C62.5096 118.842 60.2934 114.84 61.2835 110.952C63.1014 103.814 68.7977 97.7829 75.8388 95.5422C82.8798 93.3015 91.0302 94.926 96.6642 99.6932C96.4545 102.684 94.0759 104.676 91.6662 106.693C90.5383 107.638 89.4036 108.588 88.4815 109.649C84.7598 113.93 84.5731 120.324 86.1024 125.779C87.2966 130.04 89.4134 134.041 92.2659 137.431C92.9837 138.284 93.8684 139.158 94.9842 139.209C96.4836 139.277 97.6062 137.838 98.1485 136.443C100.069 131.503 98.156 125.974 96.0438 121.112C95.2307 119.241 96.8843 117.279 98.3942 115.902L108.731 106.473C111.375 104.063 114.19 101.328 114.579 97.7785C114.91 94.7589 113.33 91.7821 111.12 89.6893C108.91 87.5965 106.122 86.2336 103.382 84.9029L98.163 82.3687C99.8833 84.5718 102.48 85.8087 105.036 87.0265C105.53 87.2617 106.023 87.4962 106.507 87.7368C109.499 89.2234 112.569 91.3926 113.254 94.6525C114.096 98.6572 111.039 102.333 108.204 105.294C104.615 109.043 100.994 112.819 96.7303 115.785C95.2796 116.794 93.6708 117.732 91.9026 117.796C90.1344 117.859 88.2111 116.755 87.9334 115.013C87.6828 113.442 88.7694 112.001 89.7914 110.778L97.3489 101.732C98.4973 100.357 100.01 99.9996 101.81 99.574C102.444 99.4242 103.112 99.2662 103.813 99.0523C99.5725 99.2679 95.9617 97.6497 92.3114 96.0136ZM61.7254 71.7021C62.0304 74.4401 62.8769 77.1817 64.5935 79.341C66.3101 81.5005 68.9849 83.0036 71.7471 82.8844C72.672 82.8442 72.9683 81.4732 72.4191 80.7305C71.9428 80.0865 71.1551 79.7932 70.3914 79.509C70.2745 79.4656 70.1583 79.4222 70.044 79.3778C69.1809 79.0442 68.2606 78.4856 68.1047 77.5763C70.54 79.4642 74.1758 79.6394 76.7826 77.9944C77.6901 80.5891 80.6998 82.147 83.4238 81.7186C86.1477 81.2902 88.4245 79.1209 89.328 76.5249C89.3453 76.4752 89.3623 76.425 89.3793 76.3748C89.5165 75.9707 89.6577 75.5554 89.9697 75.2693C90.2602 75.0026 90.6564 74.8894 91.0372 74.7844L98.4852 72.7323C98.67 72.6814 98.8797 72.6333 99.0438 72.7325C99.2186 72.8382 99.2669 73.0657 99.2925 73.268C99.8077 77.3392 97.514 81.6155 93.8306 83.4509C91.8555 84.4351 89.5987 84.7566 87.361 85.0756C84.4413 85.4914 81.5548 85.9028 79.3705 87.7748C78.1819 88.7935 77.3571 90.1317 76.5308 91.4727C76.136 92.1132 75.741 92.7544 75.3056 93.3615C72.6361 97.0853 67.7328 99.6069 63.3783 98.1518C60.8789 97.3167 58.9361 95.3404 57.3394 93.2504C52.5325 86.9591 49.995 78.9824 50.2874 71.0805C50.3404 69.6469 50.4881 68.1953 51.0084 66.8576C54.3084 70.6787 58.1241 74.0574 62.3204 76.8735C62.1739 76.1151 61.6465 75.4926 61.1215 74.9242C59.6196 73.2981 57.962 71.7749 56.3062 70.2536C52.4555 66.7158 48.6149 63.1871 46.7655 58.3895C46.3588 57.3348 46.0582 56.1836 46.3086 55.0818C46.8768 52.5828 49.8242 51.5426 52.3449 51.0351C58.3988 49.8168 64.5772 49.2132 70.7533 49.237C71.0811 53.0487 74.2642 56.458 78.0709 56.9599C81.8774 57.4618 85.8889 54.9233 86.9578 51.2488C86.9896 51.1396 87.0192 51.0292 87.049 50.9184C87.1818 50.4247 87.316 49.9258 87.6335 49.5305C88.0223 49.0466 88.8128 48.8086 89.2664 49.2328C92.6292 52.3763 96.1582 55.3984 100.179 57.6466C104.201 59.8947 108.77 61.3447 113.377 61.1414C105.508 64.0019 97.4646 66.3863 89.3061 68.277C88.6822 68.4217 87.9096 68.5164 87.5085 68.019C86.0875 66.2552 83.7702 65.2486 81.5062 65.4117C79.2422 65.5748 77.0944 66.9029 75.9429 68.8522C75.5259 69.5578 74.4857 69.4691 73.6942 69.2484C72.0481 68.7894 70.3538 68.0833 69.3811 66.6826C69.2168 66.4463 69.0744 66.1917 68.9324 65.9378C68.6544 65.4408 68.3775 64.9455 67.9388 64.5906C67.3184 64.0884 66.5059 63.9662 65.7012 63.8448C65.4774 63.8112 65.2543 63.7776 65.0361 63.7359C62.5518 63.262 60.3517 61.5015 59.3507 59.187C61.6927 57.6244 64.8553 58.3659 67.4411 59.4836C67.8483 59.6595 68.2566 59.8443 68.6664 60.0301C70.8585 61.0229 73.0953 62.0358 75.4601 61.8193C77.4707 61.6354 79.2254 60.5929 80.9878 59.5459C82.546 58.62 84.1097 57.6909 85.8614 57.3486C90.3554 56.4703 94.7666 59.8047 96.8705 63.8577C96.8866 63.8887 96.9027 63.92 96.9188 63.9512C97.2632 64.6165 97.6354 65.3363 98.3256 65.6156C97.6214 61.6706 94.6475 58.2103 90.8438 56.9102C87.0402 55.6098 82.5606 56.5221 79.5742 59.2055C77.7211 60.8705 74.9052 60.9882 72.4867 60.3764C71.1245 60.0315 69.8263 59.4918 68.5271 58.9518C67.5197 58.533 66.5118 58.1139 65.473 57.7854C63.0946 57.0334 60.3478 56.8108 58.2308 58.127C57.5952 56.7317 56.7451 55.4334 55.7189 54.2922C56.7358 60.1071 62.0586 64.8881 67.9687 65.295L64.6892 66.5366C63.9229 66.8266 63.1287 67.1348 62.5663 67.7291C61.6034 68.7467 61.5705 70.3122 61.7254 71.7021ZM60.1075 112.376C59.7887 113.976 59.614 115.71 60.3324 117.176C60.7195 117.967 61.3378 118.616 61.9459 119.254L61.9876 119.298C65.6449 123.139 69.0803 127.19 72.2711 131.424C70.8543 132.78 69.2772 133.969 67.5828 134.96C67.1107 135.236 66.6011 135.504 66.0539 135.494C65.2384 135.479 64.5758 134.865 64.0023 134.288C59.9955 130.254 56.0923 126.118 52.2976 121.886C51.091 120.541 49.8641 119.132 49.3158 117.412C48.6188 115.226 49.1123 112.861 49.6098 110.622C50.982 104.446 52.4254 98.1026 56.0031 92.878C58.0131 96.4742 61.7354 99.0698 65.8148 99.7196C62.9861 103.437 61.0186 107.8 60.1075 112.376ZM85.5963 43.5297C84.9978 44.7766 83.9882 45.8782 82.6789 46.3348C80.9336 46.9438 79.0138 46.3346 77.3048 45.6301C76.417 45.264 75.5196 44.858 74.832 44.1891C74.2482 43.6216 73.8482 42.8959 73.4777 42.1719C72.3241 39.917 71.3709 37.5603 70.6327 35.1385C70.0223 33.1361 69.7077 30.6018 71.3327 29.2756C73.1886 30.6949 75.685 31.051 78.009 30.7817C80.0754 30.5423 82.0548 29.858 84.0236 29.1773C84.2693 29.0924 84.5148 29.0075 84.7603 28.9235C85.0408 28.8276 85.3726 28.7391 85.6145 28.9097C85.7998 29.0401 85.8651 29.2795 85.9155 29.4998C86.6631 32.7767 86.8808 36.1729 86.5579 39.518C86.4251 40.8937 86.1948 42.283 85.5963 43.5297ZM93.0536 137.143C89.7263 132.723 87.4975 127.489 86.62 122.034C86.2431 119.691 86.1213 117.237 86.9046 114.997C87.6527 117.93 91.1961 119.804 94.0539 118.777C94.7999 120.308 95.478 121.871 96.0856 123.462C97.682 127.641 98.7689 132.396 97.0007 136.505C96.5756 137.493 95.7361 138.545 94.669 138.387C93.9772 138.285 93.4732 137.7 93.0536 137.143ZM70.9005 23.0262C71.7417 21.525 73.5925 20.7623 75.3119 20.9066C75.713 20.9403 76.1127 20.9911 76.5045 21.0408C77.7454 21.1985 78.9059 21.3459 79.7823 20.9066C81.1168 20.2377 81.6742 19.3079 82.2419 18.3615C82.6208 17.7297 83.004 17.0905 83.6258 16.5166C84.0192 16.1535 84.4576 15.8051 84.9815 15.6904C86.0522 15.4556 87.0805 16.2683 87.6905 17.1762C88.9997 19.1249 89.1724 21.7772 88.127 23.8781C86.9758 26.1918 84.6026 27.6397 82.2282 28.6752C80.5188 29.4207 78.7097 30.0253 76.8442 30.0638C74.9785 30.1023 73.0372 29.5136 71.7508 28.1668C70.4644 26.8197 69.991 24.6495 70.9005 23.0262ZM65.6403 144.788C65.5602 144.197 65.4972 143.537 65.8573 143.061C67.3324 143.193 68.8551 142.66 69.9233 141.638C69.5985 140.97 68.5926 141.015 67.9573 141.403C67.7132 141.552 67.4892 141.735 67.2659 141.917C66.9075 142.21 66.5505 142.501 66.1158 142.648C65.6956 142.234 65.7709 141.502 66.1205 141.027C66.47 140.552 67.0193 140.272 67.548 140.008L70.8777 138.349C70.2379 137.718 69.1715 137.71 68.3551 138.087C67.5387 138.465 66.914 139.15 66.3127 139.817C65.6454 138.656 66.1216 136.989 67.303 136.352L71.6166 134.026C71.9517 133.845 72.3071 133.659 72.6878 133.671C73.5127 133.695 74.0102 134.585 74.2358 135.375C74.8884 137.663 74.6894 140.094 74.485 142.463C74.1842 145.948 73.8788 149.459 72.8981 152.816C72.56 153.974 72.0266 155.234 70.9038 155.683C69.6858 156.169 68.2531 155.431 67.5249 154.343C66.7964 153.256 66.6028 151.909 66.4275 150.614L65.6403 144.788ZM123.148 65.7934C123.614 65.7365 124.019 65.1989 123.791 64.7887L122.188 61.8986C121.976 61.5178 121.76 61.1209 121.732 60.6867C121.704 60.2527 121.922 59.7699 122.337 59.6357C122.932 59.4435 123.478 60.0163 123.823 60.5362C124.548 61.6317 125.18 62.7878 125.711 63.9888C126.34 63.153 125.652 61.9989 125.024 61.1622C124.396 60.3257 123.846 59.0428 124.632 58.3508C125.408 57.6673 126.641 58.3678 127.236 59.2129C127.548 59.657 127.805 60.1493 128.061 60.64C128.556 61.5904 129.048 62.534 129.934 63.104C130.316 62.8712 130.126 62.2873 129.894 61.9052L126.922 57.004C126.657 56.5658 127.096 55.9715 127.604 55.8975C128.113 55.8235 128.603 56.0944 129.028 56.3826C131.072 57.7688 132.699 59.8905 133.083 62.3237C133.467 64.7569 132.424 67.4601 130.282 68.6884C129.634 69.0598 128.912 69.2913 128.178 69.4334C123.711 70.2988 118.822 67.4494 117.39 63.1458C117.171 62.4871 117.118 61.5873 117.74 61.2754C118.214 61.0376 118.787 61.3202 119.182 61.6737C119.752 62.1844 120.16 62.838 120.568 63.4918C120.961 64.1216 121.354 64.7518 121.893 65.2551C122.236 65.5757 122.68 65.8503 123.148 65.7934ZM76.5486 70.629C77.0974 70.6458 77.666 70.6633 78.1222 70.9578C78.6255 71.2823 78.8448 72.1042 78.3681 72.4665C78.1878 72.6035 77.9537 72.6434 77.7297 72.6793C75.6479 73.0118 73.2728 73.2706 71.6542 71.924C71.2904 72.0894 71.1843 72.5883 71.3327 72.9584C71.4813 73.3284 71.8117 73.5919 72.1426 73.8159C73.6112 74.8111 75.3696 75.3762 77.145 75.424C75.9823 76.4273 74.2804 76.7689 72.8183 76.292C72.2445 76.1046 71.4372 75.8911 71.1833 76.4371C72.3092 77.5095 74.0277 77.5919 75.5852 77.612C72.8029 78.9331 69.1524 78.0728 67.2589 75.6496C67.1243 75.477 66.8202 75.5652 66.7131 75.756C66.606 75.9469 66.6352 76.1816 66.6674 76.3979C66.8312 77.4988 67.0561 78.7093 67.9332 79.3986C68.3973 79.7635 68.9734 79.9224 69.5498 80.0816C69.7796 80.1448 70.0096 80.2083 70.2327 80.285C71.0146 80.5534 71.8229 81.1425 71.8304 81.9667C69.3113 82.183 66.8452 80.7606 65.3204 78.7511C63.7953 76.7419 63.0946 74.2226 62.7717 71.724C62.6881 71.0782 62.6293 70.4094 62.8176 69.7857C63.1926 68.5442 64.4237 67.7935 65.5581 67.1584C66.3811 66.6976 67.516 66.2731 68.1687 66.9524C70.2955 69.166 73.3064 70.5119 76.3799 70.6234C76.4359 70.6255 76.4921 70.6272 76.5486 70.629ZM81.9516 75.0922L114.19 66.1999C115.593 65.8125 117.255 65.474 118.378 66.398C105.615 70.3282 92.6871 73.7314 79.6405 76.5956C78.9302 76.7514 77.9178 76.7202 77.7939 76.0062C78.2228 76.022 78.2209 75.543 78.2193 75.0364C78.2174 74.5378 78.2155 74.0123 78.6243 73.9062L116.192 64.1293C116.42 64.0702 116.708 64.0308 116.847 64.2189C117.074 64.525 116.61 64.8669 116.242 64.9686L80.4123 74.8939C80.7374 75.3391 81.4189 75.239 81.9516 75.0922ZM118.299 72.5298C115.974 74.0826 113.021 74.4902 110.241 74.1617C107.46 73.8334 104.81 72.8251 102.234 71.7334L117.658 67.4256C118.198 67.2746 118.866 67.1558 119.247 67.5665C122.377 70.9359 128.072 71.5372 131.841 68.896C131.402 70.9928 129.498 72.6987 127.359 72.9126C126.141 73.0347 124.941 72.7197 123.747 72.4061C123.43 72.323 123.114 72.2399 122.798 72.165C121.291 71.8085 119.586 71.6704 118.299 72.5298ZM75.6757 46.7268C75.896 46.4125 76.3699 46.2394 76.6753 46.4725C78.4652 47.8393 80.9535 48.243 83.0859 47.5122C83.7665 47.2791 84.541 47.7619 84.8219 48.4222C85.1028 49.0826 84.9894 49.8474 84.7426 50.521C83.991 52.5723 81.9677 54.0983 79.7823 54.2625C77.5969 54.4268 75.367 53.2202 74.3151 51.3046C73.9905 50.7131 73.8821 49.786 74.5086 49.5312C75.1332 49.2769 75.3122 48.4934 75.3796 47.8242L75.3817 47.8039C75.4195 47.4287 75.4592 47.0353 75.6757 46.7268ZM135.28 63.1472C135.028 63.2151 134.761 63.2818 134.51 63.2146C134.258 63.1474 134.035 62.8949 134.099 62.6429C136.353 62.2862 138.529 61.4469 140.437 60.1981C141.18 59.7116 141.969 58.8639 141.594 58.0607C141.345 57.5283 140.678 57.3234 140.089 57.3472C139.236 57.382 138.441 57.7632 137.674 58.137L133.537 60.1533C133.345 59.9262 133.425 59.5613 133.628 59.3441C133.824 59.1348 134.102 59.0275 134.371 58.9239L134.401 58.9122C136.279 58.1858 138.028 57.1316 139.546 55.8114C139.99 55.425 139.759 54.6284 139.252 54.3286C138.744 54.0287 138.107 54.0878 137.527 54.1958C135.844 54.5089 134.225 55.1557 132.791 56.0872C132.086 56.5459 131.084 57.0537 130.507 56.4421C132.065 54.8687 134.2 54.029 136.269 53.2319L140.273 51.6891C140.551 51.582 140.852 51.473 141.142 51.5468C141.535 51.6471 141.765 52.0433 141.944 52.4071C142.955 54.4704 143.699 56.6633 144.153 58.9145C144.219 59.2412 144.273 59.6021 144.105 59.8896C143.952 60.1505 143.653 60.2839 143.373 60.3992C140.737 61.4856 138.032 62.404 135.28 63.1472ZM116.344 63.2849C116.194 63.4437 115.971 63.5058 115.759 63.5611L78.9923 73.153C79.563 71.7793 81.2409 71.3094 82.6988 70.9923C92.843 68.7861 102.78 65.7439 112.707 62.705C113.272 62.5321 113.836 62.3595 114.4 62.1868C114.89 62.037 115.424 61.8879 115.904 62.0668C116.383 62.2458 116.695 62.9129 116.344 63.2849ZM66.5827 26.7033C66.8079 25.9688 67.1761 24.9535 67.7524 24.443C68.0462 24.1828 68.444 23.9052 68.7977 24.0764C69.0201 24.184 69.129 24.4327 69.2201 24.6616C69.3566 25.0039 69.5512 25.4629 69.7458 25.9216C69.9404 26.3806 70.135 26.8396 70.2712 27.1819C70.4626 27.6621 70.6474 28.4083 70.2969 28.6507C68.7977 29.6876 69.1389 33.473 69.8102 35.2148C69.9705 35.6306 70.1079 36.483 69.9698 37.1041C69.8316 37.7255 69.1388 38.2843 68.5723 37.9906C68.2473 37.8221 67.7316 36.9294 67.545 36.606C67.5279 36.5763 67.5137 36.5516 67.5025 36.5325C64.7408 31.824 66.2717 27.5706 66.5472 26.805C66.5643 26.7574 66.5766 26.7234 66.5827 26.7033ZM78.6983 77.6869C81.1534 77.2335 83.5833 76.6443 85.9729 75.9229C86.01 75.9117 86.0471 75.9005 86.0842 75.8893C86.8281 75.6639 87.5829 75.4354 88.359 75.4392C88.2617 76.6635 87.5792 77.7975 86.6431 78.5962C85.7069 79.3946 84.5346 79.8811 83.3339 80.1579C82.4235 80.3676 81.4635 80.4619 80.5587 80.229C79.654 79.9959 78.8101 79.3935 78.4661 78.5278C78.3429 78.2175 78.369 77.7475 78.6983 77.6869ZM81.7421 70.3838C80.1762 70.605 78.5212 70.4916 77.1116 69.7771C76.8137 69.6262 76.9679 69.1721 77.1784 68.9133C78.2606 67.5828 79.8997 66.7172 81.6122 66.5716C83.3246 66.4262 85.0872 67.0028 86.3799 68.1314C86.5936 68.3181 86.8106 68.6132 86.6664 68.8571C86.5906 68.9854 86.4384 69.0447 86.2977 69.0951C84.8093 69.6273 83.308 70.1628 81.7421 70.3838ZM76.9177 55.911C75.5257 55.4761 74.436 54.372 73.6401 53.1535C73.1576 52.415 72.7628 51.6259 72.3677 50.8365C72.1111 50.3234 71.8544 49.8105 71.5735 49.311C72.0893 49.2256 72.5915 49.576 72.8776 50.0121C73.082 50.3236 73.2056 50.676 73.3295 51.0288C73.3792 51.1699 73.4289 51.3113 73.4835 51.4499C74.513 54.0542 77.5788 55.6159 80.3398 55.0997C83.1008 54.5836 85.3397 52.1604 85.8185 49.4025C85.8686 49.1126 85.9601 48.754 86.2494 48.6966C86.5623 48.9568 86.5763 49.4274 86.521 49.8297C86.1204 52.7498 83.4636 54.9469 80.6256 55.7766C79.4212 56.1287 78.1154 56.2853 76.9177 55.911ZM132.109 57.6594C133.849 56.3065 135.899 55.3529 138.057 54.893C138.316 54.8377 138.705 54.8946 138.682 55.1576C138.674 55.2407 138.62 55.3114 138.567 55.3755C137.495 56.664 135.926 57.4179 134.407 58.1333C133.982 58.3337 133.533 58.5388 133.064 58.5099C132.594 58.481 132.109 58.1284 132.109 57.6594ZM139.637 58.3078C139.861 58.2367 140.106 58.1699 140.325 58.2521C140.545 58.3342 140.69 58.635 140.536 58.8107C139.204 60.3257 137.211 61.0733 135.267 61.6237C134.758 61.7677 134.011 61.764 133.924 61.2446C135.647 59.9582 137.587 58.9609 139.637 58.3078ZM87.3354 36.1125C87.4478 35.4192 87.5822 34.5909 87.5822 34.0552C87.5822 33.3192 87.6942 32.419 88.383 32.157C89.0431 31.9057 89.7891 32.5084 89.9162 33.2012C90.0434 33.8939 89.2583 36.6907 88.8681 37.2782C88.6901 37.5465 88.4827 37.8142 88.1896 37.949C87.8963 38.0841 87.497 38.0403 87.3176 37.7729C87.224 37.6336 87.2031 37.4597 87.1872 37.2929C87.1711 37.1258 87.2465 36.6615 87.3354 36.1125ZM87.3512 27.4005C87.3855 27.4497 87.4004 27.5095 87.4142 27.568C87.7003 28.7779 87.8111 30.0288 87.7425 31.2699C87.4145 31.4169 87.1428 30.9805 87.0462 30.6352L86.6339 29.158C86.4718 28.5765 86.3409 27.8648 86.7742 27.4432C86.9315 27.2901 87.2257 27.2206 87.3512 27.4005ZM69.9922 40.5645C69.5659 40.2709 69.2201 40.0329 69.2201 39.3068C69.2201 38.4477 70.152 37.6102 70.355 37.7729C71.0933 38.3641 72.4202 41.296 72.4867 42.2375C71.9312 42.0114 71.5217 41.7031 70.7741 41.1401C70.6112 41.0176 70.4324 40.8832 70.2327 40.7346C70.1508 40.6739 70.0701 40.6184 69.9922 40.5645ZM74.8376 74.0597L76.3433 73.7424C76.5311 73.7029 76.7593 73.6756 76.885 73.8203C77.127 74.0991 76.6503 74.4512 76.2805 74.458C75.7744 74.4673 75.2667 74.3273 74.8376 74.0597ZM120.546 60.2741C120.819 60.3049 121.049 60.6515 120.87 60.8582L120.853 60.8768C120.618 61.056 120.347 61.2451 120.054 61.203C119.761 61.1608 119.555 60.7331 119.797 60.5642C120.022 60.4074 120.274 60.2433 120.546 60.2741ZM122.713 64.76L122.37 64.71L122.337 64.7068L121.612 63.5954C122.248 63.3903 122.956 64.14 122.713 64.76ZM121.12 62.7542C120.842 62.7675 120.618 62.4215 120.745 62.1744C120.873 61.9273 121.286 61.9075 121.437 62.141C121.588 62.3748 121.399 62.7407 121.12 62.7542ZM83.1125 26.5075L80.495 27.7426C78.4951 28.6859 75.9832 28.4416 74.2043 27.1303C73.9532 27.0724 73.7355 27.3713 73.778 27.6247C73.8204 27.8779 74.027 28.0695 74.2342 28.2225C75.6682 29.2816 77.6292 29.4144 79.3591 28.9753C81.089 28.5364 82.6404 27.5914 84.1433 26.6317C84.0346 26.2516 83.4711 26.3384 83.1125 26.5075ZM80.6515 32.237C80.4366 32.4286 80.0642 32.1684 80.0677 31.881C80.0712 31.5933 80.305 31.3623 80.5465 31.2045C81.5583 30.543 83.0091 30.6457 83.917 31.443C83.7166 31.7713 83.2483 31.6952 82.8537 31.6311C82.8229 31.6259 82.7923 31.621 82.7625 31.6164C82.0135 31.499 81.2166 31.7333 80.6515 32.237ZM75.804 33.3234C76.1473 33.2453 76.5108 32.9835 76.4781 32.6339C76.4506 32.3395 76.1531 32.1439 75.867 32.0646C75.1927 31.8777 74.4183 32.1206 73.9731 32.6589C73.5279 33.1972 73.4366 34.0013 73.7498 34.625C73.9007 34.4906 74.0235 34.3254 74.1457 34.1606C74.327 33.9166 74.5069 33.6744 74.7746 33.5388C74.9769 33.4361 75.2037 33.4088 75.4314 33.3813C75.5567 33.3661 75.682 33.3512 75.804 33.3234ZM82.6393 37.2012C83.0546 37.1954 83.3348 36.7677 83.4391 36.367C83.6538 35.5431 83.4354 34.6198 82.874 33.9782C82.6199 33.6877 82.1868 33.4459 81.8634 33.6573C81.7636 33.7227 81.6917 33.8232 81.6336 33.9275C81.2281 34.6579 81.4313 35.5711 81.7465 36.3446C81.9122 36.7509 82.199 37.2075 82.6393 37.2012ZM77.3879 37.2028L77.2642 35.9181C77.2171 35.4293 77.1121 34.8543 76.665 34.6476C76.0539 34.365 75.4087 35.0419 75.2487 35.6936C75.0767 36.3936 75.1761 37.1562 75.5215 37.7894C75.8348 38.3637 76.6148 38.8448 77.1132 38.4197C77.4434 38.1378 77.4294 37.634 77.3879 37.2028ZM76.3558 133.5C79.7991 133.398 83.2427 133.298 86.686 133.198C87.0642 133.187 87.4704 133.184 87.7843 133.395C88.0755 133.59 88.2349 133.963 88.174 134.308L78.0655 134.497C77.6898 134.504 77.3013 134.509 76.9558 134.362C76.6104 134.215 76.3187 133.873 76.3558 133.5ZM79.8929 41.3608C79.524 41.2558 79.6979 40.7101 79.8715 40.3689C80.4322 39.2667 80.1163 37.915 79.5549 36.8132L79.5409 36.7861C79.4163 36.542 79.2833 36.2812 79.3274 36.0124C79.3733 35.7338 79.7259 35.5018 79.9464 35.6796C80.0126 35.7331 80.0528 35.8112 80.091 35.8873C80.5127 36.724 80.9262 37.5841 81.0634 38.5102C81.2008 39.4363 81.0239 40.4529 80.3865 41.1408C80.2574 41.2801 80.0756 41.4129 79.8929 41.3608ZM80.4436 44.8711C82.1719 44.5951 83.5582 42.9181 83.4989 41.1749C83.4954 41.0713 83.486 40.9632 83.4326 40.8743C83.2826 40.6247 82.8745 40.683 82.6818 40.9016C82.5233 41.0813 82.4631 41.3198 82.4036 41.555C82.3908 41.6056 82.3782 41.656 82.3644 41.7057C82.1334 42.5448 81.5585 43.2842 80.8009 43.717C80.764 43.738 80.7264 43.7588 80.6886 43.7796C80.4674 43.9014 80.2397 44.0267 80.1235 44.2458C79.9877 44.5022 80.1562 44.9168 80.4436 44.8711ZM90.9968 149.849C91.0705 151.92 91.3013 158.489 91.0316 159.681C90.9816 159.903 90.9 160.155 90.687 160.236C90.2625 160.397 90.0136 159.762 90.0084 159.31C89.9657 155.645 89.923 151.338 89.8803 147.031V147.031C89.8376 142.725 89.7949 138.418 89.7522 134.753C90.4557 134.753 90.687 137.226 90.687 138.823C90.687 144.189 90.9968 149.849 90.9968 149.849ZM66.7901 104.332C66.6872 104.272 66.5673 104.212 66.4443 104.15C65.9543 103.905 65.4153 103.636 65.6991 103.256C73.2003 103.579 80.7187 103.505 88.212 103.031C90.3342 102.897 92.7279 102.588 93.9895 100.882C94.0399 100.813 94.0887 100.743 94.1375 100.672C94.3052 100.429 94.4737 100.185 94.7206 100.027C95.0389 99.8237 95.5485 99.8496 95.7076 100.191C95.4829 102.02 93.763 103.544 91.9141 103.553C91.1051 103.557 90.8309 104.609 90.7285 105.409C90.6258 106.208 90.0723 107.233 89.3131 106.955C89.5047 106.299 89.6288 105.624 89.6827 104.943C89.7009 104.715 89.696 104.45 89.5189 104.304C89.3812 104.191 89.1857 104.191 89.0072 104.196L69.2088 104.758C69.0833 104.762 68.945 104.771 68.8554 104.858C68.7459 104.965 68.756 105.14 68.7739 105.292L70.1791 117.229C70.2099 117.492 70.317 117.827 70.5825 117.829L81.8058 117.89C82.4024 117.893 83.2515 118.348 82.8871 118.818C82.738 119.011 82.458 119.029 82.2139 119.03L70.7916 119.076C70.3093 119.078 70.173 119.731 70.1907 120.211L70.3725 125.123C69.0005 124.149 68.9062 122.194 68.8967 120.515C68.8687 115.623 68.43 110.734 67.5865 105.915C67.481 105.313 67.3195 104.639 66.7901 104.332Z" fill="#00160A"/>
<path fill-rule="evenodd" clip-rule="evenodd" d="M92.204 127.52C92.6739 126.458 93.7687 125.7 94.9316 125.63C95.2338 125.612 95.577 125.656 95.7616 125.896C95.9462 126.135 95.7877 126.589 95.4874 126.55C94.7667 126.456 94.0473 126.822 93.5414 127.342C93.0358 127.862 92.7059 128.523 92.3839 129.172C91.9212 128.795 91.9627 128.066 92.204 127.52Z" fill="#00160A"/>
<path fill-rule="evenodd" clip-rule="evenodd" d="M143.562 25.8939C144.153 25.9497 144.7 25.6083 145.19 25.2742C146.552 24.3448 148.019 23.078 147.929 21.4351C147.901 20.9134 147.712 20.4225 147.524 19.931C147.443 19.7207 147.362 19.5103 147.294 19.2973C146.937 18.1849 146.924 17.0121 146.91 15.8363C146.899 14.8718 146.889 13.9054 146.688 12.9685C146.616 12.6326 146.472 12.251 146.141 12.1554C145.954 12.1016 145.756 12.1563 145.57 12.2108L139.62 13.9514C138.5 14.2791 138.26 15.7289 138.228 16.8921L138.141 20.0573C137.787 20.1015 137.451 19.9633 137.116 19.8251C136.987 19.7723 136.859 19.7196 136.73 19.677C135.459 19.2575 133.922 19.9628 133.414 21.1984C132.907 22.434 133.507 24.0118 134.708 24.6015C135.91 25.1911 137.53 24.703 138.202 23.5487C138.659 22.7649 138.686 21.8131 138.702 20.9066L138.73 19.2046C138.74 18.5685 139.456 18.2157 140.061 18.0135C141.924 17.3906 143.805 16.8189 145.7 16.2993C145.887 16.2479 146.12 16.2094 146.248 16.3551C146.317 16.4338 146.332 16.5447 146.344 16.6486L146.604 18.877C146.642 19.2075 146.605 19.6519 146.279 19.722C144.703 20.0603 143.303 21.133 142.569 22.5634C142.256 23.1728 142.059 23.8725 142.198 24.5431C142.336 25.2135 142.878 25.8297 143.562 25.8939ZM145.968 13.1468C146.035 13.2141 146.054 13.3132 146.07 13.4062L146.251 14.4522C146.298 14.7286 146.343 15.0254 146.223 15.279C146.033 15.6796 145.529 15.8001 145.091 15.8862C144.08 16.0851 143.081 16.3489 142.105 16.6757C141.288 16.9487 140.487 17.2654 139.687 17.5819C139.619 17.6086 139.552 17.6353 139.484 17.662C139.294 17.7371 139.032 17.7912 138.924 17.6194C138.896 17.5764 138.885 17.5255 138.876 17.4756C138.685 16.4612 139.154 15.3548 140.02 14.782C140.496 14.4665 141.059 14.3118 141.612 14.1618L145.495 13.1076C145.656 13.064 145.852 13.029 145.968 13.1468ZM138.133 21.4884C138.117 22.4688 137.88 23.5897 137.008 24.0643C136.315 24.4407 135.412 24.2599 134.784 23.7869C134.047 23.2317 133.642 22.126 134.181 21.382C134.405 21.0721 134.756 20.8712 135.119 20.7398C135.953 20.4379 136.906 20.4683 137.718 20.8226C137.847 20.8791 137.98 20.949 138.055 21.0674C138.132 21.1902 138.135 21.3437 138.133 21.4884ZM34.1836 23.6791C34.2844 23.9885 34.7233 23.9766 35.0411 23.9022L37.931 23.2265C37.8505 22.4762 37.7042 21.7329 37.4946 21.0079C37.4328 20.7942 37.3584 20.5707 37.1901 20.4244C36.93 20.1979 36.5403 20.2292 36.1975 20.2737L31.7591 20.8494C31.4541 20.889 31.0474 21.0864 31.1636 21.3699C32.1795 23.8541 32.981 26.4257 33.5562 29.0465C33.6661 29.5477 33.6477 30.2516 33.1446 30.3618C31.6877 30.68 30.441 31.8196 29.9972 33.2383C29.8607 33.6749 29.7986 34.1597 29.9752 34.5816C30.0709 34.8103 30.2317 35.007 30.4116 35.1778C31.2758 35.9982 32.6539 36.2261 33.7377 35.7284C34.8216 35.2305 35.5426 34.0382 35.4777 32.8507C35.4532 32.4023 35.3279 31.9659 35.2035 31.5343L32.3662 21.6928L36.1229 21.3991C36.5004 21.4202 36.6598 21.9544 36.4603 22.2743C36.261 22.5942 35.865 22.7273 35.4945 22.8016C35.4411 22.8123 35.3872 22.8224 35.3333 22.8325C35.0122 22.8928 34.6855 22.9541 34.4251 23.1454C34.2567 23.2693 34.119 23.4805 34.1836 23.6791Z" fill="#39E8AF"/>
<path fill-rule="evenodd" clip-rule="evenodd" d="M91.5851 124.337C91.4724 124.483 91.2179 124.442 91.1091 124.292C91.0006 124.143 91.0102 123.937 91.0695 123.762C91.1754 123.449 91.4153 123.201 91.6668 122.986C92.2987 122.446 93.0507 122.047 93.8529 121.826C94.1691 121.739 94.538 121.688 94.7998 121.885C95.0616 122.082 95.0193 122.608 94.6927 122.638C93.4817 122.746 92.3269 123.377 91.5851 124.337Z" fill="#00160A"/>
</svg>
