<svg width="24" height="24" viewBox="0 0 24 24" fill="none" xmlns="http://www.w3.org/2000/svg">
<path d="M20.56 4.90393L23.3641 2.0893C23.5596 1.89306 23.6668 1.633 23.6668 1.35756C23.6668 1.08213 23.5596 0.82206 23.3641 0.625827C22.9743 0.235727 22.2971 0.235727 21.9073 0.625827L19.1032 3.44164L16.2979 0.625827C15.908 0.235727 15.2309 0.235727 14.841 0.625827C14.6467 0.82206 14.5396 1.08213 14.5396 1.35756C14.5396 1.633 14.6467 1.89306 14.841 2.0893L17.6452 4.90393L14.841 7.71856C14.6467 7.9148 14.5396 8.17486 14.5396 8.4503C14.5396 8.72573 14.6467 8.9858 14.841 9.18203C15.2309 9.57213 15.908 9.57213 16.2979 9.18203L19.1032 6.36622L21.9073 9.18203C22.1028 9.37708 22.3607 9.48466 22.6363 9.48466C22.9119 9.48466 23.1698 9.37708 23.3641 9.18203C23.5596 8.9858 23.6668 8.72573 23.6668 8.4503C23.6668 8.17486 23.5596 7.9148 23.3641 7.71856L20.56 4.90393Z" fill="white"/>
<path fill-rule="evenodd" clip-rule="evenodd" d="M10.8703 13.1345C15.5242 17.7871 16.58 12.4045 19.5432 15.3656C22.3999 18.2215 24.0418 18.7937 20.4224 22.4122C19.969 22.7765 17.0885 27.16 6.96529 17.0396C-3.15914 6.918 1.22177 4.03452 1.58622 3.58127C5.21443 -0.0471799 5.77676 1.60428 8.63349 4.46022C11.5967 7.42258 6.21635 8.48182 10.8703 13.1345Z" fill="white"/>
</svg>
