<svg width="20" height="21" viewBox="0 0 20 21" fill="none" xmlns="http://www.w3.org/2000/svg">
<g clip-path="url(#clip0_29_2028)">
<path d="M19.1667 3.83337V8.83337H14.1667" stroke="#0CE39D" stroke-width="2" stroke-linecap="round" stroke-linejoin="round"/>
<path d="M17.0751 13C16.5334 14.5332 15.508 15.8489 14.1535 16.7487C12.799 17.6485 11.1888 18.0838 9.56541 17.9888C7.94205 17.8938 6.39352 17.2738 5.15319 16.2222C3.91286 15.1706 3.04792 13.7443 2.6887 12.1584C2.32949 10.5724 2.49546 8.91263 3.16161 7.42919C3.82777 5.94576 4.95801 4.71902 6.38202 3.93384C7.80604 3.14865 9.44667 2.84755 11.0567 3.07592C12.6667 3.30429 14.1589 4.04975 15.3084 5.19997L19.1667 8.8333" stroke="#0CE39D" stroke-width="2" stroke-linecap="round" stroke-linejoin="round"/>
</g>
<defs>
<clipPath id="clip0_29_2028">
<rect width="20" height="20" fill="white" transform="translate(0 0.5)"/>
</clipPath>
</defs>
</svg>
