<svg width="28" height="28" viewBox="0 0 28 28" fill="none" xmlns="http://www.w3.org/2000/svg">
<path d="M18.6 2.8V6C18.6 6.21217 18.5157 6.41566 18.3657 6.56569C18.2157 6.71571 18.0122 6.8 17.8 6.8H9.8C9.58783 6.8 9.38434 6.71571 9.23431 6.56569C9.08429 6.41566 9 6.21217 9 6V2.8C9 2.58783 9.08429 2.38434 9.23431 2.23431C9.38434 2.08429 9.58783 2 9.8 2H17.8C18.0122 2 18.2157 2.08429 18.3657 2.23431C18.5157 2.38434 18.6 2.58783 18.6 2.8ZM22.6 4.4V25.2C22.6 25.4122 22.5157 25.6157 22.3657 25.7657C22.2157 25.9157 22.0122 26 21.8 26H5.8C5.58783 26 5.38434 25.9157 5.23431 25.7657C5.08429 25.6157 5 25.4122 5 25.2V4.4C5 4.18783 5.08429 3.98434 5.23431 3.83431C5.38434 3.68429 5.58783 3.6 5.8 3.6H7.4V6C7.4 6.63652 7.65286 7.24697 8.10294 7.69706C8.55303 8.14714 9.16348 8.4 9.8 8.4H13.8C13.5878 8.4 13.3843 8.48429 13.2343 8.63432C13.0843 8.78434 13 8.98783 13 9.2V10H12.2C11.9878 10 11.7843 10.0843 11.6343 10.2343C11.4843 10.3843 11.4 10.5878 11.4 10.8C11.4 11.0122 11.4843 11.2157 11.6343 11.3657C11.7843 11.5157 11.9878 11.6 12.2 11.6H13V12.4C13 12.6122 13.0843 12.8157 13.2343 12.9657C13.3843 13.1157 13.5878 13.2 13.8 13.2C14.0122 13.2 14.2157 13.1157 14.3657 12.9657C14.5157 12.8157 14.6 12.6122 14.6 12.4V11.6H15.4C15.6122 11.6 15.8157 11.5157 15.9657 11.3657C16.1157 11.2157 16.2 11.0122 16.2 10.8C16.2 10.5878 16.1157 10.3843 15.9657 10.2343C15.8157 10.0843 15.6122 10 15.4 10H14.6V9.2C14.6 8.98783 14.5157 8.78434 14.3657 8.63432C14.2157 8.48429 14.0122 8.4 13.8 8.4H17.8C18.4365 8.4 19.047 8.14714 19.4971 7.69706C19.9471 7.24697 20.2 6.63652 20.2 6V3.6H21.8C22.0122 3.6 22.2157 3.68429 22.3657 3.83431C22.5157 3.98434 22.6 4.18783 22.6 4.4ZM11.968 19.832C11.8936 19.757 11.8051 19.6975 11.7077 19.6569C11.6102 19.6163 11.5056 19.5954 11.4 19.5954C11.2944 19.5954 11.1898 19.6163 11.0923 19.6569C10.9949 19.6975 10.9064 19.757 10.832 19.832L9.8 20.872L9.568 20.632C9.49341 20.5574 9.40486 20.4982 9.3074 20.4579C9.20994 20.4175 9.10549 20.3967 9 20.3967C8.89451 20.3967 8.79006 20.4175 8.6926 20.4579C8.59514 20.4982 8.50659 20.5574 8.432 20.632C8.35741 20.7066 8.29824 20.7951 8.25787 20.8926C8.2175 20.9901 8.19673 21.0945 8.19673 21.2C8.19673 21.3055 8.2175 21.4099 8.25787 21.5074C8.29824 21.6049 8.35741 21.6934 8.432 21.768L9.232 22.568C9.30637 22.643 9.39485 22.7025 9.49234 22.7431C9.58983 22.7837 9.69439 22.8046 9.8 22.8046C9.90561 22.8046 10.0102 22.7837 10.1077 22.7431C10.2051 22.7025 10.2936 22.643 10.368 22.568L11.968 20.968C12.043 20.8936 12.1025 20.8051 12.1431 20.7077C12.1837 20.6102 12.2046 20.5056 12.2046 20.4C12.2046 20.2944 12.1837 20.1898 12.1431 20.0923C12.1025 19.9949 12.043 19.9064 11.968 19.832ZM11.968 15.032C11.8936 14.957 11.8051 14.8975 11.7077 14.8569C11.6102 14.8163 11.5056 14.7954 11.4 14.7954C11.2944 14.7954 11.1898 14.8163 11.0923 14.8569C10.9949 14.8975 10.9064 14.957 10.832 15.032L9.8 16.072L9.568 15.832C9.49341 15.7574 9.40486 15.6982 9.3074 15.6579C9.20994 15.6175 9.10549 15.5967 9 15.5967C8.89451 15.5967 8.79006 15.6175 8.6926 15.6579C8.59514 15.6982 8.50659 15.7574 8.432 15.832C8.35741 15.9066 8.29824 15.9951 8.25787 16.0926C8.2175 16.1901 8.19673 16.2945 8.19673 16.4C8.19673 16.5055 8.2175 16.6099 8.25787 16.7074C8.29824 16.8049 8.35741 16.8934 8.432 16.968L9.232 17.768C9.30637 17.843 9.39485 17.9025 9.49234 17.9431C9.58983 17.9837 9.69439 18.0046 9.8 18.0046C9.90561 18.0046 10.0102 17.9837 10.1077 17.9431C10.2051 17.9025 10.2936 17.843 10.368 17.768L11.968 16.168C12.043 16.0936 12.1025 16.0051 12.1431 15.9077C12.1837 15.8102 12.2046 15.7056 12.2046 15.6C12.2046 15.4944 12.1837 15.3898 12.1431 15.2923C12.1025 15.1949 12.043 15.1064 11.968 15.032ZM19.4 21.2C19.4 20.9878 19.3157 20.7843 19.1657 20.6343C19.0157 20.4843 18.8122 20.4 18.6 20.4H14.6C14.3878 20.4 14.1843 20.4843 14.0343 20.6343C13.8843 20.7843 13.8 20.9878 13.8 21.2C13.8 21.4122 13.8843 21.6157 14.0343 21.7657C14.1843 21.9157 14.3878 22 14.6 22H18.6C18.8122 22 19.0157 21.9157 19.1657 21.7657C19.3157 21.6157 19.4 21.4122 19.4 21.2ZM19.4 16.4C19.4 16.1878 19.3157 15.9843 19.1657 15.8343C19.0157 15.6843 18.8122 15.6 18.6 15.6H14.6C14.3878 15.6 14.1843 15.6843 14.0343 15.8343C13.8843 15.9843 13.8 16.1878 13.8 16.4C13.8 16.6122 13.8843 16.8157 14.0343 16.9657C14.1843 17.1157 14.3878 17.2 14.6 17.2H18.6C18.8122 17.2 19.0157 17.1157 19.1657 16.9657C19.3157 16.8157 19.4 16.6122 19.4 16.4Z" fill="#005EA2"/>
</svg>
