<svg width="26" height="22" viewBox="0 0 26 22" fill="none" xmlns="http://www.w3.org/2000/svg">
<path fill-rule="evenodd" clip-rule="evenodd" d="M14.5834 4.52565C14.5246 3.95826 14.4635 3.36957 14.313 2.78213C13.9032 1.37678 12.7679 0.500011 11.5506 0.500011C10.8717 0.497506 10.0129 0.915852 9.52598 1.33921L5.4901 4.7198H3.37735C1.82245 4.7198 0.572177 5.91847 0.336068 7.64822C0.135436 9.30908 0.0865018 12.4442 0.336068 14.2716C0.552603 16.0991 1.74661 17.2802 3.37735 17.2802H5.4901L9.60427 20.7109C10.0263 21.0779 10.7714 21.4987 11.4564 21.4987C11.5005 21.5 11.5396 21.5 11.5788 21.5C12.8193 21.5 13.9117 20.5906 14.3216 19.1891C14.476 18.5965 14.5301 18.0411 14.5824 17.5044L14.5834 17.4944L14.6384 16.9596C14.8488 15.2248 14.8488 6.76393 14.6384 5.0417L14.5834 4.52565ZM19.3077 4.57701C18.9713 4.08101 18.3046 3.95701 17.8165 4.30145C17.3332 4.6484 17.2134 5.33229 17.5498 5.82704C18.4856 7.20608 19.0007 9.04229 19.0007 11C19.0007 12.9565 18.4856 14.7939 17.5498 16.173C17.2134 16.6677 17.3332 17.3516 17.8177 17.6985C17.9988 17.8263 18.2104 17.8939 18.4282 17.8939C18.7793 17.8939 19.1071 17.7173 19.3077 17.423C20.4895 15.682 21.1416 13.4011 21.1416 11C21.1416 8.59889 20.4895 6.31803 19.3077 4.57701ZM21.5052 0.757909C21.9921 0.41221 22.6612 0.538716 22.9952 1.03347C24.8254 3.72767 25.8334 7.26858 25.8334 10.9999C25.8334 14.7337 24.8254 18.2733 22.9952 20.9675C22.7958 21.2619 22.4667 21.4385 22.1156 21.4385C21.8979 21.4385 21.6874 21.3709 21.5064 21.2431C21.0219 20.8961 20.902 20.2135 21.2372 19.7175C22.8203 17.3853 23.6925 14.289 23.6925 10.9999C23.6925 7.71198 22.8203 4.61571 21.2372 2.2835C20.902 1.78874 21.0219 1.10486 21.5052 0.757909Z" fill="white"/>
</svg>
