<svg width="37" height="29" viewBox="0 0 37 29" fill="none" xmlns="http://www.w3.org/2000/svg">
<g clip-path="url(#clip0_1327_4446)">
<path d="M16.1268 14.6675H6.03076V23.0273H16.1268V14.6675Z" fill="#F4A81C"/>
<path d="M29.8153 6.12207H17.6133V18.3211H29.8153V6.12207Z" fill="#F4A81C"/>
<path d="M35.9861 12.7829C35.5094 11.464 32.6576 11.6574 32.5035 11.2222C32.2033 10.2618 31.6029 8.1006 31.8431 7.80046C32.3413 7.17773 33.6267 6.06435 33.3413 5.31982C33.2398 5.05481 33.0144 4.85983 32.7942 4.68043C31.4301 3.56944 29.9364 2.61723 28.3537 1.84865C27.2429 1.78022 27.0479 3.54909 26.0188 3.71819C24.9895 3.88728 24.7416 3.75967 23.7371 3.47802C23.1078 3.30179 22.1242 3.06163 21.8758 2.45765C21.6469 1.90149 21.5396 1.0872 21.0917 0.685606C20.8137 0.436458 20.3964 0.446762 20.0238 0.471598C18.9624 0.542405 15.6849 0.954041 15.427 1.98551C15.2214 2.8072 15.5298 3.32082 15.9407 4.45083C16.1038 4.89946 16.1112 5.40013 15.8128 5.7658C14.7906 7.01946 13.2293 8.22003 12.4489 7.67998C12.2309 7.52912 10.752 6.92673 10.4949 6.99093C10.3189 7.03505 10.2089 7.2052 10.1201 7.3632C9.44517 8.56508 8.96737 9.87687 8.70838 11.2304C8.59712 11.8111 8.96023 12.3792 9.53027 12.5356L11.0755 12.9589C10.9457 14.4326 11.6545 15.8773 11.904 17.3355C11.3717 18.2298 9.81119 19.0676 9.38677 19.6859C8.81647 20.5165 12.418 23.6638 13.5129 24.1555C13.8292 24.2976 15.0327 22.8125 15.7008 22.4825C15.9394 22.3647 19.3541 23.4078 20.3747 24.1283C20.5951 24.2839 21.2389 25.3698 21.3102 25.588C21.5999 26.4744 21.8594 26.8385 22.7651 26.6158C24.5516 26.1761 26.3156 25.4358 28.0038 24.7092C28.5225 24.486 29.1232 24.1145 29.022 23.5592L28.3608 21.427C29.1415 20.7667 30.9528 18.3009 31.3389 18.1077C31.5691 17.9926 33.7446 19.3841 34.1706 18.5582C34.3632 18.1844 36.1539 13.2463 35.9864 12.7826L35.9861 12.7829ZM25.4371 15.295C24.8505 16.1687 23.8666 16.6942 22.8309 16.8541C22.3919 16.9928 21.931 17.0565 21.4596 17.0155C20.3245 16.917 19.2399 16.3592 18.6194 15.3822C18.2066 14.7322 18.1078 13.9734 18.2574 13.2532C18.2584 12.8579 18.3229 12.4629 18.4677 12.0975C18.5335 11.9319 18.6176 11.7802 18.7032 11.6294C18.5335 11.3028 18.6588 10.9033 18.9667 10.7094C19.2743 10.5157 19.6078 10.3556 19.9529 10.2304C20.0195 10.1783 20.0811 10.1223 20.1498 10.0724C20.3179 9.95059 20.5349 9.95032 20.7262 10.0222C21.1591 9.94715 21.6189 9.92919 22.0811 9.97199C22.4987 9.92496 22.9247 9.95165 23.3182 10.0782C23.4173 10.0991 23.5159 10.1255 23.6126 10.1601C24.3227 10.4135 24.889 10.9142 25.2987 11.5406C26.0096 12.6275 26.1864 14.1795 25.4374 15.295H25.4371Z" fill="white"/>
<g opacity="0.59">
<path d="M28.3602 21.4273C28.6342 21.1956 29.0359 20.7401 29.4577 20.2396C26.2619 19.8735 23.1212 19.061 20.1933 17.7455C15.7158 15.7336 11.9945 12.4373 9.70197 8.18384C9.24636 9.15348 8.90915 10.1789 8.70777 11.2309C8.59651 11.8117 8.95962 12.3797 9.52966 12.5361L11.0749 12.9594C10.9451 14.4331 11.6539 15.8778 11.9034 17.336C11.3711 18.2303 9.81058 19.0682 9.38616 19.6864C8.81586 20.5171 12.4174 23.6643 13.5123 24.156C13.8286 24.2981 15.0321 22.813 15.7002 22.483C15.9388 22.3652 19.3535 23.4083 20.3741 24.1288C20.5945 24.2844 21.2383 25.3703 21.3096 25.5885C21.5993 26.475 21.8588 26.839 22.7645 26.6163C24.5509 26.1767 26.315 25.4364 28.0031 24.7098C28.5219 24.4865 29.1226 24.1151 29.0214 23.5597L28.3602 21.4273Z" fill="#FBFFF1"/>
</g>
<path d="M19.7103 10.5721C20.9648 9.82728 22.6054 9.74088 23.917 10.4019C25.4011 11.1499 26.1813 12.7758 25.7671 14.4034C25.0433 17.2484 21.2721 17.8587 19.3152 15.8903C17.9306 14.4974 18.2414 12.3764 19.3464 10.9087C19.7052 10.432 18.9008 9.96969 18.5459 10.441C17.3337 12.0511 16.9978 14.387 18.2546 16.07C19.2018 17.3384 20.8028 18.0204 22.3715 17.972C24.1072 17.9184 25.7249 16.9524 26.4236 15.3323C27.2508 13.4144 26.6667 11.1832 24.9717 9.95859C23.3253 8.76939 20.969 8.74719 19.2425 9.77206C18.7301 10.0764 19.1957 10.8778 19.7103 10.5723V10.5721Z" fill="#F4A81C"/>
<path d="M15.4848 5.43871C14.9367 6.09659 14.2992 6.76873 13.5244 7.15897C12.9308 7.45805 12.6798 7.25197 12.1359 7.02026C11.6761 6.82448 11.1105 6.53042 10.5989 6.52672C9.9176 6.52222 9.63641 7.25382 9.38376 7.77061C8.98788 8.58014 8.66917 9.42878 8.44242 10.3012C8.25294 11.0301 8.06134 11.7916 8.57799 12.4328C9.10813 13.091 10.1816 13.1953 10.9517 13.4062C10.8383 13.2572 10.725 13.1084 10.6113 12.9594C10.5133 14.5169 11.1782 15.9544 11.4565 17.4591C11.4721 17.34 11.4876 17.2211 11.5032 17.1022C11.1256 17.6892 10.5045 18.1077 9.96252 18.5313C9.59095 18.8216 9.06426 19.158 8.90569 19.628C8.65252 20.3786 9.43847 21.2265 9.88403 21.7316C10.6317 22.5797 11.4982 23.3401 12.4092 24.008C12.6933 24.2162 13.0389 24.5137 13.3888 24.6025C13.828 24.714 14.2036 24.3579 14.507 24.0923C14.9348 23.7182 15.34 23.1906 15.8513 22.928C15.7464 22.9819 15.7876 22.9348 15.9473 22.9631C16.1653 23.0017 16.3815 23.0643 16.5947 23.1235C17.6761 23.4231 18.7961 23.7774 19.7853 24.314C20.2171 24.5483 20.4203 24.9238 20.6635 25.3457C20.9135 25.7793 21.0062 26.3077 21.335 26.6934C21.6785 27.0966 22.1561 27.1883 22.6638 27.1061C23.5718 26.9592 24.482 26.6108 25.3414 26.2924C26.3168 25.9309 27.2888 25.5383 28.2367 25.109C28.8425 24.8347 29.5195 24.379 29.4899 23.6323C29.4746 23.2447 29.2849 22.8453 29.1715 22.4796C29.0499 22.0875 28.9284 21.6954 28.8068 21.3036C28.7671 21.4539 28.7272 21.6043 28.6876 21.7543C29.3364 21.1871 29.8663 20.4724 30.4141 19.8116C30.6781 19.493 30.9397 19.1717 31.2167 18.8642C31.2804 18.7936 31.4794 18.6507 31.5098 18.5572C31.5251 18.5432 31.5407 18.5292 31.556 18.5152C31.4913 18.5651 31.4123 18.5788 31.319 18.5564C31.3195 18.5537 31.4944 18.6116 31.4984 18.6137C32.1239 18.9223 32.9181 19.2856 33.6269 19.2845C34.2442 19.2835 34.5251 18.9273 34.7321 18.4084C35.2778 17.0398 35.7609 15.6311 36.1716 14.2162C36.3018 13.7679 36.5508 13.1581 36.439 12.682C36.2648 11.9417 35.421 11.5512 34.7675 11.3549C34.3954 11.2431 34.0122 11.1749 33.6306 11.1046C33.4376 11.069 32.9495 11.0159 32.8724 10.9533C32.9731 11.0349 32.8071 10.6243 32.7804 10.5321C32.7151 10.3057 32.652 10.0787 32.5922 9.85098C32.4699 9.38492 32.3438 8.90961 32.2799 8.43113C32.2228 8.0039 32.2331 8.04538 32.4897 7.76242C32.8422 7.37377 33.2128 6.98908 33.4961 6.54495C33.7083 6.21231 33.8811 5.82049 33.833 5.41836C33.7619 4.82099 33.2442 4.44423 32.8047 4.09864C31.7093 3.23733 30.5433 2.46822 29.3116 1.81562C28.8515 1.57176 28.4373 1.28166 27.9027 1.43833C27.5034 1.55538 27.2079 1.85525 26.9622 2.17574C26.7359 2.47086 26.5486 2.85845 26.2547 3.09465C25.8778 3.3977 25.2383 3.36679 24.7861 3.28171C24.2655 3.18369 23.7309 3.0109 23.2275 2.84603C22.5773 2.63308 22.3329 2.41009 22.1323 1.76648C21.9671 1.23701 21.7906 0.632499 21.3252 0.284802C20.8902 -0.0401743 20.3426 -0.0200945 19.8263 0.0227072C18.8701 0.102234 17.9013 0.24517 16.9771 0.505415C16.2628 0.706742 15.2794 1.01798 15.0014 1.79369C14.8225 2.29278 14.8939 2.87245 15.0474 3.36679C15.2512 4.02202 15.8571 4.88044 15.4124 5.53144C15.0749 6.02498 15.8777 6.4892 16.2128 5.99909C16.9399 4.93513 16.0831 3.91106 15.8645 2.84075C15.6788 1.93082 16.2705 1.69065 17.0355 1.45445C17.8315 1.209 18.6658 1.06924 19.493 0.981254C19.8355 0.944793 20.3207 0.837789 20.6392 0.96408C21.1397 1.1625 21.2129 1.99845 21.3775 2.44734C21.7129 3.36177 22.6204 3.64394 23.4833 3.88781C24.4185 4.15201 25.5137 4.49733 26.4608 4.05796C27.1823 3.7232 27.3623 2.91843 27.9474 2.45501C28.339 2.14483 28.8327 2.6056 29.2006 2.80905C29.7928 3.13666 30.3702 3.4907 30.9308 3.86958C31.4807 4.24132 32.027 4.63102 32.532 5.06221C33.0362 5.49261 32.9263 5.77452 32.564 6.26515C32.1498 6.8258 31.3282 7.3344 31.324 8.0903C31.319 8.94131 31.6194 9.83909 31.8494 10.6484C32.0338 11.2975 32.1229 11.7081 32.8179 11.8862C33.5249 12.0674 34.2839 12.0896 34.9535 12.4053C35.1079 12.4783 35.2688 12.5655 35.3872 12.6904C35.4342 12.7401 35.5701 12.9903 35.5323 12.8331C35.5658 12.9729 35.4839 13.1937 35.439 13.3771C35.092 14.7943 34.5775 16.1838 34.0706 17.5503C33.9897 17.768 33.926 18.0929 33.7889 18.2842C33.846 18.205 33.7643 18.3458 33.7498 18.3529C33.6834 18.3865 33.4519 18.3402 33.351 18.3199C32.9482 18.2396 32.5626 18.0597 32.1863 17.9011C31.94 17.7973 31.6422 17.6229 31.3636 17.6369C30.7688 17.6665 30.2222 18.5976 29.8908 18.996C29.2991 19.7081 28.7323 20.4861 28.0325 21.0981C27.9133 21.2021 27.8673 21.4003 27.9133 21.5488C28.0066 21.8492 28.0996 22.1496 28.1926 22.45C28.2997 22.7948 28.5475 23.2556 28.5544 23.6173C28.5652 24.1742 27.3089 24.5069 26.8977 24.6797C26.0364 25.0414 25.1677 25.3877 24.2822 25.6858C23.8424 25.8337 23.3984 25.9695 22.95 26.0884C22.7124 26.1516 22.3284 26.3135 22.0966 26.1568C21.784 25.9457 21.6608 25.2184 21.464 24.8768C21.2338 24.4773 20.984 24.0086 20.608 23.7269C20.2343 23.4474 19.7673 23.268 19.34 23.0902C18.3548 22.6799 17.317 22.3052 16.2707 22.0843C15.9507 22.0167 15.6803 21.9623 15.3836 22.1264C14.8997 22.3943 14.4982 22.8429 14.0958 23.2144C14.0265 23.2783 13.5305 23.6157 13.5276 23.6878C13.5233 23.7988 13.6325 23.63 13.6909 23.7285C13.6779 23.7066 13.6201 23.7 13.601 23.6817C13.5418 23.6244 13.434 23.5858 13.3635 23.5414C12.961 23.2891 12.5854 22.9932 12.2215 22.6888C11.4234 22.0212 10.5698 21.2777 10.0098 20.3902C9.71886 19.9292 9.7326 19.9295 10.1068 19.5989C10.6692 19.1022 11.314 18.7014 11.836 18.1579C12.0299 17.9561 12.3116 17.6826 12.3579 17.396C12.4242 16.9833 12.1795 16.4197 12.0693 16.0202C11.791 15.0107 11.471 14.0181 11.5376 12.9578C11.5503 12.757 11.3846 12.5623 11.1972 12.511C10.8848 12.4254 10.5725 12.3398 10.2601 12.2542C9.90544 12.157 9.41072 12.1052 9.22414 11.7419C9.04047 11.3844 9.24132 10.9078 9.33514 10.5458C9.43873 10.1456 9.56188 9.75032 9.70353 9.36193C9.85523 8.94633 10.0307 8.53998 10.2284 8.14393C10.282 8.03666 10.5875 7.43454 10.5476 7.44669C10.6829 7.40547 11.0511 7.5883 11.1782 7.63348C11.4139 7.71697 11.6483 7.80733 11.8764 7.90958C12.2461 8.0755 12.5487 8.28846 12.9744 8.27287C14.2358 8.22663 15.3955 6.98432 16.1386 6.09262C16.5178 5.63739 15.8653 4.97846 15.4829 5.43739L15.4848 5.43871Z" fill="#F4A81C"/>
<path d="M26.2354 8.74902C26.0298 8.61956 25.7156 8.69908 25.6014 8.9152C25.4809 9.14348 25.5483 9.41112 25.7677 9.54904C25.8163 9.57969 25.8647 9.61086 25.912 9.64363C25.949 9.66925 26.0264 9.70677 26.0515 9.74482C26.0383 9.73478 26.0253 9.72474 26.0121 9.7147C26.0256 9.72527 26.0391 9.7361 26.0526 9.7472C26.0748 9.76543 26.097 9.78366 26.1189 9.80241C26.1625 9.83967 26.2056 9.87798 26.2473 9.91734C26.3271 9.99212 26.4035 10.0701 26.4767 10.1512C26.5153 10.194 26.5528 10.2376 26.5893 10.282C26.6025 10.2981 26.6387 10.3308 26.6435 10.3491C26.6334 10.3361 26.6231 10.3229 26.6131 10.31C26.6237 10.3237 26.634 10.3374 26.644 10.3514C26.7769 10.5322 26.894 10.7242 26.9934 10.9253C27.0187 10.9768 27.0428 11.0291 27.0663 11.0814C27.098 11.1523 27.0629 11.0656 27.0597 11.0661C27.0623 11.0659 27.0956 11.1578 27.0972 11.1626C27.1377 11.2704 27.1723 11.38 27.2027 11.491C27.2669 11.7245 27.5346 11.8915 27.7727 11.8146C28.0119 11.7372 28.1652 11.4952 28.0965 11.2447C27.8131 10.2141 27.1395 9.31759 26.2357 8.74875" fill="white"/>
<path d="M28.0484 13.9283C28.6448 13.9283 28.6459 13.0015 28.0484 13.0015C27.4508 13.0015 27.4508 13.9283 28.0484 13.9283Z" fill="white"/>
<path d="M20.9387 20.906C20.829 19.8722 18.7418 19.507 18.7079 19.1662C18.6617 18.4217 18.612 16.7598 18.8382 16.5862C19.307 16.2261 20.4294 15.652 20.3559 15.0654C20.3298 14.8567 20.2021 14.6765 20.0753 14.5085C19.2899 13.4672 18.3831 12.5177 17.3797 11.6844C16.5922 11.4387 16.1389 12.6775 15.3678 12.617C14.5966 12.5565 14.441 12.421 13.7676 12.0405C13.3458 11.8022 12.6801 11.4556 12.6082 10.9766C12.5419 10.5356 12.6088 9.93055 12.3574 9.56225C12.2013 9.33371 11.8992 9.26739 11.6265 9.2193C10.8498 9.08244 8.41766 8.79895 8.04926 9.49593C7.75592 10.051 7.88674 10.4753 7.98267 11.3615C8.02072 11.7132 7.93721 12.0751 7.65788 12.2854C6.69989 13.0073 5.36372 13.5951 4.89728 13.0683C4.76699 12.9211 3.809 12.2257 3.61238 12.2265C3.47787 12.227 3.36872 12.3301 3.27675 12.4284C2.57828 13.1742 2.0019 14.034 1.57589 14.9627C1.39302 15.3611 1.55369 15.8343 1.93663 16.0475L2.9739 16.6256C2.61951 17.6637 2.87427 18.8288 2.79578 19.9229C2.25428 20.4725 0.982599 20.7995 0.56769 21.1697C0.0100735 21.6667 2.04577 24.5695 2.74689 25.1172C2.94958 25.2755 4.07856 24.4195 4.61821 24.3C4.81086 24.2575 7.0844 25.6124 7.6917 26.3117C7.82278 26.4626 8.09393 27.3585 8.10688 27.5279C8.15867 28.2172 8.28077 28.5252 8.97211 28.5252C10.336 28.5247 11.7369 28.3038 13.0808 28.0795C13.4936 28.0106 13.992 27.8494 14.0173 27.4317L13.9188 25.7796C14.5977 25.4422 16.3382 23.9877 16.6503 23.9169C16.8363 23.8747 18.1561 25.2615 18.6091 24.7421C18.8139 24.5072 20.977 21.269 20.9387 20.9058V20.906ZM12.9 20.8482C12.3231 21.3734 11.5216 21.5776 10.7478 21.5095C10.4071 21.5317 10.0641 21.496 9.73189 21.3832C8.9322 21.1113 8.25011 20.5182 7.97633 19.7049C7.79424 19.1641 7.8574 18.6003 8.09261 18.1083C8.16317 17.824 8.27971 17.5511 8.44858 17.3136C8.52522 17.2058 8.6127 17.1115 8.70096 17.0182C8.63674 16.7532 8.79742 16.4877 9.0535 16.4023C9.30932 16.3173 9.57756 16.261 9.84817 16.2319C9.90526 16.2063 9.9597 16.1767 10.0178 16.1529C10.1605 16.0951 10.3167 16.1331 10.4415 16.2187C10.7663 16.2412 11.1006 16.3096 11.4259 16.4221C11.7348 16.4623 12.0366 16.5569 12.2977 16.7175C12.3654 16.75 12.4317 16.7865 12.4951 16.8285C12.9613 17.1366 13.2806 17.5971 13.4645 18.1205C13.7837 19.0288 13.6365 20.1773 12.8997 20.8476L12.9 20.8482Z" fill="#FDFFD6"/>
<g opacity="0.59">
<path d="M13.919 25.78C14.1574 25.6616 14.5271 25.4048 14.9193 25.1192C12.6835 24.2901 10.5664 23.1498 8.69143 21.6848C5.82433 19.4443 3.72891 16.413 2.83117 12.9453C2.33143 13.5628 1.90727 14.2413 1.57614 14.9631C1.39326 15.3615 1.55394 15.8347 1.93687 16.0479L2.97414 16.626C2.61975 17.6641 2.87451 18.8292 2.79602 19.9233C2.25453 20.4729 0.982843 20.8 0.567934 21.1701C0.0103177 21.6671 2.04601 24.5699 2.74713 25.1176C2.94983 25.2759 4.0788 24.4199 4.61845 24.3004C4.8111 24.2579 7.08465 25.6128 7.69195 26.3121C7.82303 26.463 8.09417 27.3589 8.10712 27.5283C8.15892 28.2176 8.28101 28.5257 8.97235 28.5257C10.3363 28.5251 11.7372 28.3043 13.081 28.0799C13.4938 28.011 13.9922 27.8498 14.0176 27.4321L13.919 25.78Z" fill="white"/>
</g>
<path d="M9.63885 16.5523C10.633 16.2509 11.776 16.4591 12.5778 17.1333C13.4402 17.8583 13.7393 19.0451 13.256 20.079C12.3379 22.0423 9.5038 21.8722 8.4734 20.1033C7.77493 18.9043 8.37192 17.5172 9.37272 16.7016C9.56829 16.5423 9.53525 16.2123 9.37272 16.0464C9.18298 15.8525 8.91025 15.8892 8.71733 16.0464C7.55347 16.9951 6.87006 18.6372 7.4467 20.0935C7.90627 21.2539 8.989 22.1031 10.2057 22.3522C11.5728 22.6323 12.9616 22.1562 13.7834 21.0082C14.6928 19.7379 14.5913 17.9994 13.5821 16.825C12.5807 15.6604 10.8463 15.2183 9.39254 15.659C8.8233 15.8316 9.0659 16.7264 9.63885 16.5526V16.5523Z" fill="#F4A81C"/>
<path d="M7.42395 11.8857C6.91074 12.2614 6.31031 12.668 5.67129 12.7816C5.23762 12.8588 5.04787 12.5761 4.71912 12.3373C4.44401 12.1372 4.10204 11.8511 3.75822 11.784C3.19796 11.6746 2.8145 12.2297 2.50874 12.6067C2.10149 13.109 1.73521 13.6432 1.43103 14.2144C1.15989 14.7233 0.903278 15.2361 1.14403 15.8087C1.4091 16.4396 2.17892 16.7133 2.74024 17.0261C2.66915 16.8518 2.59833 16.6774 2.52724 16.5028C2.18765 17.6217 2.39404 18.7765 2.33247 19.9232C2.37766 19.8141 2.42285 19.7047 2.4683 19.5956C2.08934 19.9467 1.5777 20.1322 1.11337 20.342C0.768498 20.4978 0.30602 20.6643 0.109137 21.0141C-0.198477 21.5608 0.21511 22.3243 0.468812 22.807C0.858087 23.5473 1.34726 24.248 1.88373 24.8887C2.05947 25.0985 2.2664 25.3836 2.51297 25.5175C2.84806 25.6996 3.19928 25.522 3.5061 25.3669C3.85627 25.1902 4.2207 25.0036 4.55818 24.805C4.70934 24.7159 4.47863 24.7268 4.64776 24.7912C4.82588 24.8591 5.00004 24.9725 5.16521 25.0665C5.85232 25.4583 6.72231 25.9057 7.24425 26.5133C7.73765 27.088 7.48976 27.9718 7.92925 28.5551C8.14701 28.8442 8.47101 28.9557 8.82249 28.9831C9.58386 29.0429 10.3878 28.9308 11.1428 28.8362C11.8727 28.7451 12.6272 28.6666 13.3442 28.4996C13.8484 28.3821 14.3717 28.1134 14.4645 27.5548C14.5572 26.9968 14.4161 26.3434 14.3825 25.7799C14.3059 25.9133 14.2295 26.0465 14.1529 26.1799C14.7295 25.8779 15.2459 25.4523 15.7671 25.0663C15.9975 24.8956 16.2269 24.7223 16.4639 24.5611C16.53 24.5162 16.7081 24.4422 16.7502 24.3775C16.7591 24.3727 16.7679 24.368 16.7768 24.3632C16.8855 24.3104 16.8027 24.3085 16.529 24.3579C16.5266 24.3656 16.6719 24.4509 16.6833 24.462C17.0459 24.8113 17.6265 25.2034 18.126 25.2985C18.612 25.391 18.8955 25.1416 19.1558 24.778C19.8015 23.8763 20.4093 22.9304 20.9584 21.9671C21.1321 21.6627 21.3953 21.2825 21.4016 20.9182C21.4111 20.3562 20.9199 19.906 20.4886 19.6289C20.0533 19.3493 19.5242 19.2156 19.099 18.9385C19.1968 19.0022 19.113 19.172 19.1585 18.9419C19.1693 18.8867 19.1521 18.8061 19.1498 18.7498C19.1418 18.5599 19.1363 18.3699 19.1336 18.1799C19.1284 17.8108 19.1432 17.446 19.1648 17.0782C19.1685 17.0182 19.1767 16.954 19.1965 16.8972C19.2449 16.7593 19.0808 17.0259 19.2105 16.8856C19.3123 16.7757 19.4841 16.7022 19.6075 16.6182C19.9167 16.4071 20.2388 16.1881 20.4843 15.9025C21.0501 15.2443 20.7513 14.6263 20.2771 14.0173C19.6228 13.1774 18.8955 12.397 18.0974 11.6921C17.8025 11.4315 17.5681 11.1829 17.1519 11.1893C16.8397 11.194 16.5612 11.3412 16.3183 11.524C16.0863 11.6987 15.8775 11.9705 15.6122 12.091C15.2863 12.239 14.8519 12.0973 14.5435 11.9457C14.2282 11.7909 13.9166 11.6062 13.6183 11.421C13.4446 11.3132 13.1986 11.1805 13.1008 10.9911C12.9938 10.784 13.0355 10.4688 13.0141 10.2426C12.9219 9.27534 12.4346 8.87216 11.499 8.73266C10.7697 8.62381 10.0207 8.54824 9.28259 8.59289C8.70542 8.62777 7.97576 8.71496 7.64832 9.2624C7.45223 9.59054 7.39303 9.9961 7.40836 10.3718C7.42792 10.8487 7.72205 11.5864 7.32934 11.9584C6.89541 12.3692 7.5516 13.0239 7.98474 12.6136C8.63618 11.997 8.38459 11.2321 8.34019 10.4413C8.30081 9.73559 8.55134 9.57311 9.21705 9.52343C9.84364 9.47667 10.4848 9.52555 11.1069 9.6064C11.3215 9.63414 11.6444 9.63625 11.8326 9.74193C12.2522 9.97787 12.068 10.7031 12.1605 11.1C12.317 11.7713 12.98 12.1269 13.5329 12.4408C14.1278 12.7787 14.7153 13.0945 15.4235 13.0805C16.063 13.0678 16.3989 12.5851 16.8804 12.2527C17.2404 12.0043 17.3794 12.2855 17.6714 12.5536C18.0509 12.9016 18.4143 13.2667 18.7607 13.6477C19.0956 14.016 19.4354 14.3981 19.7206 14.8065C19.9997 15.2063 19.7277 15.3902 19.3855 15.6465C18.9473 15.9746 18.413 16.1606 18.284 16.7374C18.1445 17.3606 18.1955 18.051 18.2195 18.6838C18.2383 19.172 18.2438 19.5068 18.6942 19.7718C19.1363 20.032 19.6418 20.1668 20.0678 20.4611C20.1667 20.5295 20.279 20.6064 20.3533 20.7039C20.394 20.7573 20.4907 20.9713 20.4798 20.8849C20.4674 20.7866 20.4685 20.9045 20.4666 20.9103C20.4341 21.0009 20.3821 21.0878 20.3377 21.1732C19.8422 22.1275 19.2264 23.0313 18.6239 23.9204C18.524 24.0676 18.4235 24.2802 18.2906 24.4007C18.2351 24.4509 18.2946 24.3915 18.3326 24.3957C18.2161 24.383 18.1117 24.3188 18.0107 24.2641C17.6117 24.0477 17.1563 23.466 16.6772 23.4554C16.2108 23.4453 15.6978 23.9706 15.3532 24.2256C14.8136 24.6245 14.2808 25.0673 13.6843 25.3796C13.548 25.451 13.4457 25.6253 13.4547 25.7796C13.4676 25.9992 13.4808 26.2185 13.494 26.438C13.5083 26.6793 13.6323 27.1435 13.5495 27.3704C13.438 27.6764 12.5987 27.6928 12.3164 27.7377C11.5659 27.8576 10.8127 27.9641 10.0543 28.0196C9.73608 28.0428 8.84046 28.2365 8.63538 27.9348C8.54025 27.7947 8.57486 27.5107 8.54579 27.3532C8.51435 27.1831 8.46176 27.0151 8.40943 26.8502C8.17449 26.1072 7.809 25.7363 7.18981 25.2766C6.55317 24.8042 5.86765 24.3508 5.15121 24.0078C4.48259 23.6879 3.98761 24.0422 3.38137 24.3788C3.24183 24.4562 3.00478 24.5249 2.89695 24.6348C2.88453 24.6404 2.87238 24.6459 2.86022 24.6515C2.70139 24.6855 2.75689 24.7186 3.02645 24.7503C3.02301 24.7537 2.91175 24.6398 2.921 24.6533C2.73284 24.3746 2.45086 24.1355 2.24631 23.8628C1.78516 23.2482 1.30497 22.5676 1.03753 21.8419C0.994452 21.7248 0.908563 21.543 0.935783 21.4107C0.904335 21.5639 1.05841 21.393 1.18737 21.3264C1.68738 21.0672 2.23284 20.8928 2.70509 20.5803C2.87132 20.4704 3.0978 20.3343 3.19558 20.1565C3.34807 19.8791 3.27672 19.3958 3.27011 19.092C3.25293 18.298 3.1866 17.52 3.42074 16.7487C3.47915 16.5567 3.38295 16.3231 3.20774 16.2253C2.88031 16.0428 1.91069 15.7085 1.96988 15.2377C2.03252 14.7405 2.55102 14.1024 2.83247 13.7024C3.01218 13.4472 3.2051 13.2028 3.41149 12.9687C3.4329 12.9444 3.62318 12.6865 3.56927 12.7182C3.62714 12.6842 3.3811 12.6715 3.64353 12.737C4.25294 12.8892 4.56743 13.6089 5.20961 13.7135C6.14646 13.8662 7.17659 13.2089 7.89145 12.6855C8.36794 12.3367 7.90599 11.5322 7.42369 11.8852L7.42395 11.8857Z" fill="#F4A81C"/>
<path d="M14.1513 16.7668C14.2084 16.826 14.2625 16.8875 14.3151 16.951C14.3328 16.9721 14.3392 16.9816 14.3186 16.9541C14.331 16.9705 14.3432 16.9869 14.3553 17.0038C14.3794 17.0371 14.4029 17.0709 14.4253 17.1053C14.4705 17.1739 14.5128 17.2448 14.5519 17.3169C14.5715 17.3531 14.5902 17.3898 14.6082 17.4268C14.6172 17.4453 14.6259 17.4638 14.6346 17.4825C14.6381 17.4899 14.6709 17.566 14.6545 17.5264C14.6402 17.4918 14.664 17.551 14.6661 17.5568C14.6735 17.5758 14.6809 17.5951 14.6878 17.6146C14.7018 17.6532 14.715 17.6923 14.7274 17.7314C14.7522 17.8099 14.7734 17.8894 14.7914 17.9695C14.8003 18.0096 14.8083 18.0501 14.8154 18.0905C14.8191 18.1108 14.8217 18.1312 14.8254 18.1513C14.8355 18.2044 14.8204 18.0976 14.8254 18.1515C14.8339 18.2387 14.8416 18.3251 14.8439 18.4128C14.849 18.5922 14.9983 18.7647 15.1875 18.7563C15.3693 18.7481 15.5366 18.6052 15.5311 18.4128C15.5086 17.6181 15.1891 16.8535 14.637 16.2809C14.512 16.1512 14.275 16.1459 14.151 16.2809C14.0231 16.4202 14.0178 16.6284 14.151 16.7665L14.1513 16.7668Z" fill="white"/>
<path d="M15.1037 20.3361C15.5459 20.3361 15.5467 19.6492 15.1037 19.6492C14.6616 19.6492 14.6608 20.3361 15.1037 20.3361Z" fill="white"/>
</g>
<defs>
<clipPath id="clip0_1327_4446">
<rect width="36.4671" height="29" fill="white"/>
</clipPath>
</defs>
</svg>
