<svg width="231" height="231" viewBox="0 0 231 231" fill="none" xmlns="http://www.w3.org/2000/svg">
<g clip-path="url(#clip0_443_4544)">
<path d="M231 0H0V231H231V0Z" fill="white"/>
<path fill-rule="evenodd" clip-rule="evenodd" d="M144.998 194.684C109.975 204.728 13.7535 178.858 13.8267 119.592C14.0097 81.3304 48.5929 71.7491 84.2553 91.3715C94.7495 95.5563 103.035 94.2593 112.03 90.101C121.026 85.943 132.595 67.3795 154.4 63.5603C220.018 52.0679 276.162 157.07 144.998 194.684Z" fill="#F4A81C"/>
<path d="M64.06 146.212L63.9461 146.424C63.4517 147.368 63.7194 144.761 64.8223 143.455C65.7901 142.309 66.8185 141.195 67.9408 140.204C68.9708 139.294 70.1218 138.503 71.2925 137.777C72.5578 136.992 73.8779 136.28 75.2284 135.654C76.7269 134.96 78.2579 134.308 79.8269 133.799C82.0463 133.079 84.3021 132.46 86.5678 131.901C87.1619 131.754 87.2278 131.542 87.2472 131.089L87.2528 130.929C87.2934 129.53 87.4028 128.126 87.5986 126.741C87.8623 124.877 88.6773 123.253 90.0981 121.988C91.3282 120.892 92.6588 119.939 94.1415 119.192C96.778 117.863 99.5469 116.892 102.426 116.319C105.128 115.78 107.87 115.432 110.603 115.066C111.434 114.954 112.294 115.043 113.139 115.076C113.689 115.097 113.926 114.906 114.038 114.339L114.174 113.653C114.311 112.966 114.457 112.28 114.645 111.607C115.515 108.486 116.199 105.343 115.957 102.073C115.803 99.9927 115.679 97.907 115.425 95.8378C115.249 94.4029 114.925 92.9854 114.64 91.564L114.556 91.1374C114.492 90.8085 114.349 90.7974 114.109 90.9927L114.075 91.0207C113.218 91.7574 112.037 91.414 111.725 90.3018C111.537 89.6325 111.444 88.8856 111.974 88.3177C112.228 88.0442 112.655 87.7932 113.013 87.779C114.44 87.7226 115.876 87.6841 117.298 87.7882C119.211 87.9284 121.118 88.1853 123.023 88.4307C124.805 88.6602 126.585 88.91 128.357 89.21C129.374 89.3821 130.37 89.6778 131.379 89.9061C132.25 90.1032 133.121 90.3009 134.001 90.4506C134.115 90.47 134.368 90.2239 134.402 90.0668C134.625 89.04 134.815 88.0057 135.026 86.976L135.188 86.2048C135.241 85.963 135.228 85.526 135.713 85.6473C136.144 85.7551 136.252 85.9963 136.137 86.4524C135.892 87.4248 135.694 88.4089 135.485 89.3905L135.358 89.9787C135.211 90.648 135.44 90.9101 136.311 91.0718L136.387 91.0857C136.83 91.1618 137.272 91.2465 137.709 91.3496L138.036 91.4306C138.352 91.5129 138.478 91.4645 138.536 91.1458L138.544 91.0983C138.674 90.2218 138.853 89.3523 139.02 88.4816C139.126 87.9299 139.259 87.3835 139.356 86.8304C139.431 86.3985 139.038 86.0727 138.371 85.9612C137.877 85.8786 137.364 85.8389 136.896 85.6735C135.458 85.1638 133.941 85.0711 132.462 85.0162C129.082 84.8912 126.926 84.9288 123.542 84.9549C122.38 84.9639 121.221 85.1564 120.058 85.2241C119.484 85.2577 118.041 84.9531 118.303 84.4625C118.513 84.0691 120.083 83.7457 120.351 83.3817C120.844 82.7121 121.401 82.0748 121.796 81.3504C122.234 80.5481 122.623 79.6897 122.85 78.8085C123.263 77.1977 123.545 75.5526 123.873 73.9202C124.074 72.9174 124.338 71.9182 124.432 70.9043C124.536 69.7844 124.517 68.6476 124.465 67.5222C124.45 67.1892 124.251 66.8174 123.787 66.6942C123.16 66.5276 123.08 66.0933 123.087 65.1127C123.09 64.7141 123.638 64.2826 124.137 64.2404C126.499 64.0411 122.693 64.1856 125.035 64.4828C126.896 64.7187 133.674 65.0428 135.528 65.3329C135.646 65.3514 135.757 65.4173 135.873 65.4542C136.357 65.6085 138.085 65.9036 138.483 66.0034L138.525 66.0145C139.442 66.2707 140.386 66.43 141.311 66.6594C142.93 67.0614 144.544 67.4858 146.159 67.9019C146.218 67.917 146.274 67.9438 146.331 67.9635C148.603 68.7471 150.887 69.4943 153.138 70.332C154.005 70.6545 154.839 71.1187 155.6 71.645C155.968 71.8991 156.139 72.4428 156.388 72.8623C157 73.8919 157.683 74.8889 158.196 75.966C159.031 77.7157 159.343 79.5532 158.967 81.5121L158.824 82.2507C158.502 83.8902 158.134 85.514 157.437 87.0367C156.858 88.3017 156.211 89.5534 155.438 90.7059C154.862 91.5637 153.924 91.99 152.81 91.487C151.413 90.8559 149.996 90.2655 148.578 89.6821C146.446 88.8053 144.308 87.9413 142.165 87.0928C141.783 86.9416 141.376 86.8439 140.97 86.7608L140.796 86.7259C140.542 86.6757 140.332 86.6471 140.26 87.0903C140.027 88.5234 139.71 89.9436 139.386 91.3598C139.301 91.7276 139.446 91.8375 139.731 91.9077C140.033 91.9823 140.349 92.0131 140.64 92.1159L143.809 93.2352C150.789 95.7131 164.176 100.585 166.332 102.641C169.433 105.596 172.243 124.576 164.675 133.799C160.061 139.422 159.786 137.237 159.556 137.285C171.023 131.493 149.107 114.369 150.433 114.596C152.812 115.003 153.867 116.695 154.473 118.689C155.229 121.176 155.829 123.72 156.337 126.272C156.868 128.939 158.292 137.532 158.545 139.144C158.73 140.331 158.76 141.542 158.909 142.736C159.105 144.308 159.432 145.869 159.554 147.446C159.689 149.19 159.767 150.947 159.726 152.695L159.713 153.132C159.674 154.238 159.327 157.242 157.68 161.887C156.131 166.25 150.156 173.842 148.699 176.419C148.605 176.585 147.636 177.203 147.387 176.739C147.223 176.432 77.2957 189.163 64.06 146.212Z" fill="white"/>
<path fill-rule="evenodd" clip-rule="evenodd" d="M141.559 55.8174C140.995 55.616 140.375 55.9095 140.174 56.4729C140.15 56.5397 140.133 56.6087 140.122 56.6786L138.913 64.8344L138.91 64.8702C138.905 65.0245 139.016 65.1609 139.172 65.1843C139.341 65.2093 140.451 56.4353 140.451 56.4353L140.46 56.3903C140.46 56.3903 140.951 55.9868 141.378 56.0906C141.749 56.1806 142.133 56.7134 142.056 57.095C142.056 57.095 140.484 64.8659 140.286 66.4265C140.238 66.4163 140.19 66.4059 140.141 66.3954C139.599 66.2793 139.058 66.1632 138.525 66.0141L138.483 66.003C138.331 65.9651 137.987 65.8986 137.592 65.8228C136.95 65.699 136.172 65.5493 135.872 65.4538C135.828 65.4397 135.785 65.4212 135.741 65.403C135.671 65.3734 135.601 65.3439 135.528 65.3325C135.012 65.2515 134.495 65.1683 133.979 65.0848L133.978 65.0845C132.642 64.8686 131.305 64.6527 129.963 64.4824C127.621 64.1852 125.267 64.0407 122.905 64.24C122.406 64.2822 121.858 64.7137 121.855 65.1123C121.848 66.0929 121.928 66.5272 122.555 66.6938C123.019 66.817 123.218 67.1888 123.233 67.5217C123.285 68.6475 123.303 69.784 123.199 70.9042C123.131 71.6483 122.97 72.3841 122.81 73.1199C122.753 73.3864 122.694 73.6531 122.641 73.9198C122.556 74.3439 122.474 74.7687 122.392 75.1937L122.391 75.1953C122.157 76.4057 121.923 77.6161 121.618 78.8081C121.392 79.6896 121.002 80.5477 120.564 81.35C120.279 81.8724 119.91 82.3495 119.542 82.8259C119.399 83.0101 119.256 83.1946 119.119 83.3816C119.023 83.5116 118.918 83.6366 118.813 83.7617C118.625 83.9859 118.437 84.2095 118.303 84.462C118.041 84.9527 118.252 85.2573 118.826 85.2237C119.297 85.1963 119.767 85.1486 120.237 85.1005C120.928 85.0303 121.619 84.9598 122.31 84.9545L122.677 84.9515L122.959 84.9493H122.961H122.963C126.13 84.924 129.299 84.8991 132.461 85.0161C133.941 85.0707 135.458 85.1634 136.896 85.6731C137.244 85.796 137.616 85.8496 137.988 85.9029C138.116 85.9214 138.244 85.9398 138.371 85.9611C139.038 86.0726 139.43 86.3981 139.355 86.8299C139.3 87.1481 139.232 87.4641 139.165 87.7801C139.115 88.0136 139.065 88.2471 139.02 88.4814C138.988 88.6481 138.956 88.8147 138.923 88.9813L138.923 88.9838C138.786 89.6866 138.649 90.3904 138.543 91.0979L138.535 91.1453C138.478 91.4641 138.352 91.5125 138.036 91.4302L137.709 91.3495C137.272 91.2464 136.829 91.1614 136.387 91.0853L136.311 91.0717C135.44 90.9097 135.211 90.6476 135.357 89.9786L135.484 89.39C135.522 89.212 135.56 89.0343 135.597 88.8563C135.767 88.0524 135.937 87.2479 136.137 86.452C136.251 85.9959 136.144 85.7547 135.713 85.6469C135.297 85.5428 135.247 85.8502 135.208 86.092C135.202 86.132 135.196 86.1702 135.188 86.2044L135.026 86.9756C134.945 87.3699 134.867 87.765 134.79 88.1599C134.665 88.7962 134.54 89.4329 134.402 90.0664C134.368 90.2235 134.114 90.4696 134 90.4505C133.127 90.3014 132.261 90.1055 131.396 89.9096L131.379 89.9056C131.022 89.8249 130.667 89.7359 130.312 89.6469C129.663 89.4837 129.014 89.3207 128.356 89.2096C126.585 88.9096 124.804 88.6598 123.023 88.4303C122.857 88.4091 122.692 88.3875 122.526 88.3663L122.525 88.366C120.786 88.1408 119.045 87.9156 117.297 87.7878C115.876 87.6837 114.44 87.7225 113.013 87.7786C112.655 87.7928 112.228 88.0441 111.974 88.3173C111.444 88.8852 111.537 89.6321 111.725 90.3014C112.037 91.4136 113.218 91.757 114.075 91.0203L114.109 90.9926C114.349 90.7973 114.492 90.8081 114.556 91.1373L114.64 91.5639C114.699 91.8571 114.759 92.1503 114.82 92.4436L114.82 92.4457C115.053 93.5724 115.285 94.6994 115.425 95.8374C115.63 97.5139 115.751 99.2008 115.871 100.887C115.899 101.283 115.927 101.678 115.957 102.073C116.199 105.342 115.514 108.486 114.645 111.607C114.457 112.28 114.312 112.965 114.174 113.652L114.037 114.339C113.925 114.906 113.689 115.096 113.139 115.075C112.953 115.068 112.767 115.058 112.581 115.049C111.918 115.014 111.251 114.978 110.603 115.065C110.361 115.098 110.12 115.13 109.879 115.162C107.386 115.495 104.89 115.827 102.426 116.318C99.5466 116.892 96.7777 117.862 94.1412 119.192C92.6588 119.939 91.328 120.892 90.0978 121.987C88.677 123.252 87.8621 124.877 87.5984 126.741C87.4025 128.126 87.2932 129.53 87.2525 130.928L87.247 131.088C87.2279 131.541 87.1617 131.754 86.5675 131.901C84.3019 132.46 82.0461 133.079 79.8269 133.799C78.2577 134.308 76.7266 134.959 75.2282 135.654C73.8776 136.28 72.5575 136.992 71.2923 137.777C70.1216 138.502 68.9706 139.294 67.9406 140.204C66.8183 141.195 65.7902 142.309 64.8221 143.455C64.5255 143.806 64.289 144.252 64.1119 144.697C62.7912 144.93 61.4951 145.322 60.273 145.85C56.2628 147.583 52.9564 150.626 50.137 153.954C48.5896 155.78 47.1666 157.705 45.7434 159.63C44.5736 161.212 43.4035 162.795 42.1641 164.323C39.4174 167.71 36.261 170.879 32.3712 172.866C29.6556 174.252 26.6716 175.019 23.7158 175.775C29.6359 176.411 35.4608 173.707 40.1886 170.101C42.8753 168.051 45.3094 165.707 47.7447 163.362C49.5949 161.581 51.4454 159.798 53.4079 158.144C54.1964 157.479 55.1722 156.795 56.1732 157.047C55.6533 159.731 55.5525 162.53 56.207 165.185C56.8612 167.84 58.3119 170.346 60.4993 171.998C58.4906 169.587 57.1551 166.626 56.6795 163.529C56.3952 161.677 56.4214 159.741 57.0728 157.984C57.7246 156.227 59.0613 154.668 60.8292 154.031C60.4605 157.101 60.3423 160.238 60.9724 163.266C61.6029 166.294 63.0339 169.225 65.3747 171.256C62.1049 167.167 60.6737 161.671 61.5351 156.515C61.6756 155.674 61.8847 154.817 62.3871 154.127C62.8897 153.437 63.746 152.945 64.5893 153.091C62.1628 158.344 63.9862 165.194 68.7069 168.56C65.7812 165.658 64.0774 161.517 64.3238 157.411C64.4032 156.083 64.706 154.709 65.5573 153.684C66.4086 152.658 67.9209 152.092 69.135 152.647C67.4296 154.833 67.3339 157.859 67.7105 160.602C68.0423 163.017 69.0368 165.776 71.3905 166.444C68.3965 163.987 67.3985 159.413 69.0993 155.94C69.7116 154.689 70.8521 153.486 72.2464 153.565C73.2342 153.62 74.075 154.317 74.6673 155.106C74.9455 155.477 75.186 155.875 75.4262 156.272C75.6973 156.72 75.9683 157.168 76.2936 157.578C77.6857 154.551 77.7846 150.715 75.7074 148.107C74.9682 147.179 73.9962 146.452 72.9468 145.894C71.563 145.158 70.0563 144.721 68.5079 144.544C68.5816 144.489 68.6558 144.434 68.7297 144.379C71.0834 142.636 73.6796 141.297 76.2951 140.013C77.8305 139.26 79.4459 138.659 81.0549 138.07C82.4967 137.542 83.9659 137.077 85.4464 136.669C88.1008 135.937 90.8139 135.527 93.5607 135.323C94.1409 135.281 94.7194 135.213 95.2975 135.145L95.299 135.145C95.9162 135.072 96.5344 135 97.1538 134.958C97.9949 134.9 98.8379 134.862 99.6806 134.824C100.977 134.765 102.274 134.706 103.564 134.578C105.003 134.435 106.433 134.196 107.862 133.956C108.353 133.874 108.844 133.792 109.334 133.714C110.416 133.542 111.494 133.344 112.602 133.141L112.604 133.14L112.955 133.076C113.088 133.054 113.214 133.039 113.337 133.024C113.51 133.004 113.674 132.985 113.834 132.947C114.25 132.849 114.665 132.751 115.081 132.654C116.732 132.266 118.384 131.877 120.027 131.458C121.893 130.981 123.75 130.469 125.599 129.932C126.344 129.716 127.083 129.481 127.822 129.245C128.711 128.961 129.601 128.678 130.499 128.428C132.197 127.957 133.641 127.032 135.068 126.059C135.167 125.992 135.272 125.795 135.24 125.707C135.187 125.56 135.039 125.369 134.907 125.348C134.701 125.317 134.421 125.343 134.266 125.464C132.573 126.791 130.601 127.55 128.583 128.146C125.149 129.16 121.696 130.122 118.219 130.978C116.035 131.516 113.825 131.948 111.615 132.379C111.005 132.498 110.395 132.617 109.785 132.738C108.707 132.953 107.616 133.109 106.527 133.266L106.37 133.288C106.009 133.34 105.647 133.394 105.285 133.449C104.117 133.625 102.948 133.801 101.773 133.89C100.614 133.978 99.4521 134.03 98.2903 134.081C96.8436 134.146 95.3973 134.21 93.9571 134.345C90.9996 134.621 88.0311 134.945 85.1711 135.795C82.8869 136.474 80.5988 137.185 78.4006 138.094C76.5892 138.844 74.8438 139.757 73.1008 140.668C72.7368 140.858 72.3727 141.048 72.0084 141.237C70.2725 142.136 68.6247 143.186 67.1349 144.454C66.4764 144.443 65.8145 144.475 65.1557 144.547C65.7631 143.75 66.4407 143.006 67.1309 142.275L67.4592 141.929C69.4692 139.819 71.9344 138.35 74.5001 137.053L74.9676 136.819C75.8534 136.38 76.7737 136.01 77.6944 135.641L77.6956 135.64C78.1508 135.457 78.607 135.275 79.0582 135.083L79.3859 134.947C81.9038 133.919 84.5323 133.288 87.1851 132.703C90.3876 131.997 93.622 131.507 96.8627 131.051L98.9467 130.761C99.9492 130.622 100.956 130.509 101.963 130.396C104.393 130.124 106.823 129.851 109.199 129.212C110.187 128.947 111.176 128.688 112.166 128.429C113.37 128.114 114.575 127.799 115.776 127.472C116.935 127.156 118.093 126.825 119.225 126.429C120.116 126.117 120.993 125.766 121.87 125.415L121.871 125.414C122.247 125.264 122.623 125.114 123 124.967C123.646 124.714 124.296 124.467 124.946 124.221L124.947 124.22C126.413 123.664 127.879 123.107 129.314 122.478C131.179 121.66 133.023 120.79 134.866 119.921L134.867 119.92C135.818 119.471 136.769 119.022 137.723 118.581C138.303 118.312 138.892 118.056 139.497 117.852C140.753 117.428 142.015 117.018 143.276 116.609C143.832 116.428 144.388 116.248 144.943 116.066L145.281 115.956C146.462 115.574 147.659 115.228 148.912 115.277C150.203 115.327 151.469 115.476 152.39 116.62C153.157 117.574 153.558 118.676 153.883 119.804L153.97 120.112C154.376 121.582 154.69 123.08 154.995 124.576L155.325 126.201C155.71 128.097 156.086 129.996 156.401 131.903C156.546 132.78 156.63 133.667 156.715 134.553C156.789 135.335 156.863 136.118 156.979 136.893C157.056 137.41 157.201 137.916 157.347 138.422C157.472 138.86 157.598 139.298 157.679 139.743C157.77 140.238 157.805 140.743 157.84 141.248C157.863 141.588 157.886 141.929 157.927 142.267C157.999 142.863 158.081 143.457 158.164 144.052L158.165 144.053C158.295 144.99 158.425 145.927 158.512 146.867L158.536 147.129C158.724 149.158 158.91 151.17 158.626 153.245C158.421 154.743 158.086 156.2 157.751 157.659C157.632 158.174 157.513 158.69 157.4 159.208C157.384 159.283 157.331 159.35 157.279 159.418L157.274 159.423L157.261 159.44L157.25 159.454C157.236 159.473 157.221 159.493 157.209 159.512C157.208 159.496 157.206 159.48 157.204 159.465C157.203 159.453 157.201 159.442 157.2 159.43L157.197 159.406L157.194 159.386C157.181 159.296 157.169 159.205 157.183 159.119C157.557 156.922 157.258 154.759 156.649 152.663C156.3 151.462 155.838 150.293 155.377 149.124C155.163 148.582 154.949 148.04 154.746 147.495C154.549 146.965 154.351 146.437 154.153 145.908C153.61 144.46 153.066 143.013 152.555 141.554C151.831 139.493 151.489 137.357 151.577 135.171L151.58 135.111C151.62 134.017 151.632 131.487 151.407 131.491C151.236 131.495 150.949 131.743 150.924 131.913C150.799 132.755 150.714 133.607 150.67 134.458C150.553 136.729 150.783 138.946 151.471 141.14L151.551 141.394C152.273 143.698 152.993 145.996 154.038 148.224C154.06 148.281 154.081 148.337 154.101 148.393L154.389 149.178C154.52 149.535 154.657 149.89 154.794 150.246C155.349 151.686 155.903 153.123 156.122 154.683C156.394 156.619 156.573 158.522 156.065 160.445C156.001 160.688 156.032 160.956 156.063 161.224C156.078 161.358 156.094 161.492 156.098 161.623L156.101 161.687C156.101 161.697 156.102 161.706 156.103 161.716L156.104 161.743C156.113 161.878 156.123 162.016 156.075 162.128C155.596 163.255 148.758 173.927 147.604 175.528L147.496 175.674C147.371 175.852 147.301 176.003 147.272 176.138C145.221 177.135 142.986 177.708 140.772 178.272C145.408 178.77 149.97 176.657 153.672 173.839C155.776 172.238 157.682 170.406 159.589 168.574C161.037 167.182 162.487 165.789 164.023 164.497C164.641 163.978 165.405 163.443 166.189 163.64C165.782 165.737 165.703 167.924 166.215 169.998C166.728 172.073 167.864 174.031 169.576 175.321C168.003 173.438 166.958 171.124 166.585 168.704C166.363 167.258 166.383 165.744 166.893 164.372C167.403 162.999 168.45 161.781 169.835 161.283C169.546 163.682 169.453 166.133 169.947 168.499C170.441 170.865 171.561 173.155 173.394 174.741C170.834 171.547 169.713 167.253 170.387 163.224C170.498 162.567 170.661 161.898 171.055 161.359C171.448 160.82 172.119 160.435 172.779 160.549C170.879 164.654 172.307 170.006 176.004 172.635C173.712 170.368 172.378 167.133 172.571 163.925C172.633 162.887 172.87 161.813 173.537 161.012C174.204 160.211 175.388 159.769 176.339 160.202C175.003 161.91 174.928 164.275 175.223 166.417C175.483 168.305 176.262 170.46 178.105 170.982C175.76 169.063 174.979 165.488 176.311 162.775C176.79 161.798 177.683 160.857 178.775 160.919C179.549 160.963 180.207 161.507 180.671 162.124C180.889 162.413 181.077 162.724 181.265 163.034C181.477 163.384 181.69 163.734 181.944 164.054C183.034 161.69 183.112 158.693 181.485 156.655C180.906 155.93 180.145 155.362 179.324 154.926C176.304 153.323 172.539 153.538 169.399 154.892C166.259 156.246 163.67 158.623 161.462 161.223C160.25 162.65 159.136 164.154 158.022 165.658L158.021 165.659C157.105 166.895 156.189 168.131 155.219 169.325C153.647 171.259 151.905 173.101 149.892 174.559C150.283 173.983 150.73 173.339 151.209 172.65L151.21 172.649C153.543 169.29 156.63 164.846 157.68 161.886C159.327 157.242 159.674 154.238 159.713 153.131L159.726 152.695C159.767 150.947 159.689 149.189 159.554 147.446C159.479 146.482 159.329 145.526 159.178 144.569V144.567L159.177 144.566C159.081 143.957 158.985 143.347 158.909 142.735C158.844 142.218 158.802 141.697 158.76 141.177C158.705 140.497 158.649 139.817 158.544 139.144C158.409 138.279 158.236 137.419 158.064 136.56C157.915 135.818 157.766 135.077 157.641 134.331C157.471 133.314 157.318 132.293 157.166 131.273C156.917 129.601 156.667 127.928 156.337 126.272C155.829 123.72 155.229 121.176 154.473 118.688C153.866 116.695 152.812 115.003 150.433 114.596C149.107 114.369 147.818 114.348 146.542 114.668C143.352 115.469 140.217 116.478 137.21 117.797C135.642 118.485 134.088 119.208 132.535 119.93C129.393 121.393 126.251 122.855 122.981 124.028C122.375 124.246 121.774 124.48 121.174 124.715C120.611 124.934 120.049 125.153 119.482 125.359C119.149 125.48 118.752 125.609 118.427 125.538C117.844 125.41 117.268 125.254 116.691 125.098C116.015 124.914 115.339 124.731 114.654 124.594C113.815 124.426 112.961 124.331 112.108 124.236C111.786 124.2 111.462 124.164 111.14 124.124C111.029 124.111 110.916 124.12 110.802 124.13C110.75 124.134 110.697 124.139 110.645 124.141C110.665 124.083 110.68 124.022 110.695 123.962C110.729 123.831 110.762 123.7 110.839 123.604C112.009 122.136 112.792 120.452 113.537 118.758L113.731 118.316C114.061 117.561 114.296 116.765 114.53 115.969C114.62 115.666 114.709 115.363 114.803 115.062C114.951 114.592 115.081 114.115 115.193 113.635C115.293 113.212 115.39 112.788 115.487 112.364L116.067 109.82C116.14 109.502 116.223 109.185 116.306 108.869C116.482 108.201 116.657 107.534 116.736 106.855C117.042 104.23 117.012 101.588 116.758 98.9624C116.491 96.2135 116.206 93.4557 115.428 90.7927L115.413 90.7379C115.3 90.2965 115.493 90.2429 115.801 90.2093L115.957 90.1933C117.168 89.9962 123.565 89.6525 142.997 94.9137C158.091 99.287 162.698 101.375 164.96 103.715C170.09 110.297 171.023 131.492 159.556 137.285C159.589 137.278 159.623 137.318 159.672 137.374C159.957 137.706 160.73 138.607 164.675 133.799C172.243 124.576 169.432 105.596 166.332 102.641C164.176 100.585 150.789 95.7127 143.809 93.2348L140.64 92.1155C140.458 92.0515 140.267 92.0154 140.076 91.9794C139.96 91.9575 139.844 91.9357 139.731 91.9076C139.446 91.8371 139.301 91.7275 139.386 91.3594C139.71 89.9435 140.027 88.523 140.259 87.0899C140.331 86.6467 140.542 86.6753 140.796 86.7255L140.97 86.7603C141.376 86.8435 141.782 86.9411 142.165 87.0924C144.308 87.9409 146.446 88.8048 148.578 89.6817C149.996 90.2651 151.413 90.8555 152.81 91.4866C153.924 91.9896 154.862 91.5633 155.438 90.7055C156.211 89.553 156.858 88.3016 157.437 87.0363C158.133 85.5136 158.502 83.8898 158.824 82.2503L158.967 81.5117C159.342 79.5528 159.031 77.7153 158.196 75.9656C157.833 75.2048 157.386 74.4841 156.939 73.7634C156.753 73.4637 156.568 73.1643 156.388 72.8618C156.315 72.7399 156.25 72.6077 156.184 72.475C156.022 72.1513 155.86 71.8248 155.6 71.6446C154.839 71.1183 154.004 70.6541 153.138 70.3319C151.531 69.7338 149.907 69.1819 148.283 68.6299C147.632 68.4085 146.981 68.1873 146.332 67.9634C146.31 67.9557 146.289 67.9474 146.267 67.9391C146.232 67.9252 146.196 67.9111 146.159 67.9015C145.719 67.7882 145.279 67.6742 144.839 67.5602C143.664 67.2559 142.489 66.9513 141.311 66.6593C141.083 66.6027 140.855 66.5506 140.626 66.5001C140.63 66.4862 140.635 66.4715 140.638 66.4567L142.46 57.4119L142.471 57.346C142.572 56.6869 142.192 56.0438 141.559 55.8174ZM63.8778 146.539C63.8017 146.649 63.7509 146.649 63.7259 146.568C60.2397 147.257 57.051 149.158 54.3939 151.521C51.4777 154.113 49.124 157.255 46.789 160.372L46.7668 160.401C44.4245 163.527 42.0557 166.675 39.1158 169.259C39.2215 169.509 39.6034 169.382 39.8202 169.216C42.3236 167.303 44.5529 165.079 46.7838 162.853C48.2742 161.366 49.7658 159.878 51.34 158.482C55.2701 154.996 59.9859 151.993 65.2493 151.628C66.8823 151.514 68.5227 151.659 70.1465 151.866C71.1256 151.99 72.1134 152.141 73.0251 152.516C74.4342 153.096 75.6064 154.22 76.2369 155.596C76.6059 154.64 76.8144 153.592 76.6139 152.588C76.4396 151.713 75.9649 150.922 75.3994 150.228C73.3586 147.724 70.1077 146.415 66.838 146.307C66.8004 146.379 66.7653 146.452 66.7323 146.528C66.6803 146.648 66.5244 146.722 66.3686 146.796C66.2965 146.831 66.2247 146.865 66.1628 146.904C66.1376 146.806 66.0975 146.703 66.0575 146.599C66.0193 146.5 65.9808 146.401 65.9552 146.307C65.5647 146.32 65.1757 146.351 64.7898 146.398C64.4836 146.436 64.1796 146.483 63.8778 146.539ZM112.813 90.9085C113.429 91.133 113.922 90.4483 114.146 89.832C114.37 89.2157 113.964 88.4596 113.348 88.2354C112.731 88.0108 112.191 88.4768 111.967 89.0931C111.742 89.7094 112.196 90.6843 112.813 90.9085ZM119.755 84.0419C119.704 84.0983 119.67 84.1698 119.635 84.2409C119.619 84.2736 119.603 84.3062 119.585 84.3376C119.618 84.3388 119.651 84.3416 119.685 84.3444C119.757 84.3506 119.83 84.3567 119.901 84.3478C120.015 84.3333 120.129 84.313 120.242 84.2929C120.408 84.2634 120.574 84.2338 120.742 84.2221C124.194 83.9834 127.646 83.8852 131.109 84.0558C133.292 84.1636 135.454 84.3943 137.566 84.9136C139.551 85.4018 141.507 86.019 143.45 86.6599C144.527 87.0154 145.577 87.4577 146.625 87.899L146.627 87.8996C146.837 87.9883 147.048 88.077 147.259 88.1651C148.393 88.6382 149.515 89.1403 150.632 89.6525C151.104 89.869 151.563 90.1138 152.022 90.359L152.033 90.3649C152.104 90.4028 152.174 90.4403 152.245 90.4782C152.279 90.4961 152.312 90.5139 152.346 90.5318C153.247 91.0089 154.275 90.8611 154.764 90.0609C155.38 89.054 155.954 88.0121 156.439 86.9368C157.289 85.0506 157.759 83.0449 158.091 81.0078C158.261 79.9634 158.27 78.907 157.875 77.922C157.409 76.7611 156.868 75.6258 156.286 74.5177C155.997 73.9663 155.623 73.4018 155.145 73.0242C154.727 72.694 154.188 72.4996 153.662 72.321L153.42 72.2394C150.565 71.2679 147.706 70.3098 144.839 69.3747C143.806 69.038 142.758 68.7377 141.7 68.4944C140.058 68.1171 138.407 67.7789 136.751 67.4694C135.243 67.1873 133.729 66.9273 132.208 66.7271C130.344 66.4816 128.472 66.2913 126.601 66.112C125.936 66.0486 125.266 66.0455 124.596 66.0424C124.493 66.0421 124.39 66.0415 124.287 66.0409L124.244 66.0393C124.233 66.0384 124.222 66.0378 124.211 66.0369L124.184 66.0347C123.992 66.0184 123.751 65.9984 123.857 66.3403L123.872 66.3858C124.505 68.1254 124.322 69.9121 124.087 71.6727C123.957 72.6475 123.751 73.6118 123.544 74.5765C123.446 75.0394 123.346 75.5026 123.256 75.9668L123.175 76.3968C122.841 78.2287 122.298 79.9917 121.498 81.6697C121.358 81.9642 121.176 82.2389 120.98 82.5352C120.847 82.7369 120.707 82.9482 120.569 83.1829L120.024 83.7527C119.933 83.8485 119.844 83.9446 119.755 84.0419ZM113.327 116.619C113.537 116.084 113.385 115.86 112.813 115.863C112.658 115.864 112.503 115.864 112.348 115.864C111.675 115.865 111.001 115.865 110.336 115.946C109.594 116.036 108.856 116.16 108.118 116.284C107.495 116.389 106.872 116.494 106.246 116.578C103.366 116.968 100.541 117.577 97.8228 118.628L97.4104 118.789C94.8749 119.791 92.4636 120.979 90.4847 122.967C89.4027 124.054 88.8011 125.346 88.5286 126.752C88.3588 127.629 88.3176 128.529 88.2763 129.431C88.2501 130.007 88.2236 130.583 88.1639 131.154C88.118 131.59 88.2883 131.555 88.5039 131.51C88.5242 131.506 88.5458 131.501 88.5671 131.497L88.5945 131.492C89.3112 131.368 90.0276 131.242 90.744 131.115C92.2279 130.853 93.7116 130.591 95.1992 130.352C96.1956 130.192 97.1978 130.068 98.2004 129.948L99.4037 129.805C99.4293 129.802 99.4542 129.799 99.4777 129.797C99.6526 129.78 99.7573 129.77 99.6529 129.537L99.635 129.499C99.0156 128.243 99.1924 126.939 99.542 125.677C99.8519 124.557 100.28 123.464 100.732 122.391C101.103 121.508 101.615 120.653 102.479 120.188C103.689 119.538 104.934 118.931 106.216 118.446C107.949 117.789 109.793 117.611 111.625 117.434L111.632 117.434L111.703 117.427L111.917 117.406C112.071 117.391 112.239 117.518 112.407 117.644C112.485 117.703 112.563 117.762 112.639 117.806C112.583 117.851 112.528 117.898 112.472 117.944C112.338 118.058 112.203 118.171 112.054 118.26C111.989 118.299 111.899 118.296 111.809 118.294C111.76 118.293 111.712 118.292 111.666 118.297L111.2 118.352C108.718 118.653 106.273 119.108 104.035 120.311C103.484 120.608 102.886 120.955 102.527 121.44C101.933 122.238 101.472 123.147 101.042 124.05C100.886 124.375 100.798 124.731 100.709 125.087C100.662 125.276 100.614 125.466 100.557 125.651L100.505 125.81C100.186 126.72 100.137 127.646 100.285 128.584C100.403 129.334 100.842 129.712 101.398 129.617C101.849 129.54 102.3 129.467 102.752 129.394C103.365 129.295 103.977 129.195 104.588 129.087C105.052 129.005 105.517 128.926 105.982 128.847L105.984 128.847L105.985 128.847C107.295 128.624 108.606 128.402 109.9 128.109C111.609 127.722 113.307 127.281 115.005 126.841L115.006 126.84C115.666 126.669 116.325 126.498 116.985 126.33C117.042 126.316 117.094 126.28 117.145 126.245C117.169 126.229 117.194 126.213 117.218 126.198C117.201 126.174 117.184 126.145 117.168 126.116C117.132 126.053 117.096 125.99 117.046 125.975C116.796 125.902 116.541 125.849 116.285 125.796L116.204 125.779L116.137 125.765C115.856 125.706 115.575 125.642 115.295 125.578C114.648 125.429 114.002 125.281 113.348 125.198C111.807 125.002 110.256 124.862 108.706 124.755L108.103 124.715C106.091 124.589 104.083 124.554 102.125 125.255L101.91 125.338C101.657 125.43 101.346 125.495 101.23 125.122C101.104 124.719 101.491 124.521 101.823 124.376C101.889 124.347 101.96 124.327 102.03 124.309L102.101 124.29C104.175 123.744 106.269 123.621 108.391 123.897L108.627 123.929C109.066 123.992 109.521 123.961 109.805 123.473C110.156 122.869 110.513 122.268 110.875 121.656L110.876 121.654L110.879 121.649L110.881 121.647C111.302 120.937 111.731 120.213 112.17 119.454C112.284 119.175 112.399 118.897 112.514 118.619L112.515 118.617C112.789 117.953 113.064 117.288 113.327 116.619ZM141.431 67.3551C140.268 67.0828 139.098 66.8331 137.928 66.5882L137.051 66.4052C136.775 66.348 136.499 66.2894 136.224 66.2306H136.222L136.221 66.2303L136.22 66.23C135.192 66.0116 134.163 65.7926 133.126 65.6365C131.567 65.4018 129.997 65.2071 128.425 65.0962C127.303 65.0171 126.176 65.0063 125.05 64.9955C124.652 64.9918 124.253 64.9881 123.856 64.9814C123.79 64.9801 123.724 65.0226 123.658 65.0651C123.627 65.0848 123.596 65.1049 123.565 65.1203C123.597 65.1366 123.629 65.1575 123.661 65.1782C123.729 65.2231 123.798 65.2681 123.868 65.2706C124.12 65.2795 124.374 65.2795 124.627 65.2792C125.033 65.2789 125.439 65.2786 125.841 65.3161C127.693 65.4902 129.543 65.6861 131.39 65.9063C132.585 66.0486 133.779 66.2192 134.964 66.4299C135.865 66.59 136.762 66.7733 137.658 66.9615L139.002 67.2448C140.2 67.4968 141.397 67.7494 142.587 68.0343C143.525 68.2591 144.456 68.5169 145.382 68.7901C146.871 69.2299 148.36 69.674 149.837 70.1554C150.508 70.3741 151.17 70.6202 151.832 70.866C152.205 71.0046 152.578 71.1432 152.953 71.2769C153.003 71.2947 153.063 71.2824 153.123 71.2704C153.151 71.2646 153.178 71.259 153.205 71.2562C153.189 71.2356 153.175 71.2116 153.161 71.1876C153.13 71.1358 153.099 71.0841 153.054 71.065C152.832 70.9707 152.61 70.874 152.388 70.7773C151.748 70.4986 151.108 70.2195 150.449 69.9956C149.955 69.8274 149.446 69.7002 148.938 69.5727C148.548 69.4748 148.159 69.3771 147.775 69.261C146.938 69.0081 146.109 68.7322 145.232 68.4408C144.923 68.3379 144.608 68.2335 144.285 68.1273C143.991 68.0469 143.698 67.964 143.404 67.8809C142.749 67.6955 142.093 67.5103 141.431 67.3551ZM146.094 132.927C145.755 133.606 145.411 134.292 145.063 134.995C144.999 135.121 144.937 135.236 144.877 135.346C144.787 135.511 144.703 135.664 144.635 135.824C144.36 136.46 144.089 137.097 143.818 137.735L143.818 137.736C143.497 138.491 143.176 139.245 142.85 139.997C142.408 141.012 141.958 142.024 141.487 143.026C140.786 144.517 140.071 146.002 139.347 147.482C138.729 148.743 138.097 149.999 137.457 151.25C136.748 152.634 136.033 154.014 135.301 155.386C134.39 157.094 133.476 158.8 132.533 160.489C131.901 161.62 131.251 162.741 130.601 163.862L130.6 163.864L130.599 163.865L130.598 163.867C130.304 164.375 130.009 164.883 129.716 165.392C129.457 165.842 129.199 166.292 128.941 166.743C128.377 167.728 127.813 168.714 127.238 169.693C127.16 169.825 127.083 169.958 127.005 170.091C126.957 170.174 126.909 170.257 126.861 170.34L126.859 170.342L126.859 170.343C126.33 171.252 125.801 172.164 125.201 173.023C124.823 173.565 124.387 174.066 123.952 174.567L123.951 174.569C123.67 174.891 123.39 175.214 123.125 175.547C123.011 175.691 122.965 176.101 123.026 176.134C123.043 176.144 123.061 176.154 123.079 176.165L123.107 176.181C123.294 176.293 123.503 176.418 123.749 176.12C123.998 175.82 124.272 175.539 124.546 175.257C124.943 174.849 125.34 174.442 125.656 173.978C126.431 172.842 127.13 171.653 127.827 170.465L127.83 170.461C127.975 170.214 128.12 169.966 128.266 169.72C128.727 168.939 129.177 168.152 129.627 167.365L129.628 167.364L129.628 167.362L129.629 167.361L129.63 167.36L129.631 167.359L129.631 167.357C130.001 166.711 130.371 166.064 130.747 165.421C131.044 164.913 131.35 164.409 131.656 163.905C131.967 163.394 132.278 162.883 132.58 162.366C133.24 161.236 133.892 160.1 134.52 158.951C134.776 158.482 135.016 158.005 135.255 157.528C135.461 157.117 135.667 156.706 135.884 156.301C136.155 155.794 136.435 155.291 136.714 154.788C137.082 154.125 137.45 153.462 137.8 152.789C138.101 152.209 138.383 151.618 138.664 151.027C138.897 150.539 139.129 150.05 139.373 149.568C139.669 148.982 139.975 148.402 140.28 147.821L140.281 147.819L140.281 147.818L140.282 147.817L140.282 147.816L140.283 147.815C140.71 147.003 141.136 146.192 141.538 145.368C142.151 144.108 142.721 142.826 143.29 141.544C143.353 141.4 143.418 141.256 143.482 141.112C143.76 140.487 144.029 139.857 144.298 139.228C144.576 138.578 144.854 137.929 145.142 137.283C145.76 135.896 146.385 134.511 147.041 133.141C147.39 132.414 147.756 131.696 148.122 130.977L148.123 130.976L148.123 130.975C148.386 130.46 148.648 129.945 148.904 129.427C149.203 128.821 149.496 128.211 149.789 127.601L149.79 127.6C150.336 126.463 150.883 125.325 151.471 124.21C151.595 123.975 151.712 123.736 151.83 123.496C152.269 122.604 152.711 121.706 153.478 121.011C153.632 120.872 153.662 120.544 153.652 120.307C153.649 120.217 153.36 120.053 153.225 120.074C153.043 120.101 152.828 120.239 152.725 120.395C152.41 120.865 152.109 121.345 151.807 121.824C151.601 122.152 151.395 122.481 151.185 122.806C149.919 124.763 148.946 126.867 148.019 128.997C147.755 129.602 147.46 130.194 147.164 130.784C147.1 130.912 147.036 131.041 146.972 131.169C146.682 131.754 146.39 132.338 146.094 132.927ZM141.639 127.551C141.36 128.881 141.074 130.174 140.762 131.462C140.643 131.953 140.495 132.438 140.346 132.922L140.345 132.926C140.314 133.028 140.282 133.13 140.251 133.232C140.231 133.3 140.21 133.367 140.19 133.435C140.169 133.505 140.148 133.575 140.127 133.644L140.087 133.776L140.086 133.781C139.894 134.42 139.702 135.059 139.484 135.689C138.398 138.822 137.299 141.951 136.199 145.079C135.985 145.688 135.762 146.293 135.54 146.899C135.438 147.178 135.335 147.456 135.234 147.734C135.063 148.205 134.897 148.679 134.731 149.152C134.354 150.227 133.977 151.302 133.536 152.35C133.029 153.555 132.456 154.734 131.884 155.912C131.683 156.326 131.482 156.74 131.284 157.154C130.786 158.197 130.278 159.234 129.762 160.267C129.456 160.88 129.145 161.49 128.835 162.101L128.834 162.103C128.367 163.021 127.9 163.94 127.447 164.865C127.232 165.305 127.036 165.753 126.839 166.202C126.607 166.73 126.374 167.259 126.113 167.773C125.614 168.752 125.066 169.707 124.519 170.661C124.461 170.762 124.403 170.863 124.346 170.964C123.764 171.98 123.174 172.991 122.556 173.985C122.268 174.448 121.923 174.879 121.569 175.294C121.486 175.391 121.351 175.444 121.216 175.496C121.154 175.52 121.092 175.544 121.036 175.572C121.025 175.503 121.004 175.429 120.983 175.354C120.937 175.193 120.892 175.032 120.946 174.92C121.267 174.264 121.643 173.634 122.019 173.006C122.251 172.619 122.49 172.236 122.73 171.853C123.14 171.198 123.55 170.542 123.922 169.866C124.701 168.451 125.425 167.006 126.144 165.559C126.38 165.084 126.596 164.599 126.812 164.114L126.813 164.113L126.813 164.111C127.015 163.66 127.216 163.208 127.433 162.764C127.762 162.093 128.104 161.428 128.447 160.762L128.448 160.761L128.448 160.76L128.449 160.759C128.712 160.248 128.976 159.736 129.233 159.222C129.326 159.035 129.42 158.849 129.514 158.662C129.948 157.799 130.383 156.934 130.771 156.05C131.707 153.916 132.613 151.769 133.503 149.616C133.718 149.097 133.904 148.568 134.091 148.038L134.091 148.037L134.092 148.036C134.234 147.633 134.376 147.23 134.53 146.831C134.656 146.506 134.798 146.188 134.939 145.869C135.083 145.546 135.227 145.222 135.354 144.892C135.732 143.913 136.091 142.925 136.432 141.931C136.533 141.635 136.617 141.332 136.699 141.03C136.776 140.752 136.852 140.475 136.942 140.202C137.06 139.846 137.191 139.495 137.323 139.143C137.442 138.821 137.562 138.5 137.672 138.175C137.748 137.949 137.825 137.722 137.903 137.496L137.904 137.491L137.906 137.486C138.268 136.423 138.63 135.36 138.953 134.284C139.383 132.849 139.813 131.409 140.135 129.947C140.359 128.928 140.545 127.901 140.731 126.875V126.873C140.902 125.927 141.074 124.981 141.275 124.041C141.576 122.632 141.799 121.239 141.571 119.794C141.554 119.686 141.704 119.551 141.855 119.416C141.925 119.353 141.994 119.291 142.048 119.231C142.098 119.297 142.158 119.362 142.218 119.426C142.349 119.566 142.48 119.706 142.509 119.864C142.722 121.031 142.627 122.202 142.415 123.361C142.319 123.886 142.219 124.411 142.12 124.938V124.939C141.956 125.801 141.793 126.669 141.639 127.551ZM182.095 160.018C182.251 160.803 182.089 161.622 181.802 162.37C181.31 161.294 180.397 160.415 179.3 159.961C178.59 159.668 177.821 159.551 177.058 159.453C175.793 159.292 174.515 159.178 173.244 159.267C169.144 159.552 165.471 161.901 162.41 164.626C161.184 165.718 160.022 166.882 158.861 168.044C157.124 169.785 155.388 171.524 153.438 173.02C153.269 173.149 152.971 173.249 152.889 173.053C155.179 171.033 157.024 168.572 158.848 166.127L158.865 166.104C160.684 163.667 162.517 161.211 164.788 159.183C167.067 157.15 169.847 155.553 172.886 155.178C175.924 154.803 179.226 155.804 181.149 158.172C181.59 158.715 181.959 159.334 182.095 160.018ZM111.959 164.651C111.737 168.342 113.273 172.065 115.91 174.673C111.655 171.648 110.012 165.49 112.199 160.767C111.439 160.637 110.667 161.079 110.214 161.699C109.761 162.32 109.573 163.09 109.446 163.845C108.67 168.481 109.96 173.421 112.907 177.096C110.797 175.271 109.507 172.636 108.939 169.914C108.371 167.192 108.478 164.373 108.81 161.612C107.217 162.185 106.012 163.586 105.425 165.166C104.837 166.745 104.814 168.486 105.07 170.15C105.499 172.934 106.702 175.596 108.513 177.764C106.541 176.279 105.234 174.026 104.644 171.639C104.055 169.253 104.145 166.737 104.614 164.324C103.711 164.097 102.832 164.712 102.122 165.31C100.353 166.797 98.6849 168.399 97.0177 170C94.8401 172.092 92.6635 174.183 90.2644 176.015C90.6168 175.954 90.9722 175.949 91.3212 176.037C91.6742 176.127 91.9714 176.305 92.2631 176.479L92.3068 176.505C97.3007 179.487 103.777 181.055 110.168 180.83C111.869 180.77 113.595 180.581 115.124 180.021C115.512 179.879 116.15 179.797 116.225 180.115C116.237 180.163 116.172 180.218 116.043 180.28C119.805 179.509 123.426 178.355 126.764 176.849C127.588 176.478 128.544 176.07 129.455 176.301C129.808 176.391 130.105 176.569 130.397 176.743L130.441 176.769C134.86 179.409 140.441 180.94 146.097 181.101C146.1 181.101 146.102 181.1 146.105 181.1C146.109 181.099 146.114 181.098 146.118 181.097C146.127 181.096 146.136 181.096 146.145 181.095C148.435 180.999 150.713 180.763 152.952 180.391C153.055 180.357 153.156 180.322 153.258 180.285C153.518 180.19 153.89 180.121 154.13 180.182C158.196 179.417 162.112 178.204 165.7 176.585C166.523 176.214 167.48 175.806 168.391 176.037C168.744 176.127 169.041 176.305 169.333 176.479L169.376 176.505C174.37 179.487 180.847 181.055 187.237 180.83C188.939 180.77 190.664 180.581 192.193 180.021C192.581 179.879 193.22 179.797 193.295 180.115C193.41 180.604 185.65 181.921 181.074 181.312C178.137 180.922 176.049 180.48 173.99 180.045C172.84 179.802 171.7 179.561 170.425 179.331C169.576 179.179 168.716 179.037 167.843 179.027C166.692 179.013 165.559 179.225 164.443 179.437L158.155 180.627C155.664 181.098 153.121 181.572 150.571 181.725C147.806 182.086 144.917 181.948 142.138 181.576C139.86 181.271 137.627 180.816 135.394 180.36H135.392C134.095 180.095 132.796 179.83 131.489 179.595C130.64 179.442 129.78 179.301 128.907 179.291C127.756 179.277 126.624 179.489 125.507 179.701L119.219 180.891C115.427 181.608 111.516 182.332 107.643 181.921C107.428 181.898 107.193 181.863 107.058 181.736C106.979 181.663 106.97 181.552 107.018 181.469C105.946 181.478 104.913 181.433 104.005 181.312C101.068 180.922 98.9796 180.48 96.9203 180.045C95.7709 179.802 94.63 179.561 93.3555 179.331C92.5067 179.179 91.6464 179.037 90.7733 179.027C89.622 179.013 88.4898 179.225 87.3736 179.437L81.9213 180.468C80.5729 180.878 79.1925 181.141 77.7963 181.219C76.3721 181.451 74.9381 181.639 73.5015 181.725C70.7363 182.086 67.8476 181.948 65.0688 181.576C62.7909 181.271 60.5575 180.816 58.3239 180.36H58.3227C57.0251 180.095 55.7266 179.83 54.4197 179.595C53.5709 179.442 52.7106 179.301 51.8374 179.291C50.6861 179.277 49.5539 179.489 48.4377 179.701L42.1496 180.891C38.3572 181.608 34.4468 182.332 30.5731 181.921C30.3581 181.898 30.1231 181.863 29.9879 181.736C29.8527 181.61 29.9232 181.368 30.14 181.359C37.0205 181.072 43.7983 179.509 49.6944 176.849C50.518 176.478 51.4746 176.07 52.3854 176.301C52.7383 176.391 53.0356 176.569 53.3272 176.743L53.371 176.769C57.7908 179.409 63.3717 180.94 69.0269 181.101C69.0297 181.101 69.0322 181.1 69.0349 181.1C69.0377 181.099 69.0405 181.099 69.0433 181.098C69.0482 181.097 69.0531 181.097 69.058 181.096C69.0639 181.096 69.0697 181.095 69.0759 181.095C71.3656 180.999 73.6438 180.763 75.8821 180.391C75.985 180.357 76.0869 180.322 76.1879 180.285C76.4482 180.19 76.8206 180.121 77.0608 180.182C78.914 179.833 80.7359 179.391 82.5099 178.861C82.7289 178.759 82.9464 178.654 83.162 178.544C86.6676 176.758 89.5123 173.91 91.988 170.865C93.1048 169.491 94.1594 168.068 95.2137 166.646C96.4965 164.915 97.779 163.185 99.1737 161.543C101.714 158.551 104.695 155.816 108.309 154.259C111.923 152.701 116.256 152.454 119.731 154.298C120.677 154.799 121.553 155.453 122.219 156.287C124.091 158.632 124.002 162.08 122.747 164.801C122.454 164.432 122.21 164.03 121.966 163.627C121.749 163.27 121.532 162.913 121.282 162.579C120.748 161.87 119.99 161.243 119.1 161.193C117.843 161.122 116.815 162.204 116.263 163.329C114.731 166.45 115.63 170.563 118.328 172.771C116.207 172.171 115.311 169.691 115.012 167.519C114.672 165.054 114.759 162.333 116.296 160.369C115.201 159.87 113.839 160.379 113.071 161.3C112.304 162.222 112.031 163.457 111.959 164.651ZM122.583 162.863C122.914 162.002 123.101 161.06 122.921 160.156C122.765 159.369 122.34 158.657 121.832 158.033C119.619 155.308 115.819 154.156 112.322 154.588C108.824 155.019 105.624 156.857 103.002 159.196C100.388 161.529 98.278 164.355 96.1848 167.159L96.1651 167.185C94.0655 169.998 91.9418 172.829 89.3066 175.154C89.4011 175.379 89.7436 175.265 89.938 175.116C92.1821 173.394 94.1807 171.394 96.1802 169.391C97.5166 168.053 98.8536 166.715 100.265 165.459C103.788 162.323 108.015 159.621 112.733 159.292C114.197 159.19 115.668 159.321 117.123 159.507C118.001 159.619 118.887 159.754 119.704 160.092C120.967 160.614 122.018 161.625 122.583 162.863Z" fill="#00160A"/>
<path fill-rule="evenodd" clip-rule="evenodd" d="M125.126 141.626C124.622 142.856 123.837 143.813 122.867 144.597C121.414 145.774 119.762 146.223 117.937 145.62C116.805 145.246 115.691 144.855 114.781 143.982C113.667 142.911 113.276 141.626 113.341 140.153C113.366 139.584 113.361 138.962 113.587 138.462C114.13 137.265 114.71 136.074 115.873 135.293C117.26 134.359 118.733 133.73 120.436 133.776C122.675 133.836 124.334 134.88 125.398 136.826C125.964 137.862 125.792 138.987 125.553 140.084C125.444 140.585 125.284 141.074 125.126 141.626ZM114.352 139.846C114.416 140.596 114.306 141.415 114.577 142.08C115.341 143.958 117.031 144.698 118.878 144.941C120.862 145.203 122.307 144.127 123.466 142.621C124.179 141.694 124.526 140.604 124.726 139.48C124.919 138.393 124.835 137.331 124.082 136.417C123.474 135.679 122.734 135.157 121.794 134.97C121.12 134.835 120.401 134.58 119.758 134.696C117.199 135.158 114.874 136.446 114.352 139.846Z" fill="#FFB61D"/>
<path fill-rule="evenodd" clip-rule="evenodd" d="M147.548 152.773C147.656 150.466 148.608 148.636 150.351 147.246C151.432 146.384 152.688 146.772 153.397 148.064C154.292 149.695 154.385 151.39 153.649 153.061C153.078 154.357 152.191 155.425 150.839 156.061C149.833 156.534 148.556 156.067 148.139 155.106C147.83 154.393 147.724 153.592 147.548 152.773ZM148.601 151.664C148.582 151.834 148.557 152.003 148.546 152.173C148.49 153.086 148.517 153.98 149.011 154.803C149.318 155.314 150.071 155.553 150.546 155.227C151.738 154.409 152.676 153.374 153.029 151.941C153.3 150.842 153.301 149.728 152.731 148.692C152.31 147.929 151.528 147.628 150.942 148.012C150.677 148.185 150.453 148.425 150.22 148.645C149.375 149.439 148.992 150.485 148.601 151.664Z" fill="#FFB61D"/>
<path fill-rule="evenodd" clip-rule="evenodd" d="M118.3 136.579C118.998 135.988 120.466 135.962 121.245 136.455C123.779 138.059 122.766 141.334 120.993 142.516C119.263 143.668 116.963 142.493 116.409 140.993C116.127 140.23 116.24 139.521 116.54 138.766C116.904 137.849 117.429 137.115 118.3 136.579ZM118.083 140.296C117.989 140.078 117.813 139.858 117.82 139.643C117.831 139.3 117.973 138.962 118.04 138.618C118.076 138.434 118.071 138.242 118.084 138.054C117.951 138.215 117.762 138.355 117.696 138.539C117.539 138.983 117.427 139.443 117.32 139.903C117.078 140.946 118.171 142.217 119.264 142.115C120.547 141.996 121.295 141.222 121.693 140.025C122.099 138.805 121.732 137.75 120.622 137.132C120.241 136.919 119.545 137.034 119.412 137.395C119.164 138.064 119.003 138.764 118.776 139.442C118.654 139.81 118.886 140.453 118.083 140.296Z" fill="#FFB61D"/>
<path fill-rule="evenodd" clip-rule="evenodd" d="M150.744 153.709C149.405 153.47 148.838 152.476 149.277 151.229C149.518 150.547 149.721 149.851 150.337 149.375C150.862 148.969 151.394 148.947 151.991 149.19C152.506 149.399 152.673 149.828 152.713 150.298C152.836 151.746 152.18 153.296 151.007 153.678C150.938 153.701 150.858 153.687 150.744 153.709ZM151.445 152.049C151.563 151.725 151.707 151.407 151.79 151.075C151.84 150.87 151.797 150.642 151.796 150.425C151.694 150.567 151.595 150.71 151.492 150.851C151.413 150.957 151.35 151.104 151.244 151.151C151.102 151.215 150.892 151.261 150.774 151.198C150.673 151.144 150.619 150.922 150.624 150.778C150.628 150.662 150.767 150.557 150.817 150.435C150.86 150.329 150.862 150.207 150.882 150.092C150.775 150.152 150.604 150.19 150.573 150.277C150.426 150.698 150.318 151.134 150.194 151.564C150.063 152.017 150.014 152.548 150.461 152.759C150.891 152.962 151.156 152.481 151.445 152.049Z" fill="#FFB61D"/>
<path fill-rule="evenodd" clip-rule="evenodd" d="M210.008 83.9318C209.247 83.91 209.17 83.828 209.165 82.9549C209.148 82.8776 209.124 82.8107 209.102 82.7497C209.072 82.6641 209.046 82.5908 209.05 82.5194C209.077 82.0266 208.71 82.0287 208.452 82.1285C208.295 82.1889 208.166 82.5144 208.159 82.7254C208.153 82.896 208.19 83.0676 208.226 83.2398C208.258 83.3888 208.29 83.5388 208.295 83.6885C208.298 83.8071 208.14 83.9901 208.016 84.0378C207.889 84.0865 207.736 84.0729 207.587 84.0597C207.549 84.0563 207.511 84.0529 207.475 84.0507C207.137 84.0298 206.747 84.0572 206.766 84.4527C206.773 84.6147 207.242 84.8971 207.483 84.8799C208.187 84.8297 208.589 85.036 208.764 85.7561C208.798 85.8944 208.974 85.9982 209.15 86.102C209.231 86.1495 209.311 86.1972 209.378 86.248C209.407 86.1766 209.448 86.1017 209.488 86.0269C209.577 85.8636 209.665 85.7001 209.63 85.5701C209.461 84.9458 209.737 84.8063 210.275 84.7699C210.416 84.7604 210.551 84.6726 210.687 84.5845C210.748 84.5445 210.81 84.5044 210.872 84.4721C210.823 84.424 210.776 84.3748 210.728 84.3252L210.728 84.3249L210.726 84.3236C210.607 84.2001 210.488 84.0763 210.352 83.974C210.291 83.9278 210.19 83.9297 210.093 83.9315C210.064 83.9322 210.036 83.9328 210.008 83.9318ZM54.575 83.9124C54.5726 83.8964 54.5692 83.8749 54.5479 83.8391C53.8953 83.5598 53.6236 83.6968 53.6085 84.2993C53.5999 84.6489 53.4779 84.8121 53.1265 84.9298C52.8813 85.012 52.5453 85.3105 52.5422 85.5165C52.5373 85.8498 52.9035 85.9295 53.23 85.8818C53.647 85.8208 53.7342 86.0361 53.7339 86.4072C53.7333 86.7959 53.7511 87.2028 53.8703 87.5656C53.9097 87.6845 54.069 87.7643 54.2282 87.8438C54.3006 87.8798 54.3727 87.9158 54.4337 87.9556C54.4605 87.9047 54.4891 87.8545 54.5177 87.8043C54.5852 87.6867 54.6523 87.5693 54.6924 87.4434C54.7207 87.3543 54.7136 87.2539 54.7065 87.1535C54.7035 87.1086 54.7004 87.0639 54.7004 87.0202C54.7004 85.8913 54.7029 85.8904 55.6838 85.5448L55.7063 85.5368C55.8227 85.4959 55.9231 85.409 56.0232 85.3222C56.0698 85.2821 56.116 85.2421 56.164 85.2063C56.1135 85.1626 56.0651 85.113 56.0168 85.0634C55.9096 84.9535 55.8024 84.8435 55.6727 84.7976C55.3189 84.6723 54.6985 84.2318 54.5793 83.9303C54.5772 83.9251 54.5763 83.9192 54.575 83.9124ZM189.964 105.912C190.277 105.912 190.412 106.993 190.47 107.458V107.459C190.481 107.541 190.488 107.604 190.495 107.639C190.511 107.733 190.809 107.737 191.107 107.74C191.405 107.744 191.702 107.747 191.721 107.841C191.739 107.933 191.443 108.092 191.164 108.243C190.928 108.369 190.705 108.489 190.694 108.557C190.684 108.611 190.676 108.689 190.667 108.782L190.667 108.782C190.626 109.196 190.558 109.882 190.183 109.882C190.119 109.882 190.05 109.709 189.961 109.488C189.804 109.098 189.586 108.557 189.233 108.557C189.131 108.557 187.624 108.503 187.603 108.381C187.582 108.26 189.015 107.808 189.233 107.744C189.426 107.687 189.552 107.162 189.664 106.689C189.762 106.282 189.85 105.912 189.964 105.912ZM37.3954 111.182C37.465 111.499 37.5365 111.826 38.1127 111.739C38.2347 111.582 38.3499 111.425 38.3468 111.269C38.344 111.113 38.3145 110.955 38.2849 110.797C38.2119 110.407 38.1389 110.018 38.4703 109.652C38.494 109.626 38.4167 109.471 38.3536 109.41C37.9609 109.029 37.8303 108.577 37.8389 108.03C37.8411 107.887 37.4909 107.69 37.2701 107.62C37.1964 107.596 36.9568 107.875 36.9094 108.047C36.8478 108.269 36.829 108.559 36.9223 108.758C37.0991 109.136 36.881 109.201 36.6608 109.266C36.6285 109.276 36.5958 109.285 36.5647 109.296C36.4911 109.321 36.411 109.333 36.3316 109.344C36.2182 109.361 36.1064 109.378 36.0156 109.432C35.7984 109.562 35.4319 109.845 35.4633 109.916C35.5844 110.193 35.8141 110.361 36.2034 110.2C36.4591 110.094 36.8145 110.105 37.0788 110.197C37.1407 110.219 37.1576 110.339 37.1767 110.473C37.1943 110.597 37.2134 110.733 37.2707 110.817C37.3369 110.916 37.3658 111.048 37.3954 111.182Z" fill="#00160A"/>
<path fill-rule="evenodd" clip-rule="evenodd" d="M140.725 63.236C140.725 63.236 140.827 59.018 141.716 58.2529C142.208 57.83 142.297 60.1496 144.064 60.6291C145.279 60.959 146.675 60.2725 148.002 60.594C148.571 60.732 149.924 61.81 149.596 62.1168C149.249 62.4426 148.704 61.6098 146.652 61.8593C145.845 61.9572 144.543 63.1138 143.373 63.1861C141.723 63.2887 140.725 63.236 140.725 63.236Z" fill="#FFB61D"/>
</g>
<defs>
<clipPath id="clip0_443_4544">
<rect width="231" height="231" fill="white"/>
</clipPath>
</defs>
</svg>
