<svg width="36" height="36" viewBox="0 0 36 36" fill="none" xmlns="http://www.w3.org/2000/svg">
<path d="M27 31.5C29.4853 31.5 31.5 29.4853 31.5 27C31.5 24.5147 29.4853 22.5 27 22.5C24.5147 22.5 22.5 24.5147 22.5 27C22.5 29.4853 24.5147 31.5 27 31.5Z" stroke="white" stroke-width="2" stroke-linecap="round" stroke-linejoin="round"/>
<path d="M13.5 20.25L22.5 24.75" stroke="white" stroke-width="2" stroke-linecap="round" stroke-linejoin="round"/>
<path d="M9 22.5C11.4853 22.5 13.5 20.4853 13.5 18C13.5 15.5147 11.4853 13.5 9 13.5C6.51472 13.5 4.5 15.5147 4.5 18C4.5 20.4853 6.51472 22.5 9 22.5Z" stroke="white" stroke-width="2" stroke-linecap="round" stroke-linejoin="round"/>
<path d="M22.5 11.25L13.5 15.75" stroke="white" stroke-width="2" stroke-linecap="round" stroke-linejoin="round"/>
<path d="M27 13.5C29.4853 13.5 31.5 11.4853 31.5 9C31.5 6.51472 29.4853 4.5 27 4.5C24.5147 4.5 22.5 6.51472 22.5 9C22.5 11.4853 24.5147 13.5 27 13.5Z" stroke="white" stroke-width="2" stroke-linecap="round" stroke-linejoin="round"/>
</svg>
