<svg width="37" height="29" viewBox="0 0 37 29" fill="none" xmlns="http://www.w3.org/2000/svg">
<g clip-path="url(#clip0_1327_4534)">
<path d="M16.1095 14.6675H6.02429V23.0273H16.1095V14.6675Z" fill="white"/>
<path d="M29.7835 6.12207H17.5945V18.3211H29.7835V6.12207Z" fill="white"/>
<path d="M35.9477 12.7829C35.4714 11.464 32.6227 11.6574 32.4688 11.2222C32.1689 10.2618 31.5691 8.1006 31.8091 7.80046C32.3067 7.17773 33.5908 6.06435 33.3056 5.31982C33.2043 5.05481 32.9791 4.85983 32.7592 4.68043C31.3965 3.56944 29.9044 2.61723 28.3234 1.84865C27.2138 1.78022 27.019 3.54909 25.991 3.71819C24.9628 3.88728 24.7151 3.75967 23.7117 3.47802C23.0831 3.30179 22.1006 3.06163 21.8524 2.45765C21.6238 1.90149 21.5166 1.0872 21.0692 0.685606C20.7914 0.436458 20.3746 0.446762 20.0024 0.471598C18.9422 0.542405 15.6682 0.954041 15.4105 1.98551C15.2051 2.8072 15.5132 3.32082 15.9237 4.45083C16.0866 4.89946 16.094 5.40013 15.7959 5.7658C14.7748 7.01946 13.2152 8.22003 12.4356 7.67998C12.2178 7.52912 10.7405 6.92673 10.4837 6.99093C10.3078 7.03505 10.198 7.2052 10.1093 7.3632C9.43509 8.56508 8.95779 9.87687 8.69908 11.2304C8.58794 11.8111 8.95066 12.3792 9.52009 12.5356L11.0636 12.9589C10.934 14.4326 11.642 15.8773 11.8913 17.3355C11.3596 18.2298 9.80071 19.0676 9.37675 19.6859C8.80705 20.5165 12.4047 23.6638 13.4984 24.1555C13.8144 24.2976 15.0166 22.8125 15.684 22.4825C15.9224 22.3647 19.3334 23.4078 20.3529 24.1283C20.5731 24.2839 21.2162 25.3698 21.2875 25.588C21.5768 26.4744 21.836 26.8385 22.7407 26.6158C24.5253 26.1761 26.2875 25.4358 27.9738 24.7092C28.492 24.486 29.0921 24.1145 28.991 23.5592L28.3305 21.427C29.1103 20.7667 30.9197 18.3009 31.3054 18.1077C31.5353 17.9926 33.7085 19.3841 34.1341 18.5582C34.3265 18.1844 36.1153 13.2463 35.9479 12.7826L35.9477 12.7829ZM25.41 15.295C24.8239 16.1687 23.8411 16.6942 22.8065 16.8541C22.368 16.9928 21.9076 17.0565 21.4366 17.0155C20.3028 16.917 19.2194 16.3592 18.5995 15.3822C18.1872 14.7322 18.0884 13.9734 18.2379 13.2532C18.2389 12.8579 18.3033 12.4629 18.448 12.0975C18.5137 11.9319 18.5977 11.7802 18.6832 11.6294C18.5137 11.3028 18.6389 10.9033 18.9464 10.7094C19.2537 10.5157 19.5868 10.3556 19.9316 10.2304C19.9981 10.1783 20.0597 10.1223 20.1283 10.0724C20.2962 9.95059 20.5129 9.95032 20.7041 10.0222C21.1365 9.94715 21.5958 9.92919 22.0575 9.97199C22.4746 9.92496 22.9002 9.95165 23.2933 10.0782C23.3923 10.0991 23.4907 10.1255 23.5874 10.1601C24.2967 10.4135 24.8624 10.9142 25.2716 11.5406C25.9818 12.6275 26.1584 14.1795 25.4102 15.295H25.41Z" fill="#F4A81C"/>
<g opacity="0.59">
<path d="M28.3299 21.4273C28.6036 21.1956 29.0049 20.7401 29.4262 20.2396C26.2338 19.8735 23.0965 19.061 20.1718 17.7455C15.699 15.7336 11.9817 12.4373 9.6916 8.18384C9.23648 9.15348 8.89963 10.1789 8.69847 11.2309C8.58733 11.8117 8.95005 12.3797 9.51948 12.5361L11.063 12.9594C10.9334 14.4331 11.6414 15.8778 11.8906 17.336C11.359 18.2303 9.8001 19.0682 9.37614 19.6864C8.80644 20.5171 12.4041 23.6643 13.4978 24.156C13.8138 24.2981 15.016 22.813 15.6834 22.483C15.9218 22.3652 19.3328 23.4083 20.3523 24.1288C20.5725 24.2844 21.2156 25.3703 21.2869 25.5885C21.5762 26.475 21.8354 26.839 22.7401 26.6163C24.5247 26.1767 26.2868 25.4364 27.9732 24.7098C28.4914 24.4865 29.0915 24.1151 28.9904 23.5597L28.3299 21.4273Z" fill="#D38429"/>
</g>
<path d="M19.6892 10.5721C20.9423 9.82728 22.5812 9.74088 23.8914 10.4019C25.374 11.1499 26.1533 12.7758 25.7396 14.4034C25.0165 17.2484 21.2494 17.8587 19.2945 15.8903C17.9115 14.4974 18.2219 12.3764 19.3257 10.9087C19.6842 10.432 18.8806 9.96969 18.526 10.441C17.3151 12.0511 16.9796 14.387 18.2351 16.07C19.1813 17.3384 20.7805 18.0204 22.3476 17.972C24.0815 17.9184 25.6973 16.9524 26.3953 15.3323C27.2216 13.4144 26.6382 11.1832 24.945 9.95859C23.3003 8.76939 20.9466 8.74719 19.2219 9.77206C18.71 10.0764 19.1752 10.8778 19.6892 10.5723V10.5721Z" fill="white"/>
<path d="M15.4682 5.43871C14.9207 6.09659 14.284 6.76873 13.51 7.15897C12.917 7.45805 12.6662 7.25197 12.123 7.02026C11.6636 6.82448 11.0987 6.53042 10.5876 6.52672C9.90702 6.52222 9.62613 7.25382 9.37376 7.77061C8.9783 8.58014 8.65993 9.42878 8.43342 10.3012C8.24414 11.0301 8.05275 11.7916 8.56885 12.4328C9.09841 13.091 10.1707 13.1953 10.94 13.4062C10.8268 13.2572 10.7135 13.1084 10.6 12.9594C10.5021 14.5169 11.1663 15.9544 11.4442 17.4591C11.4598 17.34 11.4754 17.2211 11.491 17.1022C11.1137 17.6892 10.4933 18.1077 9.9519 18.5313C9.58073 18.8216 9.05459 19.158 8.8962 19.628C8.64329 20.3786 9.4284 21.2265 9.87349 21.7316C10.6203 22.5797 11.4859 23.3401 12.3959 24.008C12.6797 24.2162 13.025 24.5137 13.3745 24.6025C13.8133 24.714 14.1884 24.3579 14.4915 24.0923C14.9189 23.7182 15.3236 23.1906 15.8344 22.928C15.7296 22.9819 15.7708 22.9348 15.9302 22.9631C16.148 23.0017 16.364 23.0643 16.577 23.1235C17.6573 23.4231 18.776 23.7774 19.7642 24.314C20.1955 24.5483 20.3985 24.9238 20.6414 25.3457C20.8911 25.7793 20.9838 26.3077 21.3122 26.6934C21.6554 27.0966 22.1324 27.1883 22.6396 27.1061C23.5466 26.9592 24.4558 26.6108 25.3143 26.2924C26.2887 25.9309 27.2597 25.5383 28.2066 25.109C28.8117 24.8347 29.488 24.379 29.4584 23.6323C29.4431 23.2447 29.2536 22.8453 29.1403 22.4796C29.0189 22.0875 28.8975 21.6954 28.776 21.3036C28.7364 21.4539 28.6966 21.6043 28.657 21.7543C29.3051 21.1871 29.8344 20.4724 30.3816 19.8116C30.6453 19.493 30.9067 19.1717 31.1833 18.8642C31.247 18.7936 31.4458 18.6507 31.4761 18.5572C31.4914 18.5432 31.507 18.5292 31.5223 18.5152C31.4576 18.5651 31.3787 18.5788 31.2855 18.5564C31.286 18.5537 31.4608 18.6116 31.4648 18.6137C32.0896 18.9223 32.8829 19.2856 33.5909 19.2845C34.2076 19.2835 34.4882 18.9273 34.695 18.4084C35.2401 17.0398 35.7227 15.6311 36.1329 14.2162C36.2631 13.7679 36.5117 13.1581 36.4001 12.682C36.2261 11.9417 35.3832 11.5512 34.7303 11.3549C34.3586 11.2431 33.9758 11.1749 33.5946 11.1046C33.4019 11.069 32.9143 11.0159 32.8372 10.9533C32.9378 11.0349 32.772 10.6243 32.7454 10.5321C32.6802 10.3057 32.6171 10.0787 32.5574 9.85098C32.4352 9.38492 32.3093 8.90961 32.2454 8.43113C32.1884 8.0039 32.1987 8.04538 32.455 7.76242C32.8072 7.37377 33.1773 6.98908 33.4603 6.54495C33.6722 6.21231 33.8449 5.82049 33.7969 5.41836C33.7258 4.82099 33.2087 4.44423 32.7697 4.09864C31.6754 3.23733 30.5107 2.46822 29.2802 1.81562C28.8206 1.57176 28.407 1.28166 27.8729 1.43833C27.474 1.55538 27.1789 1.85525 26.9334 2.17574C26.7074 2.47086 26.5202 2.85845 26.2267 3.09465C25.8502 3.3977 25.2113 3.36679 24.7597 3.28171C24.2396 3.18369 23.7055 3.0109 23.2026 2.84603C22.5532 2.63308 22.309 2.41009 22.1087 1.76648C21.9437 1.23701 21.7673 0.632499 21.3024 0.284802C20.8679 -0.0401743 20.3209 -0.0200945 19.8051 0.0227072C18.85 0.102234 17.8822 0.24517 16.959 0.505415C16.2454 0.706742 15.2631 1.01798 14.9854 1.79369C14.8067 2.29278 14.878 2.87245 15.0313 3.36679C15.2349 4.02202 15.8402 4.88044 15.3959 5.53144C15.0588 6.02498 15.8608 6.4892 16.1955 5.99909C16.9218 4.93513 16.0659 3.91106 15.8476 2.84075C15.662 1.93082 16.2531 1.69065 17.0173 1.45445C17.8125 1.209 18.6459 1.06924 19.4722 0.981254C19.8143 0.944793 20.299 0.837789 20.6171 0.96408C21.1171 1.1625 21.1902 1.99845 21.3547 2.44734C21.6897 3.36177 22.5963 3.64394 23.4582 3.88781C24.3924 4.15201 25.4864 4.49733 26.4326 4.05796C27.1533 3.7232 27.333 2.91843 27.9175 2.45501C28.3088 2.14483 28.8019 2.6056 29.1694 2.80905C29.761 3.13666 30.3378 3.4907 30.8977 3.86958C31.4471 4.24132 31.9927 4.63102 32.4972 5.06221C33.0009 5.49261 32.8911 5.77452 32.5292 6.26515C32.1155 6.8258 31.2948 7.3344 31.2905 8.0903C31.2855 8.94131 31.5857 9.83909 31.8153 10.6484C31.9996 11.2975 32.0886 11.7081 32.7829 11.8862C33.489 12.0674 34.2472 12.0896 34.9162 12.4053C35.0703 12.4783 35.2311 12.5655 35.3494 12.6904C35.3964 12.7401 35.5321 12.9903 35.4943 12.8331C35.5278 12.9729 35.446 13.1937 35.4011 13.3771C35.0545 14.7943 34.5405 16.1838 34.0342 17.5503C33.9534 17.768 33.8898 18.0929 33.7528 18.2842C33.8098 18.205 33.7282 18.3458 33.7137 18.3529C33.6474 18.3865 33.4162 18.3402 33.3153 18.3199C32.913 18.2396 32.5279 18.0597 32.1519 17.9011C31.9059 17.7973 31.6084 17.6229 31.3301 17.6369C30.7359 17.6665 30.19 18.5976 29.8589 18.996C29.2678 19.7081 28.7016 20.4861 28.0025 21.0981C27.8835 21.2021 27.8375 21.4003 27.8835 21.5488C27.9767 21.8492 28.0696 22.1496 28.1625 22.45C28.2694 22.7948 28.517 23.2556 28.5239 23.6173C28.5347 24.1742 27.2797 24.5069 26.8689 24.6797C26.0086 25.0414 25.1409 25.3877 24.2562 25.6858C23.817 25.8337 23.3734 25.9695 22.9255 26.0884C22.6881 26.1516 22.3045 26.3135 22.073 26.1568C21.7607 25.9457 21.6377 25.2184 21.441 24.8768C21.2111 24.4773 20.9616 24.0086 20.586 23.7269C20.2127 23.4474 19.7462 23.268 19.3193 23.0902C18.3352 22.6799 17.2985 22.3052 16.2534 22.0843C15.9337 22.0167 15.6636 21.9623 15.3671 22.1264C14.8838 22.3943 14.4828 22.8429 14.0807 23.2144C14.0115 23.2783 13.516 23.6157 13.5131 23.6878C13.5089 23.7988 13.6179 23.63 13.6763 23.7285C13.6633 23.7066 13.6055 23.7 13.5865 23.6817C13.5274 23.6244 13.4197 23.5858 13.3492 23.5414C12.9471 23.2891 12.572 22.9932 12.2085 22.6888C11.4112 22.0212 10.5585 21.2777 9.99915 20.3902C9.7085 19.9292 9.72222 19.9295 10.096 19.5989C10.6578 19.1022 11.3019 18.7014 11.8233 18.1579C12.0171 17.9561 12.2985 17.6826 12.3447 17.396C12.411 16.9833 12.1665 16.4197 12.0564 16.0202C11.7784 15.0107 11.4588 14.0181 11.5253 12.9578C11.538 12.757 11.3724 12.5623 11.1853 12.511C10.8732 12.4254 10.5612 12.3398 10.2491 12.2542C9.89487 12.157 9.40068 12.1052 9.21431 11.7419C9.03083 11.3844 9.23147 10.9078 9.32518 10.5458C9.42867 10.1456 9.55169 9.75032 9.69319 9.36193C9.84472 8.94633 10.02 8.53998 10.2175 8.14393C10.2711 8.03666 10.5762 7.43454 10.5364 7.44669C10.6715 7.40547 11.0393 7.5883 11.1663 7.63348C11.4017 7.71697 11.6359 7.80733 11.8637 7.90958C12.233 8.0755 12.5353 8.28846 12.9606 8.27287C14.2206 8.22663 15.379 6.98432 16.1214 6.09262C16.5002 5.63739 15.8484 4.97846 15.4664 5.43739L15.4682 5.43871Z" fill="white"/>
<path d="M26.2075 8.74902C26.0021 8.61956 25.6882 8.69908 25.5742 8.9152C25.4538 9.14348 25.5211 9.41112 25.7402 9.54904C25.7888 9.57969 25.8371 9.61086 25.8843 9.64363C25.9213 9.66925 25.9987 9.70677 26.0237 9.74482C26.0105 9.73478 25.9976 9.72474 25.9844 9.7147C25.9979 9.72527 26.0113 9.7361 26.0248 9.7472C26.047 9.76543 26.0691 9.78366 26.0911 9.80241C26.1346 9.83967 26.1776 9.87798 26.2194 9.91734C26.2991 9.99212 26.3754 10.0701 26.4485 10.1512C26.487 10.194 26.5245 10.2376 26.561 10.282C26.5742 10.2981 26.6103 10.3308 26.6151 10.3491C26.605 10.3361 26.5947 10.3229 26.5847 10.31C26.5953 10.3237 26.6056 10.3374 26.6156 10.3514C26.7484 10.5322 26.8653 10.7242 26.9646 10.9253C26.9899 10.9768 27.014 11.0291 27.0375 11.0814C27.0691 11.1523 27.034 11.0656 27.0309 11.0661C27.0335 11.0659 27.0668 11.1578 27.0683 11.1626C27.1087 11.2704 27.1433 11.38 27.1737 11.491C27.2378 11.7245 27.5053 11.8915 27.7431 11.8146C27.982 11.7372 28.1351 11.4952 28.0665 11.2447C27.7835 10.2141 27.1106 9.31759 26.2077 8.74875" fill="white"/>
<path d="M28.0185 13.9283C28.6143 13.9283 28.6153 13.0015 28.0185 13.0015C27.4216 13.0015 27.4216 13.9283 28.0185 13.9283Z" fill="white"/>
<path d="M20.9163 20.906C20.8067 19.8722 18.7217 19.507 18.6879 19.1662C18.6417 18.4217 18.5921 16.7598 18.8181 16.5862C19.2864 16.2261 20.4076 15.652 20.3342 15.0654C20.3081 14.8567 20.1805 14.6765 20.0538 14.5085C19.2693 13.4672 18.3635 12.5177 17.3611 11.6844C16.5744 11.4387 16.1217 12.6775 15.3514 12.617C14.581 12.5565 14.4256 12.421 13.7529 12.0405C13.3316 11.8022 12.6666 11.4556 12.5948 10.9766C12.5285 10.5356 12.5953 9.93055 12.3442 9.56225C12.1882 9.33371 11.8865 9.26739 11.6141 9.2193C10.8382 9.08244 8.40868 8.79895 8.04067 9.49593C7.74764 10.051 7.87832 10.4753 7.97415 11.3615C8.01216 11.7132 7.92874 12.0751 7.6497 12.2854C6.69274 13.0073 5.358 13.5951 4.89206 13.0683C4.76191 12.9211 3.80494 12.2257 3.60854 12.2265C3.47416 12.227 3.36514 12.3301 3.27327 12.4284C2.57554 13.1742 1.99978 14.034 1.57422 14.9627C1.39154 15.3611 1.55205 15.8343 1.93457 16.0475L2.97073 16.6256C2.61672 17.6637 2.87121 18.8288 2.7928 19.9229C2.25189 20.4725 0.981565 20.7995 0.5671 21.1697C0.0100794 21.6667 2.0436 24.5695 2.74397 25.1172C2.94645 25.2755 4.07422 24.4195 4.61328 24.3C4.80573 24.2575 7.07684 25.6124 7.68349 26.3117C7.81443 26.4626 8.08529 27.3585 8.09822 27.5279C8.14997 28.2172 8.27193 28.5252 8.96253 28.5252C10.325 28.5247 11.7244 28.3038 13.0668 28.0795C13.4791 28.0106 13.977 27.8494 14.0024 27.4317L13.9039 25.7796C14.5821 25.4422 16.3207 23.9877 16.6325 23.9169C16.8184 23.8747 18.1367 25.2615 18.5892 24.7421C18.7938 24.5072 20.9546 21.269 20.9163 20.9058V20.906ZM12.8862 20.8482C12.3099 21.3734 11.5092 21.5776 10.7363 21.5095C10.396 21.5317 10.0533 21.496 9.7215 21.3832C8.92267 21.1113 8.24131 20.5182 7.96781 19.7049C7.78592 19.1641 7.84902 18.6003 8.08397 18.1083C8.15445 17.824 8.27087 17.5511 8.43956 17.3136C8.51612 17.2058 8.6035 17.1115 8.69168 17.0182C8.62753 16.7532 8.78803 16.4877 9.04384 16.4023C9.29938 16.3173 9.56733 16.261 9.83766 16.2319C9.89468 16.2063 9.94906 16.1767 10.0071 16.1529C10.1497 16.0951 10.3057 16.1331 10.4303 16.2187C10.7548 16.2412 11.0887 16.3096 11.4137 16.4221C11.7223 16.4623 12.0238 16.5569 12.2846 16.7175C12.3522 16.75 12.4184 16.7865 12.4818 16.8285C12.9475 17.1366 13.2664 17.5971 13.4501 18.1205C13.769 19.0288 13.622 20.1773 12.886 20.8476L12.8862 20.8482Z" fill="#D38429"/>
<g opacity="0.59">
<path d="M13.9042 25.78C14.1423 25.6616 14.5116 25.4048 14.9034 25.1192C12.67 24.2901 10.5552 23.1498 8.68215 21.6848C5.81812 19.4443 3.72494 16.413 2.82816 12.9453C2.32895 13.5628 1.90525 14.2413 1.57447 14.9631C1.39179 15.3615 1.55229 15.8347 1.93482 16.0479L2.97098 16.626C2.61697 17.6641 2.87145 18.8292 2.79305 19.9233C2.25213 20.4729 0.981809 20.8 0.567344 21.1701C0.0103235 21.6671 2.04384 24.5699 2.74421 25.1176C2.94669 25.2759 4.07446 24.4199 4.61353 24.3004C4.80598 24.2579 7.07709 25.6128 7.68374 26.3121C7.81468 26.463 8.08553 27.3589 8.09847 27.5283C8.15021 28.2176 8.27217 28.5257 8.96277 28.5257C10.3252 28.5251 11.7246 28.3043 13.067 28.0799C13.4794 28.011 13.9773 27.8498 14.0026 27.4321L13.9042 25.78Z" fill="#F4A81C"/>
</g>
<path d="M9.62847 16.5523C10.6216 16.2509 11.7634 16.4591 12.5643 17.1333C13.4257 17.8583 13.7245 19.0451 13.2417 20.079C12.3246 22.0423 9.49357 21.8722 8.46427 20.1033C7.76654 18.9043 8.3629 17.5172 9.36263 16.7016C9.55798 16.5423 9.52498 16.2123 9.36263 16.0464C9.17308 15.8525 8.90065 15.8892 8.70793 16.0464C7.54532 16.9951 6.86264 18.6372 7.43867 20.0935C7.89775 21.2539 8.97931 22.1031 10.1947 22.3522C11.5604 22.6323 12.9476 22.1562 13.7686 21.0082C14.677 19.7379 14.5757 17.9994 13.5675 16.825C12.5672 15.6604 10.8346 15.2184 9.38243 15.659C8.81379 15.8316 9.05614 16.7264 9.62847 16.5526V16.5523Z" fill="white"/>
<path d="M7.41602 11.8857C6.90335 12.2614 6.30356 12.668 5.66523 12.7816C5.23202 12.8588 5.04248 12.5761 4.71407 12.3372C4.43926 12.1372 4.09765 11.8511 3.7542 11.784C3.19454 11.6746 2.81149 12.2297 2.50605 12.6067C2.09925 13.109 1.73335 13.6432 1.4295 14.2144C1.15865 14.7233 0.902312 15.2361 1.14281 15.8087C1.40759 16.4396 2.17659 16.7133 2.73731 17.0261C2.6663 16.8518 2.59555 16.6774 2.52453 16.5028C2.18531 17.6217 2.39148 18.7765 2.32997 19.9232C2.37512 19.8141 2.42026 19.7047 2.46566 19.5956C2.0871 19.9467 1.57602 20.1322 1.11218 20.342C0.767676 20.4978 0.305693 20.6643 0.10902 21.0141C-0.198265 21.5607 0.21488 22.3243 0.468311 22.807C0.857169 23.5473 1.34582 24.248 1.88172 24.8887C2.05727 25.0985 2.26398 25.3836 2.51028 25.5175C2.84502 25.6996 3.19586 25.522 3.50236 25.3669C3.85214 25.1902 4.21619 25.0036 4.5533 24.805C4.7043 24.7159 4.47384 24.7268 4.6428 24.7912C4.82072 24.8591 4.99469 24.9725 5.15969 25.0665C5.84606 25.4583 6.71512 25.9056 7.2365 26.5133C7.72937 27.088 7.48175 27.9718 7.92077 28.5551C8.1383 28.8442 8.46195 28.9557 8.81306 28.9831C9.57361 29.0429 10.3767 28.9308 11.1309 28.8362C11.86 28.7451 12.6137 28.6666 13.3299 28.4996C13.8336 28.3821 14.3563 28.1134 14.449 27.5548C14.5417 26.9968 14.4007 26.3434 14.3672 25.7799C14.2906 25.9133 14.2143 26.0465 14.1377 26.1799C14.7138 25.8779 15.2296 25.4523 15.7502 25.0663C15.9804 24.8956 16.2095 24.7223 16.4463 24.5611C16.5123 24.5162 16.6903 24.4422 16.7322 24.3775C16.7412 24.3727 16.7499 24.368 16.7589 24.3632C16.8674 24.3104 16.7848 24.3085 16.5113 24.3579C16.5089 24.3656 16.6541 24.4509 16.6655 24.462C17.0277 24.8113 17.6076 25.2034 18.1066 25.2985C18.5921 25.391 18.8753 25.1416 19.1354 24.778C19.7803 23.8763 20.3875 22.9304 20.936 21.9671C21.1095 21.6627 21.3724 21.2825 21.3787 20.9182C21.3883 20.3562 20.8975 19.906 20.4667 19.6289C20.0319 19.3493 19.5034 19.2156 19.0786 18.9385C19.1763 19.0022 19.0926 19.172 19.138 18.9419C19.1488 18.8867 19.1317 18.8061 19.1293 18.7498C19.1214 18.5599 19.1158 18.3699 19.1132 18.1799C19.1079 17.8108 19.1227 17.446 19.1443 17.0782C19.148 17.0182 19.1562 16.954 19.176 16.8972C19.2243 16.7593 19.0604 17.0259 19.19 16.8856C19.2916 16.7757 19.4632 16.7022 19.5865 16.6182C19.8954 16.4071 20.2172 16.1881 20.4624 15.9025C21.0276 15.2443 20.7291 14.6263 20.2555 14.0173C19.6018 13.1774 18.8753 12.397 18.0781 11.6921C17.7835 11.4315 17.5493 11.1829 17.1335 11.1893C16.8217 11.194 16.5435 11.3412 16.3009 11.524C16.0691 11.6987 15.8606 11.9705 15.5955 12.091C15.27 12.239 14.836 12.0973 14.5279 11.9457C14.213 11.7909 13.9017 11.6062 13.6037 11.421C13.4303 11.3132 13.1845 11.1805 13.0868 10.9911C12.9799 10.784 13.0216 10.4688 13.0002 10.2426C12.9081 9.27534 12.4213 8.87216 11.4868 8.73266C10.7581 8.62381 10.01 8.54824 9.27266 8.59289C8.69611 8.62777 7.96723 8.71496 7.64014 9.2624C7.44426 9.59054 7.38513 9.9961 7.40044 10.3718C7.41998 10.8487 7.7138 11.5864 7.32151 11.9584C6.88804 12.3692 7.54352 13.0239 7.97621 12.6136C8.62694 11.9969 8.37562 11.2321 8.33127 10.4413C8.29194 9.73559 8.5422 9.57311 9.20719 9.52343C9.83311 9.47667 10.4736 9.52555 11.095 9.6064C11.3094 9.63414 11.6319 9.63625 11.8199 9.74193C12.2391 9.97787 12.0551 10.7031 12.1475 11.1C12.3038 11.7713 12.9662 12.1269 13.5184 12.4408C14.1127 12.7787 14.6995 13.0945 15.407 13.0805C16.0459 13.0678 16.3814 12.5851 16.8624 12.2527C17.222 12.0043 17.3608 12.2855 17.6525 12.5536C18.0316 12.9016 18.3946 13.2667 18.7407 13.6477C19.0752 14.016 19.4147 14.3981 19.6995 14.8065C19.9783 15.2063 19.7066 15.3902 19.3648 15.6465C18.9271 15.9746 18.3933 16.1606 18.2644 16.7374C18.1251 17.3606 18.176 18.051 18.2 18.6838C18.2188 19.172 18.2243 19.5068 18.6742 19.7718C19.1158 20.032 19.6208 20.1668 20.0464 20.4611C20.1451 20.5295 20.2573 20.6064 20.3315 20.7039C20.3722 20.7573 20.4688 20.9713 20.4579 20.8849C20.4455 20.7866 20.4466 20.9045 20.4447 20.9103C20.4123 21.0009 20.3603 21.0878 20.3159 21.1732C19.8209 22.1275 19.2058 23.0313 18.6039 23.9204C18.5042 24.0676 18.4038 24.2802 18.271 24.4007C18.2156 24.4509 18.275 24.3915 18.313 24.3957C18.1966 24.383 18.0923 24.3188 17.9915 24.2641C17.5929 24.0477 17.138 23.466 16.6594 23.4554C16.1934 23.4453 15.681 23.9706 15.3368 24.2255C14.7977 24.6245 14.2655 25.0673 13.6697 25.3796C13.5335 25.4509 13.4313 25.6253 13.4403 25.7796C13.4532 25.9992 13.4664 26.2185 13.4796 26.438C13.4939 26.6793 13.6177 27.1435 13.5351 27.3704C13.4237 27.6764 12.5852 27.6928 12.3033 27.7377C11.5535 27.8576 10.8012 27.9641 10.0435 28.0196C9.72567 28.0428 8.83101 28.2365 8.62615 27.9348C8.53111 27.7947 8.5657 27.5107 8.53666 27.3532C8.50524 27.1831 8.45271 27.0151 8.40044 26.8502C8.16575 26.1072 7.80065 25.7363 7.18212 25.2766C6.54617 24.8042 5.86138 24.3508 5.1457 24.0078C4.4778 23.6879 3.98335 24.0422 3.37775 24.3788C3.23836 24.4562 3.00157 24.5249 2.89386 24.6348C2.88145 24.6404 2.86931 24.6459 2.85716 24.6515C2.6985 24.6855 2.75394 24.7186 3.02321 24.7503C3.01978 24.7537 2.90864 24.6398 2.91788 24.6533C2.72992 24.3746 2.44824 24.1355 2.24391 23.8628C1.78325 23.2482 1.30358 22.5676 1.03642 21.8419C0.993388 21.7248 0.907591 21.543 0.934783 21.4107C0.903368 21.5639 1.05727 21.393 1.1861 21.3264C1.68557 21.0672 2.23045 20.8928 2.7022 20.5803C2.86825 20.4704 3.09449 20.3343 3.19217 20.1565C3.34449 19.8791 3.27321 19.3958 3.26661 19.092C3.24945 18.298 3.18319 17.52 3.41709 16.7487C3.47543 16.5567 3.37934 16.3231 3.20431 16.2253C2.87723 16.0428 1.90864 15.7085 1.96778 15.2377C2.03034 14.7405 2.54829 14.1024 2.82944 13.7024C3.00896 13.4472 3.20167 13.2028 3.40785 12.9687C3.42923 12.9444 3.6193 12.6865 3.56545 12.7182C3.62326 12.6842 3.37749 12.6715 3.63963 12.737C4.24839 12.8892 4.56254 13.6089 5.20404 13.7135C6.13989 13.8662 7.16892 13.2089 7.88302 12.6855C8.35899 12.3367 7.89754 11.5322 7.41575 11.8852L7.41602 11.8857Z" fill="white"/>
<path d="M14.1362 16.7668C14.1932 16.826 14.2473 16.8875 14.2998 16.951C14.3175 16.9721 14.3239 16.9816 14.3033 16.9541C14.3157 16.9705 14.3278 16.9869 14.34 17.0038C14.364 17.0371 14.3875 17.0709 14.4099 17.1053C14.4551 17.1739 14.4973 17.2448 14.5364 17.3169C14.5559 17.3531 14.5747 17.3898 14.5926 17.4268C14.6016 17.4453 14.6103 17.4638 14.619 17.4825C14.6224 17.4899 14.6552 17.566 14.6388 17.5264C14.6246 17.4918 14.6483 17.551 14.6504 17.5568C14.6578 17.5758 14.6652 17.5951 14.6721 17.6146C14.6861 17.6532 14.6993 17.6923 14.7117 17.7314C14.7365 17.8099 14.7576 17.8894 14.7756 17.9695C14.7845 18.0096 14.7924 18.0501 14.7996 18.0905C14.8033 18.1108 14.8059 18.1312 14.8096 18.1513C14.8196 18.2044 14.8046 18.0976 14.8096 18.1515C14.8181 18.2387 14.8257 18.3251 14.8281 18.4128C14.8331 18.5922 14.9823 18.7647 15.1713 18.7563C15.3529 18.7481 15.52 18.6052 15.5145 18.4128C15.492 17.6181 15.1729 16.8535 14.6214 16.2809C14.4965 16.1512 14.2597 16.1459 14.1359 16.2809C14.0081 16.4202 14.0029 16.6284 14.1359 16.7665L14.1362 16.7668Z" fill="white"/>
<path d="M15.0876 20.3361C15.5293 20.3361 15.5301 19.6492 15.0876 19.6492C14.646 19.6492 14.6452 20.3361 15.0876 20.3361Z" fill="white"/>
</g>
<defs>
<clipPath id="clip0_1327_4534">
<rect width="36.4281" height="29" fill="white"/>
</clipPath>
</defs>
</svg>
