<svg width="277" height="277" viewBox="0 0 277 277" fill="none" xmlns="http://www.w3.org/2000/svg">
<g clip-path="url(#clip0_443_2436)">
<path d="M277 11H0V288H277V11Z" fill="white"/>
<path d="M238.027 140.45C246.535 124.038 255.346 99.7245 230.673 80.3279C205.999 60.9294 181.632 75.5291 170.169 86.0854C163.555 92.1757 157.534 99.2414 152.262 105.429C149.188 109.036 146.369 112.344 143.835 114.987C126.756 132.797 109.59 137.536 85.6485 144.145C76.3162 146.721 65.9545 149.581 54.1672 153.611C22.0914 164.577 17.4762 174.898 21.1906 184.489C22.3803 183.99 23.6271 183.497 24.929 183.011C46.5904 174.932 83.5086 168.838 126.348 168.838C181.048 168.838 237.938 188.604 259.224 204.438C255.978 197.913 247.559 190.918 239.851 184.515C233.577 179.302 227.774 174.482 225.621 170.627C221.311 162.911 224.184 159.422 229.05 153.511C231.727 150.259 235.008 146.275 238.027 140.45Z" fill="#F4A81C"/>
<path d="M238.343 229.727L238.053 229.735L236.777 229.762C194.231 230.584 108.162 225.151 53.5623 218.101C53.5616 218.1 53.5609 218.1 53.5598 218.1L53.5527 218.1C53.5561 218.1 53.5594 218.1 53.5623 218.101C75.4775 226.943 106.579 232.909 138.499 233C164.907 233.076 183.047 233.501 196.025 233.805C223.273 234.444 227.767 234.549 238.264 229.764L238.343 229.727Z" fill="#6D9EFF"/>
<path fill-rule="evenodd" clip-rule="evenodd" d="M128.883 176.246L129.927 176.313L128.382 201.093L127.638 202.03L126.493 201.244L128.883 176.246Z" fill="white"/>
<path d="M207.586 144.627C223.548 144.627 236.488 131.688 236.488 115.725C236.488 99.7632 223.548 86.8232 207.586 86.8232C191.624 86.8232 178.684 99.7632 178.684 115.725C178.684 131.688 191.624 144.627 207.586 144.627Z" fill="white"/>
<path fill-rule="evenodd" clip-rule="evenodd" d="M131.927 143.889C131.927 143.889 131.863 142.231 133.839 142.133C135.814 142.035 151.944 143.889 151.944 143.889C151.944 143.889 155.415 144.389 154.842 148.289C154.267 152.19 152.172 161.178 152.172 161.178C152.172 161.178 152.418 162.715 149.898 162.307C147.377 161.899 139.895 159.954 131.927 161.188C131.927 161.188 130.611 161.343 130.649 166.938L129.928 166.805C129.928 166.805 130.981 145.458 131.927 143.889Z" fill="white"/>
<path fill-rule="evenodd" clip-rule="evenodd" d="M143.766 130.691C143.133 131.37 142.595 131.973 142.248 132.409C140.593 134.491 138.375 136.464 137.479 137.972C137.479 137.972 133.515 139.779 131.927 137.9C131.927 137.9 135.569 133.124 138.458 130.991C138.458 130.991 141.264 129.609 143.766 130.691ZM146.844 127.506L143.912 126.655C143.912 126.655 146.885 124.802 148.533 124.101L149.897 124.471C149.897 124.471 148.487 125.849 146.844 127.506Z" fill="white"/>
<path fill-rule="evenodd" clip-rule="evenodd" d="M98.1724 206.96C98.1724 206.96 93.0154 205.817 91.7881 199.921C91.7881 199.921 92.728 198.22 96.4133 194.281C96.4133 194.281 101.072 191.29 100.305 186.549C100.305 186.549 95.2225 185.231 96.9222 177.51L98.0058 175.531C98.0058 175.531 96.8059 166.958 97.8223 161.883C97.8223 161.883 96.8823 155.408 100.798 154.944C100.798 154.944 102.446 154.702 102.628 154.057C102.628 154.057 100.216 147.377 107.277 144.138C114.336 140.901 119.829 146.478 119.608 152.422C119.608 152.422 118.997 156.49 116.505 158.311C116.505 158.311 121.856 161.658 124.835 166.058C124.835 166.058 128.165 169.512 129.629 168.93C129.629 168.93 134.094 168.832 133.485 170.392C132.879 171.951 132.451 174.186 125.914 174.525C125.914 174.525 119.594 173.715 117.946 173.67L116.788 173.264C116.788 173.264 118.214 176.289 116.663 179.173C115.111 182.056 113.983 183.054 114.15 183.613L117.586 199.679C117.586 199.679 117.338 202.392 120.375 201.917C123.412 201.44 122.606 203.294 122.001 203.739C121.396 204.185 116.392 208.464 112.192 203.007C107.992 197.547 107.375 196.425 107.375 196.425L98.9761 202.305C98.9761 202.305 98.3234 202.939 98.7988 204.416C98.7988 204.416 99.7066 206.601 98.1724 206.96Z" fill="white"/>
<path fill-rule="evenodd" clip-rule="evenodd" d="M175.001 118.066C173.504 84.4373 208.118 86.0739 208.192 86.0849C249.521 92.1985 239.684 144.627 207.656 146.286C207.633 146.287 176.293 147.084 175.001 118.066ZM176.188 118.026C175.286 97.771 188.635 91.1186 198.33 88.9547C198.363 88.989 198.405 89.0259 198.455 89.0655C199.121 89.5958 199.782 90.0841 200.677 90.2562C201.203 90.3574 201.711 90.5413 202.22 90.7252C202.612 90.8674 203.006 91.0093 203.407 91.1138C203.938 91.2515 204.491 91.3132 205.041 91.3749C205.201 91.3926 205.359 91.4104 205.517 91.4299C205.664 91.448 205.813 91.4488 205.961 91.4499C206.148 91.451 206.335 91.4521 206.516 91.4875C206.754 91.5345 206.99 91.6017 207.225 91.6685C207.516 91.752 207.807 91.8351 208.104 91.879C208.314 91.9104 208.533 91.8997 208.751 91.889C209.012 91.8761 209.271 91.8632 209.514 91.923C210.153 92.0796 210.773 92.32 211.391 92.5601C211.478 92.5941 211.565 92.6277 211.652 92.6613L211.791 92.7148C212.446 92.9671 213.104 93.2208 213.727 93.5403C214.324 93.8472 214.882 93.787 215.2 93.2507C215.684 92.4349 216.193 91.6741 217.272 91.5747C217.481 91.5555 217.684 91.4665 217.887 91.3779C217.98 91.3372 218.072 91.2966 218.165 91.263L218.056 91.2198C217.788 91.1145 217.52 91.0096 217.254 90.9014C217.249 90.8996 217.25 90.8863 217.251 90.8715C217.252 90.8549 217.254 90.8364 217.246 90.8312C216.603 90.3611 215.536 90.7459 215.176 91.4381C214.954 91.8643 214.526 92.2868 214.089 92.4722C213.642 92.6617 213.266 92.4268 212.868 92.1782C212.704 92.0759 212.535 91.971 212.357 91.8927C211.594 91.6648 210.907 91.4395 210.222 91.2083C210.007 91.1356 209.793 91.058 209.58 90.9805C209.124 90.815 208.668 90.6495 208.2 90.5336C207.965 90.4752 207.717 90.4796 207.467 90.4837C207.273 90.487 207.077 90.4903 206.887 90.4641C206.512 90.412 206.14 90.343 205.767 90.2736C205.354 90.1971 204.941 90.1203 204.524 90.0671C204.248 90.0316 203.966 90.0239 203.684 90.0161C203.226 90.0036 202.77 89.991 202.349 89.8606C202.195 89.8126 202.046 89.7576 201.897 89.7029C201.508 89.5593 201.122 89.4171 200.667 89.4104C200.263 89.4049 199.792 89.1271 199.48 88.8343C199.44 88.7966 199.402 88.7645 199.364 88.7375C204.273 87.7709 208.01 87.9371 208.034 87.9405C245.401 93.7253 237.709 143.231 207.656 144.788C207.635 144.789 177.4 145.255 176.188 118.026ZM91.888 201.832L91.9194 201.924C92.1137 202.492 92.4449 203.014 92.7858 203.551C92.9188 203.76 93.0532 203.972 93.1818 204.19C93.2645 204.292 93.3395 204.391 93.4119 204.487C93.5426 204.659 93.6649 204.821 93.8078 204.961C94.7186 205.849 95.7135 206.627 96.8969 207.122C96.9759 207.155 97.0782 207.136 97.1798 207.116C97.2817 207.096 97.3837 207.077 97.462 207.111C98.5242 207.58 99.5783 206.978 99.5358 205.807C99.521 205.405 99.4006 205.008 99.2795 204.608C99.1949 204.33 99.1103 204.05 99.0608 203.767C99.0102 203.473 99.0619 203.097 99.213 202.847C99.6096 202.19 100.239 201.789 100.903 201.4C101.216 201.216 101.483 200.955 101.75 200.693L101.751 200.692C101.959 200.488 102.168 200.284 102.4 200.114C102.769 199.846 103.161 199.61 103.553 199.375C103.84 199.202 104.127 199.03 104.405 198.844C104.596 198.716 104.776 198.574 104.955 198.431C105.378 198.096 105.8 197.761 106.373 197.617C107.099 197.437 107.856 197.666 108.288 198.341C108.473 198.631 108.693 198.897 108.912 199.164C109.079 199.367 109.246 199.57 109.398 199.783C109.767 200.298 110.114 200.831 110.438 201.375C110.569 201.593 110.682 201.824 110.796 202.055C110.992 202.455 111.188 202.854 111.469 203.182C111.853 203.627 112.294 204.024 112.735 204.42C113.035 204.69 113.336 204.959 113.618 205.245C114.415 206.049 115.441 206.26 116.479 206.348C117.013 206.393 117.552 206.288 118.079 206.186C118.409 206.122 118.735 206.058 119.051 206.034C119.468 206.001 119.801 205.836 120.127 205.675C120.432 205.524 120.73 205.376 121.087 205.34C121.422 205.306 121.731 205.022 122.04 204.739C122.178 204.612 122.317 204.486 122.457 204.382C123.343 203.723 123.372 202.5 122.486 201.878C122.395 201.815 122.262 201.81 122.129 201.805C121.991 201.8 121.854 201.795 121.769 201.725C121.087 201.167 120.357 201.315 119.61 201.478C118.951 201.62 118.148 200.889 118.157 200.218C118.161 199.945 118.088 199.669 118.016 199.397C117.997 199.327 117.978 199.256 117.961 199.187C117.919 199.015 117.867 198.844 117.814 198.674C117.72 198.367 117.625 198.063 117.594 197.751C117.567 197.478 117.501 197.215 117.434 196.951C117.347 196.606 117.26 196.26 117.262 195.891C117.263 195.67 117.177 195.451 117.091 195.23C117.027 195.067 116.963 194.904 116.933 194.737C116.889 194.497 116.872 194.252 116.855 194.007C116.836 193.753 116.818 193.498 116.771 193.249C116.706 192.912 116.622 192.58 116.538 192.247L116.537 192.246V192.245C116.442 191.869 116.346 191.493 116.281 191.112C116.232 190.829 116.231 190.539 116.231 190.248C116.231 190.059 116.231 189.869 116.218 189.681C116.21 189.571 116.209 189.452 116.209 189.331C116.208 188.991 116.207 188.641 116.036 188.448C115.826 188.212 115.835 187.966 115.844 187.715C115.852 187.506 115.86 187.294 115.741 187.082C115.515 186.675 115.502 186.146 115.489 185.622C115.484 185.426 115.479 185.23 115.463 185.042C115.452 184.912 115.467 184.765 115.483 184.622V184.62C115.509 184.375 115.535 184.136 115.426 183.996C115.025 183.486 115.256 182.98 115.426 182.605C115.436 182.583 115.446 182.562 115.455 182.542C115.734 181.922 116.066 181.326 116.397 180.73C116.752 180.091 117.108 179.452 117.398 178.785C117.668 178.164 117.754 177.455 117.838 176.759L117.838 176.758C117.855 176.619 117.872 176.48 117.89 176.343C117.923 176.095 117.914 175.84 117.905 175.585V175.584C117.895 175.301 117.884 175.018 117.932 174.745C117.967 174.552 118.233 174.386 118.458 174.245C118.492 174.223 118.525 174.203 118.556 174.183C118.579 174.168 118.63 174.213 118.692 174.267C118.764 174.33 118.85 174.406 118.922 174.415C119.127 174.441 119.351 174.439 119.573 174.437C120.006 174.433 120.433 174.429 120.704 174.635C121.191 175.004 121.701 174.984 122.188 174.966C122.389 174.958 122.587 174.951 122.777 174.971C123.843 175.084 124.928 175.017 126.013 174.95L126.014 174.95H126.016H126.017H126.018H126.02C126.444 174.924 126.868 174.897 127.291 174.882C127.572 174.872 127.854 174.861 128.131 174.816C129.506 174.595 130.858 174.273 131.946 173.344C132.282 173.056 132.564 172.706 132.846 172.356C132.964 172.209 133.082 172.062 133.204 171.92C133.528 171.543 133.65 171.112 133.788 170.621C134.044 169.71 133.475 168.568 132.49 168.641C132.085 168.672 131.812 168.545 131.486 168.389C131.292 168.295 131.03 168.294 130.806 168.319C130.651 168.336 130.495 168.366 130.339 168.396C129.707 168.516 129.081 168.635 128.574 167.926C128.468 167.777 128.258 167.697 128.057 167.62C127.998 167.597 127.94 167.575 127.885 167.551C127.772 167.502 127.648 167.466 127.526 167.43C127.306 167.366 127.089 167.302 126.934 167.166C126.296 166.605 125.702 165.99 125.128 165.362C124.835 165.042 124.558 164.709 124.281 164.375L124.28 164.374L124.279 164.374L124.279 164.373L124.277 164.371L124.277 164.371C123.989 164.025 123.701 163.678 123.397 163.347C122.796 162.695 122.167 162.067 121.515 161.467C120.98 160.973 120.409 160.514 119.824 160.081C119.399 159.766 118.941 159.493 118.484 159.222L118.354 159.144C117.749 158.783 117.699 158.149 117.686 157.58C117.683 157.446 117.92 157.308 118.158 157.169C118.267 157.105 118.376 157.041 118.462 156.977C118.482 156.962 118.504 156.944 118.516 156.923C118.616 156.74 118.717 156.557 118.819 156.375L118.819 156.374L118.82 156.373L118.821 156.372L118.821 156.371C119.119 155.834 119.417 155.296 119.699 154.751C119.773 154.609 119.801 154.444 119.83 154.279C119.841 154.218 119.851 154.157 119.864 154.098C119.909 153.888 119.962 153.679 120.014 153.47C120.152 152.921 120.289 152.373 120.295 151.823C120.298 151.552 120.243 151.186 120.19 150.868C120.089 150.265 119.982 149.66 119.817 149.073C119.758 148.862 119.656 148.664 119.553 148.465C119.475 148.314 119.397 148.163 119.338 148.006C119.264 147.812 119.212 147.604 119.16 147.398C119.062 147.011 118.965 146.627 118.737 146.348C118.53 146.094 118.357 145.81 118.183 145.525C117.779 144.863 117.373 144.197 116.534 143.898C116.196 143.778 115.875 143.592 115.556 143.407C115.13 143.161 114.707 142.916 114.25 142.831C113.071 142.612 111.837 142.632 110.628 142.652C109.675 142.668 108.686 142.709 107.787 142.984C107.14 143.182 106.486 143.502 105.866 143.917C105.753 143.993 105.638 144.068 105.523 144.143C104.931 144.53 104.326 144.925 103.939 145.444C103.79 145.644 103.618 145.836 103.444 146.029C102.92 146.613 102.381 147.213 102.417 148.11C101.827 148.446 101.811 149.023 101.795 149.558C101.79 149.726 101.785 149.889 101.764 150.039L101.761 150.057C101.669 150.682 101.57 151.351 101.714 152.089C101.889 152.994 102.088 153.805 102.56 154.582C102.839 155.041 103.07 155.529 102.295 155.785C102.187 155.821 102.054 155.914 102.018 156.012C101.833 156.514 101.584 156.968 101.053 157.147C100.566 157.311 100.602 157.653 100.638 157.988C100.647 158.074 100.657 158.159 100.657 158.241C100.657 158.284 101.065 158.425 101.164 158.354C101.467 158.137 101.759 157.906 102.051 157.674C102.452 157.357 102.852 157.04 103.278 156.761C103.535 156.593 103.988 156.57 104.293 156.665C104.624 156.769 104.935 156.934 105.247 157.1C105.437 157.201 105.627 157.302 105.821 157.389C106.323 157.614 106.83 157.828 107.337 158.041C107.602 158.153 107.867 158.264 108.131 158.378C108.476 158.526 108.539 158.72 108.218 158.97C108.051 159.098 107.885 159.227 107.718 159.356L107.717 159.357L107.716 159.358L107.715 159.358C107.284 159.691 106.852 160.024 106.428 160.366C105.25 161.316 104.657 162.634 104.494 164.062C104.383 165.048 104.492 166.134 104.807 167.073C105.057 167.815 105.566 168.482 106.062 169.132C106.151 169.248 106.24 169.364 106.327 169.48C106.971 170.342 107.889 170.852 108.802 171.36C109.062 171.505 109.323 171.65 109.576 171.803C110.164 172.157 110.844 172.374 111.506 172.579C111.831 172.68 112.168 172.742 112.505 172.804C112.774 172.854 113.044 172.903 113.308 172.973C113.549 173.036 113.784 173.125 114.018 173.214C114.237 173.297 114.455 173.379 114.679 173.442C115.082 173.554 115.492 173.646 115.901 173.738C116.105 173.784 116.309 173.83 116.512 173.878C116.515 173.879 116.517 173.884 116.517 173.891C116.518 173.895 116.518 173.899 116.518 173.904C116.519 173.912 116.52 173.922 116.522 173.93L116.523 173.935L116.524 173.938C116.526 173.94 116.529 173.944 116.529 173.944C116.801 174.16 117.184 175.785 117.079 176.099C116.888 176.669 116.725 177.25 116.563 177.83L116.53 177.948C116.495 178.073 116.473 178.205 116.451 178.336C116.411 178.573 116.371 178.809 116.257 179.002L116.148 179.186C115.648 180.033 115.142 180.888 114.52 181.641C113.902 182.391 113.18 183.097 112.259 183.491C112.079 183.568 111.925 183.686 111.768 183.806C111.448 184.051 111.123 184.301 110.559 184.202C110.256 184.149 109.886 184.479 109.517 184.807C109.354 184.952 109.191 185.097 109.035 185.208C108.997 185.234 108.968 185.275 108.939 185.316C108.933 185.325 108.926 185.334 108.92 185.343C108.914 185.352 108.907 185.36 108.9 185.368C108.907 185.37 108.912 185.372 108.919 185.374L108.928 185.378L108.936 185.38L108.942 185.382L108.949 185.385L108.966 185.392C109.012 185.409 109.058 185.426 109.104 185.426C109.262 185.429 109.422 185.424 109.581 185.42C109.907 185.411 110.235 185.402 110.553 185.448C110.862 185.492 111.415 185.751 111.401 185.849C111.328 186.359 111.298 186.873 111.268 187.387C111.22 188.212 111.172 189.04 110.942 189.866C110.797 190.387 110.563 190.853 110.329 191.318C110.152 191.67 109.976 192.02 109.84 192.391C109.483 193.368 108.61 194.225 107.799 194.951C107.104 195.573 106.334 196.111 105.564 196.649C105.18 196.917 104.796 197.185 104.421 197.464C103.976 197.796 103.539 198.14 103.103 198.485L103.101 198.486L103.1 198.487L103.099 198.488L103.097 198.489C102.845 198.688 102.593 198.886 102.339 199.082L102.262 199.142L102.261 199.143L102.26 199.143L102.259 199.145L102.258 199.145C101.868 199.446 101.478 199.746 101.079 200.035C100.916 200.152 100.756 200.276 100.595 200.4C100.175 200.723 99.7552 201.047 99.2861 201.265C98.5323 201.614 98.0677 202.185 98.0736 202.913C98.078 203.445 98.2224 203.975 98.3672 204.506C98.4396 204.771 98.512 205.037 98.567 205.303C98.6003 205.462 98.6025 205.628 98.6047 205.794C98.6058 205.87 98.6065 205.946 98.6106 206.022C98.4577 206.017 98.3004 206.024 98.1427 206.031C97.7874 206.047 97.4317 206.063 97.1292 205.944C96.7665 205.801 96.4386 205.574 96.1095 205.347C95.8786 205.188 95.6474 205.028 95.4033 204.897C94.5243 204.423 94.0408 203.619 93.5777 202.804C93.2468 202.221 92.9705 201.604 92.6965 200.992L92.6588 200.907C92.6525 200.893 92.6462 200.879 92.6396 200.865L92.6285 200.84C92.5199 200.602 92.3811 200.296 92.4653 200.131C92.7419 199.593 93.1053 199.09 93.4909 198.619C94.2543 197.687 95.0414 196.774 95.8288 195.86L95.8295 195.859L95.8303 195.859L95.831 195.857L95.8317 195.857L95.8328 195.855L96.1062 195.538C96.2188 195.407 96.3292 195.272 96.4397 195.137C96.7591 194.747 97.0801 194.355 97.4671 194.048C98.5271 193.209 99.377 192.22 100.121 191.097C100.701 190.221 100.928 189.341 100.712 188.326C100.698 188.261 100.741 188.185 100.783 188.109C100.803 188.074 100.823 188.038 100.838 188.003C100.659 187.958 100.479 187.912 100.3 187.867L100.292 187.865C100.105 187.817 99.9184 187.769 99.7315 187.722C99.7138 187.797 99.6894 187.873 99.6647 187.949C99.6111 188.114 99.5576 188.279 99.5742 188.438C99.7035 189.672 99.3097 190.596 98.3742 191.493C97.175 192.643 96.0744 193.897 94.9741 195.151L94.9734 195.152C94.6078 195.569 94.2421 195.986 93.8728 196.399C93.6763 196.618 93.4695 196.825 93.263 197.032C92.5561 197.739 91.857 198.438 91.6147 199.607C91.43 200.499 91.6546 201.153 91.888 201.832ZM126.368 173.605C126.057 173.629 125.746 173.652 125.432 173.67C120.704 173.944 115.348 172.544 114.97 172.369C114.558 172.178 114.107 172.07 113.656 171.962C113.477 171.919 113.298 171.876 113.121 171.828C112.968 171.787 112.815 171.748 112.661 171.71C112.421 171.651 112.18 171.591 111.944 171.518C111.308 171.322 110.675 171.113 110.047 170.893C109.821 170.814 109.603 170.703 109.399 170.578C109.249 170.486 109.096 170.397 108.942 170.309C108.515 170.063 108.088 169.816 107.734 169.49C107.383 169.167 107.128 168.73 106.879 168.301L106.856 168.263C106.818 168.197 106.78 168.132 106.741 168.067C106.467 167.606 106.218 167.12 106.018 166.627C105.176 164.552 106.23 162.311 106.673 161.591C107.233 160.68 108.275 160.179 109.126 160.025C109.855 159.893 110.819 159.863 111.702 160.168C112.31 160.378 112.84 160.695 113.366 161.012C113.679 161.2 113.991 161.386 114.318 161.55C115.416 162.1 116.4 162.814 117.375 163.52L117.489 163.604C118.052 164.012 118.535 164.527 119.02 165.043C119.318 165.359 119.616 165.677 119.933 165.971C120.425 166.425 120.955 166.839 121.485 167.251C121.61 167.349 121.736 167.447 121.861 167.545C121.992 167.648 122.121 167.755 122.251 167.862C122.643 168.186 123.037 168.511 123.48 168.737C124.041 169.024 124.645 169.229 125.247 169.433C125.441 169.499 125.634 169.565 125.826 169.633C126.291 169.799 126.761 169.955 127.239 170.073C127.292 170.086 127.345 170.099 127.398 170.113L127.4 170.113C127.774 170.208 128.16 170.306 128.53 170.276C129.606 170.188 129.656 170.15 130.552 169.469C130.6 169.432 130.65 169.394 130.703 169.354C130.812 169.271 130.992 169.212 131.119 169.238C131.86 169.393 132.621 169.58 133.102 170.198C133.207 170.332 132.957 170.876 132.738 171.102C132.697 171.144 132.656 171.186 132.615 171.229C131.961 171.905 131.321 172.568 130.371 172.958C129.547 173.297 128.766 173.49 127.901 173.514C127.388 173.529 126.879 173.567 126.368 173.605ZM102.945 153.219C102.94 153.141 102.936 153.064 102.927 152.99C102.887 152.657 102.852 152.323 102.816 151.989C102.802 151.851 102.787 151.713 102.772 151.576C102.856 150.88 102.93 150.336 103.027 149.796C103.045 149.7 103.06 149.601 103.074 149.502C103.122 149.183 103.17 148.862 103.311 148.591C103.471 148.281 103.673 147.994 103.874 147.706C104.067 147.43 104.261 147.153 104.418 146.858C104.955 145.854 105.886 145.357 106.804 144.867C107.051 144.735 107.296 144.604 107.533 144.464C108.04 144.164 108.673 144.065 109.297 143.967C109.497 143.935 109.698 143.904 109.892 143.867C110.405 143.767 110.935 143.706 111.456 143.716C112.29 143.732 113.094 143.924 113.91 144.129C115.022 144.407 115.914 144.979 116.73 145.706C116.898 145.855 116.995 146.082 117.092 146.31C117.14 146.421 117.187 146.533 117.243 146.635C117.358 146.847 117.475 147.057 117.592 147.267L117.593 147.27C117.79 147.624 117.987 147.978 118.175 148.336C118.438 148.837 118 149.399 117.422 149.43C117.018 149.451 114.027 149.704 112.947 150.651C112.026 151.458 111.802 151.768 111.441 152.268C111.379 152.354 111.313 152.447 111.238 152.548C110.973 152.907 110.748 154.553 110.892 154.992C111.018 155.376 111.19 155.744 111.363 156.112L111.364 156.113C111.502 156.408 111.64 156.703 111.755 157.006C111.837 157.223 111.857 157.463 111.876 157.704C111.885 157.813 111.894 157.922 111.909 158.029C111.803 158.026 111.697 158.027 111.59 158.028C111.349 158.031 111.107 158.034 110.875 157.987C110.618 157.934 110.369 157.837 110.121 157.74L110.119 157.739C110.009 157.696 109.899 157.652 109.787 157.613L109.48 157.505C109.114 157.375 108.747 157.246 108.381 157.117L108.354 157.107L107.622 156.849C107.466 156.794 107.309 156.743 107.152 156.693C106.805 156.581 106.458 156.468 106.131 156.313C104.9 155.729 103.749 155.022 103.058 153.786C102.969 153.626 102.957 153.421 102.945 153.219ZM115.643 193.318C115.719 193.633 115.795 193.948 115.865 194.264C115.876 194.316 115.841 194.377 115.807 194.439C115.791 194.467 115.775 194.496 115.764 194.523C115.865 195.101 115.962 195.528 116.07 195.951C116.147 196.251 116.227 196.551 116.306 196.851V196.852C116.458 197.425 116.61 197.998 116.745 198.575C116.819 198.896 116.855 199.243 116.824 199.569C116.739 200.446 117.752 202.349 118.559 202.48C119.109 202.57 119.674 202.562 120.239 202.553C120.59 202.548 120.941 202.543 121.289 202.561C121.562 202.575 121.859 202.703 122.078 202.868C122.147 202.92 122.059 203.322 121.932 203.461C121.633 203.787 121.29 204.085 120.923 204.331C119.625 205.205 118.142 205.192 116.665 205.141C115.359 205.097 114.168 204.797 113.376 203.608C113.004 203.05 112.61 202.505 112.216 201.961C111.973 201.625 111.73 201.288 111.492 200.949C111.293 200.664 111.099 200.375 110.905 200.087C110.667 199.734 110.43 199.38 110.182 199.034C109.996 198.773 109.797 198.518 109.599 198.264C109.173 197.716 108.747 197.168 108.439 196.561C108.278 196.245 108.601 195.538 108.897 195.164C109.212 194.766 109.569 194.4 109.925 194.034L109.926 194.033L109.927 194.033C110.334 193.614 110.742 193.196 111.087 192.731C111.252 192.506 111.31 192.198 111.367 191.893C111.427 191.571 111.487 191.252 111.672 191.034C112.141 190.481 112.148 189.865 112.154 189.26C112.157 188.999 112.16 188.739 112.199 188.488C112.258 188.123 112.312 187.756 112.366 187.389C112.479 186.619 112.592 185.848 112.744 185.089C112.8 184.81 113.098 184.575 113.385 184.348C113.48 184.273 113.575 184.198 113.659 184.123C113.696 184.089 113.989 184.224 114.027 184.329C114.156 184.684 114.254 185.057 114.307 185.431C114.369 185.877 114.421 186.325 114.474 186.773V186.774L114.474 186.775L114.475 186.777C114.543 187.363 114.612 187.95 114.703 188.532C114.751 188.835 114.835 189.132 114.919 189.429C114.992 189.69 115.066 189.951 115.115 190.217C115.164 190.481 115.187 190.751 115.211 191.02C115.235 191.301 115.26 191.582 115.313 191.858C115.408 192.347 115.526 192.833 115.643 193.318ZM114.783 158.013C114.497 158.097 114.027 157.865 113.76 157.637C113.524 157.434 113.347 157.162 113.17 156.889C113.093 156.772 113.017 156.655 112.936 156.543C112.864 156.435 112.792 156.332 112.723 156.233C112.499 155.911 112.3 155.626 112.189 155.311C112.122 155.119 112.121 154.905 112.121 154.69C112.121 154.518 112.121 154.345 112.086 154.181C111.926 153.422 112.336 152.948 112.759 152.459C112.821 152.387 112.883 152.315 112.944 152.241C113.434 151.65 114.037 151.212 114.702 150.879C115.084 150.688 115.546 150.609 115.978 150.581C116.257 150.562 116.539 150.575 116.821 150.587C117.228 150.605 117.633 150.623 118.023 150.548C118.457 150.465 118.594 150.671 118.738 150.903C118.872 151.119 118.955 151.399 118.962 151.655C118.982 152.328 118.959 153.004 118.923 153.677C118.921 153.73 118.863 153.778 118.803 153.827C118.745 153.876 118.686 153.925 118.677 153.981C118.467 155.27 117.678 156.24 116.785 157.068C116.266 157.55 115.488 157.804 114.783 158.013ZM124.045 167.598C124.038 167.593 123.976 167.664 123.94 167.7C123.828 167.603 123.719 167.509 123.613 167.416C123.175 167.036 122.78 166.692 122.366 166.373C122.261 166.292 122.134 166.239 122.007 166.187C121.868 166.129 121.73 166.072 121.623 165.979C121.259 165.665 120.907 165.336 120.555 165.009C120.256 164.731 119.958 164.453 119.653 164.183C119.028 163.632 118.386 163.098 117.738 162.573C117.602 162.463 117.468 162.351 117.333 162.239C116.874 161.856 116.413 161.473 115.906 161.169C115.426 160.88 114.915 160.645 114.403 160.409C114.094 160.266 113.784 160.124 113.481 159.969C113.146 159.798 112.831 159.587 112.517 159.377C112.469 159.345 112.422 159.313 112.375 159.282C112.367 159.277 112.471 159.009 112.539 159.001C112.785 158.971 113.035 158.927 113.286 158.883C113.931 158.769 114.58 158.654 115.176 158.781C116.019 158.961 116.871 159.264 117.669 159.813C118.986 160.72 120.149 161.757 121.255 162.882C122.47 164.118 123.668 165.37 124.866 166.623L125.305 167.081C125.835 167.635 126.35 168.204 126.865 168.774C126.912 168.826 126.945 168.958 126.913 169C126.809 169.137 126.628 169.375 126.556 169.35C126.317 169.265 126.101 169.108 125.891 168.955L125.853 168.928C125.536 168.698 125.221 168.465 124.907 168.232C124.62 168.02 124.333 167.808 124.045 167.598ZM261.718 204.922C261.581 204.928 261.437 204.948 261.292 204.969C260.974 205.014 260.656 205.059 260.418 204.942C260.404 204.935 260.365 204.916 260.302 204.884L260.286 204.876L260.283 204.874C257.9 203.672 225.77 187.463 192.994 177.489C164.582 168.844 134.741 166.396 133.465 166.292L133.428 166.289C133.292 166.277 163.753 165.522 193.442 174.425C227.574 184.661 261.576 204.751 261.718 204.922ZM155.235 148.237V148.236L155.236 148.227L155.236 148.22C155.272 147.891 155.308 147.558 155.349 147.22C155.326 147.129 155.305 147.04 155.284 146.954C155.188 146.551 155.101 146.187 154.964 145.842C154.951 145.81 154.939 145.778 154.927 145.746L154.908 145.699C154.699 145.159 154.49 144.618 153.789 144.45C153.635 144.412 153.503 144.294 153.369 144.173C153.259 144.074 153.147 143.973 153.02 143.916C152.649 143.749 152.246 143.633 151.844 143.562C151.642 143.527 151.434 143.521 151.225 143.516C151.02 143.511 150.815 143.506 150.616 143.472C150.257 143.411 149.9 143.333 149.544 143.257C148.995 143.138 148.448 143.02 147.893 142.959C147.679 142.935 147.466 142.915 147.253 142.895C146.658 142.839 146.063 142.782 145.47 142.657C144.92 142.54 144.348 142.524 143.778 142.508C143.596 142.502 143.413 142.497 143.232 142.489C143.149 142.485 143.064 142.513 142.978 142.54C142.884 142.57 142.79 142.6 142.702 142.587C142.073 142.492 141.446 142.378 140.82 142.263C140.66 142.234 140.5 142.205 140.34 142.176C140.062 142.126 139.785 142.13 139.504 142.134C139.191 142.139 138.874 142.144 138.546 142.073C137.983 141.951 137.396 141.947 136.805 141.942C136.407 141.939 136.008 141.936 135.612 141.897C134.794 141.817 133.966 141.836 133.138 141.855C132.8 141.863 132.461 141.871 132.124 141.872C131.625 141.873 131.004 142.449 130.969 142.938C130.958 143.076 130.966 143.227 130.974 143.379V143.38V143.381C130.99 143.701 131.006 144.02 130.857 144.208C130.479 144.687 130.53 145.2 130.582 145.717C130.624 146.14 130.667 146.565 130.473 146.973C130.28 147.377 130.305 147.862 130.329 148.348C130.341 148.584 130.353 148.821 130.339 149.048C130.317 149.43 130.282 149.812 130.248 150.195C130.181 150.944 130.114 151.693 130.135 152.446C130.138 152.548 130.165 152.65 130.192 152.753C130.225 152.881 130.258 153.01 130.243 153.133C130.178 153.658 130.099 154.182 130.02 154.705V154.706L130.019 154.707V154.709L130.019 154.71C129.953 155.148 129.886 155.587 129.828 156.026C129.786 156.342 129.789 156.659 129.79 156.977C129.793 157.385 129.796 157.795 129.706 158.212C129.602 158.695 129.6 159.195 129.598 159.7C129.596 160.081 129.595 160.464 129.549 160.845C129.491 161.335 129.501 161.829 129.511 162.325C129.523 162.994 129.536 163.666 129.383 164.336C129.289 164.749 129.263 165.178 129.238 165.608C129.222 165.884 129.206 166.16 129.171 166.432C129.158 166.533 129.094 166.646 129.035 166.75C128.964 166.875 128.899 166.988 128.937 167.055C129.055 167.267 129.336 167.43 129.583 167.521C130.254 167.769 131.159 167.443 131.197 166.965C131.214 166.752 131.239 166.537 131.263 166.323C131.328 165.76 131.392 165.197 131.324 164.651C131.259 164.143 131.375 163.672 131.49 163.203C131.587 162.806 131.684 162.411 131.671 161.997C131.667 161.87 131.821 161.628 131.909 161.624C133.056 161.575 134.204 161.547 135.353 161.54C135.762 161.538 136.171 161.55 136.58 161.562C137.03 161.574 137.48 161.587 137.929 161.581C138.401 161.576 138.872 161.556 139.344 161.535C140.106 161.503 140.867 161.471 141.626 161.498C142.103 161.514 142.577 161.611 143.051 161.707C143.381 161.774 143.712 161.841 144.045 161.882C144.251 161.907 144.458 161.912 144.665 161.917C145.002 161.925 145.34 161.932 145.679 162.027C145.878 162.083 146.094 162.076 146.311 162.069C146.512 162.063 146.714 162.056 146.903 162.1C147.212 162.172 147.513 162.281 147.814 162.39C148.072 162.484 148.331 162.577 148.595 162.647C148.897 162.728 149.209 162.769 149.521 162.811C149.678 162.832 149.835 162.853 149.992 162.879C150.13 162.902 150.275 162.943 150.42 162.984C150.734 163.072 151.046 163.16 151.289 163.066C151.768 162.882 152.237 162.467 152.517 162.027C152.8 161.58 152.916 161.011 153.025 160.473L153.041 160.393C153.075 160.229 153.057 160.045 153.04 159.866C153.016 159.63 152.994 159.4 153.088 159.227C153.373 158.704 153.448 158.146 153.522 157.589C153.559 157.316 153.596 157.043 153.657 156.774C153.687 156.646 153.671 156.496 153.656 156.35C153.637 156.157 153.618 155.971 153.704 155.856C154.091 155.343 154.147 154.758 154.202 154.171C154.237 153.802 154.272 153.432 154.39 153.081C154.553 152.595 154.646 152.072 154.739 151.549C154.78 151.323 154.82 151.095 154.866 150.872C155.043 150.014 155.137 149.14 155.235 148.237ZM152.43 157.355C152.326 157.888 152.223 158.417 151.986 158.912C151.974 159.024 151.966 159.127 151.959 159.222C151.94 159.478 151.925 159.678 151.84 159.842C151.709 160.096 151.692 160.39 151.675 160.684C151.646 161.164 151.618 161.643 151.094 161.939C151.071 161.952 151.048 161.965 151.024 161.979C150.857 162.076 150.664 162.187 150.516 162.155C150.365 162.121 150.223 162.042 150.082 161.963C149.933 161.88 149.785 161.797 149.627 161.767C149.348 161.715 149.063 161.693 148.778 161.671C148.451 161.645 148.125 161.62 147.808 161.549C147.538 161.489 147.279 161.381 147.02 161.272C146.756 161.162 146.492 161.051 146.218 160.992C145.868 160.916 145.507 160.89 145.146 160.863C144.866 160.843 144.584 160.822 144.308 160.779C141.938 160.403 139.559 160.459 137.18 160.516C135.754 160.55 134.329 160.583 132.905 160.524C132.412 160.503 131.998 160.476 131.962 159.847C131.949 159.62 131.908 159.384 131.868 159.147C131.784 158.661 131.701 158.177 131.862 157.792C132.2 156.983 132.16 156.183 132.12 155.386C132.103 155.052 132.087 154.718 132.098 154.384C132.205 151.242 132.233 148.097 132.258 144.953C132.258 144.906 132.258 144.861 132.258 144.816C132.259 144.301 132.26 143.824 132.639 143.395C132.857 143.149 133.05 143.057 133.387 143.081C133.783 143.11 134.181 143.115 134.579 143.121C135.03 143.127 135.481 143.133 135.929 143.173C136.378 143.213 136.825 143.283 137.272 143.353C137.742 143.427 138.212 143.501 138.685 143.539C138.988 143.564 139.303 143.541 139.616 143.52H139.617C140.103 143.485 140.585 143.451 141.013 143.593C141.878 143.882 142.752 143.903 143.623 143.923C144.075 143.934 144.526 143.945 144.976 143.993C145.325 144.03 145.692 144.003 146.056 143.975C146.603 143.934 147.142 143.893 147.602 144.075C148.357 144.374 149.111 144.38 149.855 144.385C150.15 144.388 150.443 144.39 150.734 144.41C151.96 144.497 153.024 144.847 153.704 145.744C154.099 146.266 154.479 147.129 153.982 147.939C153.939 148.011 153.95 148.114 153.962 148.219C153.968 148.278 153.975 148.337 153.972 148.392C153.957 148.652 153.96 148.92 153.963 149.187C153.97 149.8 153.976 150.414 153.77 150.945C153.572 151.455 153.478 151.978 153.383 152.5C153.304 152.938 153.225 153.375 153.085 153.801C152.988 154.099 152.99 154.435 152.992 154.767C152.994 155.143 152.997 155.516 152.855 155.829C152.632 156.32 152.531 156.839 152.43 157.355ZM130.492 160.651C130.472 160.631 130.451 160.61 130.436 160.594C130.719 160.622 131.039 160.68 131.106 160.842C131.18 161.02 131.169 161.232 131.158 161.444C131.154 161.535 131.149 161.625 131.151 161.713C131.13 161.713 131.106 161.716 131.081 161.719C131.028 161.726 130.975 161.733 130.952 161.709C130.919 161.676 130.896 161.627 130.873 161.579C130.845 161.518 130.817 161.459 130.772 161.443C130.244 161.254 130.23 161.22 130.575 160.748C130.58 160.74 130.536 160.696 130.492 160.651ZM188.578 218.389C188.761 218.483 188.942 218.576 189.124 218.666C189.261 218.734 189.404 218.791 189.547 218.848C189.783 218.943 190.017 219.037 190.22 219.178C190.471 219.351 190.682 219.585 190.891 219.817L190.923 219.852L190.946 219.878L190.975 219.909C190.99 219.927 191.007 219.944 191.023 219.962C191.037 219.977 191.05 219.992 191.064 220.006L191.09 220.034C191.12 220.067 191.099 220.22 191.074 220.228C191.015 220.246 190.952 220.27 190.889 220.294C190.714 220.361 190.534 220.43 190.4 220.38C190.181 220.298 189.954 220.232 189.728 220.165C189.056 219.968 188.384 219.771 187.883 219.155C187.477 218.653 186.914 218.238 186.344 217.926C186.087 217.787 185.618 217.992 185.513 218.418C185.246 219.493 182.324 223.755 177.95 223.755C173.576 223.755 166.695 223.304 164.866 221.108C162.295 218.023 163.286 212.13 163.381 211.563L163.386 211.531C163.417 211.339 163.275 211.096 163.154 210.915C163.117 210.86 162.856 210.892 162.746 210.961C162.409 211.174 162.081 211.401 161.753 211.628L161.749 211.63L161.734 211.641C161.684 211.675 161.635 211.71 161.585 211.744C161.508 211.798 161.43 211.851 161.351 211.904C161.274 211.957 161.196 212.011 161.118 212.065L161.073 212.097L161.009 212.141L160.904 212.215L160.899 212.217C160.491 212.503 160.083 212.79 159.648 213.027C159.516 213.101 159.296 213.029 159.091 212.963C159.03 212.943 158.97 212.923 158.914 212.908C158.798 212.876 158.688 212.819 158.579 212.763C158.529 212.737 158.479 212.712 158.429 212.688C158.518 212.609 158.605 212.525 158.693 212.442C158.886 212.257 159.08 212.072 159.299 211.926C159.596 211.728 159.907 211.552 160.218 211.376C160.445 211.247 160.672 211.119 160.893 210.982C161.467 210.628 162.031 210.258 162.589 209.881C162.657 209.835 162.726 209.79 162.795 209.744C163.08 209.557 163.37 209.367 163.593 209.121C164.539 208.076 165.603 207.189 166.706 206.307C167.219 205.899 167.781 205.618 168.34 205.339C168.733 205.143 169.124 204.948 169.495 204.71C169.756 204.543 170.087 204.488 170.418 204.433C170.601 204.402 170.784 204.371 170.956 204.322C171.289 204.226 171.62 204.121 171.95 204.015C172.195 203.937 172.44 203.858 172.686 203.784C172.756 203.763 172.834 203.766 172.911 203.769C172.936 203.769 172.961 203.77 172.986 203.77C173.291 203.77 173.596 203.762 173.901 203.754C174.618 203.735 175.335 203.715 176.038 203.802C176.479 203.857 176.9 204.063 177.322 204.27C177.511 204.362 177.701 204.455 177.892 204.534C177.882 204.551 177.873 204.572 177.864 204.593C177.846 204.634 177.829 204.675 177.802 204.683C176.787 204.964 175.797 205.13 174.758 204.652C174.437 204.504 174.007 204.558 173.606 204.608C173.526 204.619 173.447 204.629 173.37 204.637C172.995 204.677 172.626 204.768 172.259 204.86C172.176 204.881 172.094 204.901 172.011 204.921C171.962 204.933 171.914 204.944 171.865 204.955C171.836 204.961 171.808 204.967 171.78 204.974C171.496 205.037 171.209 205.101 170.952 205.222C170.023 205.659 169.102 206.122 168.198 206.611C167.898 206.773 167.611 206.958 167.325 207.143L167.324 207.144C167.064 207.312 166.804 207.479 166.535 207.629C166.386 207.712 166.226 207.777 166.066 207.841C165.651 208.008 165.237 208.175 165.036 208.659C165.02 208.697 164.972 208.721 164.925 208.745C164.915 208.751 164.904 208.756 164.895 208.762C164.885 208.767 164.875 208.773 164.866 208.779C164.972 208.782 165.08 208.792 165.187 208.802C165.429 208.825 165.671 208.849 165.89 208.786C166.259 208.683 166.61 208.514 166.962 208.346C167.004 208.326 167.046 208.306 167.088 208.286L167.127 208.267C167.192 208.236 167.257 208.206 167.322 208.177C167.496 208.098 167.668 208.012 167.84 207.927C168.174 207.761 168.507 207.596 168.856 207.476C169.064 207.406 169.288 207.392 169.514 207.378C169.675 207.368 169.837 207.359 169.993 207.328C170.285 207.272 170.573 207.195 170.861 207.117C171.007 207.078 171.153 207.039 171.299 207.003C171.369 206.986 171.445 206.981 171.519 206.981C171.831 206.981 172.146 206.997 172.462 207.012C173.218 207.05 173.973 207.088 174.67 206.903C174.952 206.829 175.205 206.853 175.453 206.877C175.655 206.896 175.854 206.915 176.064 206.881C176.467 206.813 176.923 207.001 177.359 207.179L177.435 207.21C177.465 207.222 177.494 207.234 177.523 207.245C177.55 207.257 177.578 207.267 177.605 207.278C177.623 207.285 177.642 207.292 177.66 207.299C178.137 207.48 178.638 207.674 179.031 207.984C179.492 208.35 179.913 208.765 180.335 209.18C180.513 209.355 180.691 209.53 180.873 209.702C180.839 209.737 180.8 209.784 180.761 209.831C180.679 209.932 180.596 210.033 180.559 210.018C180.384 209.948 169.502 208.589 165.251 210.915C163.709 211.759 165.128 217.886 165.246 218.399L165.251 218.418C165.89 221.191 175.851 222.789 179.642 222.155C184.204 221.392 184.478 216.623 184.567 215.076C184.582 214.805 184.592 214.633 184.618 214.599C184.863 214.285 185.253 214.117 185.6 214.408C185.765 214.545 185.875 214.813 185.903 215.033C185.928 215.241 185.993 215.44 186.057 215.633C186.107 215.786 186.157 215.936 186.184 216.084C186.268 216.553 186.57 216.846 186.874 217.143C187.087 217.351 187.302 217.56 187.445 217.831C187.849 218.016 188.217 218.205 188.578 218.389ZM76.7335 189.277C76.5906 189.245 76.448 189.213 76.3527 189.266C76.0203 189.451 61.8889 195.774 52.0222 190.365C51.9014 190.298 51.7274 190.209 51.5195 190.101C50.2844 189.462 47.8372 188.197 47.9839 187.481C48.3831 185.529 53.9671 182.846 54.6932 182.498C54.7405 182.475 54.767 182.462 54.7704 182.46C54.739 182.41 54.7105 182.351 54.6817 182.293C54.6186 182.162 54.5554 182.031 54.4616 182.004C54.192 181.924 53.8769 181.913 53.5985 181.966C53.2731 182.029 49.7319 182.818 49.1114 183.211C48.4592 183.625 46.6746 185.799 46.7071 186.501C46.7215 186.801 46.6214 187.105 46.5209 187.411C46.4685 187.571 46.4157 187.732 46.3787 187.894C46.3573 187.987 46.3533 188.09 46.3492 188.192C46.3425 188.353 46.3359 188.512 46.2609 188.63C46.1793 188.759 46.0829 188.966 45.9658 189.217C45.7365 189.71 45.4277 190.371 44.9967 190.943C44.6735 191.373 44.234 191.733 43.9001 192.007C43.7007 192.171 43.5386 192.304 43.4614 192.402C43.4152 192.461 43.3543 192.52 43.2915 192.58C43.119 192.747 42.9362 192.924 43.0248 193.136C43.1445 193.422 43.5663 193.281 43.7927 193.206L43.7975 193.205C44.1277 193.096 44.4416 192.885 44.7112 192.657C45.089 192.338 45.4451 191.985 45.7634 191.607C46.0899 191.219 46.4083 190.809 46.6417 190.365C46.8991 189.871 47.4686 189.667 47.9839 190.021C62.4724 199.984 76.1437 190.487 76.7823 189.92C76.8698 189.842 76.8853 189.684 76.9008 189.525C76.9078 189.452 76.9152 189.379 76.9293 189.313C76.8672 189.307 76.8004 189.292 76.7335 189.277ZM142.166 133.274C141.881 133.56 141.597 133.841 141.314 134.12C140.604 134.821 139.908 135.508 139.25 136.23C139.019 136.484 138.875 136.818 138.731 137.151C138.668 137.295 138.606 137.439 138.537 137.576C138.165 138.314 137.615 138.592 136.649 139.011C136.09 139.253 135.505 139.485 134.988 139.383C134.625 139.313 134.261 139.318 133.902 139.323C133.504 139.329 133.112 139.335 132.736 139.236C132.279 139.116 131.777 138.723 131.547 138.312C131.347 137.955 131.571 137.493 131.969 137.11C132.408 136.687 132.787 136.202 133.166 135.717C133.385 135.436 133.604 135.155 133.835 134.886C134.082 134.599 134.326 134.31 134.571 134.02L134.573 134.018C135.384 133.059 136.195 132.099 137.082 131.217C137.815 130.487 138.727 130.017 139.802 129.715C140.78 129.44 141.528 129.507 142.402 129.882C142.729 130.021 143.105 130.041 143.482 130.061C143.666 130.07 143.851 130.08 144.029 130.104C144.6 130.179 144.937 130.716 144.57 130.978C144.246 131.209 143.64 131.436 143.369 131.286C141.88 130.46 140.395 130.656 138.937 131.21C138.549 131.357 138.227 131.696 137.911 132.027C137.81 132.133 137.709 132.239 137.608 132.337C136.827 133.092 136.05 133.85 135.309 134.644C135.023 134.951 134.777 135.296 134.532 135.642C134.441 135.77 134.351 135.898 134.258 136.024C134.196 136.107 134.135 136.191 134.073 136.274C133.76 136.696 133.448 137.118 133.157 137.553C132.941 137.878 132.969 137.939 133.308 138.047C134.151 138.316 134.975 138.263 135.814 137.958C136.838 137.585 137.427 136.804 138.039 135.993L138.04 135.991C138.114 135.892 138.189 135.794 138.265 135.695C138.764 135.045 139.369 134.477 139.975 133.909C140.239 133.662 140.503 133.414 140.758 133.159C140.803 133.115 140.849 133.071 140.895 133.028C140.977 132.95 141.058 132.873 141.133 132.789C141.505 132.372 141.879 131.971 142.51 132.005C142.539 132.007 142.568 131.971 142.599 131.932C142.622 131.903 142.647 131.872 142.674 131.854C142.714 131.828 142.762 131.815 142.81 131.802C142.831 131.796 142.852 131.79 142.873 131.784C142.87 131.805 142.868 131.827 142.867 131.848C142.863 131.896 142.86 131.945 142.84 131.985C142.632 132.403 142.417 132.819 142.166 133.274ZM147.783 127.337C148.835 126.342 149.894 125.341 150.611 123.989C150.438 123.931 150.263 123.918 150.09 123.905C150.009 123.899 149.928 123.892 149.847 123.882C149.713 123.864 149.577 123.83 149.442 123.796C149.206 123.737 148.971 123.678 148.747 123.706C148.331 123.76 147.901 123.93 147.54 124.152C147.01 124.478 146.446 124.736 145.882 124.996C145.048 125.378 144.213 125.762 143.48 126.362C143.279 126.527 143.18 126.711 143.086 126.887C143.01 127.028 142.937 127.164 142.816 127.28C142.876 127.292 142.936 127.303 142.996 127.314C143.13 127.338 143.264 127.363 143.395 127.397C143.707 127.481 144.018 127.567 144.328 127.653C144.593 127.727 144.857 127.8 145.122 127.871C145.193 127.891 145.265 127.911 145.336 127.932C145.565 127.997 145.793 128.063 146.026 128.088C146.089 128.095 146.157 128.104 146.228 128.114C146.533 128.156 146.882 128.204 147.024 128.065C147.273 127.819 147.528 127.578 147.783 127.337ZM147.828 125.124C147.839 125.128 147.849 125.132 147.859 125.135C148.031 125.008 148.281 124.974 148.355 125.073C148.454 125.204 148.503 125.545 148.422 125.611C147.901 126.035 147.357 126.44 146.78 126.782C146.559 126.913 146.227 126.893 145.95 126.874C145.864 126.868 145.698 126.602 145.732 126.523C145.745 126.492 145.758 126.459 145.772 126.424L145.773 126.421C145.887 126.144 146.033 125.786 146.204 125.764C146.732 125.695 147.125 125.43 147.53 125.158C147.569 125.132 147.608 125.105 147.648 125.079C147.675 125.06 147.73 125.084 147.786 125.107L147.805 125.115C147.813 125.118 147.82 125.121 147.828 125.124ZM172.275 175.839C170.638 175.645 169.019 175.645 167.405 175.645H167.403C166.906 175.645 166.409 175.644 165.913 175.639C165.607 175.635 165.259 175.573 165.013 175.412C164.866 175.317 164.809 174.961 164.851 174.75C164.878 174.615 165.161 174.437 165.326 174.441C165.644 174.447 166.181 174.421 166.827 174.391C168.364 174.318 170.522 174.216 171.831 174.441C174.837 174.956 176.394 176.874 176.304 176.866C176.165 176.854 176.024 176.848 175.882 176.842C175.522 176.826 175.16 176.81 174.837 176.693C174.588 176.602 174.346 176.494 174.102 176.384C173.531 176.128 172.954 175.869 172.275 175.839ZM155.143 121.684C155.725 121.452 155.748 121.108 155.196 120.779C155.038 120.823 154.898 120.872 154.767 120.918C154.615 120.972 154.474 121.022 154.329 121.054C154.014 121.124 153.698 121.187 153.382 121.25C152.902 121.345 152.422 121.44 151.949 121.561C151.78 121.603 151.535 121.883 151.556 122.019C151.592 122.256 151.751 122.48 151.901 122.691C151.916 122.713 151.932 122.735 151.948 122.757C151.976 122.796 152.177 122.737 152.285 122.691C152.421 122.634 152.555 122.57 152.689 122.505C152.905 122.401 153.122 122.297 153.347 122.221C153.598 122.137 153.855 122.069 154.112 122.001C154.461 121.908 154.809 121.816 155.143 121.684ZM156.877 119.862C156.885 119.374 156.888 119.374 157.592 119.254L157.664 119.242C157.813 119.216 157.955 119.155 158.098 119.093C158.215 119.042 158.333 118.99 158.455 118.959C158.517 118.943 158.711 119.131 158.696 119.182C158.687 119.214 158.677 119.248 158.668 119.283C158.603 119.514 158.522 119.806 158.398 119.832C158.26 119.861 158.122 119.931 157.984 120.001C157.628 120.181 157.267 120.364 156.877 119.862ZM160.95 118.006C161.007 118 161.064 117.993 161.118 117.99C161.542 117.913 161.554 117.649 161.565 117.392C161.57 117.279 161.575 117.168 161.615 117.075C161.553 117.086 161.489 117.095 161.426 117.103C161.283 117.123 161.14 117.143 161.008 117.193C160.981 117.203 160.951 117.214 160.92 117.225C160.712 117.301 160.456 117.395 160.416 117.534C160.257 118.084 160.607 118.045 160.95 118.006ZM165.793 116.184L165.768 116.195C165.641 116.253 165.532 116.303 165.437 116.283C165.303 116.255 165.176 116.193 165.048 116.132C164.994 116.105 164.94 116.08 164.886 116.056C164.917 116.047 164.948 116.038 164.979 116.028C165.022 116.015 165.064 116.002 165.106 115.989L165.107 115.988C165.277 115.936 165.447 115.883 165.621 115.848C165.876 115.796 165.936 115.869 165.856 116.156C165.835 116.165 165.814 116.175 165.793 116.184ZM191.159 95.6008C191.193 95.7375 191.227 95.8771 191.266 96.0193C191.306 96.1578 191.352 96.2723 191.395 96.3772C191.43 96.4639 191.462 96.5445 191.487 96.6276C191.79 97.6288 191.913 98.6504 191.891 99.6997C191.885 99.9283 191.94 100.158 191.995 100.387C192.038 100.562 192.08 100.738 192.096 100.914C192.115 101.133 192.11 101.358 192.106 101.583C192.097 101.983 192.089 102.381 192.219 102.729C192.423 103.277 192.375 103.805 192.328 104.319C192.319 104.417 192.31 104.515 192.303 104.611C192.241 105.444 191.92 106.166 191.039 106.632C190.787 106.765 190.535 106.802 190.287 106.838C190.065 106.87 189.847 106.901 189.633 107.001C189.342 107.137 189.026 107.183 188.704 107.23C188.297 107.291 187.88 107.352 187.497 107.599C187.271 107.744 186.97 107.77 186.669 107.796C186.377 107.821 186.085 107.846 185.858 107.978C185.343 108.277 184.982 108.248 184.564 107.939C184.372 107.798 184.184 107.651 183.995 107.505C183.821 107.37 183.647 107.235 183.471 107.103C183.264 106.95 183.052 106.802 182.832 106.669C182.598 106.528 182.314 106.451 182.047 106.379C181.796 106.312 181.559 106.248 181.394 106.138C180.936 105.834 180.568 105.949 180.209 106.061C180.04 106.115 179.872 106.167 179.699 106.175C179.559 106.181 179.428 106.393 179.297 106.605C179.238 106.701 179.178 106.797 179.118 106.874C179.211 106.921 179.308 106.985 179.405 107.049C179.619 107.192 179.834 107.334 180.001 107.291C180.052 107.278 180.101 107.265 180.149 107.252C180.526 107.15 180.853 107.062 181.242 107.318C181.418 107.433 181.618 107.509 181.82 107.586C181.999 107.654 182.179 107.722 182.341 107.818L182.401 107.853C182.437 107.875 182.473 107.896 182.509 107.917C182.955 108.179 183.411 108.447 183.76 108.81C184.302 109.372 184.888 109.579 185.667 109.345C186.212 109.182 186.762 109.038 187.312 108.893C187.737 108.781 188.161 108.669 188.583 108.549C188.81 108.485 189.037 108.426 189.265 108.367C190.235 108.116 191.2 107.866 192.037 107.194C193.318 106.163 193.359 104.767 193.204 103.4C193.175 103.156 193.143 102.911 193.11 102.667C193.038 102.128 192.966 101.587 192.941 101.039C192.921 100.603 192.932 100.164 192.944 99.7259C192.973 98.6401 193.001 97.5527 192.554 96.4968C192.423 96.1877 192.35 95.8545 192.276 95.5214C192.205 95.2001 192.134 94.8788 192.011 94.5781C191.79 94.0308 191.443 93.5237 191.096 93.0395L191.054 92.9808C190.823 92.658 190.53 92.2484 190.226 92.2114C189.963 92.1793 189.677 92.3378 189.39 92.4962C189.266 92.5653 189.141 92.634 189.019 92.6875C189.082 92.7296 189.147 92.7714 189.211 92.8135C189.363 92.9132 189.516 93.0133 189.665 93.117C189.746 93.1743 189.824 93.243 189.888 93.3191C189.976 93.4229 190.07 93.5237 190.164 93.6249C190.393 93.8712 190.623 94.1176 190.769 94.4057C190.952 94.7657 191.052 95.1683 191.159 95.6008ZM178.548 110.284L178.542 110.271C178.49 110.249 178.438 110.245 178.402 110.242C178.377 110.239 178.359 110.238 178.357 110.231C178.302 110.078 178.255 109.922 178.207 109.766C178.196 109.727 178.184 109.688 178.172 109.648C178.151 109.719 178.122 109.789 178.094 109.86C178.032 110.018 177.969 110.175 177.981 110.327C178.059 111.367 178.154 112.373 178.664 113.362C178.894 113.807 178.982 114.321 179.071 114.838C179.146 115.274 179.221 115.712 179.382 116.112C179.403 116.164 179.424 116.216 179.445 116.267C179.738 116.996 180.028 117.719 180.171 118.49C180.224 118.778 180.162 119.117 180.061 119.4C179.943 119.73 179.705 119.995 179.466 120.26C179.106 120.662 178.744 121.064 178.791 121.697C178.795 121.754 178.742 121.815 178.688 121.876C178.674 121.892 178.66 121.908 178.647 121.924C178.637 121.937 178.627 121.95 178.618 121.963C178.655 121.949 178.694 121.937 178.732 121.925C178.821 121.898 178.91 121.87 178.98 121.818C179.023 121.787 179.049 121.734 179.075 121.681C179.1 121.63 179.124 121.579 179.164 121.547C179.277 121.457 179.391 121.37 179.505 121.284C180.181 120.768 180.832 120.272 181.136 119.303C181.401 118.456 181.309 117.796 181.015 117.095C180.847 116.699 180.644 116.313 180.441 115.927C180.077 115.238 179.715 114.551 179.567 113.818C179.372 112.846 179.144 111.897 178.848 110.957C178.778 110.739 178.674 110.532 178.548 110.284ZM199.7 142.131C199.545 142.095 199.392 142.059 199.239 142.025C199.142 142.003 199.045 141.981 198.948 141.959C198.552 141.869 198.155 141.778 197.753 141.718C197.536 141.686 197.315 141.68 197.093 141.673C196.93 141.668 196.766 141.663 196.604 141.648C196.359 141.625 196.101 141.6 195.881 141.505C195.685 141.42 195.504 141.301 195.323 141.181C195.296 141.163 195.268 141.145 195.241 141.127C195.22 141.113 195.198 141.099 195.176 141.085C195.147 141.066 195.118 141.047 195.088 141.029C195.135 141.027 195.181 141.025 195.228 141.024C195.284 141.022 195.34 141.021 195.396 141.02C195.635 141.013 195.874 141.007 196.111 140.979C196.227 140.966 196.342 140.931 196.457 140.897C196.609 140.852 196.761 140.807 196.913 140.811L197.074 140.815C198.103 140.84 199.134 140.865 200.156 140.968C200.82 141.034 201.477 141.176 202.133 141.317C202.288 141.35 202.443 141.384 202.598 141.416C203.174 141.536 203.745 141.68 204.315 141.824L204.507 141.872C205.015 142 205.519 142.136 206.024 142.273L206.026 142.273L206.238 142.331C206.31 142.35 206.381 142.378 206.451 142.406C206.484 142.419 206.516 142.432 206.549 142.444C206.524 142.48 206.497 142.526 206.471 142.572C206.415 142.672 206.357 142.773 206.3 142.772C206.028 142.771 205.756 142.82 205.484 142.869C204.916 142.972 204.346 143.075 203.769 142.717C203.666 142.653 203.547 142.666 203.412 142.68C203.24 142.7 203.04 142.721 202.811 142.592C202.404 142.362 201.87 142.358 201.311 142.353C201.072 142.351 200.829 142.349 200.589 142.329C200.268 142.264 199.979 142.196 199.7 142.131ZM79.9825 168.23C88.6157 167.145 95.814 166.241 95.7959 166.006C95.7948 165.992 95.8066 165.953 95.824 165.897C95.9355 165.532 96.2731 164.426 94.7839 164.408C88.3937 164.327 69.841 166.503 52.4063 170.24C27.669 175.313 13.4173 182.382 13.5864 182.862C13.6634 183.081 19.8144 181.277 27.3635 179.063C36.4224 176.406 47.4945 173.159 52.5001 172.107L53.0574 171.992C57.831 171.014 69.8876 169.498 79.9825 168.23ZM58.9198 183.533C60.4891 183.533 62.7542 183.703 65.6524 184.686L66.38 184.935C66.934 185.126 67.9637 185.409 69.4558 185.777C69.8022 185.863 70.0139 186.213 69.9282 186.56C69.8425 186.906 65.4227 185.973 65.4227 185.973C62.4348 184.955 61.2422 184.676 59.8457 184.738C58.4862 184.797 55.6139 185.853 53.4323 186.654C51.8922 187.219 50.6959 187.659 50.6209 187.532C50.4388 187.225 50.6541 186.835 50.8477 186.646C52.8055 184.738 53.8902 184.199 58.9198 183.533ZM165.562 172.422C165.668 172.329 165.748 172.206 165.788 172.06C165.895 171.666 162.847 171.074 160.795 171.842C160.378 171.997 160.009 172.239 159.605 172.592C159.537 172.651 159.387 172.858 159.201 173.114C158.896 173.533 158.496 174.085 158.204 174.335C157.735 174.739 156.938 175.169 156.392 175.444C156.17 175.556 155.329 175.742 154.382 175.951C152.863 176.288 151.07 176.685 151.111 176.932C151.177 177.335 151.918 177.274 152.321 177.208C153.02 177.093 153.624 177.006 154.149 176.929L154.151 176.929C155.496 176.734 156.327 176.613 156.935 176.307C157.595 175.974 158.166 175.582 158.722 175.104C158.81 175.028 158.935 174.914 159.075 174.782L159.521 174.359C159.451 174.925 159.641 175.471 160.122 175.859L160.304 176.005C166.027 180.529 172.217 181.215 178.749 178.053L178.851 178.004L178.899 178.263C179.069 179.125 179.311 179.843 179.632 180.42C180.107 181.272 180.918 182.11 182.059 182.948L182.933 181.757L182.788 181.648C181.883 180.966 181.263 180.312 180.923 179.701C180.562 179.053 180.308 178.081 180.177 176.792L180.064 175.688L179.089 176.218L178.895 176.323C172.503 179.723 166.603 179.187 161.049 174.709C161.016 174.682 160.983 174.237 161.049 174.045C161.165 173.706 161.43 173.029 162.111 172.795C162.555 172.642 165.562 172.422 165.562 172.422ZM211.778 133.551L211.471 132.995C211.24 132.581 210.94 132.05 210.792 131.806L210.744 131.729C210.14 130.795 210.03 129.611 210.185 127.694L210.249 126.986L210.308 126.369C210.482 124.47 210.438 123.746 210.091 123.372L210.038 123.318C209.692 122.984 209.288 122.988 207.828 123.313L207.471 123.393C205.784 123.78 204.669 123.874 203.38 123.567L202.265 123.29C201.981 123.221 201.699 123.152 201.497 123.103L201.495 123.102L201.49 123.101C201.338 123.064 201.233 123.038 201.207 123.032L200.905 122.955C198.246 122.258 197.127 121.51 196.708 119.698C196.608 119.265 196.649 118.818 196.806 118.26L196.842 118.139C196.944 117.802 197.439 116.468 197.439 116.468C197.551 116.151 197.644 115.862 197.728 115.572L197.835 115.195C197.925 114.873 198.018 114.531 198.115 114.164L199.124 110.213C199.305 109.517 199.46 108.939 199.522 108.744L199.809 107.902L199.93 107.561C200.008 107.342 200.084 107.141 200.162 106.946C200.793 105.365 201.463 104.389 202.407 104.12C203.276 103.872 203.917 103.906 204.617 104.185C204.763 104.244 205.143 104.424 205.43 104.562C205.585 104.635 205.713 104.696 205.764 104.719C206.466 105.03 207.186 105.227 208.161 105.325L208.347 105.342C208.817 105.382 209.203 105.331 210.351 105.08L211.174 104.897C212.048 104.707 212.622 104.613 213.249 104.575C213.819 104.539 214.349 104.564 214.853 104.659C215.683 104.816 216.957 105.333 218.706 106.214C218.979 106.351 219.089 106.685 218.951 106.958C218.814 107.231 218.481 107.341 218.207 107.203L217.881 107.041C216.388 106.303 215.301 105.872 214.647 105.748C214.24 105.671 213.801 105.65 213.318 105.68C212.724 105.717 212.165 105.813 211.25 106.015L210.561 106.168C209.339 106.435 208.899 106.495 208.312 106.451L208.253 106.446C207.057 106.344 206.172 106.111 205.316 105.732L204.36 105.281C204.293 105.251 204.24 105.227 204.207 105.214C203.733 105.025 203.344 105.005 202.711 105.185C202.222 105.325 201.697 106.089 201.191 107.357C201.1 107.586 201.01 107.826 200.914 108.098L200.579 109.077C200.43 109.512 199.341 113.843 199.305 113.992L199.127 114.669C199.011 115.103 198.9 115.503 198.793 115.878C198.721 116.129 198.642 116.377 198.553 116.638L198.484 116.837C198.394 117.09 198.314 117.316 198.243 117.516C197.744 118.926 197.684 119.097 197.722 119.241C197.727 119.261 197.735 119.281 197.743 119.303C197.755 119.336 197.77 119.374 197.783 119.429L197.788 119.448C198.092 120.766 198.936 121.309 201.335 121.921L203.513 122.459C204.609 122.742 205.561 122.683 207.049 122.352L207.993 122.139C208.622 122 208.781 121.982 209.143 121.967C209.868 121.938 210.45 122.13 210.903 122.618C211.566 123.331 211.627 124.144 211.414 126.452L211.304 127.614L211.278 127.939C211.165 129.471 211.254 130.421 211.634 131.062L211.753 131.255C211.867 131.444 212.038 131.744 212.207 132.043L212.747 133.012L212.818 133.137C213.539 134.378 214.133 135.073 214.765 135.313L214.833 135.337C215.641 135.602 216.64 135.077 217.928 133.403L218.095 133.185C218.29 132.944 218.489 132.792 219.406 132.224L220.821 131.355L220.991 131.247C221.876 130.687 222.396 130.27 222.511 130.034C223.865 127.271 224.728 122.958 224.467 118.056C224.435 117.441 224.107 116.5 223.48 115.259L223.405 115.112L223.371 115.092C221.889 114.25 220.811 113.45 220.133 112.679L220.053 112.586C219.358 111.76 218.659 110.41 217.939 108.525C217.83 108.239 217.973 107.919 218.259 107.81C218.545 107.701 218.865 107.844 218.974 108.13C219.654 109.908 220.302 111.16 220.902 111.874C221.453 112.531 222.407 113.256 223.759 114.038L224.091 114.226L224.235 114.307L224.311 114.453C225.105 115.968 225.528 117.138 225.574 117.997C225.844 123.087 224.944 127.588 223.506 130.522C223.262 131.019 222.664 131.499 221.585 132.183L221.316 132.352L220.171 133.055C219.219 133.643 219.028 133.785 218.899 133.956C217.315 136.056 215.864 136.841 214.487 136.39C213.456 136.052 212.692 135.154 211.778 133.551ZM228.531 100.321C228.253 100.192 227.924 100.314 227.796 100.591C227.519 101.191 227.087 101.568 226.467 101.751C226.023 101.882 225.526 101.958 224.917 101.998C224.705 102.011 224.523 102.02 224.25 102.028L223.315 102.051C221.816 102.1 221.162 102.227 220.508 102.699C219.64 103.324 219.275 105.323 219.58 106.474L219.596 106.538C219.607 106.581 219.618 106.627 219.63 106.678L219.667 106.845C219.669 106.856 219.678 106.896 219.69 106.951C219.715 107.074 219.757 107.272 219.785 107.4L219.837 107.632C219.883 107.833 219.93 108.013 219.981 108.187C220.187 108.886 220.458 109.452 220.858 109.918C220.913 109.982 221.068 110.262 221.238 110.581L221.819 111.693C222.29 112.521 222.779 113.124 223.397 113.527C223.658 113.697 223.897 113.767 224.344 113.848L224.543 113.884C224.906 113.952 225.077 113.995 225.293 114.079L225.461 114.147C225.63 114.212 225.829 114.259 226.116 114.309L226.322 114.343C226.322 114.343 226.81 114.417 227.085 114.461L227.383 114.512C227.668 114.564 227.92 114.619 228.161 114.684C228.395 114.748 228.612 114.819 228.814 114.9L228.942 114.951C229.146 115.027 229.317 115.075 229.618 115.146L229.896 115.211C230.024 115.24 230.115 115.264 230.196 115.29L230.291 115.321C230.648 115.45 230.95 115.673 231.329 116.143C231.831 116.764 231.831 117.056 231.445 117.323C231.194 117.497 231.131 117.842 231.305 118.094C231.479 118.345 231.824 118.408 232.075 118.234C233.06 117.553 233.06 116.522 232.191 115.447C231.689 114.825 231.221 114.478 230.665 114.278C230.554 114.238 230.452 114.207 230.324 114.175L230.158 114.134L229.812 114.053C229.597 114.002 229.47 113.965 229.327 113.912L229.08 113.815C228.88 113.741 228.67 113.674 228.45 113.615C228.123 113.526 227.785 113.455 227.394 113.389L226.332 113.222C226.08 113.178 225.925 113.142 225.837 113.104C225.493 112.959 225.283 112.898 224.852 112.815L224.467 112.744C224.211 112.695 224.093 112.658 224.002 112.599C223.561 112.311 221.195 108.389 221.044 107.875C220.988 107.684 220.938 107.481 220.883 107.237L220.729 106.514C220.715 106.453 220.702 106.396 220.689 106.343L220.651 106.191C220.451 105.436 220.73 103.904 221.155 103.598C221.584 103.288 222.141 103.193 223.509 103.154L224.29 103.135C224.571 103.127 224.763 103.118 224.99 103.103L225.191 103.088C225.788 103.04 226.301 102.955 226.781 102.814C227.708 102.54 228.392 101.944 228.802 101.055C228.93 100.778 228.809 100.449 228.531 100.321Z" fill="#00160A"/>
<path fill-rule="evenodd" clip-rule="evenodd" d="M99.1041 157.918C99.308 157.519 99.4819 157.171 99.7242 156.88C99.9695 156.585 100.279 156.343 100.571 156.09C100.6 156.065 100.761 156.128 100.76 156.145C100.755 156.233 100.745 156.347 100.689 156.402C100.255 156.814 100.219 157.363 100.086 157.903C99.9403 158.494 100.088 158.957 100.357 159.451C100.537 159.78 100.668 160.141 100.781 160.5C101.018 161.257 101.251 162.017 101.441 162.787C101.568 163.306 101.686 163.844 101.691 164.374C101.716 167.048 101.702 169.723 101.703 172.398C101.703 173.764 101.684 175.131 101.724 176.496C101.737 176.941 101.979 177.381 101.986 177.825C101.992 178.185 101.812 178.55 101.694 178.905C101.677 178.956 101.494 179.015 101.467 178.989C101.279 178.804 100.965 178.6 100.962 178.398C100.937 176.827 100.998 175.254 100.982 173.683C100.975 172.974 100.812 172.268 100.794 171.558C100.753 169.905 100.938 168.222 100.684 166.606C100.485 165.344 100.533 164.142 100.553 162.9C100.557 162.622 99.78 162.274 99.3157 162.059C98.713 161.78 98.33 162.153 98.0445 162.655C98.0183 162.7 97.9104 162.722 97.9101 162.755C97.8964 165.675 97.8776 168.595 97.889 171.515C97.8923 172.36 97.9895 173.205 98.0312 174.05C98.0471 174.366 98.0135 174.531 98.4995 174.457C99.3213 174.332 100.401 175.546 100.163 176.24C99.9794 176.774 99.6478 177.257 99.4639 177.791C99.0484 178.995 98.1409 180.16 98.5413 181.469C98.8452 182.463 99.5034 183.392 100.175 184.21C100.443 184.535 101.176 184.466 101.688 184.61C101.86 184.659 102.062 184.779 102.14 184.926C102.191 185.022 102.081 185.273 101.969 185.359C101.902 185.411 101.695 185.276 101.549 185.229C101.311 185.151 101.076 185.036 100.831 185.007C99.6795 184.874 99.6156 184.804 99.0923 183.522C98.9047 183.062 98.5531 182.671 98.354 182.214C98.166 181.783 98.0596 181.313 97.9551 180.852C97.8543 180.407 97.7206 179.945 97.7501 179.501C97.7845 178.978 97.9367 178.45 98.1158 177.952C98.2757 177.508 98.5501 177.105 98.7496 176.673C98.7725 176.623 98.6543 176.479 98.5715 176.42C98.5268 176.389 98.4042 176.423 98.3426 176.465C97.7464 176.871 97.4624 177.527 97.0853 178.102C96.9612 178.291 96.9993 178.587 96.9646 178.834C96.9132 179.204 96.8139 179.575 96.8224 179.943C96.8379 180.624 96.7618 181.366 97.0022 181.972C97.5023 183.232 97.9869 184.561 99.007 185.498C99.3826 185.843 100.006 186.009 100.632 186.092C101.456 186.202 102.238 185.964 103.046 186.056C103.416 186.099 103.817 185.776 104.204 185.778C104.675 185.779 105.044 185.521 105.461 185.453C105.938 185.376 106.331 185.171 106.747 184.974C107.424 184.653 108.16 184.423 108.779 184.015C109.329 183.651 109.749 183.093 110.235 182.631C110.986 181.916 111.618 181.126 112.122 180.206C112.344 179.801 112.696 179.493 112.551 178.98C112.529 178.9 112.472 178.773 112.423 178.77C112.317 178.762 112.17 178.785 112.101 178.856C110.511 180.46 108.96 182.105 107.325 183.662C106.884 184.081 106.194 184.245 105.611 184.509C105.286 184.656 104.938 184.751 104.611 184.894C103.9 185.206 103.336 184.772 102.729 184.546C102.758 184.483 102.775 184.378 102.816 184.365C103.804 184.102 104.805 183.884 105.779 183.58C106.23 183.439 106.651 183.167 107.046 182.897C107.429 182.635 107.745 182.279 108.118 182.001C109.511 180.959 110.651 179.732 111.196 178.029C111.344 177.568 112.336 177.276 112.906 177.446C113.25 177.549 113.643 177.54 113.945 177.706C114.139 177.812 114.347 178.173 114.308 178.374C114.106 179.448 113.432 180.245 112.68 181.009C112.181 181.517 111.873 182.219 111.354 182.699C110.474 183.513 109.556 184.317 108.542 184.943C107.518 185.578 106.38 186.05 105.248 186.479C104.437 186.786 103.565 187.014 102.704 187.086C101.234 187.21 99.7878 187.092 98.4844 186.219C97.6678 185.672 97.1171 184.914 96.6924 184.095C96.4538 183.636 96.6831 182.946 96.4741 182.456C96.0604 181.485 95.984 180.489 96.0712 179.488C96.1302 178.806 96.5535 178.143 96.5557 177.47C96.5587 176.715 97.1145 176.344 97.3568 175.774C97.4056 175.658 97.2752 175.479 97.2744 175.329C97.2678 173.623 97.2711 171.916 97.2696 170.21C97.2693 169.351 97.3228 168.486 97.2394 167.634C97.1906 167.14 96.8841 166.675 96.7622 166.181C96.7005 165.929 96.8058 165.64 96.8087 165.367C96.8172 164.594 96.7415 163.813 96.8294 163.05C96.9398 162.091 97.2072 161.15 97.352 160.193C97.4333 159.658 97.4041 159.106 97.4229 158.562C97.4598 157.492 97.6789 156.435 98.4245 155.665C99.0062 155.065 99.7024 154.497 100.668 154.494C100.905 154.494 101.229 154.065 101.361 154.132C101.66 154.285 101.951 154.59 102.069 154.9C102.122 155.038 101.786 155.396 101.556 155.552C101.149 155.829 100.672 155.819 100.174 155.798C99.3567 155.762 98.6107 156.833 98.2953 157.772C98.0367 158.543 98.4323 159.229 98.2561 159.964C98.2037 160.182 98.6347 160.522 98.8604 160.793C98.884 160.821 99.0934 160.756 99.0934 160.733C99.0989 160.27 99.1303 159.8 99.0639 159.345C99.0011 158.914 98.7112 158.482 99.2489 158.156C99.2009 158.102 99.1525 158.048 99.1041 157.918Z" fill="#FFB61D"/>
<path fill-rule="evenodd" clip-rule="evenodd" d="M129.366 192.919C129.223 193.699 129.07 194.403 128.943 195.109C128.923 195.226 129.051 195.362 129.056 195.492C129.094 196.603 128.891 197.702 128.855 198.814C128.838 199.347 128.886 199.931 128.739 200.455C128.558 201.105 128.82 201.957 127.988 202.339C127.668 202.486 127.196 202.764 127.009 202.645C126.646 202.414 126.044 202.287 126.139 201.575C126.223 200.949 126.047 200.279 126.181 199.672C126.409 198.634 126.167 197.588 126.346 196.579C126.454 195.967 126.337 195.358 126.478 194.78C126.708 193.848 126.673 192.899 126.796 191.965C126.914 191.077 126.984 190.186 127.1 189.302C127.22 188.388 127.29 187.471 127.414 186.565C127.525 185.754 127.506 184.894 127.74 184.144C127.947 183.478 127.461 182.712 128.11 182.137C128.199 182.058 127.966 181.684 128.002 181.466C128.297 179.654 128.066 177.83 128.159 176.015C128.165 175.887 128.368 175.703 128.513 175.66C128.97 175.525 129.44 175.422 129.912 175.358C130.022 175.343 130.269 175.533 130.267 175.625C130.239 177.182 130.149 178.74 130.141 180.297C130.136 181.422 130.26 182.547 130.271 183.672C130.277 184.219 130.144 184.767 130.098 185.318C130.05 185.889 130.228 186.433 129.892 187.043C129.638 187.502 129.861 188.211 129.818 188.804C129.739 189.914 129.672 191.029 129.478 192.12C129.438 192.351 129.351 192.59 129.366 192.919ZM127.227 200.942C127.477 201.321 127.464 201.311 127.696 201.022C127.968 200.681 127.761 200.284 127.85 199.938C128.09 199.009 128.03 198.057 128.143 197.12C128.234 196.368 128.364 195.618 128.404 194.864C128.457 193.89 128.356 192.903 128.474 191.94C128.576 191.113 128.544 190.283 128.837 189.443C129.134 188.59 129.006 187.589 129.059 186.652C129.072 186.423 128.974 186.14 129.076 185.974C129.424 185.406 129.113 184.815 129.198 184.243C129.21 184.167 129.015 184.062 128.916 183.968C128.86 184.077 128.768 184.179 128.751 184.294C128.641 185.041 128.518 185.787 128.457 186.539C128.376 187.537 128.347 188.541 128.297 189.542C128.293 189.619 128.328 189.719 128.291 189.769C127.877 190.323 128.198 190.985 128.011 191.607C127.773 192.393 127.88 193.282 127.838 194.127C127.837 194.153 127.842 194.18 127.837 194.204C127.712 194.795 127.555 195.384 127.47 195.981C127.402 196.461 127.682 196.9 127.294 197.458C126.999 197.882 127.257 198.674 127.216 199.298C127.191 199.676 127.041 200.044 126.998 200.423C126.986 200.534 127.146 200.667 127.227 200.942ZM129.213 180.004C129.23 179.58 129.247 179.156 129.261 178.732C129.263 178.672 129.248 178.56 129.241 178.56C129.144 178.559 128.968 178.559 128.963 178.587C128.885 179.011 128.814 179.438 128.787 179.867C128.783 179.93 129.015 180.009 129.213 180.004Z" fill="#00160A"/>
<path fill-rule="evenodd" clip-rule="evenodd" d="M99.3721 182.105C99.3382 181.812 99.3422 181.558 99.3467 181.303C99.555 181.363 99.7884 181.382 99.9682 181.49C100.916 182.057 101.845 182.654 102.793 183.222C102.958 183.321 103.176 183.344 103.373 183.372C103.526 183.394 103.685 183.368 103.84 183.364C103.691 183.492 103.513 183.753 103.398 183.727C102.675 183.567 101.816 184.155 101.215 183.343C101.204 183.327 101.137 183.331 101.112 183.349C100.842 183.538 100.539 183.909 100.237 183.55C99.8925 183.139 99.6802 182.617 99.3721 182.105Z" fill="#00160A"/>
</g>
<defs>
<clipPath id="clip0_443_2436">
<rect width="277" height="277" fill="white"/>
</clipPath>
</defs>
</svg>
