<svg width="142" height="142" viewBox="0 0 142 142" fill="none" xmlns="http://www.w3.org/2000/svg">
<path d="M63.6296 20.4645C67.8767 16.8452 74.1233 16.8452 78.3704 20.4645L85.5945 26.6208C87.4145 28.1718 89.6773 29.1091 92.061 29.2993L101.522 30.0543C107.085 30.4982 111.502 34.9153 111.946 40.4777L112.701 49.939C112.891 52.3227 113.828 54.5855 115.379 56.4055L121.535 63.6296C125.155 67.8767 125.155 74.1233 121.535 78.3704L115.379 85.5945C113.828 87.4145 112.891 89.6773 112.701 92.061L111.946 101.522C111.502 107.085 107.085 111.502 101.522 111.946L92.061 112.701C89.6773 112.891 87.4145 113.828 85.5945 115.379L78.3704 121.535C74.1233 125.155 67.8767 125.155 63.6296 121.535L56.4055 115.379C54.5855 113.828 52.3227 112.891 49.939 112.701L40.4777 111.946C34.9153 111.502 30.4982 107.085 30.0543 101.522L29.2993 92.061C29.1091 89.6773 28.1718 87.4145 26.6208 85.5945L20.4645 78.3704C16.8452 74.1233 16.8452 67.8767 20.4645 63.6296L26.6208 56.4055C28.1718 54.5855 29.1091 52.3227 29.2993 49.939L30.0543 40.4777C30.4982 34.9153 34.9153 30.4982 40.4777 30.0543L49.939 29.2993C52.3227 29.1091 54.5855 28.1718 56.4055 26.6208L63.6296 20.4645Z" stroke="#F4A81C" stroke-width="6" stroke-linecap="round" stroke-linejoin="round"/>
<path d="M77 94C77 97.3137 74.3137 100 71 100C67.6863 100 65 97.3137 65 94C65 90.6863 67.6863 88 71 88C74.3137 88 77 90.6863 77 94Z" fill="#F4A81C"/>
<path d="M71 71L71 47.3333" stroke="#F4A81C" stroke-width="7" stroke-linecap="round" stroke-linejoin="round"/>
</svg>
