<svg width="28" height="29" viewBox="0 0 28 29" fill="none" xmlns="http://www.w3.org/2000/svg">
<g clip-path="url(#clip0_1327_4560)">
<path d="M18.5885 8.49517L16.8106 10.2911L14.1643 12.9653L12.3264 14.8223L10.0053 17.1679L8.16696 19.0249L7.76828 19.4272L8.19031 19.8528L23.874 4.00589H23.8749L23.4533 3.58038L21.7925 5.2584V0.619133C21.7925 0.456227 21.7273 0.296881 21.6132 0.181155C21.4991 0.0658747 21.341 0 21.1797 0H0.612775C0.451542 0 0.293392 0.0658747 0.179295 0.181155C0.0651983 0.296881 0 0.456227 0 0.619133V28.3809C0 28.5438 0.0651983 28.7031 0.179736 28.8188C0.293833 28.9341 0.451982 29.0004 0.613216 29.0004H17.4335C17.5947 29.0004 17.7511 28.9355 17.8652 28.8206L19.7551 26.9236L19.7573 26.9209L21.6137 25.0368C21.7273 24.9211 21.7925 24.7627 21.7925 24.5997V10.3161L20.5661 11.5552V23.3619H16.6674C16.5062 23.3619 16.3485 23.4282 16.2339 23.5435C16.1198 23.6588 16.0546 23.8182 16.0546 23.9815V27.7622H1.22599V1.23827H20.5661V6.49667L18.5885 8.49472V8.49517ZM17.2802 24.6002H20.5445L17.2802 27.784V24.6002Z" fill="#F4A81C"/>
<path d="M18.8326 4.43018H3.96472V6.2266H18.8326V4.43018Z" fill="white"/>
<path d="M2.28369 10.2911H16.8106L18.5885 8.49512H2.28369V10.2911Z" fill="white"/>
<path d="M2.34058 14.8223H12.3265L14.1644 12.9653H2.34058V14.8223Z" fill="white"/>
<path d="M19.4511 14.8223V12.9653H19.1705L17.3322 14.8223H19.4511Z" fill="white"/>
<path d="M19.4511 19.0249V17.168H15.011L13.1731 19.0249H19.4511Z" fill="white"/>
<path d="M2.34058 19.0249H8.16657L10.0053 17.168H2.34058V19.0249Z" fill="white"/>
<path d="M5.77229 23.2271L5.83221 23.1052L6.67582 21.3706H2.34058V23.2271H5.77229Z" fill="white"/>
<path d="M9.77009 22.3552L8.01282 23.2276H15.1987V21.3711H10.8516L10.2727 21.9568H10.2718L9.85114 21.5313L9.69211 21.3711H9.22647L9.83176 21.9827C9.88462 22.0356 9.90753 22.1104 9.89652 22.1847C9.88418 22.2591 9.83749 22.3218 9.77097 22.3552H9.77009Z" fill="white"/>
<path d="M20.5445 24.6001H17.2802V27.7834L20.5445 24.6001Z" fill="#F4A81C"/>
<path d="M18.5885 8.49518L20.566 6.49713V1.23828H1.22595V27.7617H16.0546V23.9811C16.0546 23.8177 16.1198 23.6584 16.2339 23.5431C16.348 23.4278 16.5061 23.3615 16.6674 23.3615H20.566V11.5548L21.7925 10.3156L25.9564 6.10856L18.2696 13.8751L19.1709 12.9649H19.4511V14.8218H17.3321L10.2713 21.9559H10.2722L10.8511 21.3706H15.1982V23.2271H8.0123L6.63124 23.9125L5.66428 24.3923C5.57573 24.436 5.47001 24.4182 5.40084 24.3483C5.33124 24.2775 5.31406 24.1707 5.35679 24.0817L5.77177 23.2275H2.34049V21.371H6.67573L7.37353 19.9342C7.40657 19.8661 7.46868 19.8194 7.54225 19.8074C7.61582 19.7954 7.69027 19.819 7.74269 19.8719L9.22639 21.371H9.69203L9.85106 21.5312L25.5352 5.68393L23.874 4.00591L8.18983 19.8528L7.7678 19.4273L8.16648 19.0249H2.34049V17.1679H10.0052L12.3264 14.8223H2.34049V12.9653H14.1643L16.8105 10.2912H2.28366V8.49518H18.5885ZM3.96472 4.43009H18.8326V6.22651H3.96472V4.43009ZM13.1731 19.0249L15.011 17.1679H19.4511V19.0249H13.1735H13.1731ZM24.1079 4.32371L25.2202 5.44714L9.5352 21.2949L8.42287 20.171L24.1079 4.32371Z" fill="#F4A81C"/>
<path d="M17.3322 14.8222L18.2692 13.8755L17.3322 14.8222Z" fill="white"/>
<path d="M24.1073 4.32323L8.42261 20.1707L9.53466 21.2942L25.2194 5.44683L24.1073 4.32323Z" fill="white"/>
<path d="M10.2714 21.9562L25.9564 6.10891L25.5353 5.68384L9.85071 21.5307L10.2714 21.9562Z" fill="#F4A81C"/>
<path d="M7.74224 19.8716C7.69026 19.8186 7.61581 19.795 7.5418 19.807C7.46823 19.8195 7.40655 19.8662 7.37307 19.9339L6.67528 21.3707L5.83167 23.1048L6.63122 23.9122L8.01228 23.2267L9.76955 22.3543C9.83651 22.3209 9.88277 22.2582 9.8951 22.1839C9.90655 22.1095 9.88365 22.0347 9.83034 21.9818L9.22506 21.3702L7.74136 19.8711L7.74224 19.8716Z" fill="white"/>
<path d="M5.35727 24.0813C5.31409 24.1707 5.33172 24.2771 5.40132 24.3479C5.47048 24.4182 5.57665 24.436 5.66476 24.392L6.63172 23.9121L5.83216 23.1047L5.77224 23.2267L5.35727 24.0808V24.0813Z" fill="#F4A81C"/>
<path d="M24.9788 2.03863L24.6903 2.33017L24.2022 2.82334L23.6788 3.35212L26.1819 5.88117L26.7057 5.35195L27.1929 4.85967L27.4824 4.56768C28.1735 3.86932 28.1727 2.73699 27.4824 2.03907C26.7907 1.34071 25.6705 1.34027 24.9788 2.03907V2.03863Z" fill="#F4A81C"/>
</g>
<defs>
<clipPath id="clip0_1327_4560">
<rect width="28" height="29" fill="white"/>
</clipPath>
</defs>
</svg>
