<svg width="29" height="29" viewBox="0 0 29 29" fill="none" xmlns="http://www.w3.org/2000/svg">
<g clip-path="url(#clip0_1327_4475)">
<path d="M18.8674 8.49517L17.0627 10.2911L14.3768 12.9653L12.5113 14.8223L10.1554 17.1679L8.28946 19.0249L7.88481 19.4272L8.31316 19.8528L24.2321 4.00589H24.233L23.8051 3.58038L22.1194 5.2584V0.619133C22.1194 0.456227 22.0532 0.296881 21.9374 0.181155C21.8216 0.0658747 21.6611 0 21.4974 0H0.621967C0.458315 0 0.297793 0.0658747 0.181985 0.181155C0.0661762 0.296881 0 0.456227 0 0.619133V28.3809C0 28.5438 0.0661762 28.7031 0.182432 28.8188C0.29824 28.9341 0.458762 29.0004 0.622414 29.0004H17.695C17.8586 29.0004 18.0174 28.9355 18.1332 28.8206L20.0514 26.9236L20.0536 26.9209L21.9379 25.0368C22.0532 24.9211 22.1194 24.7627 22.1194 24.5997V10.3161L20.8746 11.5552V23.3619H16.9174C16.7538 23.3619 16.5937 23.4282 16.4774 23.5435C16.3616 23.6588 16.2954 23.8182 16.2954 23.9815V27.7622H1.24438V1.23827H20.8746V6.49667L18.8674 8.49472V8.49517ZM17.5394 24.6002H20.8527L17.5394 27.784V24.6002Z" fill="white"/>
<path d="M19.115 4.43018H4.02417V6.2266H19.115V4.43018Z" fill="#F4A81C"/>
<path d="M2.31799 10.2911H17.0628L18.8674 8.49512H2.31799V10.2911Z" fill="#F4A81C"/>
<path d="M2.37561 14.8223H12.5113L14.3768 12.9653H2.37561V14.8223Z" fill="#F4A81C"/>
<path d="M19.7429 14.8223V12.9653H19.4581L17.5922 14.8223H19.7429Z" fill="#F4A81C"/>
<path d="M19.7429 19.0249V17.168H15.2362L13.3707 19.0249H19.7429Z" fill="#F4A81C"/>
<path d="M2.37561 19.0249H8.28899L10.1553 17.168H2.37561V19.0249Z" fill="#F4A81C"/>
<path d="M5.8588 23.2271L5.91961 23.1052L6.77588 21.3706H2.37561V23.2271H5.8588Z" fill="#F4A81C"/>
<path d="M9.91656 22.3552L8.13293 23.2276H15.4266V21.3711H11.0143L10.4267 21.9568H10.4259L9.99884 21.5313L9.83742 21.3711H9.3648L9.97916 21.9827C10.0328 22.0356 10.0561 22.1104 10.0449 22.1847C10.0324 22.2591 9.98497 22.3218 9.91746 22.3552H9.91656Z" fill="#F4A81C"/>
<path d="M20.8527 24.6001H17.5394V27.7834L20.8527 24.6001Z" fill="white"/>
<path d="M18.8674 8.49518L20.8746 6.49713V1.23828H1.24438V27.7617H16.2955V23.9811C16.2955 23.8177 16.3616 23.6584 16.4774 23.5431C16.5932 23.4278 16.7538 23.3615 16.9174 23.3615H20.8746V11.5548L22.1194 10.3156L26.3457 6.10856L18.5437 13.8751L19.4585 12.9649H19.7429V14.8218H17.5921L10.4254 21.9559H10.4263L11.0139 21.3706H15.4262V23.2271H8.13252L6.73075 23.9125L5.74929 24.3923C5.65941 24.436 5.5521 24.4182 5.4819 24.3483C5.41125 24.2775 5.39381 24.1707 5.43718 24.0817L5.85839 23.2275H2.37564V21.371H6.77591L7.48418 19.9342C7.51771 19.8661 7.58076 19.8194 7.65543 19.8074C7.7301 19.7954 7.80567 19.819 7.85888 19.8719L9.36483 21.371H9.83746L9.99887 21.5312L25.9183 5.68393L24.2321 4.00591L8.31272 19.8528L7.88436 19.4273L8.28902 19.0249H2.37564V17.1679H10.1554L12.5113 14.8223H2.37564V12.9653H14.3768L17.0627 10.2912H2.31796V8.49518H18.8674ZM4.02423 4.43009H19.1151V6.22651H4.02423V4.43009ZM13.3707 19.0249L15.2362 17.1679H19.7429V19.0249H13.3712H13.3707ZM24.4696 4.32371L25.5986 5.44714L9.67828 21.2949L8.54926 20.171L24.4696 4.32371Z" fill="white"/>
<path d="M17.5922 14.8222L18.5432 13.8755L17.5922 14.8222Z" fill="white"/>
<path d="M24.4689 4.32323L8.54895 20.1707L9.67769 21.2942L25.5976 5.44683L24.4689 4.32323Z" fill="#F4A81C"/>
<path d="M10.4254 21.9562L26.3457 6.10891L25.9183 5.68384L9.99841 21.5307L10.4254 21.9562Z" fill="white"/>
<path d="M7.85842 19.8716C7.80566 19.8186 7.73009 19.795 7.65497 19.807C7.5803 19.8195 7.5177 19.8662 7.48372 19.9339L6.77546 21.3707L5.91919 23.1048L6.73074 23.9122L8.13252 23.2267L9.91614 22.3543C9.98411 22.3209 10.0311 22.2582 10.0436 22.1839C10.0552 22.1095 10.032 22.0347 9.97785 21.9818L9.36348 21.3702L7.85753 19.8711L7.85842 19.8716Z" fill="#F4A81C"/>
<path d="M5.43757 24.0813C5.39375 24.1707 5.41164 24.2771 5.48229 24.3479C5.55249 24.4182 5.66025 24.436 5.74967 24.392L6.73114 23.9121L5.91959 23.1047L5.85878 23.2267L5.43757 24.0808V24.0813Z" fill="white"/>
<path d="M25.3536 2.03863L25.0607 2.33017L24.5653 2.82334L24.0341 3.35212L26.5747 5.88117L27.1063 5.35195L27.6009 4.85967L27.8946 4.56768C28.5962 3.86932 28.5953 2.73699 27.8946 2.03907C27.1926 1.34071 26.0556 1.34027 25.3536 2.03907V2.03863Z" fill="white"/>
</g>
<defs>
<clipPath id="clip0_1327_4475">
<rect width="28.42" height="29" fill="white"/>
</clipPath>
</defs>
</svg>
