<svg width="332" height="355" viewBox="0 0 332 355" fill="none" xmlns="http://www.w3.org/2000/svg">
<path fill-rule="evenodd" clip-rule="evenodd" d="M227.688 38.0084V92.0314L283.455 126.902V196.799L331.642 226.646V293.663L265.504 331.782L232.433 306.26V285.394L265.504 311.707L314.236 283.618V235.954L273.429 211.437L227.498 238.252V257.263L209.893 246.71V227.997L265.85 195.508V136.42L214.695 104.626L185.743 123.103L227.688 150.4V208.726L183.199 235.494L226.764 262.381V321.245L168.656 354.468L110.547 321.245V262.381L166.77 224.649L210.316 198.571V159.826L169.276 133.122L128.238 159.826V198.632L164.404 218.352L147.563 229.861L110.866 208.665V150.4L168.213 113.083L210.316 86.18V47.435L169.276 20.7308L128.238 47.435V86.2436L162.986 109.176L147.396 120.519L123.303 104.922L67.9738 136.42V195.508L127.499 227.997V243.874L110.547 254.427V238.252L59.1767 210.557V210.858L17.4059 235.954V283.618L66.1385 311.707L104.878 285.394V306.26L66.1385 331.782L0 293.663V226.646L51.0219 195.043V126.902L110.866 92.1616V38.0084L169.278 0L227.688 38.0084ZM127.829 271.893V310.996L168.653 334.335L209.48 310.996V271.893L169.453 245.472L169.289 245.361L168.653 244.943L127.829 271.893Z" fill="url(#paint0_linear_1240_32616)"/>
<path d="M104.878 66.9778V87.9163L67.5503 63.5023L17.7768 96.0469V143.825L45.3528 160.549V181.487L0 154.011V86.7061L67.5475 42.5361L104.878 66.9778Z" fill="url(#paint1_linear_1240_32616)"/>
<path d="M331.642 86.7061V154.011L289.124 181.487V160.549L314.347 143.825V96.0469L265.916 63.5023L232.433 87.9163V66.9778L265.919 42.5361L331.642 86.7061Z" fill="url(#paint2_linear_1240_32616)"/>
<defs>
<linearGradient id="paint0_linear_1240_32616" x1="-14.1727" y1="303.424" x2="351.569" y2="76.703" gradientUnits="userSpaceOnUse">
<stop stop-color="#FF4D00"/>
<stop offset="0.875777" stop-color="#FFC300"/>
</linearGradient>
<linearGradient id="paint1_linear_1240_32616" x1="-14.1727" y1="303.424" x2="351.569" y2="76.703" gradientUnits="userSpaceOnUse">
<stop stop-color="#FF4D00"/>
<stop offset="0.875777" stop-color="#FFC300"/>
</linearGradient>
<linearGradient id="paint2_linear_1240_32616" x1="-14.1727" y1="303.424" x2="351.569" y2="76.703" gradientUnits="userSpaceOnUse">
<stop stop-color="#FF4D00"/>
<stop offset="0.875777" stop-color="#FFC300"/>
</linearGradient>
</defs>
</svg>
