<svg width="20" height="20" viewBox="0 0 20 20" fill="none" xmlns="http://www.w3.org/2000/svg">
<mask id="path-1-inside-1_2002_6630" fill="white">
<path d="M18.8498 10.176L18.6925 10.0673C18.385 9.76479 18.0198 9.53902 17.6227 9.40594C17.2256 9.27285 16.8064 9.23568 16.3946 9.29705C15.6777 9.36109 14.987 9.61771 14.385 10.0436V10.0058C14.3906 9.70875 14.4111 9.4122 14.4461 9.11748C14.4724 8.81033 14.5029 8.50319 14.5029 8.21022C14.5122 7.92973 14.4691 7.65008 14.3762 7.388C14.3651 7.357 14.3452 7.33065 14.3192 7.3128C14.2933 7.29495 14.2628 7.28653 14.2321 7.28878C13.9043 7.32212 13.5876 7.4352 13.3059 7.61956L13.236 7.78022C13.2348 8.22991 13.1894 8.67818 13.1006 9.11748C13.0909 9.15596 13.0792 9.19382 13.0656 9.23088C12.9565 10.3619 12.9565 11.5021 13.0656 12.6331C13.0656 12.7276 13.2535 12.8741 13.3846 12.9308C13.6847 12.9388 13.9829 12.8759 14.2583 12.7465H14.3588C14.3788 12.7437 14.3981 12.7365 14.4155 12.7253C14.4328 12.7141 14.4479 12.6992 14.4597 12.6815C14.4716 12.6638 14.48 12.6437 14.4844 12.6224C14.4888 12.6011 14.4892 12.579 14.4855 12.5575V12.2787C14.605 11.7937 14.8428 11.3523 15.1741 11.0007C15.5053 10.649 15.9178 10.4001 16.3684 10.2799C16.5936 10.2272 16.8277 10.2396 17.047 10.3159C17.2664 10.3922 17.4633 10.5298 17.6178 10.7146C17.7179 11.1844 17.6442 11.6779 17.4125 12.0897C17.0862 12.6676 16.5794 13.1 15.9839 13.3089C15.2842 13.5785 14.5409 13.6911 13.7996 13.6396C13.7603 13.616 12.9914 13.0537 12.9914 13.0537C12.2806 12.4665 11.5095 11.9702 10.6934 11.5747C10.5059 11.4615 10.3301 11.3268 10.1692 11.173L10.0949 11.1021C9.65804 10.7147 8.80615 10.1098 8.129 9.62309L7.76639 9.35375V9.27342C7.76639 9.2498 8.20326 8.97573 8.20326 8.97573C8.53548 8.79825 8.8465 8.57768 9.12943 8.3189L9.21243 8.26693L10.6891 7.35965C12.1045 6.51854 13.7122 5.56403 14.5554 4.61896L14.5947 4.47248V4.34489C14.6447 4.17102 14.6447 3.9848 14.5947 3.81094C14.5892 3.78058 14.5754 3.75268 14.5552 3.7308C14.5349 3.70892 14.5092 3.69405 14.4811 3.68807C13.8214 3.61719 12.9739 4.04247 12.2006 4.82688C12.0576 4.96928 11.8974 5.09008 11.7244 5.186L11.6065 5.25216C10.7327 5.77667 8.83236 7.06669 7.82755 7.76604C7.92253 6.34841 8.0932 4.93791 8.33869 3.54159L8.31248 3.3762L8.20763 3.16828L8.129 3.01707C7.97772 2.93727 7.80342 2.92539 7.64407 2.984L7.44311 3.06432L7.17662 3.16828C7.15122 3.17412 7.12756 3.18667 7.10774 3.20481C7.08792 3.22295 7.07256 3.24612 7.06303 3.27224C6.51883 4.86992 6.1907 6.5442 6.08881 8.24329C5.35226 7.74341 4.59097 7.28752 3.80834 6.87767V6.87767H3.75592C3.56459 6.82608 3.38384 6.73634 3.22294 6.61306L2.86033 6.35788L2.30114 5.9704L2.1526 5.93261C1.82682 6.04401 1.53729 6.25388 1.31818 6.53745C1.3015 6.56745 1.29246 6.60168 1.29197 6.63668C1.29606 6.6848 1.30484 6.73233 1.31818 6.77845L1.34439 6.9013L1.3706 6.9769C1.86607 7.42634 2.41035 7.80877 2.99139 8.11571L3.75592 8.55516L4.9311 9.24507L5.13206 9.41991L5.26749 9.50496H5.2937C4.97916 9.72705 3.16177 11.0454 3.16177 11.0454L2.01717 11.896C1.8074 12.0203 1.59156 12.1323 1.3706 12.2315C1.15811 12.312 0.978662 12.4709 0.863833 12.6804L0.833252 12.7513L0.863833 12.7985L0.951209 12.8694L1.06479 12.9497L1.19149 13.0395L1.30507 13.0631C1.66874 13.0098 2.01994 12.8832 2.34046 12.6898C2.84286 12.4488 4.2059 11.5605 4.7913 11.1825L5.04032 11.0171C5.15882 10.9997 5.26906 10.9418 5.35487 10.8517C5.51968 10.7199 5.69514 10.6044 5.87911 10.5067C5.87911 10.5067 5.97522 10.45 6.05823 10.4028V10.4784C6.04803 11.9569 6.1562 13.4335 6.38151 14.8918V14.8918V14.9391C6.51648 15.263 6.61758 15.6022 6.68295 15.9503L6.90139 16.7536L6.96692 16.8292C7.19897 16.9796 7.46535 17.0565 7.73581 17.0513H7.80134L7.84066 16.9521C7.86226 16.8307 7.87251 16.7072 7.87124 16.5835C7.87124 16.437 7.87124 16.2764 7.87124 16.0779V15.7897C7.78824 14.4429 7.7096 12.4819 7.7096 11.2061V11.1021L8.84546 11.8771C10.4182 12.9781 12.7773 14.6509 14.2321 15.0903C14.2682 15.102 14.3065 15.1033 14.3433 15.0942C14.38 15.0851 14.4139 15.0658 14.4418 15.0383L14.6646 14.8871H14.7039C14.753 14.8441 14.7921 14.7892 14.8179 14.7268C14.8437 14.6644 14.8555 14.5963 14.8524 14.528C16.0626 14.4666 17.7533 13.9609 18.6576 12.7324C18.9806 12.2871 19.1587 11.739 19.1644 11.173C19.1837 10.828 19.077 10.4887 18.8673 10.2279"/>
</mask>
<path d="M18.8498 10.176L18.6925 10.0673C18.385 9.76479 18.0198 9.53902 17.6227 9.40594C17.2256 9.27285 16.8064 9.23568 16.3946 9.29705C15.6777 9.36109 14.987 9.61771 14.385 10.0436V10.0058C14.3906 9.70875 14.4111 9.4122 14.4461 9.11748C14.4724 8.81033 14.5029 8.50319 14.5029 8.21022C14.5122 7.92973 14.4691 7.65008 14.3762 7.388C14.3651 7.357 14.3452 7.33065 14.3192 7.3128C14.2933 7.29495 14.2628 7.28653 14.2321 7.28878C13.9043 7.32212 13.5876 7.4352 13.3059 7.61956L13.236 7.78022C13.2348 8.22991 13.1894 8.67818 13.1006 9.11748C13.0909 9.15596 13.0792 9.19382 13.0656 9.23088C12.9565 10.3619 12.9565 11.5021 13.0656 12.6331C13.0656 12.7276 13.2535 12.8741 13.3846 12.9308C13.6847 12.9388 13.9829 12.8759 14.2583 12.7465H14.3588C14.3788 12.7437 14.3981 12.7365 14.4155 12.7253C14.4328 12.7141 14.4479 12.6992 14.4597 12.6815C14.4716 12.6638 14.48 12.6437 14.4844 12.6224C14.4888 12.6011 14.4892 12.579 14.4855 12.5575V12.2787C14.605 11.7937 14.8428 11.3523 15.1741 11.0007C15.5053 10.649 15.9178 10.4001 16.3684 10.2799C16.5936 10.2272 16.8277 10.2396 17.047 10.3159C17.2664 10.3922 17.4633 10.5298 17.6178 10.7146C17.7179 11.1844 17.6442 11.6779 17.4125 12.0897C17.0862 12.6676 16.5794 13.1 15.9839 13.3089C15.2842 13.5785 14.5409 13.6911 13.7996 13.6396C13.7603 13.616 12.9914 13.0537 12.9914 13.0537C12.2806 12.4665 11.5095 11.9702 10.6934 11.5747C10.5059 11.4615 10.3301 11.3268 10.1692 11.173L10.0949 11.1021C9.65804 10.7147 8.80615 10.1098 8.129 9.62309L7.76639 9.35375V9.27342C7.76639 9.2498 8.20326 8.97573 8.20326 8.97573C8.53548 8.79825 8.8465 8.57768 9.12943 8.3189L9.21243 8.26693L10.6891 7.35965C12.1045 6.51854 13.7122 5.56403 14.5554 4.61896L14.5947 4.47248V4.34489C14.6447 4.17102 14.6447 3.9848 14.5947 3.81094C14.5892 3.78058 14.5754 3.75268 14.5552 3.7308C14.5349 3.70892 14.5092 3.69405 14.4811 3.68807C13.8214 3.61719 12.9739 4.04247 12.2006 4.82688C12.0576 4.96928 11.8974 5.09008 11.7244 5.186L11.6065 5.25216C10.7327 5.77667 8.83236 7.06669 7.82755 7.76604C7.92253 6.34841 8.0932 4.93791 8.33869 3.54159L8.31248 3.3762L8.20763 3.16828L8.129 3.01707C7.97772 2.93727 7.80342 2.92539 7.64407 2.984L7.44311 3.06432L7.17662 3.16828C7.15122 3.17412 7.12756 3.18667 7.10774 3.20481C7.08792 3.22295 7.07256 3.24612 7.06303 3.27224C6.51883 4.86992 6.1907 6.5442 6.08881 8.24329C5.35226 7.74341 4.59097 7.28752 3.80834 6.87767V6.87767H3.75592C3.56459 6.82608 3.38384 6.73634 3.22294 6.61306L2.86033 6.35788L2.30114 5.9704L2.1526 5.93261C1.82682 6.04401 1.53729 6.25388 1.31818 6.53745C1.3015 6.56745 1.29246 6.60168 1.29197 6.63668C1.29606 6.6848 1.30484 6.73233 1.31818 6.77845L1.34439 6.9013L1.3706 6.9769C1.86607 7.42634 2.41035 7.80877 2.99139 8.11571L3.75592 8.55516L4.9311 9.24507L5.13206 9.41991L5.26749 9.50496H5.2937C4.97916 9.72705 3.16177 11.0454 3.16177 11.0454L2.01717 11.896C1.8074 12.0203 1.59156 12.1323 1.3706 12.2315C1.15811 12.312 0.978662 12.4709 0.863833 12.6804L0.833252 12.7513L0.863833 12.7985L0.951209 12.8694L1.06479 12.9497L1.19149 13.0395L1.30507 13.0631C1.66874 13.0098 2.01994 12.8832 2.34046 12.6898C2.84286 12.4488 4.2059 11.5605 4.7913 11.1825L5.04032 11.0171C5.15882 10.9997 5.26906 10.9418 5.35487 10.8517C5.51968 10.7199 5.69514 10.6044 5.87911 10.5067C5.87911 10.5067 5.97522 10.45 6.05823 10.4028V10.4784C6.04803 11.9569 6.1562 13.4335 6.38151 14.8918V14.8918V14.9391C6.51648 15.263 6.61758 15.6022 6.68295 15.9503L6.90139 16.7536L6.96692 16.8292C7.19897 16.9796 7.46535 17.0565 7.73581 17.0513H7.80134L7.84066 16.9521C7.86226 16.8307 7.87251 16.7072 7.87124 16.5835C7.87124 16.437 7.87124 16.2764 7.87124 16.0779V15.7897C7.78824 14.4429 7.7096 12.4819 7.7096 11.2061V11.1021L8.84546 11.8771C10.4182 12.9781 12.7773 14.6509 14.2321 15.0903C14.2682 15.102 14.3065 15.1033 14.3433 15.0942C14.38 15.0851 14.4139 15.0658 14.4418 15.0383L14.6646 14.8871H14.7039C14.753 14.8441 14.7921 14.7892 14.8179 14.7268C14.8437 14.6644 14.8555 14.5963 14.8524 14.528C16.0626 14.4666 17.7533 13.9609 18.6576 12.7324C18.9806 12.2871 19.1587 11.739 19.1644 11.173C19.1837 10.828 19.077 10.4887 18.8673 10.2279" fill="#FCAF17"/>
<path d="M18.6925 10.0673L17.9913 10.7802L18.053 10.8408L18.1241 10.89L18.6925 10.0673ZM16.3946 9.29705L16.4836 10.2931L16.5129 10.2905L16.542 10.2861L16.3946 9.29705ZM14.385 10.0436H13.385V11.9762L14.9626 10.86L14.385 10.0436ZM14.385 10.0058L13.3852 9.98683L13.385 9.99634V10.0058H14.385ZM14.4461 9.11748L15.4391 9.23573L15.4411 9.21915L15.4425 9.20251L14.4461 9.11748ZM14.5029 8.21022L13.5035 8.17718L13.5029 8.1937V8.21022H14.5029ZM14.3762 7.388L15.3188 7.05397L15.3176 7.05071L14.3762 7.388ZM14.2321 7.28878L14.159 6.29145L14.1449 6.29248L14.1309 6.29391L14.2321 7.28878ZM13.3059 7.61956L12.7584 6.78279L12.5082 6.94647L12.3889 7.2206L13.3059 7.61956ZM13.236 7.78022L12.319 7.38126L12.2366 7.57084L12.236 7.77759L13.236 7.78022ZM13.1006 9.11748L14.0704 9.36129L14.0761 9.33863L14.0807 9.31572L13.1006 9.11748ZM13.0656 9.23088L12.1269 8.88625L12.0826 9.0069L12.0703 9.13484L13.0656 9.23088ZM13.0656 12.6331H14.0656V12.585L14.061 12.5371L13.0656 12.6331ZM13.3846 12.9308L12.9875 13.8486L13.1648 13.9254L13.358 13.9305L13.3846 12.9308ZM14.2583 12.7465V11.7465H14.0351L13.8332 11.8414L14.2583 12.7465ZM14.3588 12.7465V13.7465H14.4292L14.499 13.7367L14.3588 12.7465ZM14.4855 12.5575H13.4855V12.6439L13.5003 12.7289L14.4855 12.5575ZM14.4855 12.2787L13.5145 12.0394L13.4855 12.1573V12.2787H14.4855ZM16.3684 10.2799L16.1404 9.30625L16.1254 9.30974L16.1106 9.31369L16.3684 10.2799ZM17.047 10.3159L17.3757 9.37145L17.047 10.3159ZM17.6178 10.7146L18.5959 10.5064L18.5442 10.2637L18.3851 10.0733L17.6178 10.7146ZM17.4125 12.0897L18.2833 12.5814L18.2841 12.58L17.4125 12.0897ZM15.9839 13.3089L15.653 12.3652L15.6386 12.3703L15.6243 12.3757L15.9839 13.3089ZM13.7996 13.6396L13.2845 14.4968L13.4905 14.6206L13.7303 14.6372L13.7996 13.6396ZM12.9914 13.0537L12.3545 13.8246L12.3772 13.8434L12.4011 13.8609L12.9914 13.0537ZM10.6934 11.5747L10.1767 12.4308L10.216 12.4545L10.2573 12.4745L10.6934 11.5747ZM10.1692 11.173L10.8601 10.4501L10.8596 10.4496L10.1692 11.173ZM10.0949 11.1021L10.7853 10.3787L10.7721 10.3661L10.7585 10.354L10.0949 11.1021ZM8.129 9.62309L7.53269 10.4259L7.53899 10.4305L7.54535 10.4351L8.129 9.62309ZM7.76639 9.35375H6.76639V9.85663L7.17009 10.1565L7.76639 9.35375ZM8.20326 8.97573L7.73207 8.09369L7.70134 8.11011L7.67183 8.12862L8.20326 8.97573ZM9.12943 8.3189L8.59874 7.47133L8.52164 7.51961L8.45452 7.581L9.12943 8.3189ZM9.21243 8.26693L8.68891 7.41487L8.68174 7.41936L9.21243 8.26693ZM10.6891 7.35965L10.1782 6.49998L10.1719 6.50376L10.1656 6.50763L10.6891 7.35965ZM14.5554 4.61896L15.3016 5.28469L15.4596 5.10752L15.5212 4.87819L14.5554 4.61896ZM14.5947 4.47248L15.5605 4.73171L15.5947 4.60435V4.47248H14.5947ZM14.5947 4.34489L13.6337 4.06818L13.5947 4.20378V4.34489H14.5947ZM14.5947 3.81094L13.6109 3.9901L13.6198 4.03945L13.6337 4.08764L14.5947 3.81094ZM14.4811 3.68807L14.6895 2.71002L14.6391 2.6993L14.5879 2.69379L14.4811 3.68807ZM12.2006 4.82688L12.9062 5.53554L12.9128 5.52891L12.2006 4.82688ZM11.7244 5.186L11.2395 4.31143L11.2352 4.31383L11.7244 5.186ZM11.6065 5.25216L11.1173 4.37999L11.1044 4.3872L11.0918 4.39478L11.6065 5.25216ZM7.82755 7.76604L6.82979 7.69919L6.69067 9.77569L8.39881 8.58681L7.82755 7.76604ZM8.33869 3.54159L9.32359 3.71475L9.35253 3.55014L9.32637 3.38506L8.33869 3.54159ZM8.31248 3.3762L9.30015 3.21967L9.27571 3.0654L9.20537 2.92593L8.31248 3.3762ZM8.20763 3.16828L9.1006 2.71798L9.09484 2.7069L8.20763 3.16828ZM8.129 3.01707L9.0162 2.55569L8.872 2.2784L8.59555 2.13258L8.129 3.01707ZM7.64407 2.984L7.29887 2.04547L7.28583 2.05027L7.27292 2.05543L7.64407 2.984ZM7.44311 3.06432L7.80655 3.99598L7.81426 3.9929L7.44311 3.06432ZM7.17662 3.16828L7.40077 4.14284L7.47197 4.12646L7.54004 4.09991L7.17662 3.16828ZM7.06303 3.27224L6.12358 2.92955L6.1199 2.93964L6.11644 2.94981L7.06303 3.27224ZM6.08881 8.24329L5.52724 9.07072L6.98178 10.0579L7.08701 8.30315L6.08881 8.24329ZM3.75592 6.87767L3.49553 7.84318L3.62344 7.87767H3.75592V6.87767ZM3.22294 6.61306L3.83111 5.81926L3.81502 5.80693L3.79844 5.79526L3.22294 6.61306ZM2.86033 6.35788L3.43585 5.54006L3.42989 5.53593L2.86033 6.35788ZM2.30114 5.9704L2.87069 5.14845L2.72248 5.04575L2.54774 5.00129L2.30114 5.9704ZM2.1526 5.93261L2.39921 4.96349L2.11071 4.89008L1.82904 4.9864L2.1526 5.93261ZM1.31818 6.53745L0.526881 5.92602L0.480772 5.98569L0.444133 6.05161L1.31818 6.53745ZM1.29197 6.63668L0.292067 6.62256L0.291368 6.67206L0.295562 6.72139L1.29197 6.63668ZM1.31818 6.77845L2.29616 6.56976L2.28873 6.53492L2.27883 6.5007L1.31818 6.77845ZM1.34439 6.9013L0.366411 7.10999L0.379312 7.17044L0.39956 7.22885L1.34439 6.9013ZM1.3706 6.9769L0.425771 7.30445L0.509471 7.54589L0.698737 7.71757L1.3706 6.9769ZM2.99139 8.11571L3.48974 7.24873L3.47427 7.23984L3.45849 7.2315L2.99139 8.11571ZM3.75592 8.55516L4.26221 7.69275L4.25426 7.68818L3.75592 8.55516ZM4.9311 9.24507L5.58747 8.49063L5.51743 8.4297L5.43737 8.3827L4.9311 9.24507ZM5.13206 9.41991L4.4757 10.1744L4.53437 10.2254L4.60022 10.2668L5.13206 9.41991ZM5.26749 9.50496L4.73565 10.3518L4.97952 10.505H5.26749V9.50496ZM5.2937 9.50496L5.87049 10.3219L8.44375 8.50496H5.2937V9.50496ZM3.16177 11.0454L2.57454 10.2359L2.56532 10.2428L3.16177 11.0454ZM2.01717 11.896L2.52714 12.7562L2.57188 12.7297L2.61362 12.6986L2.01717 11.896ZM1.3706 12.2315L1.72479 13.1667L1.75272 13.1561L1.77996 13.1439L1.3706 12.2315ZM0.863833 12.6804L-0.0130529 12.1997L-0.0356914 12.241L-0.0543485 12.2842L0.863833 12.6804ZM0.833252 12.7513L-0.0849293 12.3551L-0.296665 12.8458L-0.00629194 13.2946L0.833252 12.7513ZM0.863833 12.7985L0.0242889 13.3418L0.110551 13.4751L0.233861 13.5751L0.863833 12.7985ZM0.951209 12.8694L0.321237 13.646L0.346841 13.6668L0.373758 13.6858L0.951209 12.8694ZM1.06479 12.9497L1.64299 12.1338L1.64224 12.1333L1.06479 12.9497ZM1.19149 13.0395L0.61329 13.8554L0.783564 13.9761L0.987888 14.0186L1.19149 13.0395ZM1.30507 13.0631L1.10148 14.0422L1.27492 14.0783L1.4502 14.0526L1.30507 13.0631ZM2.34046 12.6898L1.90796 11.7882L1.86487 11.8089L1.82395 11.8336L2.34046 12.6898ZM4.7913 11.1825L5.33382 12.0226L5.34453 12.0155L4.7913 11.1825ZM5.04032 11.0171L4.89558 10.0276L4.67381 10.06L4.48709 10.184L5.04032 11.0171ZM5.35487 10.8517L4.73038 10.0707L4.67747 10.113L4.63075 10.162L5.35487 10.8517ZM5.87911 10.5067H6.87911V8.84326L5.41002 9.62358L5.87911 10.5067ZM6.05823 10.4028H7.05823V8.68281L5.5635 9.53373L6.05823 10.4028ZM6.05823 10.4784L7.05823 10.4853V10.4784H6.05823ZM6.38151 14.9391H5.38151V15.1391L5.45845 15.3237L6.38151 14.9391ZM6.68295 15.9503L5.70013 16.1349L5.7075 16.1741L5.71799 16.2127L6.68295 15.9503ZM6.90139 16.7536L5.93643 17.016L5.99629 17.2362L6.14572 17.4086L6.90139 16.7536ZM6.96692 16.8292L6.21125 17.4842L6.30413 17.5913L6.42313 17.6685L6.96692 16.8292ZM7.73581 17.0513V16.0513H7.72618L7.71654 16.0515L7.73581 17.0513ZM7.80134 17.0513V18.0513H8.48075L8.73102 17.4197L7.80134 17.0513ZM7.84066 16.9521L8.77034 17.3205L8.80753 17.2266L8.82521 17.1272L7.84066 16.9521ZM7.87124 16.5835L6.87119 16.5835L6.87129 16.5938L7.87124 16.5835ZM7.87124 15.7897H8.87124V15.7589L8.86935 15.7281L7.87124 15.7897ZM7.7096 11.1021L8.27318 10.2761L6.7096 9.20931V11.1021H7.7096ZM8.84546 11.8771L9.419 11.0578L9.40905 11.051L8.84546 11.8771ZM14.2321 15.0903L14.5389 14.1385L14.5301 14.1357L14.5213 14.133L14.2321 15.0903ZM14.4418 15.0383L13.8802 14.2109L13.8043 14.2624L13.739 14.327L14.4418 15.0383ZM14.6646 14.8871V13.8871H14.3573L14.103 14.0597L14.6646 14.8871ZM14.7039 14.8871V15.8871H15.0799L15.3627 15.6394L14.7039 14.8871ZM14.8524 14.528L14.8017 13.5293L13.8085 13.5797L13.8535 14.5732L14.8524 14.528ZM18.6576 12.7324L19.463 13.3252L19.467 13.3196L18.6576 12.7324ZM19.1644 11.173L18.1659 11.1171L18.1646 11.1401L18.1644 11.1631L19.1644 11.173ZM18.8498 10.176L19.4183 9.35325L19.261 9.24458L18.6925 10.0673L18.1241 10.89L18.2813 10.9987L18.8498 10.176ZM18.6925 10.0673L19.3937 9.35431C18.9813 8.94865 18.486 8.64062 17.9405 8.45778L17.6227 9.40594L17.3049 10.3541C17.5535 10.4374 17.7887 10.5809 17.9913 10.7802L18.6925 10.0673ZM17.6227 9.40594L17.9405 8.45778C17.3947 8.27483 16.8161 8.2232 16.2472 8.30797L16.3946 9.29705L16.542 10.2861C16.7967 10.2482 17.0566 10.2709 17.3049 10.3541L17.6227 9.40594ZM16.3946 9.29705L16.3056 8.30101C15.4084 8.38117 14.5498 8.70202 13.8074 9.22732L14.385 10.0436L14.9626 10.86C15.4241 10.5334 15.947 10.341 16.4836 10.2931L16.3946 9.29705ZM14.385 10.0436H15.385V10.0058H14.385H13.385V10.0436H14.385ZM14.385 10.0058L15.3848 10.0249C15.3898 9.7609 15.408 9.49746 15.4391 9.23573L14.4461 9.11748L13.4532 8.99923C13.4141 9.32694 13.3914 9.65661 13.3852 9.98683L14.385 10.0058ZM14.4461 9.11748L15.4425 9.20251C15.4667 8.91934 15.5029 8.55721 15.5029 8.21022H14.5029H13.5029C13.5029 8.44918 13.478 8.70133 13.4498 9.03245L14.4461 9.11748ZM14.5029 8.21022L15.5024 8.24327C15.5158 7.83913 15.4538 7.43491 15.3188 7.05397L14.3762 7.388L13.4337 7.72204C13.4844 7.86526 13.5087 8.02033 13.5035 8.17718L14.5029 8.21022ZM14.3762 7.388L15.3176 7.05071C15.2393 6.83192 15.0931 6.63146 14.8862 6.48907L14.3192 7.3128L13.7522 8.13653C13.5972 8.02984 13.491 7.88208 13.4348 7.7253L14.3762 7.388ZM14.3192 7.3128L14.8862 6.48907C14.6778 6.3456 14.4224 6.27215 14.159 6.29145L14.2321 7.28878L14.3051 8.2861C14.1031 8.30091 13.9088 8.2443 13.7522 8.13653L14.3192 7.3128ZM14.2321 7.28878L14.1309 6.29391C13.6402 6.34382 13.171 6.51275 12.7584 6.78279L13.3059 7.61956L13.8535 8.45633C14.0042 8.35766 14.1683 8.30042 14.3333 8.28364L14.2321 7.28878ZM13.3059 7.61956L12.3889 7.2206L12.319 7.38126L13.236 7.78022L14.153 8.17918L14.2229 8.01852L13.3059 7.61956ZM13.236 7.78022L12.236 7.77759C12.235 8.1618 12.1962 8.54455 12.1204 8.91924L13.1006 9.11748L14.0807 9.31572C14.1827 8.81181 14.2347 8.29801 14.236 7.78284L13.236 7.78022ZM13.1006 9.11748L12.1308 8.87367C12.1296 8.87815 12.1283 8.88235 12.1269 8.88625L13.0656 9.23088L14.0044 9.57552C14.0302 9.50529 14.0522 9.43377 14.0704 9.36129L13.1006 9.11748ZM13.0656 9.23088L12.0703 9.13484C11.955 10.3297 11.955 11.5343 12.0703 12.7292L13.0656 12.6331L14.061 12.5371C13.958 11.47 13.958 10.3941 14.061 9.32693L13.0656 9.23088ZM13.0656 12.6331H12.0656C12.0656 12.9627 12.2157 13.1968 12.2795 13.2874C12.3595 13.401 12.4485 13.4883 12.5168 13.5482C12.6504 13.6653 12.8173 13.775 12.9875 13.8486L13.3846 12.9308L13.7816 12.013C13.8207 12.03 13.8281 12.038 13.8351 12.0441C13.8401 12.0485 13.8739 12.0779 13.9146 12.1357C13.9358 12.1658 13.9692 12.2182 13.9993 12.2916C14.0288 12.3637 14.0656 12.4817 14.0656 12.6331H13.0656ZM13.3846 12.9308L13.358 13.9305C13.8162 13.9426 14.2689 13.8464 14.6834 13.6517L14.2583 12.7465L13.8332 11.8414C13.6969 11.9054 13.5532 11.935 13.4111 11.9312L13.3846 12.9308ZM14.2583 12.7465V13.7465H14.3588V12.7465V11.7465H14.2583V12.7465ZM14.3588 12.7465L14.499 13.7367C14.6649 13.7132 14.8206 13.6538 14.9567 13.5661L14.4155 12.7253L13.8742 11.8844C13.9756 11.8192 14.0927 11.7742 14.2186 11.7564L14.3588 12.7465ZM14.4155 12.7253L14.9567 13.5661C15.0925 13.4787 15.2049 13.3659 15.2904 13.2383L14.4597 12.6815L13.6291 12.1248C13.6909 12.0326 13.7731 11.9495 13.8742 11.8844L14.4155 12.7253ZM14.4597 12.6815L15.2904 13.2383C15.3757 13.1111 15.4335 12.9704 15.4636 12.8255L14.4844 12.6224L13.5053 12.4193C13.5265 12.3171 13.5675 12.2166 13.6291 12.1248L14.4597 12.6815ZM14.4844 12.6224L15.4636 12.8255C15.4936 12.6806 15.496 12.5315 15.4707 12.3861L14.4855 12.5575L13.5003 12.7289C13.4824 12.6265 13.4841 12.5216 13.5053 12.4193L14.4844 12.6224ZM14.4855 12.5575H15.4855V12.2787H14.4855H13.4855V12.5575H14.4855ZM14.4855 12.2787L15.4564 12.518C15.5362 12.1943 15.693 11.9082 15.902 11.6863L15.1741 11.0007L14.4462 10.315C13.9927 10.7964 13.6738 11.3931 13.5145 12.0394L14.4855 12.2787ZM15.1741 11.0007L15.902 11.6863C16.1104 11.465 16.3619 11.3166 16.6261 11.2461L16.3684 10.2799L16.1106 9.31369C15.4736 9.48362 14.9002 9.83302 14.4462 10.315L15.1741 11.0007ZM16.3684 10.2799L16.5964 11.2536C16.6362 11.2442 16.6773 11.2461 16.7184 11.2604L17.047 10.3159L17.3757 9.37145C16.9781 9.23312 16.551 9.2101 16.1404 9.30625L16.3684 10.2799ZM17.047 10.3159L16.7184 11.2604C16.7603 11.2749 16.8076 11.3046 16.8506 11.356L17.6178 10.7146L18.3851 10.0733C18.119 9.75499 17.7725 9.50955 17.3757 9.37145L17.047 10.3159ZM17.6178 10.7146L16.6398 10.9229C16.69 11.159 16.6511 11.4035 16.5409 11.5994L17.4125 12.0897L18.2841 12.58C18.6372 11.9522 18.7457 11.2099 18.5959 10.5064L17.6178 10.7146ZM17.4125 12.0897L16.5417 11.598C16.3279 11.9766 16.0072 12.241 15.653 12.3652L15.9839 13.3089L16.3148 14.2525C17.1517 13.9591 17.8444 13.3585 18.2833 12.5814L17.4125 12.0897ZM15.9839 13.3089L15.6243 12.3757C15.0598 12.5933 14.4628 12.6833 13.8688 12.642L13.7996 13.6396L13.7303 14.6372C14.619 14.6989 15.5086 14.5637 16.3435 14.242L15.9839 13.3089ZM13.7996 13.6396L14.3146 12.7825C14.3522 12.805 14.378 12.8247 14.3333 12.7929C14.3114 12.7773 14.2803 12.7549 14.2421 12.7274C14.1661 12.6725 14.0676 12.6009 13.9693 12.5294C13.8713 12.458 13.7743 12.3873 13.7018 12.3343C13.6656 12.3079 13.6355 12.2859 13.6145 12.2705C13.604 12.2629 13.5958 12.2568 13.5902 12.2528C13.5874 12.2507 13.5853 12.2491 13.5838 12.2481C13.5831 12.2476 13.5826 12.2472 13.5822 12.2469C13.582 12.2468 13.5819 12.2467 13.5818 12.2466C13.5818 12.2466 13.5817 12.2466 13.5817 12.2465C13.5817 12.2465 13.5817 12.2465 13.5817 12.2465C13.5817 12.2465 13.5817 12.2465 12.9914 13.0537C12.4011 13.8609 12.4011 13.8609 12.4011 13.8609C12.4011 13.8609 12.4011 13.8609 12.4011 13.8609C12.4011 13.8609 12.4012 13.8609 12.4012 13.861C12.4013 13.8611 12.4015 13.8612 12.4016 13.8613C12.402 13.8616 12.4026 13.862 12.4033 13.8625C12.4048 13.8636 12.407 13.8652 12.4098 13.8673C12.4155 13.8714 12.4238 13.8775 12.4344 13.8853C12.4556 13.9008 12.4859 13.9229 12.5224 13.9495C12.5953 14.0028 12.6931 14.0741 12.7921 14.1462C12.891 14.2182 12.9921 14.2916 13.0713 14.3489C13.1177 14.3824 13.2271 14.4623 13.2845 14.4968L13.7996 13.6396ZM12.9914 13.0537L13.6283 12.2827C12.857 11.6456 12.0187 11.1058 11.1296 10.6748L10.6934 11.5747L10.2573 12.4745C11.0004 12.8347 11.7042 13.2875 12.3545 13.8246L12.9914 13.0537ZM10.6934 11.5747L11.2101 10.7185C11.0864 10.6438 10.9689 10.5541 10.8601 10.4501L10.1692 11.173L9.47825 11.8959C9.69134 12.0996 9.92538 12.2791 10.1767 12.4308L10.6934 11.5747ZM10.1692 11.173L10.8596 10.4496L10.7853 10.3787L10.0949 11.1021L9.40451 11.8256L9.47878 11.8964L10.1692 11.173ZM10.0949 11.1021L10.7585 10.354C10.2723 9.9228 9.36177 9.27765 8.71264 8.81108L8.129 9.62309L7.54535 10.4351C8.25053 10.942 9.04379 11.5065 9.43137 11.8503L10.0949 11.1021ZM8.129 9.62309L8.7253 8.82034L8.3627 8.55099L7.76639 9.35375L7.17009 10.1565L7.53269 10.4259L8.129 9.62309ZM7.76639 9.35375H8.76639V9.27342H7.76639H6.76639V9.35375H7.76639ZM7.76639 9.27342H8.76639C8.76639 9.4564 8.71617 9.59539 8.68571 9.6664C8.65265 9.74344 8.61645 9.80074 8.59369 9.8341C8.54902 9.89956 8.50666 9.9443 8.48978 9.96174C8.45263 10.0001 8.42221 10.0247 8.41769 10.0284C8.4027 10.0406 8.39754 10.0437 8.41275 10.0329C8.43823 10.0149 8.48038 9.98651 8.5324 9.95248C8.5822 9.91988 8.63296 9.88735 8.67188 9.86258C8.69117 9.8503 8.70719 9.84017 8.71826 9.83318C8.72379 9.82969 8.72807 9.82699 8.73088 9.82522C8.73229 9.82434 8.73333 9.82369 8.73397 9.82328C8.73429 9.82308 8.73452 9.82294 8.73464 9.82286C8.7347 9.82282 8.73473 9.8228 8.73474 9.8228C8.73475 9.82279 8.73475 9.82279 8.73474 9.8228C8.73473 9.8228 8.73472 9.82281 8.73472 9.82281C8.73471 9.82282 8.73469 9.82283 8.20326 8.97573C7.67183 8.12862 7.67181 8.12864 7.6718 8.12865C7.67179 8.12865 7.67177 8.12867 7.67175 8.12868C7.67171 8.1287 7.67167 8.12873 7.67162 8.12876C7.67153 8.12882 7.6714 8.12889 7.67125 8.12899C7.67096 8.12917 7.67055 8.12943 7.67005 8.12974C7.66904 8.13038 7.66763 8.13127 7.66583 8.1324C7.66224 8.13465 7.65713 8.13787 7.65072 8.14192C7.6379 8.15001 7.61979 8.16147 7.59813 8.17526C7.55513 8.20262 7.49667 8.24008 7.43726 8.27896C7.38005 8.31639 7.31299 8.36099 7.25656 8.40097C7.23081 8.41922 7.19151 8.44756 7.15264 8.47931C7.13617 8.49276 7.09637 8.52565 7.05282 8.57064C7.03274 8.59138 6.98792 8.639 6.94161 8.70688C6.92484 8.73145 6.76639 8.94944 6.76639 9.27342H7.76639ZM8.20326 8.97573L8.67445 9.85776C9.08166 9.64022 9.46091 9.37091 9.80434 9.0568L9.12943 8.3189L8.45452 7.581C8.23208 7.78445 7.9893 7.95628 7.73207 8.09369L8.20326 8.97573ZM9.12943 8.3189L9.66013 9.16646L9.74313 9.11449L9.21243 8.26693L8.68174 7.41936L8.59874 7.47133L9.12943 8.3189ZM9.21243 8.26693L9.73594 9.11895L11.2126 8.21168L10.6891 7.35965L10.1656 6.50763L8.68893 7.4149L9.21243 8.26693ZM10.6891 7.35965L11.1999 8.21933C11.9025 7.80179 12.6839 7.33803 13.3963 6.85712C14.1001 6.38202 14.7957 5.85164 15.3016 5.28469L14.5554 4.61896L13.8092 3.95323C13.4718 4.33136 12.942 4.75077 12.2773 5.19946C11.6212 5.64235 10.891 6.0764 10.1782 6.49998L10.6891 7.35965ZM14.5554 4.61896L15.5212 4.87819L15.5605 4.73171L14.5947 4.47248L13.6289 4.21325L13.5895 4.35974L14.5554 4.61896ZM14.5947 4.47248H15.5947V4.34489H14.5947H13.5947V4.47248H14.5947ZM14.5947 4.34489L15.5556 4.62159C15.6578 4.26693 15.6578 3.88889 15.5556 3.53423L14.5947 3.81094L13.6337 4.08764C13.6325 4.08353 13.6322 4.08035 13.6322 4.07791C13.6322 4.07547 13.6325 4.07229 13.6337 4.06818L14.5947 4.34489ZM14.5947 3.81094L15.5785 3.63177C15.5402 3.42164 15.4435 3.21852 15.2894 3.05194L14.5552 3.7308L13.8209 4.40966C13.7074 4.28683 13.6381 4.13951 13.6109 3.9901L14.5947 3.81094ZM14.5552 3.7308L15.2894 3.05194C15.1347 2.88456 14.9275 2.76075 14.6895 2.71002L14.4811 3.68807L14.2727 4.66612C14.0908 4.62736 13.9352 4.53329 13.8209 4.40966L14.5552 3.7308ZM14.4811 3.68807L14.5879 2.69379C13.4697 2.57364 12.3348 3.26635 11.4885 4.12485L12.2006 4.82688L12.9128 5.52891C13.613 4.8186 14.1732 4.66074 14.3743 4.68235L14.4811 3.68807ZM12.2006 4.82688L11.4951 4.11825C11.4162 4.19673 11.33 4.26126 11.2395 4.31144L11.7244 5.186L12.2094 6.06055C12.4648 5.9189 12.699 5.74184 12.9062 5.53551L12.2006 4.82688ZM11.7244 5.186L11.2352 4.31383L11.1173 4.37999L11.6065 5.25216L12.0957 6.12432L12.2136 6.05816L11.7244 5.186ZM11.6065 5.25216L11.0918 4.39478C10.1849 4.93917 8.25816 6.24796 7.25629 6.94527L7.82755 7.76604L8.39881 8.58681C9.40655 7.88542 11.2805 6.61417 12.1212 6.10953L11.6065 5.25216ZM7.82755 7.76604L8.82532 7.83289C8.91791 6.45083 9.08429 5.07581 9.32359 3.71475L8.33869 3.54159L7.3538 3.36843C7.1021 4.80001 6.92715 6.246 6.82979 7.69919L7.82755 7.76604ZM8.33869 3.54159L9.32637 3.38506L9.30015 3.21967L8.31248 3.3762L7.32481 3.53273L7.35102 3.69812L8.33869 3.54159ZM8.31248 3.3762L9.20537 2.92593L9.10053 2.71801L8.20763 3.16828L7.31474 3.61855L7.41959 3.82647L8.31248 3.3762ZM8.20763 3.16828L9.09484 2.7069L9.0162 2.55569L8.129 3.01707L7.24179 3.47845L7.32043 3.62966L8.20763 3.16828ZM8.129 3.01707L8.59555 2.13258C8.19565 1.92163 7.72642 1.88822 7.29887 2.04547L7.64407 2.984L7.98927 3.92253C7.88041 3.96257 7.75979 3.95291 7.66244 3.90156L8.129 3.01707ZM7.64407 2.984L7.27292 2.05543L7.07196 2.13575L7.44311 3.06432L7.81426 3.9929L8.01522 3.91258L7.64407 2.984ZM7.44311 3.06432L7.07968 2.1327L6.81319 2.23666L7.17662 3.16828L7.54004 4.09991L7.80653 3.99595L7.44311 3.06432ZM7.17662 3.16828L6.95247 2.19373C6.75351 2.23949 6.5757 2.33615 6.43259 2.46713L7.10774 3.20481L7.78289 3.94249C7.67942 4.03719 7.54893 4.10876 7.40077 4.14284L7.17662 3.16828ZM7.10774 3.20481L6.43259 2.46713C6.28998 2.59765 6.18619 2.75792 6.12358 2.92955L7.06303 3.27224L8.00248 3.61493C7.95893 3.73431 7.88587 3.84824 7.78289 3.94249L7.10774 3.20481ZM7.06303 3.27224L6.11644 2.94981C5.5431 4.63303 5.19781 6.39566 5.0906 8.18343L6.08881 8.24329L7.08701 8.30315C7.18359 6.69273 7.49456 5.10681 8.00962 3.59467L7.06303 3.27224ZM6.08881 8.24329L6.65037 7.41586C5.88265 6.89482 5.08878 6.41939 4.27226 5.9918L3.80834 6.87767L3.34442 7.76355C4.09317 8.15566 4.82187 8.592 5.52724 9.07072L6.08881 8.24329ZM3.80834 6.87767V5.87767H3.75592V6.87767V7.87767H3.80834V6.87767ZM3.75592 6.87767L4.01631 5.91217C3.95392 5.89535 3.89083 5.86501 3.83111 5.81926L3.22294 6.61306L2.61476 7.40686C2.87685 7.60766 3.17526 7.75681 3.49553 7.84318L3.75592 6.87767ZM3.22294 6.61306L3.79844 5.79526L3.43584 5.54009L2.86033 6.35788L2.28483 7.17568L2.64743 7.43086L3.22294 6.61306ZM2.86033 6.35788L3.42989 5.53593L2.87069 5.14845L2.30114 5.9704L1.73158 6.79236L2.29078 7.17984L2.86033 6.35788ZM2.30114 5.9704L2.54774 5.00129L2.39921 4.96349L2.1526 5.93261L1.906 6.90172L2.05453 6.93952L2.30114 5.9704ZM2.1526 5.93261L1.82904 4.9864C1.31009 5.16386 0.860592 5.49414 0.526881 5.92602L1.31818 6.53745L2.10948 7.14888C2.21399 7.01362 2.34355 6.92416 2.47617 6.87881L2.1526 5.93261ZM1.31818 6.53745L0.444133 6.05161C0.345534 6.22899 0.294847 6.42575 0.292067 6.62256L1.29197 6.63668L2.29187 6.6508C2.29008 6.77761 2.25747 6.90591 2.19222 7.02329L1.31818 6.53745ZM1.29197 6.63668L0.295562 6.72139C0.305174 6.83445 0.325852 6.94665 0.357524 7.05619L1.31818 6.77845L2.27883 6.5007C2.28384 6.518 2.28694 6.53515 2.28837 6.55196L1.29197 6.63668ZM1.31818 6.77845L0.340197 6.98714L0.366411 7.10999L1.34439 6.9013L2.32238 6.69261L2.29616 6.56976L1.31818 6.77845ZM1.34439 6.9013L0.39956 7.22885L0.425771 7.30445L1.3706 6.9769L2.31544 6.64935L2.28923 6.57374L1.34439 6.9013ZM1.3706 6.9769L0.698737 7.71757C1.25506 8.22222 1.86793 8.65319 2.5243 8.99992L2.99139 8.11571L3.45849 7.2315C2.95277 6.96435 2.47708 6.63046 2.04247 6.23623L1.3706 6.9769ZM2.99139 8.11571L2.49305 8.98269L3.25757 9.42214L3.75592 8.55516L4.25426 7.68818L3.48974 7.24873L2.99139 8.11571ZM3.75592 8.55516L3.24965 9.41754L4.42483 10.1074L4.9311 9.24507L5.43737 8.3827L4.26219 7.69279L3.75592 8.55516ZM4.9311 9.24507L4.27474 9.99952L4.4757 10.1744L5.13206 9.41991L5.78843 8.66547L5.58747 8.49063L4.9311 9.24507ZM5.13206 9.41991L4.60022 10.2668L4.73565 10.3518L5.26749 9.50496L5.79933 8.65812L5.6639 8.57306L5.13206 9.41991ZM5.26749 9.50496V10.505H5.2937V9.50496V8.50496H5.26749V9.50496ZM5.2937 9.50496L4.71692 8.68806C4.55346 8.80347 4.01394 9.19335 3.52341 9.54844C3.27634 9.72728 3.03915 9.89916 2.86375 10.0263C2.77604 10.0899 2.70377 10.1423 2.65341 10.1788C2.62823 10.1971 2.60854 10.2114 2.59513 10.2211C2.58842 10.2259 2.58329 10.2297 2.57983 10.2322C2.5781 10.2334 2.57679 10.2344 2.57591 10.235C2.57547 10.2353 2.57514 10.2356 2.57492 10.2357C2.57481 10.2358 2.57472 10.2359 2.57467 10.2359C2.57464 10.2359 2.57462 10.236 2.5746 10.236C2.57459 10.236 2.57458 10.236 3.16177 11.0454C3.74897 11.8549 3.74897 11.8549 3.74899 11.8549C3.749 11.8548 3.74902 11.8548 3.74905 11.8548C3.7491 11.8548 3.74918 11.8547 3.74929 11.8546C3.74951 11.8545 3.74984 11.8542 3.75027 11.8539C3.75114 11.8533 3.75244 11.8524 3.75416 11.8511C3.7576 11.8486 3.76271 11.8449 3.7694 11.8401C3.78276 11.8304 3.80242 11.8161 3.82755 11.7979C3.87781 11.7614 3.94997 11.7091 4.03756 11.6456C4.21274 11.5186 4.44956 11.347 4.69616 11.1685C5.19295 10.8089 5.71939 10.4285 5.87049 10.3219L5.2937 9.50496ZM3.16177 11.0454L2.56532 10.2428L1.42072 11.0933L2.01717 11.896L2.61362 12.6986L3.75822 11.8481L3.16177 11.0454ZM2.01717 11.896L1.5072 11.0358C1.32973 11.141 1.14748 11.2355 0.961249 11.3191L1.3706 12.2315L1.77996 13.1439C2.03565 13.0291 2.28507 12.8997 2.52714 12.7562L2.01717 11.896ZM1.3706 12.2315L1.01642 11.2963C0.568989 11.4658 0.209915 11.793 -0.0130529 12.1997L0.863833 12.6804L1.74072 13.1611C1.74741 13.1489 1.74723 13.1582 1.72479 13.1667L1.3706 12.2315ZM0.863833 12.6804L-0.0543485 12.2842L-0.0849293 12.3551L0.833252 12.7513L1.75143 13.1474L1.78201 13.0765L0.863833 12.6804ZM0.833252 12.7513L-0.00629194 13.2946L0.0242889 13.3418L0.863833 12.7985L1.70338 12.2552L1.6728 12.208L0.833252 12.7513ZM0.863833 12.7985L0.233861 13.5751L0.321237 13.646L0.951209 12.8694L1.58118 12.0928L1.4938 12.0219L0.863833 12.7985ZM0.951209 12.8694L0.373758 13.6858L0.487342 13.7662L1.06479 12.9497L1.64224 12.1333L1.52866 12.053L0.951209 12.8694ZM1.06479 12.9497L0.486597 13.7656L0.61329 13.8554L1.19149 13.0395L1.76968 12.2236L1.64299 12.1338L1.06479 12.9497ZM1.19149 13.0395L0.987888 14.0186L1.10148 14.0422L1.30507 13.0631L1.50867 12.0841L1.39508 12.0605L1.19149 13.0395ZM1.30507 13.0631L1.4502 14.0526C1.94773 13.9796 2.42487 13.8068 2.85697 13.5461L2.34046 12.6898L1.82395 11.8336C1.615 11.9596 1.38975 12.04 1.15995 12.0737L1.30507 13.0631ZM2.34046 12.6898L2.77296 13.5915C3.34977 13.3148 4.79246 12.3721 5.33378 12.0225L4.7913 11.1825L4.24883 10.3424C3.61933 10.7489 2.33595 11.5829 1.90796 11.7882L2.34046 12.6898ZM4.7913 11.1825L5.34453 12.0155L5.59355 11.8501L5.04032 11.0171L4.48709 10.184L4.23808 10.3494L4.7913 11.1825ZM5.04032 11.0171L5.18505 12.0065C5.53386 11.9555 5.84546 11.7866 6.07898 11.5414L5.35487 10.8517L4.63075 10.162C4.69267 10.097 4.78378 10.044 4.89558 10.0276L5.04032 11.0171ZM5.35487 10.8517L5.97936 11.6327C6.0963 11.5392 6.21981 11.4581 6.3482 11.3899L5.87911 10.5067L5.41002 9.62358C5.17046 9.75082 4.94306 9.9006 4.73038 10.0707L5.35487 10.8517ZM5.87911 10.5067C6.38726 11.368 6.38725 11.368 6.38725 11.368C6.38725 11.368 6.38724 11.368 6.38724 11.368C6.38724 11.368 6.38723 11.368 6.38723 11.368C6.38723 11.368 6.38723 11.368 6.38724 11.368C6.38725 11.368 6.38729 11.368 6.38735 11.3679C6.38748 11.3679 6.38769 11.3677 6.38799 11.3676C6.38858 11.3672 6.38952 11.3667 6.39078 11.3659C6.3933 11.3644 6.39707 11.3622 6.4019 11.3594C6.41158 11.3537 6.4254 11.3456 6.44168 11.3361C6.47472 11.3168 6.51598 11.2929 6.55296 11.2718L6.05823 10.4028L5.5635 9.53373C5.51747 9.55993 5.46917 9.58797 5.4334 9.60885C5.41528 9.61943 5.39988 9.62846 5.38895 9.63488C5.38347 9.6381 5.37909 9.64067 5.37602 9.64248C5.37449 9.64338 5.37329 9.64409 5.37243 9.64459C5.37201 9.64484 5.37167 9.64504 5.37142 9.64519C5.3713 9.64526 5.3712 9.64532 5.37112 9.64537C5.37108 9.64539 5.37105 9.64541 5.37103 9.64542C5.37101 9.64543 5.371 9.64544 5.37099 9.64544C5.37098 9.64545 5.37098 9.64545 5.37098 9.64545C5.37097 9.64546 5.37096 9.64546 5.87911 10.5067ZM6.05823 10.4028H5.05823V10.4784H6.05823H7.05823V10.4028H6.05823ZM6.05823 10.4784L5.05825 10.4715C5.04768 12.0033 5.15975 13.5333 5.39324 15.0445L6.38151 14.8918L7.36979 14.7391C7.15264 13.3337 7.04837 11.9104 7.0582 10.4853L6.05823 10.4784ZM6.38151 14.8918H5.38151V14.9391H6.38151H7.38151V14.8918H6.38151ZM6.38151 14.9391L5.45845 15.3237C5.5663 15.5826 5.64751 15.8546 5.70013 16.1349L6.68295 15.9503L7.66578 15.7658C7.58765 15.3497 7.46665 14.9434 7.30458 14.5545L6.38151 14.9391ZM6.68295 15.9503L5.71799 16.2127L5.93643 17.016L6.90139 16.7536L7.86635 16.4912L7.64791 15.6879L6.68295 15.9503ZM6.90139 16.7536L6.14572 17.4086L6.21125 17.4842L6.96692 16.8292L7.72258 16.1743L7.65705 16.0987L6.90139 16.7536ZM6.96692 16.8292L6.42313 17.6685C6.81869 17.9248 7.28047 18.0603 7.75508 18.0511L7.73581 17.0513L7.71654 16.0515C7.65024 16.0528 7.57924 16.0344 7.51071 15.99L6.96692 16.8292ZM7.73581 17.0513V18.0513H7.80134V17.0513V16.0513H7.73581V17.0513ZM7.80134 17.0513L8.73102 17.4197L8.77034 17.3205L7.84066 16.9521L6.91098 16.5837L6.87166 16.683L7.80134 17.0513ZM7.84066 16.9521L8.82521 17.1272C8.85772 16.9445 8.87309 16.7589 8.87119 16.5733L7.87124 16.5835L6.87129 16.5938C6.87192 16.6554 6.86681 16.7169 6.85611 16.777L7.84066 16.9521ZM7.87124 16.5835L8.87124 16.5835C8.87124 16.4719 8.87124 16.2415 8.87124 16.0779H7.87124H6.87124C6.87124 16.2415 6.87124 16.4719 6.87124 16.5835L7.87124 16.5835ZM7.87124 16.0779H8.87124V15.7897H7.87124H6.87124V16.0779H7.87124ZM7.87124 15.7897L8.86935 15.7281C8.78707 14.3933 8.7096 12.4543 8.7096 11.2061H7.7096H6.7096C6.7096 12.5096 6.7894 14.4926 6.87313 15.8512L7.87124 15.7897ZM7.7096 11.2061H8.7096V11.1021H7.7096H6.7096V11.2061H7.7096ZM7.7096 11.1021L7.14602 11.9282L8.28188 12.7031L8.84546 11.8771L9.40905 11.051L8.27318 10.2761L7.7096 11.1021ZM8.84546 11.8771L8.27197 12.6963C9.05212 13.2424 10.0567 13.9513 11.0495 14.5776C12.0195 15.1895 13.0735 15.785 13.9429 16.0476L14.2321 15.0903L14.5213 14.133C13.9359 13.9562 13.0829 13.4956 12.1165 12.886C11.1729 12.2908 10.2115 11.6127 9.41896 11.0579L8.84546 11.8771ZM14.2321 15.0903L13.9253 16.0421C14.1382 16.1107 14.366 16.1188 14.5838 16.0648L14.3433 15.0942L14.1027 14.1236C14.247 14.0878 14.3983 14.0932 14.5389 14.1385L14.2321 15.0903ZM14.3433 15.0942L14.5838 16.0648C14.8013 16.0109 14.9933 15.8991 15.1446 15.7497L14.4418 15.0383L13.739 14.327C13.8346 14.2325 13.9587 14.1592 14.1027 14.1236L14.3433 15.0942ZM14.4418 15.0383L15.0033 15.8658L15.2261 15.7145L14.6646 14.8871L14.103 14.0597L13.8802 14.2109L14.4418 15.0383ZM14.6646 14.8871V15.8871H14.7039V14.8871V13.8871H14.6646V14.8871ZM14.7039 14.8871L15.3627 15.6394C15.5315 15.4916 15.6594 15.3085 15.742 15.109L14.8179 14.7268L13.8938 14.3446C13.9247 14.2698 13.9745 14.1966 14.0451 14.1348L14.7039 14.8871ZM14.8179 14.7268L15.742 15.109C15.8244 14.9096 15.861 14.6955 15.8514 14.4828L14.8524 14.528L13.8535 14.5732C13.85 14.4971 13.863 14.4191 13.8938 14.3446L14.8179 14.7268ZM14.8524 14.528L14.9031 15.5267C16.2557 15.4581 18.3047 14.8987 19.4629 13.3252L18.6576 12.7324L17.8522 12.1396C17.2018 13.0232 15.8694 13.4751 14.8017 13.5293L14.8524 14.528ZM18.6576 12.7324L19.467 13.3196C19.9156 12.7012 20.1567 11.95 20.1643 11.1829L19.1644 11.173L18.1644 11.1631C18.1608 11.5279 18.0456 11.873 17.8482 12.1451L18.6576 12.7324ZM19.1644 11.173L20.1628 11.2289C20.1954 10.646 20.0166 10.0613 19.6465 9.60118L18.8673 10.2279L18.0881 10.8547C18.1374 10.916 18.1719 11.0101 18.1659 11.1171L19.1644 11.173Z" fill="#FCAF17" mask="url(#path-1-inside-1_2002_6630)"/>
</svg>
