<svg width="20" height="20" viewBox="0 0 20 20" fill="none" xmlns="http://www.w3.org/2000/svg">
<g clip-path="url(#clip0_2002_2489)">
<path d="M4.04761 2.17773H15.9539C16.2004 2.17762 16.4447 2.2261 16.6726 2.32031C16.9006 2.41458 17.1074 2.5532 17.282 2.72754C17.4566 2.90189 17.5956 3.10903 17.6902 3.33691C17.761 3.50772 17.8058 3.68776 17.824 3.87109L17.8337 4.05566V15.9434C17.8336 16.19 17.7847 16.4343 17.6902 16.6621C17.5956 16.8901 17.4566 17.0971 17.282 17.2715C17.1074 17.4458 16.9006 17.5844 16.6726 17.6787C16.4446 17.773 16.1997 17.8214 15.9529 17.8213H4.04761C3.54931 17.8215 3.07112 17.6236 2.71851 17.2715C2.41003 16.9634 2.21959 16.559 2.17651 16.1289L2.16675 15.9424V4.05566C2.16716 3.55732 2.36588 3.07967 2.71851 2.72754C3.07113 2.37544 3.54929 2.17746 4.04761 2.17773Z" fill="#FFE400" stroke="#FFE400"/>
<path d="M13.5749 11.6652C13.5001 11.0851 13.2101 10.5542 12.7623 10.1779C12.696 10.1196 12.6241 10.0653 12.5446 10.0006C12.6109 9.95093 12.6659 9.91282 12.7172 9.87008C13.0395 9.60329 13.2885 9.25873 13.4406 8.86896C13.5847 8.5004 13.6304 8.10068 13.5732 7.70911C13.5098 7.23281 13.2993 6.78818 12.9711 6.43726C12.7371 6.17676 12.4481 5.97164 12.125 5.83679C11.8112 5.70974 11.4754 5.64611 11.1369 5.64956H7.34316C7.317 5.64806 7.29078 5.64806 7.26462 5.64956C7.22301 5.65145 7.18381 5.66959 7.15543 5.70008C7.12705 5.73056 7.11176 5.77096 7.11285 5.8126C7.11285 5.83911 7.11285 5.86529 7.11285 5.89147V14.0883C7.11285 14.1294 7.11053 14.1708 7.11285 14.2119C7.11454 14.2458 7.12806 14.2781 7.15105 14.3032C7.17405 14.3282 7.20508 14.3445 7.23877 14.3491C7.26483 14.3522 7.29109 14.3532 7.31731 14.3521H11.2462C11.6419 14.3536 12.0308 14.2496 12.3729 14.0508C12.8617 13.7762 13.239 13.3391 13.4393 12.8154C13.5839 12.4504 13.6307 12.0539 13.5749 11.6652V11.6652ZM10.5556 11.9601H9.84677V8.04978H10.5476C10.5476 8.04978 10.545 8.04779 10.5476 8.04779V8.04978H10.5556V11.9601Z" fill="#1E1719"/>
</g>
<defs>
<clipPath id="clip0_2002_2489">
<rect width="16.6667" height="16.6438" fill="white" transform="translate(1.66675 1.67773)"/>
</clipPath>
</defs>
</svg>
