<svg width="18" height="20" viewBox="0 0 18 20" fill="none" xmlns="http://www.w3.org/2000/svg">
<path d="M16.5143 19.2858H2.94291C2.37459 19.2858 1.82953 19.0601 1.42768 18.6582C1.02582 18.2564 0.800049 17.7112 0.800049 17.1429C0.800049 16.5746 1.02582 16.0295 1.42768 15.6276C1.82953 15.2258 2.37459 15.0001 2.94291 15.0001H15.0858C15.4646 15.0001 15.828 14.8495 16.0959 14.5816C16.3638 14.3138 16.5143 13.9504 16.5143 13.5715V2.14293C16.5143 1.76404 16.3638 1.40068 16.0959 1.13277C15.828 0.864866 15.4646 0.714356 15.0858 0.714356H2.94291C2.38435 0.714157 1.84779 0.932061 1.44753 1.32165C1.04726 1.71124 0.814949 2.24171 0.800049 2.80007V17.0858" stroke="#404040" stroke-width="1.6" stroke-linecap="round" stroke-linejoin="round"/>
<path d="M15.0858 15V19.2857" stroke="#404040" stroke-width="1.6" stroke-linecap="round" stroke-linejoin="round"/>
<path d="M10.1593 7.14575H13.4665L9.95264 12.1066H13.6732" stroke="#404040" stroke-width="1.6" stroke-linecap="round" stroke-linejoin="round"/>
<path d="M3.67395 8.55093L5.19684 3.98227C5.27491 3.74806 5.49408 3.59009 5.74096 3.59009C5.98785 3.59009 6.20704 3.74806 6.28509 3.98227L7.80798 8.55093M4.22515 6.89732H7.25678" stroke="#404040" stroke-width="1.6" stroke-linecap="round" stroke-linejoin="round"/>
</svg>
