<svg width="16" height="20" viewBox="0 0 16 20" fill="none" xmlns="http://www.w3.org/2000/svg">
<path d="M13.6572 7.85742H2.22862C1.43965 7.85742 0.800049 8.49702 0.800049 9.28599V17.8574C0.800049 18.6464 1.43965 19.286 2.22862 19.286H13.6572C14.4462 19.286 15.0858 18.6464 15.0858 17.8574V9.28599C15.0858 8.49702 14.4462 7.85742 13.6572 7.85742Z" stroke="#404040" stroke-width="1.6" stroke-linecap="round" stroke-linejoin="round"/>
<path d="M12.9429 7.85721V5.71436C12.9429 4.38827 12.4162 3.1165 11.4784 2.17883C10.5407 1.24114 9.26896 0.714355 7.94287 0.714355C6.61679 0.714355 5.34501 1.24114 4.40734 2.17883C3.46966 3.1165 2.94287 4.38827 2.94287 5.71436V7.85721" stroke="#404040" stroke-width="1.6" stroke-linecap="round" stroke-linejoin="round"/>
<path d="M7.94292 14.286C8.33741 14.286 8.65721 13.9662 8.65721 13.5717C8.65721 13.1772 8.33741 12.8574 7.94292 12.8574C7.54844 12.8574 7.22864 13.1772 7.22864 13.5717C7.22864 13.9662 7.54844 14.286 7.94292 14.286Z" stroke="#404040" stroke-width="1.6" stroke-linecap="round" stroke-linejoin="round"/>
</svg>
