<svg width="80" height="20" viewBox="0 0 80 20" fill="none" xmlns="http://www.w3.org/2000/svg">
<path fill-rule="evenodd" clip-rule="evenodd" d="M12.6473 2.14453V5.19266L15.745 7.16016V11.1039L18.4216 12.788V16.5692L14.7478 18.72L12.9109 17.28V16.1027L14.7478 17.5873L17.4548 16.0025V13.3131L15.1881 11.9298L12.6368 13.4428V14.5155L11.6588 13.92V12.8642L14.7671 11.0311V7.69719L11.9256 5.90328L10.3174 6.94578L12.6473 8.48594V11.7769L10.1761 13.2872L12.596 14.8042V18.1255L9.36826 20L6.14054 18.1255V14.8042L9.26355 12.6753L11.6823 11.2039V9.01781L9.4027 7.51109L7.12322 9.01781V11.2073L9.13209 12.32L8.19661 12.9694L6.15822 11.7734V8.48594L9.34366 6.38047L11.6823 4.8625V2.67641L9.4027 1.16969L7.12322 2.67641V4.86609L9.05336 6.16L8.18739 6.8L6.84906 5.92L3.77572 7.69719V11.0311L7.08216 12.8642V13.76L6.14054 14.3555V13.4428L3.28707 11.8802V11.8972L0.96684 13.3131V16.0025L3.67378 17.5873L5.82564 16.1027V17.28L3.67378 18.72L0 16.5692V12.788L2.8341 11.0048V7.16016L6.15822 5.2V2.14453L9.40286 0L12.6473 2.14453ZM7.10046 15.3409V17.5472L9.36811 18.8641L11.6359 17.5472V15.3409L9.41254 13.8502L9.40347 13.8439L9.36811 13.8203L7.10046 15.3409Z" fill="white"/>
<path d="M5.82564 3.77906V4.96047L3.75219 3.58297L0.987444 5.41922V8.115L2.5192 9.05859V10.24L0 8.68969V4.89219L3.75204 2.4L5.82564 3.77906Z" fill="white"/>
<path d="M18.4216 4.89219V8.68969L16.0599 10.24V9.05859L17.4609 8.115V5.41922L14.7708 3.58297L12.9109 4.96047V3.77906L14.7709 2.4L18.4216 4.89219Z" fill="white"/>
<path d="M34.5044 14.1525C33.5294 15.2325 32.2204 16.0099 30.7536 16.3802C29.2868 16.7504 27.7327 16.6956 26.3006 16.2231C24.8684 15.7506 23.6271 14.8832 22.7437 13.7377C21.8604 12.5921 21.3774 11.2235 21.3599 9.81604C21.3423 8.40861 21.7911 7.03001 22.6457 5.86591C23.5003 4.70181 24.7198 3.80813 26.1397 3.30523C27.5597 2.80233 29.112 2.71437 30.5877 3.0532C32.0633 3.39202 33.3913 4.14135 34.3929 5.20027L32.1272 7.03703C31.5312 6.40686 30.7409 5.96092 29.8627 5.75929C28.9846 5.55765 28.0608 5.61 27.2157 5.90928C26.3707 6.20856 25.645 6.74039 25.1364 7.43315C24.6278 8.12592 24.3608 8.94633 24.3712 9.7839C24.3816 10.6215 24.669 11.436 25.1947 12.1177C25.7204 12.7994 26.4592 13.3156 27.3114 13.5968C28.1637 13.878 29.0886 13.9106 29.9615 13.6903C30.8344 13.4699 31.6134 13.0073 32.1936 12.3645L34.5044 14.1525Z" fill="white"/>
<path d="M65.4689 9.6491C65.4689 13.5006 62.1582 16.6228 58.0743 16.6228C53.9904 16.6228 50.6797 13.5006 50.6797 9.6491C50.6797 5.79764 53.9904 2.67542 58.0743 2.67542C62.1582 2.67542 65.4689 5.79764 65.4689 9.6491ZM53.8723 9.6491C53.8723 11.8377 55.7536 13.6119 58.0743 13.6119C60.395 13.6119 62.2762 11.8377 62.2762 9.6491C62.2762 7.46052 60.395 5.68632 58.0743 5.68632C55.7536 5.68632 53.8723 7.46052 53.8723 9.6491Z" fill="white"/>
<path d="M39.3477 8.28967H45.4023V3.20178H48.5156V16.5348H45.4023V10.9205H39.3477V16.5348H36.2344V3.20178H39.3477V8.28967Z" fill="white"/>
<path d="M76.7148 11.1842V6.27209C77.9253 6.75434 78.6172 6.75417 79.7412 6.1842V16.5348H77.3193V16.5328L70.5742 8.55237V16.6227H67.5469V3.11389H70.2275L76.7148 11.1842Z" fill="white"/>
<ellipse cx="78.098" cy="3.59633" rx="1.9027" ry="1.92982" fill="white"/>
</svg>
