<svg width="140" height="146" viewBox="0 0 140 146" fill="none" xmlns="http://www.w3.org/2000/svg">
<path fill-rule="evenodd" clip-rule="evenodd" d="M87.8392 10.9239V26.45L104.013 36.4719V56.5601L117.988 65.1382V84.3986L98.8064 95.354L89.2152 88.0191V82.0221L98.8064 89.5846L112.94 81.512V67.8131L101.105 60.7671L87.7839 68.4737V73.9375L82.678 70.9044V65.5265L98.9067 56.1892V39.2073L84.0708 30.0697L75.6742 35.3799L87.8392 43.225V59.988L74.9364 67.681L87.571 75.4083V92.3257L70.7184 101.874L53.8658 92.3257V75.4083L70.1717 64.5643L82.8007 57.0694V45.9342L70.8982 38.2594L58.9966 45.9342V57.087L69.4853 62.7545L64.601 66.0622L53.9581 59.9705V43.225L70.59 32.5004L82.8007 24.7683V13.6331L70.8982 5.95832L58.9966 13.6331V24.7866L69.0742 31.3774L64.5528 34.6373L57.5651 30.1549L41.5185 39.2073V56.1892L58.7822 65.5265V70.0894L53.8658 73.1225V68.4737L38.9672 60.514V60.6008L26.8528 67.8131V81.512L40.9863 89.5846L52.2216 82.0221V88.0191L40.9863 95.354L21.8047 84.3986V65.1382L36.6021 56.0555V36.4719L53.9581 26.4875V10.9239L70.899 0.000305176L87.8392 10.9239ZM58.8777 78.1422V89.3801L70.7176 96.0878L82.5583 89.3801V78.1422L70.9496 70.5486L70.9022 70.5168L70.7176 70.3966L58.8777 78.1422Z" fill="url(#paint0_linear_1258_46763)"/>
<path d="M52.2216 19.2496V25.2674L41.3957 18.2508L26.9603 27.6041V41.3355L34.958 46.1419V52.1596L21.8047 44.2628V24.9196L41.3949 12.2251L52.2216 19.2496Z" fill="url(#paint1_linear_1258_46763)"/>
<path d="M117.988 24.9196V44.2628L105.657 52.1596V46.1419L112.972 41.3355V27.6041L98.926 18.2508L89.2152 25.2674V19.2496L98.9268 12.2251L117.988 24.9196Z" fill="url(#paint2_linear_1258_46763)"/>
<path d="M31.3842 140.237C29.0565 142.757 25.9311 144.57 22.4291 145.434C18.9271 146.298 15.2165 146.17 11.7973 145.068C8.37804 143.966 5.41429 141.942 3.30521 139.27C1.19613 136.598 0.0430155 133.405 0.00117952 130.122C-0.0406565 126.839 1.03079 123.623 3.07122 120.907C5.11165 118.192 8.02305 116.107 11.4133 114.934C14.8036 113.761 18.5098 113.556 22.033 114.346C25.5561 115.136 28.7268 116.884 31.1181 119.355L25.7088 123.639C24.2857 122.169 22.3988 121.129 20.3021 120.659C18.2055 120.188 15.9999 120.31 13.9823 121.009C11.9647 121.707 10.2321 122.947 9.01786 124.563C7.80359 126.179 7.16596 128.093 7.19086 130.047C7.21576 132.001 7.90198 133.901 9.15711 135.491C10.4122 137.081 12.176 138.285 14.2108 138.941C16.2456 139.597 18.4538 139.673 20.5379 139.159C22.622 138.645 24.4819 137.566 25.8671 136.067L31.3842 140.237Z" fill="#0C0C16"/>
<path d="M105.31 129.732C105.31 138.717 97.4055 146 87.6549 146C77.9044 146 70 138.717 70 129.732C70 120.748 77.9044 113.465 87.6549 113.465C97.4055 113.465 105.31 120.748 105.31 129.732ZM77.6226 129.732C77.6226 134.838 82.1142 138.976 87.6549 138.976C93.1956 138.976 97.6873 134.838 97.6873 129.732C97.6873 124.627 93.1956 120.488 87.6549 120.488C82.1142 120.488 77.6226 124.627 77.6226 129.732Z" fill="#FF9500"/>
<path d="M42.9492 126.56H57.4033V114.692H64.8369V145.795H57.4033V132.699H42.9492V145.795H35.5156V114.692H42.9492V126.56Z" fill="#0C0C16"/>
<path d="M132.153 133.312V121.853C135.044 122.979 136.696 122.979 139.381 121.649V145.795H133.599V145.793L117.493 127.174V146H110.266V114.487H116.667L132.153 133.312Z" fill="#0C0C16"/>
<ellipse cx="135.457" cy="115.613" rx="4.54279" ry="4.50171" fill="#0C0C16"/>
<defs>
<linearGradient id="paint0_linear_1258_46763" x1="17.6943" y1="87.2041" x2="123.23" y2="21.1861" gradientUnits="userSpaceOnUse">
<stop stop-color="#FF4D00"/>
<stop offset="0.875777" stop-color="#FFC300"/>
</linearGradient>
<linearGradient id="paint1_linear_1258_46763" x1="17.6943" y1="87.2041" x2="123.23" y2="21.1861" gradientUnits="userSpaceOnUse">
<stop stop-color="#FF4D00"/>
<stop offset="0.875777" stop-color="#FFC300"/>
</linearGradient>
<linearGradient id="paint2_linear_1258_46763" x1="17.6943" y1="87.2041" x2="123.23" y2="21.1861" gradientUnits="userSpaceOnUse">
<stop stop-color="#FF4D00"/>
<stop offset="0.875777" stop-color="#FFC300"/>
</linearGradient>
</defs>
</svg>
