<svg width="20" height="20" viewBox="0 0 20 20" fill="none" xmlns="http://www.w3.org/2000/svg">
<g clip-path="url(#clip0_2002_5513)">
<path d="M9.92456 6.8916L7.80249 3.17871L9.7146 4.06348L9.92456 4.16113L10.1345 4.06348L12.0466 3.17773L9.92456 6.8916Z" fill="#FFB71B" stroke="#FFB71B"/>
<path d="M14.2496 6.58557L16.4817 5.64762V2.48438L12.603 4.15796L10.4441 8.24075C11.2747 8.33699 12.0371 8.74889 12.5753 9.39203C13.1135 10.0352 13.3866 10.8609 13.3386 11.6999C13.2906 12.5389 12.9253 13.3277 12.3174 13.9047C11.7095 14.4816 10.9051 14.8031 10.0691 14.8031C9.23305 14.8031 8.42868 14.4816 7.82079 13.9047C7.2129 13.3277 6.84754 12.5389 6.79959 11.6999C6.75164 10.8609 7.02468 10.0352 7.56284 9.39203C8.10099 8.74889 8.86346 8.33699 9.694 8.24075L7.53514 4.15796L3.6748 2.48438V5.64762L5.94344 6.58557C4.95952 7.4501 4.26144 8.59579 3.94236 9.86965C3.62328 11.1435 3.69838 12.4849 4.15771 13.7147C4.61704 14.9445 5.43869 16.0042 6.51294 16.7522C7.58719 17.5002 8.8629 17.901 10.1697 17.901C11.4765 17.901 12.7522 17.5002 13.8265 16.7522C14.9007 16.0042 15.7224 14.9445 16.1817 13.7147C16.641 12.4849 16.7162 11.1435 16.3971 9.86965C16.078 8.59579 15.3799 7.4501 14.396 6.58557H14.2496Z" fill="#FFB71B"/>
</g>
<defs>
<clipPath id="clip0_2002_5513">
<rect width="13.3333" height="16.4672" fill="white" transform="translate(3.33325 1.76562)"/>
</clipPath>
</defs>
</svg>
