<svg width="29" height="19" viewBox="0 0 29 19" fill="none" xmlns="http://www.w3.org/2000/svg">
<path d="M21.3722 12.346C20.7779 11.6967 20.3531 10.163 21.6299 9.76957C23.6704 9.14084 24.9799 11.6278 24.8349 12.0677C24.5361 12.9746 23.083 13.9743 23.186 12.9437C23.2891 11.9132 24.3339 10.9228 25.0617 10.8413C26.5354 10.6765 27.7645 11.8109 27.432 13.1602C27.2568 13.8713 25.8793 15.4201 25.5049 15.7778C24.1239 17.097 22.4543 17.1382 22.4852 15.7882C22.5162 14.4381 22.9593 14.1701 23.5467 14.5411C24.1342 14.9122 24.0827 15.4274 23.6395 15.6954C22.7987 16.2038 21.7226 16.1282 20.9394 15.6336C20.1561 15.1389 19.9912 13.6652 20.1149 13.4693" stroke="#404040" stroke-width="0.5625" stroke-linecap="round" stroke-linejoin="round"/>
<path d="M6.78403 12.346C7.37834 11.6967 7.8032 10.163 6.52639 9.76957C4.4859 9.14084 3.17639 11.6278 3.32133 12.0677C3.62014 12.9746 5.07327 13.9743 4.97021 12.9437C4.86715 11.9132 3.82238 10.9228 3.09455 10.8413C1.62082 10.6765 0.391786 11.8109 0.724207 13.1602C0.899405 13.8713 2.27692 15.4201 2.65139 15.7778C4.03237 17.097 5.70192 17.1382 5.67101 15.7882C5.64009 14.4381 5.19694 14.1701 4.6095 14.5411C4.02207 14.9122 4.07358 15.4274 4.51674 15.6954C5.35755 16.2038 6.43363 16.1282 7.21687 15.6336C8.00012 15.1389 8.16502 13.6652 8.04135 13.4693" stroke="#404040" stroke-width="0.5625" stroke-linecap="round" stroke-linejoin="round"/>
<circle cx="13.8966" cy="9.52838" r="9.26379" fill="#FFE69D"/>
<ellipse cx="11.1158" cy="11.3812" rx="0.926379" ry="0.926379" fill="#404040"/>
<ellipse cx="16.6744" cy="11.3812" rx="0.926379" ry="0.926379" fill="#404040"/>
<path d="M10.6543 14.1603C10.8859 14.8288 11.9049 16.1659 14.1282 16.1659C16.3515 16.1659 17.2161 14.8288 17.3705 14.1603" stroke="#404040" stroke-width="0.5625" stroke-linecap="round"/>
<path d="M8.03375 6.12094C8.86353 8.69309 12.8274 9.21387 14.3069 5.86861C15.4905 3.1924 13.3998 1.66243 12.7451 3.72939C12.2775 5.2058 13.9509 8.21971 18.5903 6.59556C20.6367 5.87915 22.6986 2.68339 21.0802 0.2813" stroke="#404040" stroke-width="0.5625" stroke-linecap="round" stroke-linejoin="round"/>
</svg>
