<svg width="20" height="20" viewBox="0 0 20 20" fill="none" xmlns="http://www.w3.org/2000/svg">
<g clip-path="url(#clip0_2002_5485)">
<mask id="path-1-inside-1_2002_5485" fill="white">
<path d="M12.8359 11.539C12.7932 11.2893 12.7205 11.0455 12.6194 10.813C12.3257 10.1225 11.822 9.54095 11.1791 9.15002C10.6713 8.85223 10.0919 8.69713 9.50254 8.70125C8.91319 8.70538 8.336 8.86857 7.83249 9.17343C7.36342 9.45324 6.98327 9.85918 6.73579 10.3445C6.65155 10.5104 6.58072 10.6827 6.52398 10.8598C6.37078 11.3197 6.31224 11.8056 6.35187 12.2885C6.3915 12.7714 6.52847 13.2414 6.75462 13.6704C6.90934 13.933 7.14554 14.1385 7.4277 14.256C7.56853 14.3143 7.7212 14.3388 7.87333 14.3274C8.02545 14.316 8.17273 14.2691 8.30318 14.1904C8.44672 14.0771 8.55391 13.9245 8.6116 13.7514C8.66929 13.5783 8.67498 13.3923 8.62796 13.216C8.51864 12.7682 8.53 12.2996 8.66091 11.8576C8.71287 11.7131 8.79647 11.5819 8.90566 11.4735C8.97349 11.4084 9.05136 11.3547 9.1363 11.3142C9.31366 11.2255 9.51401 11.1928 9.71054 11.2205C9.88107 11.2572 10.0404 11.3336 10.1754 11.4436C10.3105 11.5535 10.4173 11.6938 10.4872 11.8529C10.6179 12.1647 10.6866 12.4988 10.6896 12.8366C10.692 14.3622 10.4651 15.8795 10.0165 17.3383C9.97413 17.4882 9.93177 17.6334 9.89411 17.7833C9.85646 17.9332 9.79997 18.0409 9.89411 18.1533C9.92697 18.1998 9.97279 18.2356 10.0259 18.2564C10.2518 18.3454 10.4307 18.2096 10.5813 18.0597C11.4363 17.1482 12.0664 16.0513 12.4217 14.8556C12.5696 14.4174 12.6875 13.9698 12.7747 13.5158C12.9092 12.8607 12.9331 12.1879 12.8453 11.525"/>
</mask>
<path d="M12.8359 11.539C12.7932 11.2893 12.7205 11.0455 12.6194 10.813C12.3257 10.1225 11.822 9.54095 11.1791 9.15002C10.6713 8.85223 10.0919 8.69713 9.50254 8.70125C8.91319 8.70538 8.336 8.86857 7.83249 9.17343C7.36342 9.45324 6.98327 9.85918 6.73579 10.3445C6.65155 10.5104 6.58072 10.6827 6.52398 10.8598C6.37078 11.3197 6.31224 11.8056 6.35187 12.2885C6.3915 12.7714 6.52847 13.2414 6.75462 13.6704C6.90934 13.933 7.14554 14.1385 7.4277 14.256C7.56853 14.3143 7.7212 14.3388 7.87333 14.3274C8.02545 14.316 8.17273 14.2691 8.30318 14.1904C8.44672 14.0771 8.55391 13.9245 8.6116 13.7514C8.66929 13.5783 8.67498 13.3923 8.62796 13.216C8.51864 12.7682 8.53 12.2996 8.66091 11.8576C8.71287 11.7131 8.79647 11.5819 8.90566 11.4735C8.97349 11.4084 9.05136 11.3547 9.1363 11.3142C9.31366 11.2255 9.51401 11.1928 9.71054 11.2205C9.88107 11.2572 10.0404 11.3336 10.1754 11.4436C10.3105 11.5535 10.4173 11.6938 10.4872 11.8529C10.6179 12.1647 10.6866 12.4988 10.6896 12.8366C10.692 14.3622 10.4651 15.8795 10.0165 17.3383C9.97413 17.4882 9.93177 17.6334 9.89411 17.7833C9.85646 17.9332 9.79997 18.0409 9.89411 18.1533C9.92697 18.1998 9.97279 18.2356 10.0259 18.2564C10.2518 18.3454 10.4307 18.2096 10.5813 18.0597C11.4363 17.1482 12.0664 16.0513 12.4217 14.8556C12.5696 14.4174 12.6875 13.9698 12.7747 13.5158C12.9092 12.8607 12.9331 12.1879 12.8453 11.525" fill="#008375"/>
<path d="M12.6194 10.813L11.6992 11.2044L11.7023 11.2117L12.6194 10.813ZM11.1791 9.15002L11.6987 8.29559L11.6919 8.29145L11.685 8.28742L11.1791 9.15002ZM7.83249 9.17343L8.3448 10.0323L8.35044 10.0288L7.83249 9.17343ZM6.73579 10.3445L5.84492 9.89026L5.84417 9.89173L6.73579 10.3445ZM6.52398 10.8598L7.47278 11.1759L7.47629 11.1649L6.52398 10.8598ZM6.75462 13.6704L5.86998 14.1367L5.88103 14.1577L5.89306 14.1781L6.75462 13.6704ZM7.4277 14.256L7.04332 15.1791L7.04474 15.1797L7.4277 14.256ZM8.30318 14.1904L8.81974 15.0466L8.87355 15.0142L8.92287 14.9752L8.30318 14.1904ZM8.62796 13.216L7.65649 13.4532L7.65901 13.4635L7.66175 13.4738L8.62796 13.216ZM8.66091 11.8576L7.7199 11.5192L7.7102 11.5462L7.70207 11.5736L8.66091 11.8576ZM8.90566 11.4735L8.21359 10.7516L8.20731 10.7576L8.20113 10.7638L8.90566 11.4735ZM9.1363 11.3142L9.56639 12.217L9.57506 12.2128L9.58366 12.2085L9.1363 11.3142ZM9.71054 11.2205L9.92073 10.2428L9.88568 10.2353L9.85018 10.2303L9.71054 11.2205ZM10.4872 11.8529L11.4094 11.4663L11.4062 11.4585L11.4028 11.4507L10.4872 11.8529ZM10.6896 12.8366L11.6896 12.835L11.6895 12.8279L10.6896 12.8366ZM10.0165 17.3383L9.06067 17.0443L9.0573 17.0553L9.05418 17.0663L10.0165 17.3383ZM9.89411 18.1533L10.7104 17.5757L10.6869 17.5425L10.6608 17.5114L9.89411 18.1533ZM10.0259 18.2564L10.3924 17.326L10.3904 17.3252L10.0259 18.2564ZM10.5813 18.0597L11.2867 18.7685L11.2989 18.7563L11.3106 18.7438L10.5813 18.0597ZM12.4217 14.8556L11.4742 14.5357L11.4684 14.5531L11.4631 14.5707L12.4217 14.8556ZM12.7747 13.5158L11.7951 13.3147L11.7927 13.3272L12.7747 13.5158ZM12.8359 11.539L13.8216 11.3704C13.7653 11.0414 13.6696 10.7204 13.5365 10.4142L12.6194 10.813L11.7023 11.2117C11.7714 11.3706 11.8211 11.5371 11.8502 11.7076L12.8359 11.539ZM12.6194 10.813L13.5396 10.4215C13.1638 9.53805 12.5197 8.79484 11.6987 8.29559L11.1791 9.15002L10.6595 10.0044C11.1243 10.2871 11.4876 10.7069 11.6992 11.2044L12.6194 10.813ZM11.1791 9.15002L11.685 8.28742C11.0216 7.89834 10.2649 7.69589 9.49554 7.70128L9.50254 8.70125L9.50954 9.70123C9.9189 9.69836 10.3211 9.80612 10.6732 10.0126L11.1791 9.15002ZM9.50254 8.70125L9.49554 7.70128C8.7262 7.70666 7.97244 7.91967 7.31455 8.31802L7.83249 9.17343L8.35044 10.0288C8.69956 9.81746 9.10017 9.70409 9.50954 9.70123L9.50254 8.70125ZM7.83249 9.17343L7.3202 8.31463C6.68979 8.69068 6.17821 9.23665 5.84492 9.89026L6.73579 10.3445L7.62665 10.7988C7.78834 10.4817 8.03706 10.2158 8.34479 10.0322L7.83249 9.17343ZM6.73579 10.3445L5.84417 9.89173C5.7358 10.1051 5.64468 10.3268 5.57167 10.5547L6.52398 10.8598L7.47629 11.1649C7.51676 11.0386 7.56729 10.9157 7.62741 10.7973L6.73579 10.3445ZM6.52398 10.8598L5.57524 10.5437C5.37941 11.1316 5.30455 11.7528 5.35522 12.3703L6.35187 12.2885L7.34852 12.2067C7.31994 11.8583 7.36215 11.5078 7.47272 11.1759L6.52398 10.8598ZM6.35187 12.2885L5.35522 12.3703C5.40589 12.9877 5.58101 13.5885 5.86998 14.1367L6.75462 13.6704L7.63925 13.2041C7.47592 12.8943 7.37711 12.555 7.34852 12.2067L6.35187 12.2885ZM6.75462 13.6704L5.89306 14.1781C6.15801 14.6277 6.56194 14.9787 7.04332 15.1791L7.4277 14.256L7.81208 13.3328C7.72914 13.2983 7.66066 13.2383 7.61617 13.1628L6.75462 13.6704ZM7.4277 14.256L7.04474 15.1797C7.33035 15.2981 7.6398 15.3477 7.94803 15.3246L7.87333 14.3274L7.79863 13.3302C7.80261 13.3299 7.8067 13.3306 7.81066 13.3322L7.4277 14.256ZM7.87333 14.3274L7.94803 15.3246C8.25623 15.3016 8.55489 15.2064 8.81974 15.0466L8.30318 14.1904L7.78662 13.3341C7.79056 13.3318 7.79467 13.3305 7.79863 13.3302L7.87333 14.3274ZM8.30318 14.1904L8.92287 14.9752C9.21902 14.7414 9.44079 14.4261 9.56028 14.0676L8.6116 13.7514L7.66291 13.4352C7.66702 13.4229 7.67442 13.4127 7.6835 13.4055L8.30318 14.1904ZM8.6116 13.7514L9.56028 14.0676C9.67979 13.7091 9.69159 13.3235 9.59417 12.9583L8.62796 13.216L7.66175 13.4738C7.65836 13.4611 7.65878 13.4476 7.66291 13.4352L8.6116 13.7514ZM8.62796 13.216L9.59943 12.9789C9.53204 12.7028 9.53904 12.4141 9.61975 12.1415L8.66091 11.8576L7.70207 11.5736C7.52096 12.1852 7.50523 12.8336 7.65649 13.4532L8.62796 13.216ZM8.66091 11.8576L9.60192 12.1959C9.60352 12.1915 9.60624 12.1871 9.6102 12.1831L8.90566 11.4735L8.20113 10.7638C7.98671 10.9766 7.82222 11.2346 7.7199 11.5192L8.66091 11.8576ZM8.90566 11.4735L9.59774 12.1953C9.58834 12.2043 9.57773 12.2116 9.56639 12.217L9.1363 11.3142L8.70621 10.4114C8.52498 10.4977 8.35863 10.6126 8.21359 10.7516L8.90566 11.4735ZM9.1363 11.3142L9.58366 12.2085C9.57945 12.2106 9.57506 12.2113 9.57091 12.2107L9.71054 11.2205L9.85018 10.2303C9.45295 10.1743 9.04786 10.2403 8.68894 10.4198L9.1363 11.3142ZM9.71054 11.2205L9.50035 12.1982C9.51672 12.2017 9.53165 12.2089 9.54401 12.219L10.1754 11.4436L10.8068 10.6681C10.5492 10.4583 10.2454 10.3126 9.92073 10.2428L9.71054 11.2205ZM10.1754 11.4436L9.54401 12.219C9.55634 12.229 9.56565 12.2415 9.5716 12.255L10.4872 11.8529L11.4028 11.4507C11.269 11.1461 11.0646 10.878 10.8068 10.6681L10.1754 11.4436ZM10.4872 11.8529L9.56494 12.2395C9.6455 12.4317 9.6878 12.6374 9.68961 12.8453L10.6896 12.8366L11.6895 12.8279C11.6855 12.3601 11.5903 11.8977 11.4094 11.4663L10.4872 11.8529ZM10.6896 12.8366L9.68958 12.8382C9.69184 14.2635 9.47987 15.6812 9.06067 17.0443L10.0165 17.3383L10.9723 17.6322C11.4504 16.0777 11.6922 14.4608 11.6896 12.835L10.6896 12.8366ZM10.0165 17.3383L9.05418 17.0663C9.01492 17.2052 8.96654 17.3713 8.92424 17.5396L9.89411 17.7833L10.864 18.0269C10.897 17.8955 10.9333 17.7711 10.9788 17.6102L10.0165 17.3383ZM9.89411 17.7833L8.92424 17.5396C8.91822 17.5636 8.91955 17.5556 8.90125 17.6217C8.88956 17.6639 8.86452 17.7557 8.8516 17.865C8.83775 17.9822 8.8346 18.1415 8.88135 18.3211C8.92935 18.5055 9.0177 18.6643 9.1274 18.7953L9.89411 18.1533L10.6608 17.5114C10.7235 17.5861 10.7836 17.6894 10.8169 17.8173C10.8489 17.9404 10.8446 18.0423 10.8378 18.0998C10.8319 18.1493 10.8222 18.179 10.8287 18.1554C10.8324 18.1421 10.8339 18.1374 10.8415 18.1103C10.8475 18.0892 10.8557 18.06 10.864 18.0269L9.89411 17.7833ZM9.89411 18.1533L9.07781 18.731C9.22381 18.9373 9.42689 19.0958 9.66143 19.1876L10.0259 18.2564L10.3904 17.3252C10.5187 17.3754 10.6301 17.4623 10.7104 17.5757L9.89411 18.1533ZM10.0259 18.2564L9.65938 19.1868C10.5251 19.5279 11.1447 18.9098 11.2867 18.7685L10.5813 18.0597L9.87591 17.3509C9.85312 17.3735 9.84498 17.3798 9.84689 17.3783C9.84874 17.3769 9.87338 17.3575 9.91924 17.3367C9.96787 17.3147 10.0423 17.2903 10.1365 17.2856C10.2335 17.2807 10.3218 17.2982 10.3924 17.326L10.0259 18.2564ZM10.5813 18.0597L11.3106 18.7438C12.2719 17.7192 12.9806 16.4855 13.3803 15.1404L12.4217 14.8556L11.4631 14.5707C11.1522 15.617 10.6008 16.5773 9.85199 17.3755L10.5813 18.0597ZM12.4217 14.8556L13.3692 15.1754C13.5316 14.6943 13.6611 14.2029 13.7568 13.7044L12.7747 13.5158L11.7927 13.3272C11.714 13.7367 11.6076 14.1405 11.4742 14.5357L12.4217 14.8556ZM12.7747 13.5158L13.7543 13.7169C13.9112 12.9525 13.9391 12.1674 13.8367 11.3938L12.8453 11.525L11.854 11.6562C11.9271 12.2084 11.9072 12.769 11.7952 13.3148L12.7747 13.5158Z" fill="#008375" mask="url(#path-1-inside-1_2002_5485)"/>
<path d="M19.1618 4.59729C19.1601 4.54577 19.1478 4.49513 19.1258 4.44848C19.1037 4.40183 19.0724 4.36015 19.0336 4.32596C18.9949 4.29177 18.9495 4.26579 18.9003 4.24962C18.8512 4.23345 18.7992 4.22742 18.7476 4.23191C18.5307 4.26176 18.3206 4.3283 18.1263 4.42864C14.161 5.84097 9.90303 6.24042 5.74244 5.59037C5.04111 5.48731 4.33037 5.35146 3.62434 5.23904C3.18189 5.16877 2.74415 5.07041 2.30171 5.03762C1.90165 4.96122 1.48739 5.03999 1.14381 5.25778C0.967317 5.45094 0.857864 5.69543 0.831593 5.9552C0.805321 6.21497 0.863623 6.47627 0.997899 6.70056C1.29769 7.21155 1.73231 7.63112 2.25464 7.9138C2.73941 8.2557 3.31313 8.45091 3.90675 8.47593C5.47572 8.37288 7.04468 8.21673 8.61364 8.0075C11.273 7.66554 14.0548 7.34231 16.5542 6.31644C17.381 5.98917 18.16 5.55274 18.87 5.01887C18.997 4.92519 19.1806 4.76592 19.1806 4.58323" fill="#008375"/>
<path d="M8.00659 3.27121C8.00659 3.67498 8.16776 4.06221 8.45464 4.34772C8.74152 4.63322 9.13062 4.79362 9.53633 4.79362C9.94204 4.79362 10.3311 4.63322 10.618 4.34772C10.9049 4.06221 11.0661 3.67498 11.0661 3.27121C11.0658 3.14513 11.0386 3.02056 10.986 2.90583C10.8543 2.62945 10.7036 2.49361 10.7225 2.16102C10.7225 1.716 10.1623 1.69258 9.85169 1.69258C9.50632 1.68138 9.16308 1.75036 8.84912 1.89402C8.6053 2.01752 8.39896 2.20347 8.25135 2.43272C8.09658 2.66671 8.01171 2.9396 8.00659 3.21969V3.25715" fill="#D50037"/>
</g>
<defs>
<clipPath id="clip0_2002_5485">
<rect width="18.3333" height="16.5873" fill="white" transform="translate(0.833252 1.70703)"/>
</clipPath>
</defs>
</svg>
