<svg width="28" height="28" viewBox="0 0 28 28" fill="none" xmlns="http://www.w3.org/2000/svg">
<path d="M10 24.48L1 27L3.52 18L20 1.60004C20.1862 1.40955 20.4088 1.25819 20.6542 1.15486C20.8998 1.05152 21.1636 0.998291 21.43 0.998291C21.6964 0.998291 21.9602 1.05152 22.2058 1.15486C22.4512 1.25819 22.6738 1.40955 22.86 1.60004L26.4 5.16004C26.5874 5.34596 26.7362 5.56718 26.8378 5.81088C26.9394 6.0546 26.9916 6.31602 26.9916 6.58004C26.9916 6.84406 26.9394 7.10548 26.8378 7.3492C26.7362 7.59292 26.5874 7.81412 26.4 8.00004L10 24.48Z" stroke="#404040" stroke-width="2" stroke-linecap="round" stroke-linejoin="round"/>
</svg>
