<svg width="20" height="20" viewBox="0 0 20 20" fill="none" xmlns="http://www.w3.org/2000/svg">
<path d="M7.49696 18.5452C6.61904 19.1115 5.57288 19.3584 4.53438 19.2442C3.4959 19.1299 2.5284 18.6616 1.7946 17.9179L1.15308 17.2906C0.87183 17.0029 0.714355 16.6166 0.714355 16.2144C0.714355 15.8121 0.87183 15.4256 1.15308 15.1381L3.87596 12.4437C4.16123 12.1633 4.54518 12.0062 4.94516 12.0062C5.34511 12.0062 5.72908 12.1633 6.01434 12.4437C6.30201 12.7249 6.68836 12.8824 7.09067 12.8824C7.49298 12.8824 7.87931 12.7249 8.16698 12.4437L12.4438 8.16689C12.5864 8.02629 12.6997 7.85873 12.7771 7.67396C12.8544 7.48919 12.8942 7.29087 12.8942 7.09057C12.8942 6.89026 12.8544 6.69196 12.7771 6.50717C12.6997 6.3224 12.5864 6.15484 12.4438 6.01424C12.1634 5.72899 12.0063 5.34502 12.0063 4.94506C12.0063 4.54509 12.1634 4.16113 12.4438 3.87586L15.1524 1.16724C15.4401 0.885989 15.8264 0.728516 16.2286 0.728516C16.6311 0.728516 17.0174 0.885989 17.3051 1.16724L17.9324 1.80876C18.6759 2.54256 19.1442 3.51006 19.2585 4.54854C19.3728 5.58704 19.1259 6.6332 18.5595 7.51112C15.6085 11.8602 11.8537 15.6054 7.49696 18.5452Z" stroke="white" stroke-width="1.6" stroke-linecap="round" stroke-linejoin="round"/>
</svg>
