<svg width="20" height="20" viewBox="0 0 20 20" fill="none" xmlns="http://www.w3.org/2000/svg">
<g clip-path="url(#clip0_2001_8380)">
<path d="M2.91357 19.2119V15.6689H6.45665" stroke="white" stroke-width="1.6" stroke-linecap="round" stroke-linejoin="round"/>
<path d="M19.0555 8.30701C19.9371 12.9951 17.0682 17.6428 12.3842 18.8979C8.79923 19.8585 5.14137 18.5664 2.91357 15.8892" stroke="white" stroke-width="1.6" stroke-linecap="round" stroke-linejoin="round"/>
<path d="M0.944353 11.6929C0.0627768 7.00475 2.9317 2.35701 7.61569 1.10194C11.2004 0.141422 14.858 1.43333 17.0859 4.1101" stroke="white" stroke-width="1.6" stroke-linecap="round" stroke-linejoin="round"/>
<path d="M17.0855 0.788208V4.33128H13.5425" stroke="white" stroke-width="1.6" stroke-linecap="round" stroke-linejoin="round"/>
<path d="M5.84231 10.4766C5.34098 10.3894 5.34098 9.66967 5.84231 9.58245C7.65853 9.26648 9.10309 7.8831 9.4973 6.08224L9.52752 5.9442C9.63599 5.44872 10.3415 5.44564 10.4543 5.94014L10.491 6.10101C10.8998 7.89338 12.3447 9.26507 14.1559 9.58017C14.6597 9.66784 14.6597 10.3912 14.1559 10.4788C12.3447 10.7939 10.8998 12.1656 10.491 13.958L10.4543 14.1189C10.3415 14.6134 9.63599 14.6103 9.52752 14.1148L9.4973 13.9768C9.10309 12.1759 7.65853 10.7925 5.84231 10.4766Z" stroke="white" stroke-width="1.6" stroke-linecap="round" stroke-linejoin="round"/>
</g>
<defs>
<clipPath id="clip0_2001_8380">
<rect width="20" height="20" fill="white"/>
</clipPath>
</defs>
</svg>
