<svg width="20" height="20" viewBox="0 0 20 20" fill="none" xmlns="http://www.w3.org/2000/svg">
<g clip-path="url(#clip0_2002_3260)">
<g clip-path="url(#clip1_2002_3260)">
<path d="M8.90576 17.165L7.3999 18.1221L7.39307 18.126L7.38721 18.1299C7.06162 18.3505 6.68209 18.4777 6.28955 18.498C5.84588 18.4874 5.42215 18.3116 5.10205 18.0039C4.84992 17.7615 4.67796 17.4514 4.60205 17.1143L6.40479 16.0439L8.90576 17.165Z" fill="#72A3B6" stroke="#72A3B6"/>
<path fill-rule="evenodd" clip-rule="evenodd" d="M9.03288 12.6343L7.31964 11.8802C6.55319 11.5441 5.83182 11.2531 5.83182 10.4129C5.82049 10.2491 5.84466 10.0849 5.90267 9.93142C5.96067 9.77791 6.05115 9.63874 6.16791 9.52344L9.78704 11.1137L8.89763 11.6384C8.64761 11.7859 8.48776 11.9212 8.48776 12.1138C8.48776 12.3064 8.72138 12.495 9.04517 12.6343H9.03288Z" fill="#96CE8E"/>
<path fill-rule="evenodd" clip-rule="evenodd" d="M10.7131 4.72753L8.95482 5.79728C8.79907 5.89155 8.58593 6.03911 8.58593 6.27683C8.58593 6.51455 8.99579 6.74408 9.35238 6.91622L7.1596 5.94893C6.51611 5.66202 5.86442 5.34233 5.86442 4.55949C5.86002 4.26744 5.94591 3.98115 6.11034 3.73975L10.8648 0.837891C11.1976 1.02085 11.476 1.28862 11.6718 1.614C11.8676 1.93938 11.9738 2.31079 11.9796 2.6905C11.9825 3.1166 11.8652 3.53488 11.6412 3.89736C11.4172 4.25983 11.0955 4.55183 10.7131 4.73983V4.72753Z" fill="#72A3B6"/>
<path fill-rule="evenodd" clip-rule="evenodd" d="M14.4472 8.1537L14.0127 8.40371L10.3772 6.80114L14.5988 4.25586C14.9326 4.43985 15.2123 4.70811 15.41 5.03388C15.6078 5.35965 15.7167 5.73156 15.726 6.11255C15.7327 6.541 15.6156 6.96229 15.3888 7.32582C15.162 7.68935 14.835 7.97965 14.4472 8.16189V8.1537Z" fill="#96CE8E"/>
<path fill-rule="evenodd" clip-rule="evenodd" d="M11.3772 11.2441L13.529 12.1868C14.3487 12.5475 14.5823 12.9738 14.5823 13.5066C14.5752 13.6643 14.5351 13.8188 14.4645 13.96C14.3939 14.1012 14.2944 14.226 14.1724 14.3263L10.5615 12.7197L11.1681 12.3836C11.6846 12.0926 11.8608 11.9245 11.8608 11.736C11.8608 11.5474 11.7337 11.4122 11.3813 11.2482L11.3772 11.2441Z" fill="#72A3B6"/>
<path fill-rule="evenodd" clip-rule="evenodd" d="M15.2177 19.1676C14.2614 18.4781 13.2268 17.9044 12.1355 17.4585L6.66786 15.0279C5.29071 14.4131 4.37671 13.6016 4.37671 12.2245C4.37671 10.8473 5.0243 10.2407 5.86453 9.70788L6.16782 9.52344C6.05106 9.63874 5.96058 9.77791 5.90258 9.93142C5.84457 10.0849 5.8204 10.2491 5.83173 10.4129C5.83173 11.2531 6.5531 11.5441 7.31955 11.8802L13.6807 14.6837C14.7955 15.1632 15.8038 15.9829 15.8038 17.3683C15.8175 18.0171 15.6109 18.6514 15.2177 19.1676V19.1676Z" fill="#4C9847"/>
<path fill-rule="evenodd" clip-rule="evenodd" d="M14.562 14.0734L14.1521 14.3234C14.274 14.2231 14.3735 14.0983 14.4441 13.957C14.5147 13.8158 14.5549 13.6614 14.562 13.5036C14.562 12.9708 14.3119 12.5446 13.5086 12.1839L6.70481 9.19595C5.32766 8.57705 4.47105 7.7942 4.47105 6.42525C4.46654 5.8708 4.61535 5.32589 4.90105 4.85069C5.18675 4.37549 5.59821 3.98849 6.09001 3.73242C5.92558 3.97382 5.83969 4.26011 5.84409 4.55216C5.84409 5.335 6.49578 5.6547 7.13927 5.94161L13.7504 8.85986C14.9595 9.39678 15.935 10.2083 15.935 11.6674C15.949 12.1572 15.826 12.6412 15.5797 13.0648C15.3335 13.4884 14.9739 13.8349 14.5415 14.0652L14.562 14.0734Z" fill="#296085"/>
</g>
</g>
<defs>
<clipPath id="clip0_2002_3260">
<rect width="20" height="20" fill="white"/>
</clipPath>
<clipPath id="clip1_2002_3260">
<rect width="11.9025" height="18.3333" fill="white" transform="translate(4.04883 0.833984)"/>
</clipPath>
</defs>
</svg>
