<svg width="29" height="20" viewBox="0 0 29 20" fill="none" xmlns="http://www.w3.org/2000/svg">
<rect x="0.8" y="0.8" width="27.4" height="18.4" rx="4.2" stroke="#404040" stroke-width="1.6"/>
<path fill-rule="evenodd" clip-rule="evenodd" d="M16.9251 4.50117V6.63486L19.1111 8.01211V10.7727L21 11.9516V14.5985L18.4074 16.104L17.1111 15.096V14.2719L18.4074 15.3111L20.3177 14.2017V12.3192L18.7181 11.3509L16.9177 12.41V13.1608L16.2276 12.744V12.005L18.421 10.7218V8.38803L16.4158 7.1323L15.2809 7.86205L16.9251 8.94016V11.2438L15.1812 12.301L16.8889 13.363V15.6878L14.6111 17L12.3333 15.6878V13.363L14.5372 11.8727L16.2441 10.8427V9.31247L14.6354 8.25777L13.0268 9.31247V10.8451L14.4444 11.624L13.7843 12.0786L12.3458 11.2414V8.94016L14.5938 7.46633L16.2441 6.40375V4.87348L14.6354 3.81878L13.0268 4.87348V6.40627L14.3889 7.312L13.7778 7.76L12.8333 7.144L10.6645 8.38803V10.7218L12.9978 12.005V12.632L12.3333 13.0488V12.41L10.3197 11.3161V11.328L8.68229 12.3192V14.2017L10.5926 15.3111L12.1111 14.2719V15.096L10.5926 16.104L8 14.5985V11.9516L10 10.7034V8.01211L12.3458 6.64V4.50117L14.6355 3L16.9251 4.50117ZM13.0107 13.7387V15.283L14.611 16.2048L16.2114 15.283V13.7387L14.6424 12.6951L14.636 12.6907L14.611 12.6742L13.0107 13.7387Z" fill="#404040"/>
<path d="M12.1111 5.64534V6.47233L10.6479 5.50808L8.69683 6.79345V8.6805L9.77778 9.34102V10.168L8 9.08278V6.42453L10.6478 4.68L12.1111 5.64534Z" fill="#404040"/>
<path d="M21 6.42453V9.08278L19.3333 10.168V9.34102L20.322 8.6805V6.79345L18.4236 5.50808L17.1111 6.47233V5.64534L18.4237 4.68L21 6.42453Z" fill="#404040"/>
<path fill-rule="evenodd" clip-rule="evenodd" d="M16.9251 4.50117V6.63486L19.1111 8.01211V10.7727L21 11.9516V14.5985L18.4074 16.104L17.1111 15.096V14.2719L18.4074 15.3111L20.3177 14.2017V12.3192L18.7181 11.3509L16.9177 12.41V13.1608L16.2276 12.744V12.005L18.421 10.7218V8.38803L16.4158 7.1323L15.2809 7.86205L16.9251 8.94016V11.2438L15.1812 12.301L16.8889 13.363V15.6878L14.6111 17L12.3333 15.6878V13.363L14.5372 11.8727L16.2441 10.8427V9.31247L14.6354 8.25777L13.0268 9.31247V10.8451L14.4444 11.624L13.7843 12.0786L12.3458 11.2414V8.94016L14.5938 7.46633L16.2441 6.40375V4.87348L14.6354 3.81878L13.0268 4.87348V6.40627L14.3889 7.312L13.7778 7.76L12.8333 7.144L10.6645 8.38803V10.7218L12.9978 12.005V12.632L12.3333 13.0488V12.41L10.3197 11.3161V11.328L8.68229 12.3192V14.2017L10.5926 15.3111L12.1111 14.2719V15.096L10.5926 16.104L8 14.5985V11.9516L10 10.7034V8.01211L12.3458 6.64V4.50117L14.6355 3L16.9251 4.50117ZM13.0107 13.7387V15.283L14.611 16.2048L16.2114 15.283V13.7387L14.6424 12.6951L14.636 12.6907L14.611 12.6742L13.0107 13.7387Z" stroke="#404040" stroke-width="0.1"/>
<path d="M12.1111 5.64534V6.47233L10.6479 5.50808L8.69683 6.79345V8.6805L9.77778 9.34102V10.168L8 9.08278V6.42453L10.6478 4.68L12.1111 5.64534Z" stroke="#404040" stroke-width="0.1"/>
<path d="M21 6.42453V9.08278L19.3333 10.168V9.34102L20.322 8.6805V6.79345L18.4236 5.50808L17.1111 6.47233V5.64534L18.4237 4.68L21 6.42453Z" stroke="#404040" stroke-width="0.1"/>
</svg>
