<svg width="20" height="20" viewBox="0 0 20 20" fill="none" xmlns="http://www.w3.org/2000/svg">
<path d="M3.92864 13.2142C5.70384 13.2142 7.14293 11.7751 7.14293 9.99993C7.14293 8.22473 5.70384 6.78564 3.92864 6.78564C2.15344 6.78564 0.714355 8.22473 0.714355 9.99993C0.714355 11.7751 2.15344 13.2142 3.92864 13.2142Z" stroke="#404040" stroke-width="1.6" stroke-linecap="round" stroke-linejoin="round"/>
<path d="M16.0717 19.2856C17.8469 19.2856 19.286 17.8465 19.286 16.0713C19.286 14.2962 17.8469 12.8571 16.0717 12.8571C14.2966 12.8571 12.8574 14.2962 12.8574 16.0713C12.8574 17.8465 14.2966 19.2856 16.0717 19.2856Z" stroke="#404040" stroke-width="1.6" stroke-linecap="round" stroke-linejoin="round"/>
<path d="M16.0717 7.1428C17.8469 7.1428 19.286 5.70372 19.286 3.92852C19.286 2.15332 17.8469 0.714233 16.0717 0.714233C14.2966 0.714233 12.8574 2.15332 12.8574 3.92852C12.8574 5.70372 14.2966 7.1428 16.0717 7.1428Z" stroke="#404040" stroke-width="1.6" stroke-linecap="round" stroke-linejoin="round"/>
<path d="M6.80029 8.57134L13.2003 5.35706" stroke="#404040" stroke-width="1.6" stroke-linecap="round" stroke-linejoin="round"/>
<path d="M6.80029 11.4285L13.2003 14.6428" stroke="#404040" stroke-width="1.6" stroke-linecap="round" stroke-linejoin="round"/>
</svg>
