<svg width="20" height="20" viewBox="0 0 20 20" fill="none" xmlns="http://www.w3.org/2000/svg">
<g clip-path="url(#clip0_2002_2578)">
<path d="M9.97778 1.44824C10.9766 1.4451 11.9694 1.61651 12.9104 1.95703C13.9655 2.33887 14.9354 2.92489 15.7639 3.68164C16.5923 4.43831 17.263 5.35103 17.7385 6.36719C18.214 7.38343 18.4852 8.48362 18.5354 9.60449V9.60547C18.6134 11.2936 18.1888 12.9672 17.3157 14.4141C16.4424 15.861 15.1592 17.0166 13.6292 17.7344C12.0992 18.4521 10.3908 18.6997 8.71997 18.4463C7.04902 18.1929 5.49087 17.4497 4.24243 16.3105C2.994 15.1714 2.11128 13.6877 1.7063 12.0469C1.30136 10.4061 1.39203 8.68196 1.96704 7.09277C2.54208 5.50362 3.57567 4.12089 4.93677 3.11914C6.29785 2.11741 7.9253 1.54146 9.61353 1.46484L9.97778 1.44824Z" fill="white" stroke="white"/>
<path d="M9.58669 0.843639C7.77541 0.92552 6.02908 1.54271 4.56859 2.61715C3.10811 3.69159 1.99906 5.17501 1.38171 6.8798C0.764355 8.58459 0.666441 10.4342 1.10034 12.1946C1.53424 13.9551 2.48046 15.5473 3.81933 16.7699C5.15821 17.9926 6.82959 18.7907 8.6221 19.0634C10.4146 19.336 12.2477 19.071 13.8896 18.3018C15.5315 17.5326 16.9083 16.2937 17.8461 14.7419C18.7838 13.1901 19.2403 11.3951 19.1578 9.58385C19.0472 7.15539 17.9769 4.8702 16.1822 3.23048C14.3875 1.59076 12.0152 0.730671 9.58669 0.839238V0.843639ZM10.6594 9.73773C12.2905 11.2413 13.183 12.0503 13.183 12.0503C16.0539 14.442 15.0735 16.627 13.9744 17.3876C13.091 17.9767 12.0553 18.296 10.9936 18.3065C10.9568 18.312 10.9193 18.3101 10.8833 18.3009C10.8473 18.2917 10.8135 18.2753 10.784 18.2527C10.7545 18.2302 10.7298 18.2019 10.7114 18.1696C10.693 18.1373 10.6813 18.1016 10.677 18.0647C10.677 17.858 10.9716 17.8053 10.9716 17.8053C13.6842 17.2733 12.8884 15.4927 11.93 14.587C11.5299 14.2046 7.75335 10.9468 7.75335 10.9468C4.15702 7.86922 4.4428 5.42917 4.4428 5.42917C4.61426 2.45275 7.22137 1.71414 9.19539 1.8856C9.42401 1.90759 9.55151 2.04828 9.51194 2.23733C9.47237 2.42638 9.16461 2.46594 9.16461 2.46594C8.60077 2.4513 8.04293 2.58469 7.54671 2.85283C5.95958 3.92118 6.43 5.74132 8.54911 7.7637C8.8129 8.01869 9.09867 8.28689 9.38884 8.55947C9.38884 8.55947 9.81529 8.93317 10.6594 9.73773ZM9.42841 17.4316C9.42841 17.7261 8.73816 17.8492 7.9336 17.7701C6.73058 17.6845 5.58484 17.2232 4.65822 16.4512C3.76652 15.6483 3.12154 14.6084 2.79852 13.4527C2.49955 12.4152 2.35887 11.2061 2.86886 11.2985C3.01834 11.3293 3.28212 11.9975 3.5635 12.4811C3.7518 12.8436 4.01035 13.1649 4.3241 13.4264C4.42521 13.5011 4.76373 12.7317 5.27372 12.2965C5.56389 12.0547 5.88484 11.9711 5.9376 12.6922C5.99915 13.5715 5.84088 14.6266 6.09588 14.6266C6.35087 14.6266 6.88285 14.442 8.07429 14.3408C8.51394 14.3057 8.77772 14.3892 8.35126 14.9915C8.03958 15.4661 7.64137 15.8777 7.17741 16.205C8.193 17.1458 9.40642 17.0315 9.42841 17.4316ZM10.2286 8.19896C10.1474 7.82176 10.1355 7.43294 10.1934 7.05147C10.3136 6.27149 10.5507 5.51411 10.8968 4.80487C11.3365 3.76291 10.3077 3.15179 10.4572 2.7693C10.6858 2.25052 11.4068 2.90998 12.2158 2.95835C12.906 2.99791 13.3237 2.95835 13.8601 3.03309C14.5723 3.12981 15.4252 3.36722 15.8033 3.81567C16.1814 4.26411 15.6231 4.72134 14.9812 4.40919C14.5151 4.18058 13.926 4.32127 14.2689 4.80928C14.527 5.13304 14.9004 5.3442 15.3109 5.3984C16.476 5.70616 16.5024 6.82286 15.711 7.4032C14.8097 8.05827 13.904 7.79009 13.5391 6.49752C13.3545 5.85124 12.8972 5.52589 12.4312 5.70615C11.9652 5.8864 12.2422 6.73932 12.5983 7.5219C13.3017 9.32446 11.5475 9.28049 11.3453 9.24092C11.0807 9.18649 10.8364 9.05994 10.6393 8.87527C10.4422 8.6906 10.3001 8.455 10.2286 8.19456V8.19896Z" fill="#2758D9"/>
</g>
<defs>
<clipPath id="clip0_2002_2578">
<rect width="18.3333" height="18.3333" fill="white" transform="translate(0.833252 0.833984)"/>
</clipPath>
</defs>
</svg>
