<svg width="16" height="14" viewBox="0 0 16 14" fill="none" xmlns="http://www.w3.org/2000/svg">
<path d="M2.2002 10.2002V8.06683C2.2002 7.78393 2.31258 7.51262 2.51262 7.31257C2.71266 7.11254 2.98397 7.00015 3.26688 7.00015H11.8003C12.0832 7.00015 12.3546 7.11254 12.5546 7.31257C12.7546 7.51262 12.867 7.78393 12.867 8.06683V10.2002" stroke="white" stroke-width="1.2" stroke-linecap="round" stroke-linejoin="round"/>
<path d="M7.53369 3.79999V10.2001" stroke="white" stroke-width="1.2" stroke-linecap="round" stroke-linejoin="round"/>
<path d="M5.93359 1.66669V2.73337C5.93359 3.32247 6.41117 3.80005 7.00027 3.80005H8.06696C8.65606 3.80005 9.13364 3.32247 9.13364 2.73337V1.66669C9.13364 1.07758 8.65606 0.600006 8.06696 0.600006H7.00027C6.41117 0.600006 5.93359 1.07758 5.93359 1.66669Z" stroke="white" stroke-width="1.2" stroke-linecap="round" stroke-linejoin="round"/>
<path d="M5.93359 11.2668V12.3335C5.93359 12.9227 6.41117 13.4002 7.00027 13.4002H8.06696C8.65606 13.4002 9.13364 12.9227 9.13364 12.3335V11.2668C9.13364 10.6777 8.65606 10.2002 8.06696 10.2002H7.00027C6.41117 10.2002 5.93359 10.6777 5.93359 11.2668Z" stroke="white" stroke-width="1.2" stroke-linecap="round" stroke-linejoin="round"/>
<path d="M0.600098 11.2668V12.3335C0.600098 12.9227 1.07767 13.4002 1.66678 13.4002H2.73346C3.32257 13.4002 3.80014 12.9227 3.80014 12.3335V11.2668C3.80014 10.6777 3.32257 10.2002 2.73346 10.2002H1.66678C1.07767 10.2002 0.600098 10.6777 0.600098 11.2668Z" stroke="white" stroke-width="1.2" stroke-linecap="round" stroke-linejoin="round"/>
<path d="M11.2671 11.2668V12.3335C11.2671 12.9227 11.7446 13.4002 12.3338 13.4002H13.4005C13.9896 13.4002 14.4671 12.9227 14.4671 12.3335V11.2668C14.4671 10.6777 13.9896 10.2002 13.4005 10.2002H12.3338C11.7446 10.2002 11.2671 10.6777 11.2671 11.2668Z" stroke="white" stroke-width="1.2" stroke-linecap="round" stroke-linejoin="round"/>
</svg>
