<svg width="20" height="19" viewBox="0 0 20 19" fill="none" xmlns="http://www.w3.org/2000/svg">
<path d="M7.14284 7.94285C9.11528 7.94285 10.7143 6.34386 10.7143 4.37142C10.7143 2.39897 9.11528 0.799988 7.14284 0.799988C5.1704 0.799988 3.57141 2.39897 3.57141 4.37142C3.57141 6.34386 5.1704 7.94285 7.14284 7.94285Z" stroke="#404040" stroke-width="1.6" stroke-linecap="round" stroke-linejoin="round"/>
<path d="M0.714233 17.9428H7.1428H13.5714V17.1684C13.56 16.0796 13.2728 15.0113 12.7367 14.0636C12.2006 13.1157 11.4329 12.3193 10.5056 11.7486C9.57816 11.1779 8.52125 10.8515 7.43355 10.8C7.33658 10.7954 7.23963 10.793 7.1428 10.7928C7.04598 10.793 6.94903 10.7954 6.85206 10.8C5.76436 10.8515 4.70745 11.1779 3.78005 11.7486C2.85266 12.3193 2.08505 13.1157 1.5489 14.0636C1.01277 15.0113 0.725606 16.0796 0.714233 17.1684V17.9428Z" stroke="#404040" stroke-width="1.6" stroke-linecap="round" stroke-linejoin="round"/>
<path d="M12.8571 7.94285C14.8295 7.94285 16.4285 6.34386 16.4285 4.37142C16.4285 2.39897 14.8295 0.799988 12.8571 0.799988" stroke="#404040" stroke-width="1.6" stroke-linecap="round" stroke-linejoin="round"/>
<path d="M16.4285 17.943H19.2856V17.1684C19.2742 16.0796 18.9871 15.0113 18.4509 14.0636C17.9148 13.1157 17.1472 12.3193 16.2198 11.7486C15.6204 11.3797 14.9666 11.1129 14.2856 10.9564" stroke="#404040" stroke-width="1.6" stroke-linecap="round" stroke-linejoin="round"/>
</svg>
