<svg width="20" height="20" viewBox="0 0 20 20" fill="none" xmlns="http://www.w3.org/2000/svg">
<path d="M14.9114 11.4286C13.6411 11.4286 12.6113 10.3988 12.6113 9.12847C12.6113 7.85816 13.6411 6.82837 14.9114 6.82837C16.1817 6.82837 17.2115 7.85816 17.2115 9.12847C17.2115 10.3988 16.1817 11.4286 14.9114 11.4286Z" stroke="#404040" stroke-width="1.6" stroke-linecap="round" stroke-linejoin="round"/>
<path d="M11.5697 14.9787C11.8865 14.6439 12.2532 14.3571 12.6583 14.1295C13.3463 13.743 14.1222 13.54 14.9113 13.54C15.7005 13.54 16.4763 13.743 17.1643 14.1295C17.4619 14.2967 17.7388 14.4957 17.9903 14.7224" stroke="#404040" stroke-width="1.6" stroke-linecap="round" stroke-linejoin="round"/>
<path d="M7.46989 10.6905C5.89574 10.6905 4.61963 9.41439 4.61963 7.84025C4.61963 6.26609 5.89574 4.98999 7.46989 4.98999C9.04404 4.98999 10.3201 6.26609 10.3201 7.84025C10.3201 9.41439 9.04404 10.6905 7.46989 10.6905Z" stroke="#404040" stroke-width="1.6" stroke-linecap="round" stroke-linejoin="round"/>
<path d="M12.8093 18.8302C12.6671 17.1277 12.2429 16.0083 12.0103 15.6142C11.5152 14.7723 10.8192 14.0764 9.98942 13.5936C9.15964 13.1108 8.22388 12.8572 7.27212 12.8572C6.32037 12.8572 5.38462 13.1108 4.55482 13.5936C3.89224 13.9792 3.31499 14.5005 2.85715 15.1236L2.56689 15.558" stroke="#404040" stroke-width="1.6" stroke-linecap="round" stroke-linejoin="round"/>
<path d="M9.99995 19.2858C4.87159 19.2858 0.714233 15.1285 0.714233 10.0001C0.714233 4.87171 4.87159 0.714355 9.99995 0.714355C15.1284 0.714355 19.2857 4.87171 19.2857 10.0001C19.2857 15.1285 15.1284 19.2858 9.99995 19.2858Z" stroke="#404040" stroke-width="1.6" stroke-linecap="round" stroke-linejoin="round"/>
</svg>
