<svg width="16" height="16" viewBox="0 0 16 16" fill="none" xmlns="http://www.w3.org/2000/svg">
<path d="M5.58464 6.13842C7.11403 6.13842 8.35385 4.89861 8.35385 3.36922C8.35385 1.83983 7.11403 0.600006 5.58464 0.600006C4.05525 0.600006 2.81543 1.83983 2.81543 3.36922C2.81543 4.89861 4.05525 6.13842 5.58464 6.13842Z" stroke="#404040" stroke-width="1.2" stroke-linecap="round" stroke-linejoin="round"/>
<path d="M7.2462 13.8923H0.600098V13.2918C0.608916 12.4475 0.831578 11.6192 1.24728 10.8843C1.663 10.1494 2.25819 9.53188 2.97726 9.08936C3.69635 8.64685 4.51586 8.39381 5.35924 8.35389C6.20263 8.31396 7.04238 8.48845 7.80004 8.86104" stroke="#404040" stroke-width="1.2" stroke-linecap="round" stroke-linejoin="round"/>
<path d="M11.6768 8.35379V14.9999" stroke="#404040" stroke-width="1.2" stroke-linecap="round" stroke-linejoin="round"/>
<path d="M8.354 11.6768H15.0001" stroke="#404040" stroke-width="1.2" stroke-linecap="round" stroke-linejoin="round"/>
</svg>
