<svg width="20" height="20" viewBox="0 0 20 20" fill="none" xmlns="http://www.w3.org/2000/svg">
<g clip-path="url(#clip0_2002_3099)">
<path d="M9.9668 1.43164C12.2385 1.43276 14.4171 2.33605 16.0234 3.94238C17.6296 5.54876 18.5322 7.72738 18.5332 9.99902C18.5339 11.6943 18.0322 13.3518 17.0908 14.7617C16.1493 16.1718 14.8104 17.2707 13.2441 17.9199C11.6778 18.5691 9.95398 18.7398 8.29102 18.4092C6.62834 18.0786 5.10111 17.2621 3.90234 16.0635C2.70344 14.8646 1.88625 13.3368 1.55566 11.6738C1.22508 10.0109 1.39572 8.287 2.04492 6.7207C2.69413 5.15447 3.79308 3.81548 5.20312 2.87402C6.61319 1.93259 8.27133 1.43086 9.9668 1.43164Z" fill="white" stroke="white"/>
<path d="M9.96659 18.6358C11.6751 18.6358 13.3452 18.1292 14.7657 17.18C16.1863 16.2308 17.2935 14.8817 17.9473 13.3033C18.6011 11.7249 18.7721 9.98801 18.4388 8.31236C18.1055 6.63671 17.2828 5.09753 16.0747 3.88945C14.8667 2.68138 13.3275 1.85867 11.6518 1.52536C9.97618 1.19205 8.23931 1.36312 6.66089 2.01693C5.08246 2.67073 3.73336 3.77791 2.78418 5.19846C1.835 6.61901 1.32837 8.28912 1.32837 9.9976C1.32837 12.2886 2.23847 14.4858 3.85845 16.1057C5.47843 17.7257 7.6756 18.6358 9.96659 18.6358V18.6358Z" fill="#0083CA"/>
<mask id="mask0_2002_3099" style="mask-type:alpha" maskUnits="userSpaceOnUse" x="1" y="1" width="18" height="18">
<path d="M9.96659 18.6358C11.6751 18.6358 13.3452 18.1292 14.7657 17.18C16.1863 16.2308 17.2935 14.8817 17.9473 13.3033C18.6011 11.7249 18.7721 9.98801 18.4388 8.31236C18.1055 6.63671 17.2828 5.09753 16.0747 3.88945C14.8667 2.68138 13.3275 1.85867 11.6518 1.52536C9.97618 1.19205 8.23931 1.36312 6.66089 2.01693C5.08246 2.67073 3.73336 3.77791 2.78418 5.19846C1.835 6.61901 1.32837 8.28912 1.32837 9.9976C1.32837 12.2886 2.23847 14.4858 3.85845 16.1057C5.47843 17.7257 7.6756 18.6358 9.96659 18.6358V18.6358Z" fill="#0083CA"/>
</mask>
<g mask="url(#mask0_2002_3099)">
<path d="M9.99577 14.1715C13.7906 14.1715 17.0445 15.2284 18.4384 16.7264C18.9205 15.6242 19.1685 14.434 19.1666 13.2311C19.1666 10.8 18.2008 8.46839 16.4817 6.74931C14.7627 5.03022 12.4311 4.06445 9.99994 4.06445C7.56879 4.06445 5.23721 5.03022 3.51812 6.74931C1.79904 8.46839 0.833261 10.8 0.833261 13.2311C0.831531 14.4336 1.07802 15.6235 1.55728 16.7264C2.94705 15.2284 6.19679 14.1715 9.99577 14.1715Z" fill="#0083CA"/>
<path d="M9.99577 14.1806C13.7823 14.1806 17.0278 15.2292 18.4176 16.7188C18.8964 15.6246 19.1429 14.4429 19.1416 13.2485C19.1416 8.33439 15.043 4.33984 9.98744 4.33984C4.93184 4.33984 0.83326 8.33439 0.83326 13.2485C0.831609 14.4429 1.07817 15.6247 1.55728 16.7188C2.9637 15.2292 6.19679 14.1806 9.99577 14.1806Z" fill="#0085CB"/>
<path d="M9.99567 14.1882C13.7697 14.1882 17.0069 15.2326 18.3925 16.7056C18.8707 15.6215 19.1173 14.4494 19.1166 13.2645C19.1166 8.38781 15.0263 4.41406 9.99567 4.41406C4.96503 4.41406 0.874765 8.39197 0.874765 13.2645C0.873014 14.4495 1.11966 15.6218 1.59879 16.7056C2.98024 15.2326 6.21749 14.1882 9.99567 14.1882Z" fill="#0086CC"/>
<path d="M9.99168 14.2007C13.7574 14.2007 16.9905 15.2326 18.3719 16.6973C18.8479 15.6285 19.0945 14.4719 19.0959 13.3019C19.0959 8.46687 15.0182 4.50977 9.99585 4.50977C4.97353 4.50977 0.904075 8.46687 0.904075 13.3019C0.901376 14.4773 1.14667 15.6399 1.62393 16.714C2.99706 15.2326 6.22598 14.2007 9.99168 14.2007Z" fill="#0088CC"/>
<path d="M9.99162 14.2096C13.7365 14.2096 16.9696 15.2332 18.3469 16.6854C18.8233 15.6214 19.0686 14.4684 19.0667 13.3025C19.0667 8.50491 15.0015 4.56445 9.99162 4.56445C4.98179 4.56445 0.920663 8.50075 0.920663 13.3025C0.919003 14.4679 1.16286 15.6206 1.63635 16.6854C3.01364 15.2332 6.23425 14.2096 9.99162 14.2096Z" fill="#0089CD"/>
<path d="M9.99158 14.217C13.7365 14.217 16.9488 15.2323 18.3136 16.672C18.7865 15.6172 19.0305 14.4742 19.0293 13.3182C19.0293 8.55807 14.9723 4.64258 9.9791 4.64258C4.98591 4.64258 0.933109 8.56223 0.933109 13.3182C0.932114 14.4737 1.17455 15.6165 1.64463 16.672C3.03025 15.2323 6.24669 14.217 9.99158 14.217Z" fill="#008BCE"/>
<path d="M9.99172 14.2305C13.7366 14.2305 16.9323 15.2333 18.3137 16.6647C18.7861 15.6186 19.0301 14.4838 19.0294 13.3359C19.0294 8.61734 14.9849 4.72266 10.0042 4.72266C5.02349 4.72266 0.979005 8.61734 0.979005 13.3359C0.978522 14.4833 1.22103 15.6178 1.69054 16.6647C3.04703 15.2333 6.25515 14.2305 9.99172 14.2305Z" fill="#008DCF"/>
<path d="M9.98752 14.2382C13.7324 14.2382 16.9114 15.2368 18.2804 16.6515C18.7495 15.6148 18.9921 14.4898 18.9919 13.3519C18.9919 8.67492 14.9599 4.79688 9.98752 4.79688C5.01514 4.79688 0.987306 8.67492 0.987306 13.3519C0.986764 14.4899 1.22935 15.6149 1.69883 16.6515C3.06364 15.2368 6.26343 14.2382 9.98752 14.2382Z" fill="#008ED0"/>
<path d="M9.98747 14.2456C13.7032 14.2456 16.8947 15.2359 18.2554 16.6381C18.7267 15.6124 18.9695 14.4964 18.9669 13.3676C18.9669 8.72808 14.9432 4.875 9.98747 4.875C5.03173 4.875 1.01222 8.73224 1.01222 13.3676C1.00989 14.496 1.25116 15.6116 1.71958 16.6381C3.08023 15.2359 6.27171 14.2456 9.98747 14.2456Z" fill="#0090D0"/>
<path d="M9.98741 14.2593C13.6907 14.2593 16.8739 15.2371 18.2345 16.6311C18.702 15.613 18.9434 14.5058 18.9419 13.3855C18.9419 8.80841 14.9307 4.95117 9.98741 4.95117C5.04415 4.95117 1.03296 8.78761 1.03296 13.3855C1.03304 14.5056 1.2743 15.6125 1.74033 16.6311C3.10098 15.2371 6.27997 14.2593 9.98741 14.2593Z" fill="#0092D1"/>
<path d="M9.98735 14.267C13.6823 14.267 16.853 15.2365 18.2136 16.6179C18.6787 15.6094 18.92 14.5121 18.921 13.4015C18.921 8.82438 14.9181 5.02539 9.98735 5.02539C5.05657 5.02539 1.05371 8.84518 1.05371 13.4015C1.05379 14.5122 1.29513 15.6096 1.76107 16.6179C3.11756 15.2365 6.28823 14.267 9.98735 14.267Z" fill="#0093D2"/>
<path d="M9.98338 14.2749C13.67 14.2749 16.8365 15.2402 18.1889 16.605C18.6542 15.6069 18.8956 14.519 18.8962 13.4177C18.8962 8.89885 14.9017 5.0957 9.98338 5.0957C5.06509 5.0957 1.07886 8.89469 1.07886 13.4177C1.07759 14.5187 1.31763 15.6067 1.78207 16.605C3.13439 15.2402 6.29674 14.2749 9.98338 14.2749Z" fill="#0095D3"/>
<path d="M9.98334 14.2881C13.6575 14.2881 16.8157 15.241 18.168 16.5975C18.6316 15.6077 18.8717 14.528 18.8712 13.4351C18.8712 8.95787 14.8891 5.17969 9.98334 5.17969C5.07753 5.17969 1.09961 8.95787 1.09961 13.4351C1.09834 14.5281 1.33846 15.608 1.80282 16.5975C3.15098 15.241 6.30502 14.2881 9.98334 14.2881Z" fill="#0097D4"/>
<path d="M9.98328 14.2955C13.6491 14.2955 16.799 15.24 18.143 16.584C18.606 15.6059 18.8461 14.5372 18.8462 13.455C18.8462 9.01519 14.8766 5.25781 9.98328 5.25781C5.08996 5.25781 1.12036 9.0027 1.12036 13.455C1.12 14.5372 1.3602 15.606 1.82357 16.584C3.16757 15.24 6.31329 14.2955 9.98328 14.2955Z" fill="#0098D5"/>
<path d="M9.97906 14.3051C13.6366 14.3051 16.7781 15.2413 18.1221 16.5728C18.5817 15.604 18.8205 14.5452 18.8212 13.4729C18.8212 9.07055 14.8599 5.33398 9.97906 5.33398C5.09821 5.33398 1.14526 9.07888 1.14526 13.4729C1.145 14.5453 1.38382 15.6043 1.84432 16.5728C3.18416 15.2413 6.32154 14.3051 9.97906 14.3051Z" fill="#009AD5"/>
<path d="M9.97924 14.3125C13.6243 14.3125 16.7575 15.2445 18.0973 16.5636C18.5563 15.6034 18.7952 14.5528 18.7964 13.4886C18.7964 9.12788 14.8476 5.41211 9.97924 5.41211C5.11088 5.41211 1.16626 9.12788 1.16626 13.4886C1.16649 14.553 1.40536 15.6037 1.8653 16.5636C3.20098 15.2445 6.33005 14.3125 9.97924 14.3125Z" fill="#009CD6"/>
<path d="M9.97914 14.3262C13.6159 14.3262 16.7408 15.2458 18.0764 16.5524C18.5322 15.6016 18.7696 14.5609 18.7713 13.5065C18.7713 9.18741 14.8309 5.48828 9.97914 5.48828C5.12743 5.48828 1.20361 9.18741 1.20361 13.5065C1.20437 14.5615 1.44333 15.6026 1.90266 16.5524C3.21753 15.2458 6.33828 14.3262 9.97914 14.3262Z" fill="#009ED7"/>
<path d="M9.97915 14.3339C13.6034 14.3339 16.72 15.2451 18.0515 16.5392C18.5089 15.5993 18.7465 14.5677 18.7464 13.5225C18.7464 9.24082 14.8184 5.5625 9.97915 5.5625C5.13992 5.5625 1.20362 9.24082 1.20362 13.5225C1.20242 14.5679 1.4401 15.5997 1.89851 16.5392C3.23419 15.2451 6.3466 14.3339 9.97915 14.3339Z" fill="#00A0D8"/>
<path d="M9.97487 14.3418C13.5908 14.3418 16.7032 15.2447 18.0306 16.5304C18.4847 15.5985 18.7209 14.5754 18.7213 13.5387C18.7213 9.29865 14.8058 5.63281 9.9832 5.63281C5.16061 5.63281 1.24512 9.29032 1.24512 13.5387C1.2451 14.5755 1.48132 15.5986 1.93584 16.5304C3.25072 15.2447 6.35481 14.3418 9.97487 14.3418Z" fill="#00A1D9"/>
<path d="M9.97493 14.355C13.5825 14.355 16.6825 15.2496 18.0057 16.5187C18.4596 15.5971 18.6959 14.5835 18.6964 13.5561C18.6964 9.35766 14.7892 5.7168 9.9583 5.7168C5.12739 5.7168 1.22021 9.35766 1.22021 13.5561C1.22214 14.5833 1.45838 15.5966 1.91094 16.5187C3.28407 15.2496 6.36735 14.355 9.97493 14.355Z" fill="#00A3DA"/>
<path d="M9.97504 14.3631C13.5701 14.3631 16.6618 15.2494 17.9849 16.506C18.4343 15.6005 18.6705 14.6042 18.6757 13.5933C18.6757 9.43231 14.7768 5.81641 9.97504 5.81641C5.17325 5.81641 1.27856 9.43231 1.27856 13.5933C1.28225 14.6039 1.5171 15.6002 1.96513 16.506C3.28416 15.2494 6.37578 14.3631 9.97504 14.3631Z" fill="#00A5DB"/>
<path d="M9.97498 14.3703C13.5576 14.3703 16.6326 15.2483 17.9599 16.4966C18.4138 15.5927 18.6503 14.5953 18.6506 13.5839C18.6506 9.46449 14.7643 5.86523 9.97498 5.86523C5.18567 5.86523 1.29932 9.46449 1.29932 13.5839C1.29926 14.5949 1.53431 15.592 1.98588 16.4966C3.28411 15.2483 6.38404 14.3703 9.97498 14.3703Z" fill="#00A7DC"/>
<path d="M9.97076 14.3836C13.5492 14.3836 16.6283 15.249 17.9391 16.4848C18.3889 15.593 18.624 14.6084 18.6256 13.6096C18.6256 9.52767 14.7476 5.94922 9.97076 5.94922C5.19394 5.94922 1.32422 9.52767 1.32422 13.6096C1.32441 14.6081 1.5581 15.5927 2.00661 16.4848C3.31733 15.249 6.39231 14.3836 9.97076 14.3836Z" fill="#00A9DD"/>
<path d="M9.97071 14.3912C13.5367 14.3912 16.6075 15.2525 17.914 16.4717C18.3638 15.5903 18.5991 14.6151 18.6006 13.6256C18.6006 9.58109 14.7351 6.02344 9.97071 6.02344C5.20638 6.02344 1.34497 9.58109 1.34497 13.6256C1.34663 14.6146 1.58037 15.5894 2.02738 16.4717C3.33393 15.2525 6.40058 14.3912 9.97071 14.3912Z" fill="#00ABDE"/>
<path d="M9.9707 14.3995C13.5283 14.3995 16.5867 15.2525 17.8766 16.48C18.3226 15.6063 18.5564 14.6398 18.559 13.6589C18.559 9.65598 14.7059 6.11914 9.95405 6.11914C5.2022 6.11914 1.34912 9.65598 1.34912 13.6589C1.35563 14.6345 1.59077 15.595 2.03568 16.4634C3.35472 15.2525 6.40889 14.3995 9.9707 14.3995Z" fill="#00ADDE"/>
<path d="M9.96667 14.4087C13.516 14.4087 16.566 15.2409 17.8726 16.4517C18.3202 15.5891 18.5543 14.6316 18.555 13.6597C18.555 9.69844 14.7102 6.16992 9.97083 6.16992C5.23146 6.16992 1.39502 9.69012 1.39502 13.6597C1.39589 14.6311 1.6284 15.5882 2.07326 16.4517C3.37149 15.2534 6.41734 14.4087 9.96667 14.4087Z" fill="#00AFDF"/>
<path d="M9.96662 14.4219C13.5035 14.4219 16.5493 15.2541 17.8475 16.44C18.2918 15.5867 18.5245 14.6391 18.5258 13.6771C18.5258 9.7533 14.6935 6.25391 9.96662 6.25391C5.23973 6.25391 1.41162 9.7533 1.41162 13.6771C1.41245 14.6392 1.6451 15.5869 2.08986 16.44C3.38809 15.2541 6.42562 14.4219 9.96662 14.4219Z" fill="#00B1E0"/>
<path d="M9.96657 14.4293C13.4951 14.4293 16.5285 15.2615 17.8225 16.4308C18.2666 15.5864 18.4994 14.6469 18.5008 13.6928C18.5008 9.81062 14.681 6.33203 9.96657 6.33203C5.25217 6.33203 1.43237 9.81062 1.43237 13.6928C1.43327 14.6469 1.66603 15.5866 2.11062 16.4308C3.40469 15.2574 6.43389 14.4293 9.96657 14.4293Z" fill="#00B3E1"/>
<path d="M9.96675 14.437C13.4828 14.437 16.512 15.2692 17.8019 16.4176C18.2428 15.5826 18.4741 14.653 18.476 13.7088C18.476 9.86404 14.6645 6.40625 9.96675 6.40625C5.26899 6.40625 1.45752 9.8682 1.45752 13.7088C1.45936 14.653 1.69071 15.5826 2.13161 16.4176C3.42152 15.2567 6.44239 14.437 9.96675 14.437Z" fill="#0DB5E2"/>
<path d="M9.96253 14.4505C13.4702 14.4505 16.4911 15.2577 17.7769 16.4061C18.2174 15.5815 18.4489 14.6614 18.451 13.7265C18.451 9.92331 14.652 6.48633 9.96253 6.48633C5.27309 6.48633 1.47827 9.92331 1.47827 13.7265C1.48032 14.6614 1.71178 15.5815 2.15235 16.4061C3.4381 15.2577 6.45065 14.4505 9.96253 14.4505Z" fill="#19B7E3"/>
<path d="M9.96248 14.4581C13.4619 14.4581 16.4703 15.257 17.756 16.3971C18.1955 15.5826 18.427 14.6721 18.4301 13.7466C18.4301 10.0017 14.6394 6.56055 9.96248 6.56055C5.28553 6.56055 1.49902 9.98088 1.49902 13.7466C1.50158 14.6722 1.73315 15.5828 2.1731 16.3971C3.45469 15.257 6.45892 14.4581 9.96248 14.4581Z" fill="#21B9E4"/>
<path d="M9.96242 14.4675C13.4493 14.4675 16.4536 15.2622 17.7352 16.3857C18.1711 15.5804 18.4012 14.6799 18.4051 13.7642C18.4051 10.0193 14.6227 6.64062 9.96242 6.64062C5.30211 6.64062 1.52393 10.036 1.52393 13.7642C1.52579 14.6796 1.75453 15.5803 2.18969 16.3857C3.47127 15.2622 6.46718 14.4675 9.96242 14.4675Z" fill="#28BBE5"/>
<path d="M9.96239 14.4876C13.4451 14.4876 16.4452 15.2782 17.7226 16.3933C18.159 15.5942 18.3893 14.699 18.3926 13.7885C18.3926 10.0894 14.6185 6.71484 9.96239 6.71484C5.30624 6.71484 1.53638 10.0977 1.53638 13.7885C1.53769 14.6987 1.76655 15.5941 2.20214 16.3933C3.47956 15.2782 6.47547 14.4876 9.96239 14.4876Z" fill="#37BDE6"/>
<path d="M9.9626 14.5126C13.4412 14.5126 16.4371 15.2949 17.7104 16.4059C18.1474 15.6116 18.3777 14.7202 18.3803 13.8136C18.3803 10.1394 14.6104 6.77734 9.9626 6.77734C5.31477 6.77734 1.54492 10.1394 1.54492 13.8136C1.54935 14.7194 1.77808 15.61 2.21068 16.4059C3.48811 15.2949 6.47985 14.5126 9.9626 14.5126Z" fill="#43BFE6"/>
<path d="M9.96257 14.5506C13.437 14.5506 16.4246 15.3287 17.702 16.4314C18.1359 15.6435 18.3648 14.7593 18.3678 13.8599C18.3678 10.2065 14.6229 6.86523 9.96257 6.86523C5.30226 6.86523 1.55737 10.194 1.55737 13.8599C1.55981 14.7593 1.78878 15.6437 2.22313 16.4314C3.4964 15.3121 6.48398 14.5506 9.96257 14.5506Z" fill="#4DC0E7"/>
<path d="M9.96254 14.5495C13.4328 14.5495 16.4162 15.3234 17.6895 16.4178C18.1251 15.6365 18.3556 14.7575 18.3594 13.8629C18.3594 10.2345 14.6145 6.91406 9.96254 6.91406C5.31055 6.91406 1.56982 10.2429 1.56982 13.8629C1.57289 14.7565 1.80038 15.635 2.23142 16.4178C3.50468 15.3276 6.48811 14.5495 9.96254 14.5495Z" fill="#56C2E8"/>
<path d="M9.96251 14.5799C13.4286 14.5799 16.4079 15.3455 17.6812 16.4315C18.1129 15.6564 18.3419 14.7847 18.3469 13.8975C18.3469 10.2941 14.602 6.99023 9.96251 6.99023C5.323 6.99023 1.58228 10.2941 1.58228 13.8975C1.58342 14.7847 1.81115 15.657 2.24387 16.4315C3.51297 15.3455 6.49224 14.5799 9.96251 14.5799Z" fill="#5EC4E8"/>
<path d="M9.96249 14.6003C13.4203 14.6003 16.3996 15.3617 17.6687 16.4436C18.1022 15.6737 18.3313 14.8056 18.3344 13.922C18.3344 10.3436 14.5895 7.06055 9.96249 7.06055C5.33547 7.06055 1.59058 10.3436 1.59058 13.922C1.59421 14.805 1.82184 15.6726 2.25217 16.4436C3.52544 15.3825 6.49638 14.6003 9.96249 14.6003Z" fill="#65C6E9"/>
<path d="M9.96241 14.6201C13.416 14.6201 16.3911 15.3774 17.6602 16.451C18.089 15.6884 18.3167 14.8292 18.3219 13.9544C18.3219 10.4009 14.577 7.13867 9.96241 7.13867C5.34787 7.13867 1.61963 10.3884 1.61963 13.9461C1.62421 14.821 1.85192 15.6803 2.28123 16.4427C3.53368 15.3816 6.50463 14.6201 9.96241 14.6201Z" fill="#6DC7EA"/>
<path d="M9.96241 14.6418C13.4119 14.6418 16.3828 15.3949 17.6478 16.4601C18.0799 15.6989 18.3078 14.8389 18.3094 13.9635C18.3094 10.4309 14.5645 7.18945 9.96241 7.18945C5.36036 7.18945 1.61963 10.4433 1.61963 13.976C1.61977 14.851 1.84625 15.7111 2.27706 16.4726C3.542 15.3824 6.50879 14.6418 9.96241 14.6418Z" fill="#74C9EA"/>
<path d="M9.96256 14.6675C13.4079 14.6675 16.3747 15.4123 17.6396 16.4734C18.0672 15.7194 18.2949 14.8686 18.3012 14.0018C18.3012 10.494 14.5563 7.27344 9.97921 7.27344C5.40212 7.27344 1.65723 10.4982 1.65723 14.0018C1.6596 14.8685 1.88608 15.72 2.31467 16.4734C3.55049 15.4123 6.5131 14.6675 9.96256 14.6675Z" fill="#7ACBEB"/>
<path d="M9.9626 14.6879C13.4037 14.6879 16.3664 15.4286 17.6271 16.4813C18.0564 15.7355 18.2844 14.8909 18.2887 14.0305C18.2887 10.5477 14.5439 7.34375 9.96676 7.34375C5.38967 7.34375 1.64478 10.5477 1.64478 14.0305C1.64922 14.8904 1.87569 15.7346 2.30222 16.4813C3.55884 15.4286 6.51729 14.6879 9.9626 14.6879Z" fill="#81CDEC"/>
<path d="M9.96238 14.7074C13.3994 14.7074 16.3578 15.4438 17.6186 16.4883C18.0447 15.7474 18.2712 14.9087 18.2761 14.0541C18.2761 10.5963 14.552 7.39648 9.95407 7.39648C5.35617 7.39648 1.63208 10.5838 1.63208 14.0541C1.63444 14.909 1.86113 15.7484 2.28951 16.4883C3.56694 15.4438 6.52124 14.7074 9.96238 14.7074Z" fill="#87CFEC"/>
<path d="M9.96255 14.7331C13.3954 14.7331 16.3455 15.4613 17.6063 16.4973C18.0326 15.7626 18.2592 14.9292 18.2637 14.0798C18.2637 10.647 14.5438 7.48047 9.96255 7.48047C5.3813 7.48047 1.66138 10.647 1.66138 14.0798C1.66441 14.9289 1.88964 15.7623 2.31466 16.4973C3.57544 15.4613 6.52557 14.7331 9.96255 14.7331Z" fill="#8ED1ED"/>
<path d="M9.96252 14.7535C13.3912 14.7535 16.3372 15.4775 17.5979 16.5094C18.0231 15.7803 18.2497 14.9525 18.2554 14.1085C18.2554 10.6965 14.5396 7.55078 9.96252 7.55078C5.38543 7.55078 1.67383 10.7007 1.67383 14.1085C1.67744 14.9522 1.90273 15.7802 2.32711 16.5094C3.58373 15.4775 6.53386 14.7535 9.96252 14.7535Z" fill="#94D3EE"/>
<path d="M9.96244 14.7758C13.3869 14.7758 16.3288 15.4956 17.5854 16.5192C18.0182 15.7984 18.2523 14.9757 18.2636 14.135C18.2636 10.7479 14.552 7.62305 9.98325 7.62305C5.41448 7.62305 1.70288 10.7521 1.70288 14.135C1.70647 14.9735 1.93185 15.796 2.35615 16.5192C3.59196 15.4956 6.53794 14.7758 9.96244 14.7758Z" fill="#9AD5EF"/>
<path d="M9.96247 14.7962C13.3828 14.7962 16.3205 15.5119 17.5729 16.5271C17.9977 15.8115 18.2246 14.9959 18.2304 14.1637C18.2304 10.8016 14.5271 7.69336 9.96247 7.69336C5.39786 7.69336 1.69458 10.8016 1.69458 14.1637C1.69827 14.9956 1.92378 15.8115 2.34786 16.5271C3.60032 15.5119 6.54213 14.7962 9.96247 14.7962Z" fill="#A0D7F0"/>
<path d="M9.96244 14.8207C13.3786 14.8207 16.3121 15.5281 17.5646 16.535C17.9866 15.8245 18.212 15.0146 18.2179 14.1882C18.2179 10.8595 14.5187 7.76367 9.96244 7.76367C5.40615 7.76367 1.70703 10.8511 1.70703 14.1882C1.70939 15.0145 1.93357 15.825 2.35615 16.535C3.6086 15.5281 6.54626 14.8207 9.96244 14.8207Z" fill="#A6D9F0"/>
<path d="M9.96241 14.8411C13.3744 14.8411 16.3038 15.5443 17.5521 16.5471C17.9771 15.8423 18.2042 15.0359 18.2095 14.2128C18.2095 10.884 14.5145 7.83398 9.96241 7.83398C5.41028 7.83398 1.71948 10.9048 1.71948 14.2128C1.72224 15.0351 1.94647 15.8414 2.3686 16.5471C3.61689 15.5443 6.55039 14.8411 9.96241 14.8411Z" fill="#ACDCF1"/>
<path d="M9.96238 14.8615C13.3661 14.8615 16.2954 15.5605 17.5437 16.555C17.9648 15.8563 18.1905 15.0573 18.197 14.2415C18.197 10.9501 14.5062 7.9043 9.96238 7.9043C5.41857 7.9043 1.73193 10.9543 1.73193 14.2415C1.73553 15.0565 1.9583 15.8556 2.3769 16.555C3.62935 15.5605 6.55452 14.8615 9.96238 14.8615Z" fill="#B2DEF2"/>
<path d="M9.96259 14.8829C13.3621 14.8829 16.2873 15.5778 17.5314 16.5473C17.9525 15.8547 18.1783 15.061 18.1847 14.2504C18.1847 10.9882 14.4981 7.95898 9.96259 7.95898C5.42711 7.95898 1.74048 10.9882 1.74048 14.2504C1.74292 15.061 1.96742 15.8553 2.38959 16.5473C3.63789 15.5778 6.56306 14.8829 9.96259 14.8829Z" fill="#B8E0F3"/>
<path d="M9.96256 14.9081C13.3579 14.9081 16.279 15.5947 17.5231 16.5725C17.9416 15.8851 18.1659 15.097 18.1722 14.2923C18.1722 11.0509 14.4939 8.05078 9.96256 8.05078C5.43124 8.05078 1.75293 11.0592 1.75293 14.2923C1.7565 15.0974 1.98103 15.8862 2.40204 16.5725C3.64618 15.5947 6.56719 14.9081 9.96256 14.9081Z" fill="#BDE2F4"/>
<path d="M9.96253 14.9285C13.3537 14.9285 16.2706 15.6109 17.5106 16.5929C17.9294 15.9117 18.1539 15.1289 18.1597 14.3293C18.1597 11.1128 14.4855 8.12109 9.96253 8.12109C5.43953 8.12109 1.76538 11.117 1.76538 14.3293C1.76904 15.1286 1.99213 15.9116 2.41033 16.5929C3.65447 15.6109 6.57132 14.9285 9.96253 14.9285Z" fill="#C3E5F5"/>
<path d="M9.9625 14.9669C13.3495 14.9669 16.2581 15.6452 17.5022 16.6105C17.9192 15.9346 18.1436 15.1577 18.1513 14.3636C18.1513 11.1721 14.4813 8.20117 9.9625 8.20117C5.44366 8.20117 1.77783 11.1763 1.77783 14.3636C1.78007 15.1573 2.00185 15.935 2.41863 16.6105C3.66277 15.6285 6.57545 14.9669 9.9625 14.9669Z" fill="#C9E7F5"/>
<path d="M9.96248 14.9661C13.3454 14.9661 16.2498 15.636 17.4897 16.593C17.9063 15.9247 18.1309 15.1545 18.1388 14.3669C18.1388 11.1962 14.473 8.24609 9.96248 8.24609C5.45196 8.24609 1.78613 11.2212 1.78613 14.3752C1.78998 15.1628 2.01334 15.9337 2.43109 16.6014C3.67107 15.6443 6.57959 14.9661 9.96248 14.9661Z" fill="#CEE9F6"/>
<path d="M9.96245 14.9962C13.3412 14.9962 16.2414 15.662 17.4814 16.6149C17.8961 15.9505 18.1193 15.1844 18.1263 14.4012C18.1263 11.2597 14.4688 8.32617 9.96245 8.32617C5.45609 8.32617 1.79858 11.2597 1.79858 14.4012C1.80215 15.1913 2.02858 15.9644 2.45186 16.6315C3.70016 15.662 6.58372 14.9962 9.96245 14.9962Z" fill="#D4ECF7"/>
<path d="M9.96245 15.0166C13.337 15.0166 16.2331 15.6782 17.4522 16.6228C17.8677 15.9664 18.0911 15.2067 18.0972 14.4299C18.0972 11.3092 14.4438 8.39648 9.94582 8.39648C5.44778 8.39648 1.79443 11.3092 1.79443 14.4299C1.80088 15.2111 2.02885 15.9744 2.45186 16.6311C3.70016 15.6782 6.61285 15.0166 9.96245 15.0166Z" fill="#DAEEF8"/>
<path d="M9.96239 15.037C13.3328 15.037 16.2247 15.6944 17.4522 16.6307C17.8678 15.9802 18.0926 15.2263 18.1013 14.4545C18.1013 11.3587 14.4479 8.4668 9.95824 8.4668C5.46853 8.4668 1.81934 11.3795 1.81934 14.4545C1.82233 15.2248 2.04146 15.9788 2.4518 16.6307C3.7001 15.6944 6.61279 15.037 9.96239 15.037Z" fill="#DFF1F9"/>
<path d="M9.9626 15.0615C13.3288 15.0615 16.2041 15.7107 17.4524 16.6386C17.867 15.9941 18.0906 15.2453 18.0973 14.479C18.0973 11.4082 14.4523 8.53711 9.96676 8.53711C5.48121 8.53711 1.83618 11.4124 1.83618 14.479C1.83935 15.2453 2.0617 15.9946 2.47698 16.6386C3.70031 15.7107 6.613 15.0615 9.9626 15.0615Z" fill="#E5F3FA"/>
<path d="M9.96254 15.0819C13.3246 15.0819 16.204 15.7269 17.4523 16.6506C17.8656 16.0117 18.0893 15.2686 18.0973 14.5077C18.0973 11.4619 14.4564 8.60742 9.97918 8.60742C5.50196 8.60742 1.86108 11.4619 1.86108 14.5077C1.86617 15.2679 2.08694 16.011 2.49772 16.6506C3.70024 15.7269 6.61294 15.0819 9.96254 15.0819Z" fill="#EBF6FB"/>
<path d="M9.96254 15.1043C13.3205 15.1043 16.204 15.7451 17.4274 16.6605C17.8378 16.0266 18.0601 15.2893 18.0682 14.5342C18.0682 11.5133 14.4356 8.67969 9.96254 8.67969C5.48947 8.67969 1.85693 11.5133 1.85693 14.5508C1.86149 15.3059 2.08243 16.0438 2.49356 16.6771C3.72106 15.7451 6.61294 15.1043 9.96254 15.1043Z" fill="#F1F8FD"/>
<path d="M9.96251 15.1242C13.3163 15.1242 16.204 15.7608 17.4148 16.6679C17.8287 16.0388 18.0513 15.3031 18.0556 14.55C18.0556 11.5499 14.4273 8.72461 9.96251 8.72461C5.49776 8.72461 1.86938 11.5416 1.86938 14.55C1.87318 15.2981 2.09278 16.0291 2.50185 16.6555C3.7335 15.7608 6.61291 15.1242 9.96251 15.1242Z" fill="#F7FBFE"/>
<path d="M9.96249 15.1484C13.2913 15.1484 16.179 15.7767 17.4065 16.6797C17.8137 16.0613 18.036 15.3395 18.0473 14.5992C18.0473 11.6241 14.4231 8.83203 9.96249 8.83203C5.50191 8.83203 1.87769 11.6282 1.87769 14.5992C1.88539 15.3395 2.10643 16.0618 2.51432 16.6797C3.74181 15.7975 6.61289 15.1484 9.96249 15.1484Z" fill="white"/>
<path d="M9.96253 12.1787C7.26941 12.1539 4.59306 12.6046 2.05664 13.5102C2.7359 15.0358 3.8428 16.3317 5.24334 17.2412C6.64388 18.1507 8.27803 18.6348 9.94797 18.6348C11.6179 18.6348 13.2521 18.1507 14.6526 17.2412C16.0531 16.3317 17.16 15.0358 17.8393 13.5102C15.3124 12.6068 12.646 12.1561 9.96253 12.1787V12.1787Z" fill="#0083CA"/>
</g>
</g>
<defs>
<clipPath id="clip0_2002_3099">
<rect width="18.3333" height="18.1378" fill="white" transform="translate(0.833252 0.931641)"/>
</clipPath>
</defs>
</svg>
